<svg id="Layer_1" data-name="Layer 1" xmlns="http://www.w3.org/2000/svg" viewBox="0 0 1396.04 243.23"><defs><style>.cls-1{fill:#f9f9f9;}</style></defs><path class="cls-1" d="M363.31,140.6c-4.89-28.13-56.86-25.95-75.82-25.68-43.42.61-86.84,24.46-94.17,46.47-6.55,19.64,25.08,34.44,67.26,31.8,39.14-2.45,65.29-16,80.72-23.24H367l3.67,11c-26.91,20.79-63.78,27.95-63.78,27.95-18.37,4-36.38,6.91-55.2,6.91-65.39,0-104.83-22.63-92.13-60,11.24-33.06,69-62.32,137.12-62.32,18.2,0,94.78-5.51,100.89,47.08Z"/><path class="cls-1" d="M459.93,116.14l-67.27,95.92H357.34l81.8-117.18h64.33c56.74,1.7,81.73,19.48,64.08,44.5C557.18,154.3,533.3,167.51,492.78,172l32,40.76-41.58-.7-42.8-60.45c26.18,0,83.22,1.26,96.61-19.57,11-17.12-34.71-15.9-59.92-15.9H459.93Z"/><path class="cls-1" d="M663.57,216.39c-72.65,3.56-109.77-21.68-99.73-56.3,10-34.92,64.85-64,135.92-67.53s109.75,21.06,99.71,56C789.42,183.16,736.21,212.83,663.57,216.39Zm31.66-101.77c-52.74,3.75-90.57,25-96.92,43.81-6.39,17.93,8.28,38.44,70.13,34s91.18-28,97.57-46C772.35,127.68,748,110.88,695.23,114.62Z"/><path class="cls-1" d="M831.84,179.74l-46.22,32.32H759.09l-4.22-11.87L908.29,93.52h40.05l8.44,118.54H923l-.82-32.32Zm85.48-61.15-56.26,39.13H921Z"/><path class="cls-1" d="M1002,212.06H966.43l68.09-97.63H984l13.84-20h135.45l-13.84,20h-49.33Z"/><path class="cls-1" d="M1160,114.9l-18.22,25.76h89.34l-15.25,22h-90l-20.26,28.12h90.23l-15.26,21.32H1055.75l83-117h124.6l-14,19.87Z"/><path class="cls-1" d="M1258.76,190.14h89.67l-16.91,23.14H1206.29L1288.22,95h35.56Z"/><rect class="cls-1" x="18.43" y="45.21" width="48.92" height="48.92"/><rect class="cls-1" x="93.03" y="85.57" width="40.36" height="40.36"/></svg>