<svg id="Layer_1" data-name="Layer 1" xmlns="http://www.w3.org/2000/svg" xmlns:xlink="http://www.w3.org/1999/xlink" viewBox="0 0 48 48"><defs><style>.cls-1{fill:url(#linear-gradient);}.cls-2{fill:url(#linear-gradient-2);}.cls-3{fill:url(#linear-gradient-3);}.cls-4{fill:url(#linear-gradient-4);}.cls-5{fill:url(#linear-gradient-5);}.cls-6{fill:url(#linear-gradient-6);}.cls-7{fill:#fff;}</style><linearGradient id="linear-gradient" x1="16.27" y1="-25.9" x2="27.7" y2="-50.35" gradientTransform="matrix(1, 0, 0, -1, 0, -18)" gradientUnits="userSpaceOnUse"><stop offset="0" stop-color="#0077b5"/><stop offset="1" stop-color="#0066b2"/></linearGradient><linearGradient id="linear-gradient-2" x1="33.42" y1="-47.27" x2="-32.23" y2="-12.05" gradientTransform="matrix(1, 0, 0, -1, 0, -18)" gradientUnits="userSpaceOnUse"><stop offset="0" stop-color="#0066b2" stop-opacity="0"/><stop offset="1" stop-color="#07485e"/></linearGradient><linearGradient id="linear-gradient-3" x1="24" y1="-54.94" x2="24" y2="-63.61" xlink:href="#linear-gradient-2"/><linearGradient id="linear-gradient-4" x1="25.21" y1="-43.71" x2="8.32" y2="-26.81" xlink:href="#linear-gradient-2"/><linearGradient id="linear-gradient-5" x1="35.13" y1="-59.41" x2="1.11" y2="-43.46" xlink:href="#linear-gradient-2"/><linearGradient id="linear-gradient-6" x1="43.41" y1="-62.9" x2="19.71" y2="-39.2" xlink:href="#linear-gradient-2"/></defs><path class="cls-1" d="M38.37,46a136.66,136.66,0,0,1-29,0A8.23,8.23,0,0,1,2,38.65a136.66,136.66,0,0,1,0-29A8.23,8.23,0,0,1,9.35,2.32a136.66,136.66,0,0,1,29,0,8.23,8.23,0,0,1,7.31,7.31,136.66,136.66,0,0,1,0,29A8.23,8.23,0,0,1,38.37,46Z"/><path class="cls-2" d="M43.22,11.26a7.28,7.28,0,0,0-6.48-6.48A120.56,120.56,0,0,0,11,4.78,7.28,7.28,0,0,0,4.5,11.26,120.56,120.56,0,0,0,4.5,37,7.28,7.28,0,0,0,11,43.5a120.56,120.56,0,0,0,25.76,0A7.28,7.28,0,0,0,43.22,37,120.56,120.56,0,0,0,43.22,11.26Z"/><path class="cls-3" d="M3.89,36.46l.09.86a7.53,7.53,0,0,0,6.7,6.7,124.86,124.86,0,0,0,26.64,0,7.53,7.53,0,0,0,6.7-6.7l.09-.86Z"/><path class="cls-4" d="M45.19,40.69,16,11.53a3.56,3.56,0,1,0-5,5L40.1,45.59A8.24,8.24,0,0,0,45.19,40.69Z"/><path class="cls-5" d="M16.2,19.6h-6V38.14l8.49,8.5A137.57,137.57,0,0,0,38.37,46a8.1,8.1,0,0,0,3.17-1Z"/><path class="cls-6" d="M36.52,21.15a6,6,0,0,0-4.43-1.95,8.45,8.45,0,0,0-5.62,1.87L25.3,19.6H19.79V38.14l8.51,8.52q5-.16,10.07-.7a8.23,8.23,0,0,0,7.31-7.31c.27-2.58.48-5.15.6-7.73Z"/><path class="cls-7" d="M10.21,19.6h6V38.14h-6Z"/><path class="cls-7" d="M32.09,19.2c-4.38,0-6.31,2.43-6.79,3.18V19.6H19.79V38.14h6V28.83c0-2.7,1.24-4.79,3.59-4.79s2.73,2.61,2.73,5.81v8.29h6v-13A6,6,0,0,0,32.09,19.2Z"/><path class="cls-7" d="M16.76,13.7a3.56,3.56,0,1,1-3.56-3.56A3.56,3.56,0,0,1,16.76,13.7Z"/></svg>