<svg id="Layer_1" data-name="Layer 1" xmlns="http://www.w3.org/2000/svg" xmlns:xlink="http://www.w3.org/1999/xlink" viewBox="0 0 48 48"><defs><style>.cls-1{fill:url(#linear-gradient);}.cls-2{fill:url(#linear-gradient-2);}.cls-3{fill:url(#linear-gradient-3);}.cls-4{fill:url(#linear-gradient-4);}.cls-5{fill:#fff;}</style><linearGradient id="linear-gradient" x1="17.02" y1="-26.08" x2="28.09" y2="-49.75" gradientTransform="matrix(1, 0, 0, -1, 0, -18)" gradientUnits="userSpaceOnUse"><stop offset="0" stop-color="#3457a0"/><stop offset="1" stop-color="#3b5998"/></linearGradient><linearGradient id="linear-gradient-2" x1="32.67" y1="-47.5" x2="-5.56" y2="-21.23" gradientTransform="matrix(1, 0, 0, -1, 0, -18)" gradientUnits="userSpaceOnUse"><stop offset="0" stop-color="#3457a0" stop-opacity="0"/><stop offset="1" stop-color="#1f3f77"/></linearGradient><linearGradient id="linear-gradient-3" x1="24.37" y1="-56.48" x2="24.37" y2="-62.4" xlink:href="#linear-gradient-2"/><linearGradient id="linear-gradient-4" x1="52.71" y1="-56.05" x2="22.36" y2="-40.74" gradientTransform="matrix(1, 0, 0, -1, 0, -18)" gradientUnits="userSpaceOnUse"><stop offset="0" stop-color="#3457a0" stop-opacity="0"/><stop offset="0.33" stop-color="#2a4c8d" stop-opacity="0.33"/><stop offset="0.7" stop-color="#22427d" stop-opacity="0.71"/><stop offset="1" stop-color="#1f3f77"/></linearGradient></defs><path class="cls-1" d="M38.42,44.92a131.88,131.88,0,0,1-28.09,0,8,8,0,0,1-7.08-7.08,131.88,131.88,0,0,1,0-28.09,8,8,0,0,1,7.08-7.07,131.88,131.88,0,0,1,28.09,0,8,8,0,0,1,7.07,7.07,131.88,131.88,0,0,1,0,28.09A8,8,0,0,1,38.42,44.92Z"/><path class="cls-2" d="M43.11,11.34a7.07,7.07,0,0,0-6.28-6.28,116.63,116.63,0,0,0-24.92,0,7.07,7.07,0,0,0-6.28,6.28,117.94,117.94,0,0,0,0,24.92,7.07,7.07,0,0,0,6.28,6.28,116.63,116.63,0,0,0,24.92,0,7.07,7.07,0,0,0,6.28-6.28A116.63,116.63,0,0,0,43.11,11.34Z"/><path class="cls-3" d="M3.16,36.94l.09.9a8,8,0,0,0,7.08,7.08,131.88,131.88,0,0,0,28.09,0,8,8,0,0,0,7.07-7.08l.09-.9Z"/><path class="cls-4" d="M31.91,9.22A6.89,6.89,0,0,0,25,16.11v5.16H21.29v6.38L25,31V45.66a133.9,133.9,0,0,0,13.41-.74,8,8,0,0,0,7.07-7.08,132.69,132.69,0,0,0,.57-20.9L38.33,9.22Z"/><path class="cls-5" d="M25,45.66c2.55,0,5.09-.09,7.64-.25V27.65h5.07l.61-6.38H32.65V17.22a1.62,1.62,0,0,1,1.62-1.62h4.06V9.22H31.91A6.89,6.89,0,0,0,25,16.11v5.16H21.29v6.38H25Z"/></svg>