<svg id="Layer_1" data-name="Layer 1" xmlns="http://www.w3.org/2000/svg" xmlns:xlink="http://www.w3.org/1999/xlink" viewBox="0 0 48 48"><defs><style>.cls-1{fill:url(#linear-gradient);}.cls-2{fill:#fff;}</style><linearGradient id="linear-gradient" x1="-60.57" y1="87.83" x2="-59.66" y2="88.81" gradientTransform="translate(-3450.22 -2517.97) rotate(-90) scale(42.28 39.34)" gradientUnits="userSpaceOnUse"><stop offset="0" stop-color="#fd5"/><stop offset="0.5" stop-color="#ff543e"/><stop offset="1" stop-color="#c837ab"/></linearGradient></defs><path class="cls-1" d="M4.81,4.92C1.34,8.52,2.05,12.35,2.05,24c0,9.67-1.69,19.36,7.14,21.64,2.75.71,27.17.71,29.93,0,3.67-1,6.66-3.93,7.07-9.13.06-.73.06-24.27,0-25C45.75,6,42.35,2.76,37.86,2.11c-1-.15-1.24-.19-6.52-.2-18.73,0-22.83-.83-26.53,3Z"/><path class="cls-2" d="M24.14,7.69c-6.69,0-13-.6-15.46,5.63-1,2.57-.86,5.91-.86,10.68,0,4.2-.13,8.14.86,10.69,2.42,6.23,8.82,5.63,15.45,5.63,6.41,0,13,.67,15.46-5.63,1-2.6.86-5.88.86-10.69,0-6.37.35-10.48-2.74-13.57S30.34,7.69,24.13,7.69Zm-1.46,2.94c13.94,0,15.72-1.57,14.74,20-.35,7.62-6.15,6.78-13.28,6.78-13,0-13.37-.37-13.37-13.37,0-13.16,1-13.36,11.91-13.37Zm10.17,2.71a2,2,0,1,0,1.95,1.95A2,2,0,0,0,32.85,13.34Zm-8.71,2.29A8.38,8.38,0,1,0,32.51,24a8.38,8.38,0,0,0-8.37-8.37Zm0,2.94c7.19,0,7.2,10.87,0,10.87S16.94,18.57,24.14,18.57Z"/></svg>