<svg id="Layer_1" data-name="Layer 1" xmlns="http://www.w3.org/2000/svg" viewBox="0 0 250 250"><defs><style>.cls-1{fill:#e32686;}</style></defs><path class="cls-1" d="M52.42,135.13V119.5h3.36v5.94h5V119.5h3.35v15.63H60.76V128.3h-5v6.83Z"/><path class="cls-1" d="M66.78,135.13V119.5h6a5.73,5.73,0,0,1,3.66,1,4,4,0,0,1,1.47,3.33,4.44,4.44,0,0,1-.57,2.34,3.82,3.82,0,0,1-1.67,1.54,2.7,2.7,0,0,1,1.48,1.19,3.51,3.51,0,0,1,.43,1.25c.09.48.17,1.39.27,2.73a8.62,8.62,0,0,0,.17,1.34,3.4,3.4,0,0,0,.36.88H74.94a3,3,0,0,1-.22-.74c0-.22-.09-.94-.17-2.17a8.92,8.92,0,0,0-.27-1.77,1.84,1.84,0,0,0-2.22-1.49H70.14v6.14Zm3.36-8.67H72a2.72,2.72,0,0,0,2.1-.64,2.25,2.25,0,0,0,.49-1.56,2,2,0,0,0-.61-1.59,3.06,3.06,0,0,0-1.91-.5H70.14Z"/><path class="cls-1" d="M87.43,135.13H83.69L79.42,119.5H83l2.69,11.27,2.69-11.27h3.43Z"/><path class="cls-1" d="M96.85,119.5h3.42l5,15.63h-3.49l-1-3.49H96.27l-1,3.49H91.89Zm.18,9.6h3l-1.51-5.39Z"/><path class="cls-1" d="M109.61,135.13V122.36h-3.79V119.5h11v2.86H113v12.77Z"/><path class="cls-1" d="M117.87,130.56h3.4a3.55,3.55,0,0,0,.43,1.36,1.9,1.9,0,0,0,1.71.92,1.94,1.94,0,0,0,1.47-.54,1.86,1.86,0,0,0,.56-1.41,1.89,1.89,0,0,0-.77-1.53,2.65,2.65,0,0,0-.66-.42c-.22-.1-.7-.28-1.42-.54a9.71,9.71,0,0,1-2.78-1.36,4.3,4.3,0,0,1-1.71-3.53,4.17,4.17,0,0,1,1.19-3.06,5,5,0,0,1,3.68-1.31,5.47,5.47,0,0,1,3.63,1.16,5.06,5.06,0,0,1,1.67,3.33H125a2,2,0,0,0-.57-1.32,2.23,2.23,0,0,0-1.48-.48,1.82,1.82,0,0,0-1.28.42,1.54,1.54,0,0,0-.47,1.16,1.61,1.61,0,0,0,.61,1.31,8.84,8.84,0,0,0,2.44,1.07,9.67,9.67,0,0,1,3.07,1.51,4.1,4.1,0,0,1,1.58,3.33,4.37,4.37,0,0,1-1.47,3.46,5.78,5.78,0,0,1-4.06,1.38,5,5,0,0,1-4.53-2.28A6.44,6.44,0,0,1,117.87,130.56Z"/><path class="cls-1" d="M130.79,135.13V119.5h3.36v5.91l4.64-5.91h3.75l-5.33,6.44,5.76,9.19h-3.7l-4.12-6.6-1,1.15v5.45Z"/><path class="cls-1" d="M144.27,135.13V119.5h3.36v15.63Z"/><path class="cls-1" d="M157.73,135.13V122.36h-3.79V119.5h11v2.86h-3.81v12.77Z"/><path class="cls-1" d="M166.76,135.13V119.5h10v2.86h-6.62v3.34h6v2.73h-6v3.84h6.76v2.86Z"/><path class="cls-1" d="M179.18,135.13V119.5h3.35v12.72h6.14v2.91Z"/><path class="cls-1" d="M190.71,135.13V119.5h10v2.86h-6.62v3.34h6v2.73h-6v3.84h6.76v2.86Z"/><path class="cls-1" d="M203.13,135.13V119.5h3.36v5.91l4.65-5.91h3.74l-5.32,6.44,5.76,9.19h-3.76l-4.12-6.6-.95,1.15v5.45Z"/><path class="cls-1" d="M222.78,119.14a5.91,5.91,0,0,1,4.58,2,8.79,8.79,0,0,1,2,6.16,9.4,9.4,0,0,1-1.54,5.55,6.14,6.14,0,0,1-2.32,2,6.39,6.39,0,0,1-8-2.08,9.74,9.74,0,0,1-1.51-5.61,8.77,8.77,0,0,1,2-6A6.11,6.11,0,0,1,222.78,119.14Zm0,2.87a2.69,2.69,0,0,0-2.41,1.45,7.54,7.54,0,0,0-.91,3.77,7.94,7.94,0,0,0,.9,4,2.83,2.83,0,0,0,1.06,1,2.64,2.64,0,0,0,1.39.4,2.47,2.47,0,0,0,1.3-.36,2.67,2.67,0,0,0,1-1,7.47,7.47,0,0,0,1-4,7.37,7.37,0,0,0-.9-3.81,2.63,2.63,0,0,0-2.45-1.45Z"/><path class="cls-1" d="M231.52,135.13V119.5h4.54l2.79,10.7,2.71-10.7h4.51v15.63h-3.22V124.26l-2.66,10.87h-2.73l-2.72-10.73v10.73Z"/><path class="cls-1" d="M52.89,153.51V137.88h4a10.33,10.33,0,0,1,2.36.23,3.93,3.93,0,0,1,1.57.78,4.19,4.19,0,0,1,1.45,3.42A4.07,4.07,0,0,1,60.43,146a6.65,6.65,0,0,1-3.71.85H54.27v6.66Zm1.38-7.88h2.54a4.64,4.64,0,0,0,2.95-.73,3,3,0,0,0,1.06-2.54,3,3,0,0,0-1.3-2.73,3.27,3.27,0,0,0-1.06-.42,10.71,10.71,0,0,0-1.7-.1H54.27Z"/><path class="cls-1" d="M65.13,153.51V137.88h5.08a7.45,7.45,0,0,1,2,.24,3.8,3.8,0,0,1,1.46.77A3.85,3.85,0,0,1,75,142a4.08,4.08,0,0,1-1.24,3.13,3.54,3.54,0,0,1-1.52.83,2.81,2.81,0,0,1,1.69.92,6.44,6.44,0,0,1,.81,3.35,21.34,21.34,0,0,0,.22,2.26,2.9,2.9,0,0,0,.39,1H73.8a3.22,3.22,0,0,1-.35-1q-.09-.54-.18-2.16a7.24,7.24,0,0,0-.35-2.21,2.12,2.12,0,0,0-1-1.09,6,6,0,0,0-2.89-.52h-2.5v7Zm1.4-8.17h3.21a4.55,4.55,0,0,0,2.77-.63,3.18,3.18,0,0,0,1.09-2.65,2.75,2.75,0,0,0-.84-2.24,3.93,3.93,0,0,0-2.6-.72H66.53Z"/><path class="cls-1" d="M83.48,153.51H81.9L77,137.88h1.52l4.17,13.84,4.16-13.84h1.45Z"/><path class="cls-1" d="M94.27,137.88H95.8l5.2,15.63H99.47l-1.55-4.88H92.06l-1.58,4.92H89Zm-1.82,9.5h5.09L95,139.43Z"/><path class="cls-1" d="M108.45,153.51V137.88h1.4V152.3h7.22v1.21Z"/><path class="cls-1" d="M119.44,153.51V137.88h1.4v15.63Z"/><path class="cls-1" d="M135.69,153.51h-1.17v-2.74a7.5,7.5,0,0,1-1.25,1.76,4.4,4.4,0,0,1-3.3,1.36,5.48,5.48,0,0,1-4.77-2.64,11.21,11.21,0,0,1,.28-11.48,5.47,5.47,0,0,1,4.54-2.26,5.35,5.35,0,0,1,5.42,4.5H134a5.1,5.1,0,0,0-1-2,3.9,3.9,0,0,0-3-1.27,4,4,0,0,0-3.35,1.75,8.79,8.79,0,0,0-1.45,5.22,8.92,8.92,0,0,0,1.35,5.11,4,4,0,0,0,3.5,1.87,3.59,3.59,0,0,0,2.72-1.17,5.06,5.06,0,0,0,1.21-1.91,10.33,10.33,0,0,0,.46-2.82h-4.39v-1.22h5.67Z"/><path class="cls-1" d="M142.84,137.88h1.52l5.2,15.63H148l-1.55-4.88h-5.85L139,153.55h-1.46Zm-1.83,9.5h5.09l-2.52-7.95Z"/><path class="cls-1" d="M50.33,140.87l-7.58,12.2-13.36-.36c-.22,0-7-11.84-7-11.84L29.8,128h14Z"/><path class="cls-1" d="M35.12,108.63c-10.82.55-15.9,4.7-20,7.55h9.73l10-5Z"/><path class="cls-1" d="M5.13,131.51a28,28,0,0,1,7.55-12.79h11L27,126.63l-7.15,12.56-9.12,1.67Z"/><path class="cls-1" d="M7.27,156.26c-1.28-2-5.22-10.87-3.06-21.74l5.47,9.33.65,10.24Z"/><path class="cls-1" d="M26,172c-8.38-2.93-13.81-7.6-17.6-13.85.35-.18,3.12-2.06,3.12-2.06l8.28,5.22Z"/><path class="cls-1" d="M43.4,172.63c-3.42,1.25-9.46,1.35-14.28.27l-6.2-10.51,5.35-6.7h14.3l6.25,7.55Z"/><path class="cls-1" d="M64.61,156.49c-2.32,4.41-6.18,10.7-18.16,15.44L51,163.24l10.17-6.1Z"/><path class="cls-1" d="M57.13,116.38a33.29,33.29,0,0,0-19.86-7.75v2.18l10.17,5.73Z"/></svg>