<svg id="Layer_1" data-name="Layer 1" xmlns="http://www.w3.org/2000/svg" viewBox="0 0 250 250"><defs><style>.cls-1{fill:#cfd2d2;}.cls-2{fill:#231f20;}.cls-3{fill:#fff;}</style></defs><g id="Layer_2" data-name="Layer 2"><g id="Layer_2-2" data-name="Layer 2-2"><path class="cls-1" d="M210.39,93.09a66.59,66.59,0,0,1,5.78-26.77l6.43-14.69-15.1-4.47c-6.57-1.93-11.33-6.93-14.24-14.86L186.48,14,171.66,26.31a25.76,25.76,0,0,1-16.38,6.74,30.85,30.85,0,0,1-20.68-8.88L125,14.7l-9.55,9.53a30.66,30.66,0,0,1-20.7,8.88,25.67,25.67,0,0,1-16.4-6.76L63.51,14,56.86,32.32C54,40.23,49.17,45.23,42.64,47.23L27.52,51.66,34,66.35a67,67,0,0,1,5.66,26.72c0,25-12.19,30-12.19,56.35,0,35.24,26.12,60.56,54.86,68.05,14.26,3.58,20.88,4,31.51,7,1.39,1.48,11.2,12.16,11.2,12.16l11.17-12.19c10.63-2.9,17.42-3.37,31.53-7,28.8-7.49,54.84-32.81,54.84-68.05,0-26.34-12.19-31.31-12.19-56.35M166,210.79c-15.21,3.86-25.78,4.87-33.54,7.69-1,.89-7.46,8-7.46,8s-6.44-7.08-7.39-8c-7.75-2.9-18.3-3.83-33.56-7.69-32.12-8.19-49.74-35.36-49.74-61.27,0-23.51,12.34-30.74,12.34-56.43A84.22,84.22,0,0,0,37,56.14s23.25-2,29.61-30.57c0,0,14,14.51,28.16,14.51C113,40.08,125,24.43,125,24.43s12,15.63,30.28,15.63c14.17,0,28.14-14.52,28.14-14.52C189.68,54.07,213,56.11,213,56.11a84.3,84.3,0,0,0-9.49,37c0,25.69,12.19,32.92,12.19,56.44,0,25.93-17.59,53.07-49.73,61.26"/><path class="cls-1" d="M196.69,93.09a81.35,81.35,0,0,1,6.87-32.43s-15.85-3.22-23.25-23.43a40.26,40.26,0,0,1-25,9.9A45.08,45.08,0,0,1,125,34.23,45,45,0,0,1,94.75,47.1a40.24,40.24,0,0,1-24.91-9.87C62.47,57.52,46.59,60.66,46.59,60.66a81.5,81.5,0,0,1,6.7,32.43c0,27.18-12.19,35-12.19,56.44,0,29.93,23.26,49,44.59,54.47,17,4.32,28.08,4.81,35.54,8.44,0,0,2.68,2.5,3.75,3.66,1-1.16,3.74-3.66,3.74-3.66,7.46-3.63,18.58-4.12,35.57-8.44,21.42-5.49,44.56-24.54,44.56-54.47,0-21.4-12.19-29.26-12.19-56.44m-135.56,0a91.4,91.4,0,0,0-4.64-28.16,43.54,43.54,0,0,0,16.26-16.1,45.05,45.05,0,0,0,22,6.1A51.47,51.47,0,0,0,125,44.47a51.64,51.64,0,0,0,30.25,10.46,41.1,41.1,0,0,0,6.27-.5L50.33,138.64c3.2-12.68,10.84-23.17,10.84-45.55M76.38,192C62.12,184.63,49.6,170.54,49,151.15l130.6-98.71a42.79,42.79,0,0,0,14.06,12.67,91,91,0,0,0-4.76,28,86.94,86.94,0,0,0,.89,13Zm86.13,4.36c-13.47,3.45-29.93,5.22-34.88,8.1a20.82,20.82,0,0,0-2.5,2.29,22.33,22.33,0,0,0-2.47-2.29c-5-2.9-21.46-4.65-34.88-8.1l-1.54-.4,105.88-80.14c3.58,12.72,9.12,21,9.12,33.71,0,25.37-20.06,42-38.7,46.83"/><path class="cls-1" d="M97.43,151.15l-12.2-18.83L71.7,142.47a4.9,4.9,0,0,1,4.73,5.06v35.59L86,175.89v-25l10.88,16.8,10.1-7.63V115.85l-9.54,7.23Z"/><path class="cls-1" d="M136.17,110.11l-10.72,8.12V101.8l-14.55,11a4.89,4.89,0,0,1,4.77,5h0a.38.38,0,0,0,0,.15v35.58l9.83-7.43V130l10.74-8.17V138l9.29-7.11V86.7l-9.36,7.08Z"/><path class="cls-1" d="M163.5,106V73.08L149,84.08a4.86,4.86,0,0,1,4.77,5v0h0a.43.43,0,0,1,0,.16v35.42l27.1-20.5a55.85,55.85,0,0,1,0-11.27Z"/><path class="cls-2" d="M179.5,52.23,48.91,151.15c.64,19.43,13.1,33.56,27.32,40.94l113.6-86a85.74,85.74,0,0,1-1-13,91.4,91.4,0,0,1,4.64-28.16,42.78,42.78,0,0,1-14-12.65M106.87,160l-10.08,7.63L86,150.87v25L76.42,183V147.7a4.87,4.87,0,0,0-4.58-5.11h-.16l13.49-10.27,12.2,18.83V123.08l9.54-7.23Zm38.66-29.2-9.36,7.08v-16.1L125.44,130v16.16l-9.84,7.44V118.08A4.87,4.87,0,0,0,111,113h-.19l14.52-11v16.28l10.74-8.15V93.78l9.34-7.08Zm35.24-26.68-27.08,20.5V89.23a4.88,4.88,0,0,0-4.6-5.14h-.18l14.52-11V106l17.42-13.07a55.85,55.85,0,0,0,0,11.27"/><path class="cls-2" d="M155.28,54.94A51.72,51.72,0,0,1,125,44.49,51.44,51.44,0,0,1,94.75,54.94a44.67,44.67,0,0,1-22-6.1,43.65,43.65,0,0,1-16.33,16.1,90.41,90.41,0,0,1,4.75,28.14c0,22.37-7.58,32.87-10.73,45.52L161.59,54.42a41,41,0,0,1-6.26.49"/><path class="cls-2" d="M86.1,196l1.54.4c13.42,3.45,29.9,5.22,34.84,8.1a24.36,24.36,0,0,1,2.47,2.29,20.82,20.82,0,0,1,2.5-2.29c5-2.9,21.42-4.65,34.83-8.1,18.65-4.76,38.7-21.47,38.7-46.83,0-12.66-5.51-21-9.12-33.71Z"/><path class="cls-2" d="M183.42,25.59S169.49,40.1,155.28,40.1C137,40.1,125,24.45,125,24.45S113,40.08,94.75,40.08c-14.17,0-28.13-14.52-28.13-14.52C60.36,54.09,37,56.16,37,56.16a84.09,84.09,0,0,1,9.6,36.93c0,25.69-12.19,32.92-12.19,56.44,0,25.93,17.62,53.07,49.73,61.26,15.28,3.86,25.78,4.87,33.56,7.69,1,.89,7.44,8,7.44,8s6.45-7.06,7.46-8c7.75-2.9,18.29-3.83,33.53-7.69,32.15-8.19,49.74-35.36,49.74-61.26,0-23.52-12.2-30.75-12.2-56.44a84.15,84.15,0,0,1,9.49-36.86s-23.26-2.06-29.62-30.6m13.13,67.5c0,27.18,12.19,35,12.19,56.44,0,29.93-23.26,49-44.56,54.47-17,4.32-28.11,4.81-35.57,8.44,0,0-2.73,2.5-3.75,3.66-1-1.16-3.74-3.66-3.74-3.66-7.46-3.63-18.56-4.12-35.54-8.44-21.46-5.53-44.54-24.58-44.54-54.51,0-21.4,12.15-29.3,12.15-56.44a81.19,81.19,0,0,0-6.88-32.43S62.32,57.44,69.7,37.23a40.09,40.09,0,0,0,25,9.9A45,45,0,0,0,125,34.23a45.07,45.07,0,0,0,30.28,12.86,40.26,40.26,0,0,0,25-9.9c7.37,20.32,23.25,23.46,23.25,23.46a81.54,81.54,0,0,0-6.88,32.43"/><path class="cls-2" d="M226.61,49.75l-18.37-5.47c-5.61-1.65-9.72-6-12.25-13L187.86,8.94,169.74,24a22.71,22.71,0,0,1-14.51,6,28.13,28.13,0,0,1-18.62-8L125,10.38,113.36,22a28,28,0,0,1-18.59,8,22.86,22.86,0,0,1-14.51-6L62.17,8.9,54,31.23c-2.52,7-6.62,11.35-12.26,13L23.39,49.75l7.78,17.89a63.61,63.61,0,0,1,5.46,25.49c0,24.1-12.23,29.61-12.23,56.35,0,38.59,29.62,63.87,57.14,71,13.91,3.39,18.11,3.63,30.66,6.73l12.8,14,12.8-13.9c12.58-3.11,16.76-3.34,30.67-6.73,27.52-7.16,57.13-32.41,57.13-71,0-26.76-12.22-32.28-12.22-56.35a63.45,63.45,0,0,1,5.43-25.54ZM210.39,93.09c0,25,12.19,30.05,12.19,56.35,0,35.25-26.13,60.57-54.84,68.06-14.26,3.57-20.9,4-31.53,7C134.82,226,125,236.67,125,236.67S115.16,226,113.8,224.5c-10.63-2.89-17.25-3.36-31.51-7C53.46,210,27.43,184.69,27.43,149.44c0-26.33,12.19-31.3,12.19-56.35A66.93,66.93,0,0,0,34,66.38L27.54,51.69l15.1-4.46c6.53-2,11.35-7,14.22-14.88L63.51,14,78.35,26.34a25.82,25.82,0,0,0,16.4,6.73,30.7,30.7,0,0,0,20.7-8.84L125,14.77l9.6,9.49a30.78,30.78,0,0,0,20.73,8.89,25.9,25.9,0,0,0,16.37-6.8L186.48,14l6.69,18.32c2.9,7.92,7.66,12.91,14.25,14.86l15.1,4.47L216.1,66.35a66.4,66.4,0,0,0-5.8,26.77"/><path class="cls-3" d="M217,198.62a7.93,7.93,0,1,0,7.87,8v-.06a7.91,7.91,0,0,0-7.87-7.93h0m0,14.14a6.26,6.26,0,1,1,6.18-6.34v.16a6.17,6.17,0,0,1-6.1,6.26H217"/><path class="cls-3" d="M220.81,204.7a2.69,2.69,0,0,0-2.64-2.69h-3.86v9H216v-3.66h1.17l1.69,3.66h1.91L219,207.23a2.68,2.68,0,0,0,1.79-2.52m-2.64,1h-2.12v-2h2.12a1,1,0,0,1,0,2"/></g></g></svg>