<svg id="Layer_1" data-name="Layer 1" xmlns="http://www.w3.org/2000/svg" xmlns:xlink="http://www.w3.org/1999/xlink" viewBox="0 0 250 250"><defs><style>.cls-1{fill:#fff;}.cls-2{fill:#223566;}.cls-3{fill:#009246;}.cls-4{fill:#e3e2e2;}.cls-5{fill:#ce2d38;}.cls-6{fill:url(#linear-gradient);}.cls-7{fill:url(#linear-gradient-2);}.cls-8{fill:url(#linear-gradient-3);}.cls-9{fill:url(#linear-gradient-4);}.cls-10{fill:url(#linear-gradient-5);}.cls-11{fill:url(#linear-gradient-6);}.cls-12{fill:#1d8dcd;}</style><linearGradient id="linear-gradient" x1="114.81" y1="80.66" x2="134.04" y2="132.99" gradientUnits="userSpaceOnUse"><stop offset="0" stop-color="#155faa"/><stop offset="1" stop-color="#1b3f7b"/></linearGradient><linearGradient id="linear-gradient-2" x1="127.34" y1="104.74" x2="110.57" y2="99.73" xlink:href="#linear-gradient"/><linearGradient id="linear-gradient-3" x1="170.18" y1="123.32" x2="118.66" y2="156.48" xlink:href="#linear-gradient"/><linearGradient id="linear-gradient-4" x1="134.71" y1="126.21" x2="115.69" y2="159.14" xlink:href="#linear-gradient"/><linearGradient id="linear-gradient-5" x1="74.36" y1="123.83" x2="124.24" y2="155.98" xlink:href="#linear-gradient"/><linearGradient id="linear-gradient-6" x1="112.11" y1="145.69" x2="124.81" y2="133.51" xlink:href="#linear-gradient"/></defs><rect class="cls-1" x="48.18" y="10.37" width="149.49" height="223.33" rx="33.59"/><path class="cls-2" d="M68.83,212.16h0A11.6,11.6,0,0,1,65.24,210v-.48l2.39-2.86a.33.33,0,0,1,.48,0,9.57,9.57,0,0,0,5.74,2.15c2.39,0,3.58-1,3.58-2.63,0-1.2-.72-1.91-3.34-2.39h-1.2c-4.54-.72-6.93-2.87-6.93-6.69a6,6,0,0,1,2.15-4.78,8.32,8.32,0,0,1,5.74-1.91,11.05,11.05,0,0,1,7.4,2.39c.24,0,.24.24,0,.48l-1.91,2.86c-.24.24-.24.24-.48.24a8.8,8.8,0,0,0-5-1.91c-1.91,0-3.11,1.2-3.11,2.39,0,1.43,1.2,2.15,3.58,2.39l1,.24c4.78.72,7.17,2.87,7.17,6.69,0,4.06-3.35,6.69-8.84,6.69a16.5,16.5,0,0,1-4.78-.72"/><path class="cls-2" d="M85.56,191.14h0c0-.24,0-.24.47-.24h14.1c.24,0,.24,0,.24.24v3.34c0,.24,0,.48-.24.48H90.57c-.24,0-.24,0-.24.24v4.3a.24.24,0,0,0,.24.24h7.89c.24,0,.24,0,.24.24v3.34c0,.24,0,.48-.24.48H90.33v4.54c0,.24,0,.24.24.24h9.56c.24,0,.24,0,.24.24v3.58c0,.24,0,.24-.24.24H86c-.47,0-.47,0-.47-.24V191.14"/><path class="cls-2" d="M116.38,212.64h0c-.24,0-.48,0-.48-.24l-3.82-8.12h-2.87a.24.24,0,0,0-.24.24v7.88c0,.24,0,.24-.48.24h-4.06c-.24,0-.24,0-.24-.24V191.14c0-.24,0-.24.24-.24h8.84a8.52,8.52,0,0,1,5.5,1.91,6.62,6.62,0,0,1-1.91,11l4.54,8.6s0,.24-.48.24h-4.54M113,200.45h0a2.82,2.82,0,0,0,3.11-2.86c0-1.44-1.19-2.63-3.11-2.63h-3.82c-.24,0-.24,0-.24.24v5a.23.23,0,0,0,.24.23Z"/><path class="cls-2" d="M124.74,191.14h0c0-.24,0-.24.24-.24H129c.24,0,.24,0,.24.24V212.4c0,.24,0,.24-.24.24H125c-.24,0-.24,0-.24-.24V191.14"/><path class="cls-2" d="M133.82,191.14h0a.24.24,0,0,1,.24-.24H148.4a.24.24,0,0,1,.24.24v3.34a.84.84,0,0,1-.24.48h-9.56a.24.24,0,0,0-.24.24v4.3l.24.24h7.88c.24,0,.48,0,.48.24v3.34a.52.52,0,0,1-.48.48H138.6v4.54a.24.24,0,0,0,.24.24h9.56a.24.24,0,0,1,.24.24v3.58a.24.24,0,0,1-.24.24H134.06a.24.24,0,0,1-.24-.24V191.14"/><path class="cls-2" d="M166.32,191.14h0c0-.24,0-.24.48-.24h3.82c.48,0,.48,0,.48.24l7.64,21.26c0,.24,0,.24-.47.24H174.2c-.24,0-.47,0-.47-.24l-1.2-3.82h-7.88l-1.2,3.82c0,.24,0,.24-.48.24h-4.3v-.24l7.65-21.26m-.24,13.38h5l-2.39-7.65h-.24Z"/><polyline class="cls-3" points="66.44 173.93 103.48 173.93 103.48 178.47 66.44 178.47 66.44 173.93"/><polyline class="cls-4" points="103.48 173.93 140.27 173.93 140.27 178.47 103.48 178.47 103.48 173.93"/><polyline class="cls-5" points="140.27 173.93 177.31 173.93 177.31 178.47 140.27 178.47 140.27 173.93"/><polygon class="cls-6" points="121.88 69.97 121.88 129.81 143.38 129.81 121.88 69.97"/><polygon class="cls-7" points="100.36 129.81 121.88 129.81 121.88 69.98 100.36 129.81"/><polygon class="cls-8" points="176.82 129.81 121.88 163.47 143.38 129.81 176.82 129.81"/><polygon class="cls-9" points="121.88 129.81 143.38 129.81 121.88 163.47 121.88 129.81"/><polygon class="cls-10" points="66.9 129.81 121.88 163.47 100.36 129.81 66.9 129.81"/><polygon class="cls-11" points="121.88 163.47 121.88 129.81 100.36 129.81 121.88 163.47"/><path class="cls-12" d="M176.83,129.8h0L133.1,27.7H110.41L66.92,129.8h33.45L121.87,70l10,27.72h-10l-5.73,17.2H138l5.34,14.89h33.45"/></svg>