<svg id="Layer_1" data-name="Layer 1" xmlns="http://www.w3.org/2000/svg" xmlns:xlink="http://www.w3.org/1999/xlink" viewBox="0 0 250 250"><defs><style>.cls-1{fill:none;}.cls-2{fill:#f2f2f2;}.cls-3{clip-path:url(#clip-path);}.cls-4{fill:url(#linear-gradient);}.cls-5{fill:#292a5e;}.cls-6{clip-path:url(#clip-path-2);}.cls-7{fill:url(#linear-gradient-2);}.cls-8{clip-path:url(#clip-path-3);}.cls-9{fill:url(#linear-gradient-3);}.cls-10{clip-path:url(#clip-path-4);}.cls-11{fill:#989999;}.cls-12{fill:#9a9a9a;}.cls-13{fill:#9b9b9c;}.cls-14{fill:#9d9c9a;}.cls-15{fill:#9e9d9c;}.cls-16{fill:#9e9e9e;}.cls-17{fill:#9f9f9f;}.cls-18{fill:#a2a0a0;}.cls-19{fill:#a2a0a1;}.cls-20{fill:#a3a3a2;}.cls-21{fill:#a5a4a3;}.cls-22{fill:#a6a5a3;}.cls-23{fill:#a8a6a6;}.cls-24{fill:#a9a8a7;}.cls-25{fill:#a8a8a8;}.cls-26{fill:#a9aaab;}.cls-27{fill:#ababac;}.cls-28{fill:#acacac;}.cls-29{fill:#b1afae;}.cls-30{fill:#b1b1af;}.cls-31{fill:#b0b0b0;}.cls-32{fill:#b3b2b2;}.cls-33{fill:#b4b5b4;}.cls-34{fill:#b4b5b6;}.cls-35{fill:#b5b6b7;}.cls-36{fill:#b8b7b7;}.cls-37{fill:#b9b8b8;}.cls-38{fill:#bababa;}.cls-39{fill:#bbbcbb;}.cls-40{fill:#bebdbe;}.cls-41{fill:#bfbebf;}.cls-42{fill:#c0c0bf;}.cls-43{fill:#c3c1c1;}.cls-44{fill:#c5c3c4;}.cls-45{fill:#c6c4c5;}.cls-46{fill:#c8c7c7;}.cls-47{fill:#c9c8c7;}.cls-48{fill:#cbc9c9;}.cls-49{fill:#cccbca;}.cls-50{fill:#cfcccc;}.cls-51{clip-path:url(#clip-path-5);}.cls-52{fill:url(#radial-gradient);}.cls-53{clip-path:url(#clip-path-6);}.cls-54{fill:url(#linear-gradient-4);}.cls-55{clip-path:url(#clip-path-7);}.cls-56{fill:url(#linear-gradient-5);}.cls-57{clip-path:url(#clip-path-8);}.cls-58{fill:url(#linear-gradient-6);}.cls-59{clip-path:url(#clip-path-9);}.cls-60{fill:url(#linear-gradient-7);}.cls-61{clip-path:url(#clip-path-10);}.cls-62{fill:url(#linear-gradient-8);}.cls-63{clip-path:url(#clip-path-11);}.cls-64{fill:url(#linear-gradient-9);}.cls-65{clip-path:url(#clip-path-12);}.cls-66{fill:url(#linear-gradient-10);}.cls-67{clip-path:url(#clip-path-13);}.cls-68{fill:url(#linear-gradient-11);}.cls-69{clip-path:url(#clip-path-14);}.cls-70{fill:url(#linear-gradient-12);}.cls-71{clip-path:url(#clip-path-15);}.cls-72{fill:url(#linear-gradient-13);}.cls-73{clip-path:url(#clip-path-16);}.cls-74{fill:url(#linear-gradient-14);}.cls-75{clip-path:url(#clip-path-17);}.cls-76{fill:url(#linear-gradient-15);}.cls-77{clip-path:url(#clip-path-18);}.cls-78{fill:url(#linear-gradient-16);}.cls-79{clip-path:url(#clip-path-19);}.cls-80{fill:url(#linear-gradient-17);}.cls-81{clip-path:url(#clip-path-20);}.cls-82{fill:url(#linear-gradient-18);}.cls-83{clip-path:url(#clip-path-21);}.cls-84{fill:url(#linear-gradient-19);}.cls-85{clip-path:url(#clip-path-22);}.cls-86{fill:url(#linear-gradient-20);}.cls-87{clip-path:url(#clip-path-23);}.cls-88{fill:url(#linear-gradient-21);}.cls-89{clip-path:url(#clip-path-24);}.cls-90{fill:url(#linear-gradient-22);}.cls-91{clip-path:url(#clip-path-25);}.cls-92{fill:url(#linear-gradient-23);}.cls-93{clip-path:url(#clip-path-26);}.cls-94{fill:url(#linear-gradient-24);}.cls-95{clip-path:url(#clip-path-27);}.cls-96{fill:url(#linear-gradient-25);}.cls-97{clip-path:url(#clip-path-28);}.cls-98{fill:url(#linear-gradient-26);}.cls-99{clip-path:url(#clip-path-29);}.cls-100{fill:url(#radial-gradient-2);}.cls-101{clip-path:url(#clip-path-30);}.cls-102{fill:url(#radial-gradient-3);}.cls-103{clip-path:url(#clip-path-31);}.cls-104{fill:url(#linear-gradient-27);}.cls-105{clip-path:url(#clip-path-32);}.cls-106{fill:url(#linear-gradient-28);}.cls-107{clip-path:url(#clip-path-33);}.cls-108{fill:url(#linear-gradient-29);}.cls-109{clip-path:url(#clip-path-34);}.cls-110{fill:url(#linear-gradient-30);}.cls-111{clip-path:url(#clip-path-35);}.cls-112{fill:url(#linear-gradient-31);}.cls-113{clip-path:url(#clip-path-36);}.cls-114{fill:url(#linear-gradient-32);}.cls-115{clip-path:url(#clip-path-37);}.cls-116{fill:url(#linear-gradient-33);}.cls-117{clip-path:url(#clip-path-38);}.cls-118{fill:url(#linear-gradient-34);}.cls-119{clip-path:url(#clip-path-39);}.cls-120{fill:url(#linear-gradient-35);}.cls-121{clip-path:url(#clip-path-40);}.cls-122{fill:url(#linear-gradient-36);}.cls-123{clip-path:url(#clip-path-41);}.cls-124{fill:url(#linear-gradient-37);}.cls-125{clip-path:url(#clip-path-42);}.cls-126{fill:url(#linear-gradient-38);}.cls-127{clip-path:url(#clip-path-43);}.cls-128{fill:url(#linear-gradient-39);}.cls-129{clip-path:url(#clip-path-44);}.cls-130{fill:url(#linear-gradient-40);}.cls-131{clip-path:url(#clip-path-45);}.cls-132{fill:url(#linear-gradient-41);}.cls-133{clip-path:url(#clip-path-46);}.cls-134{fill:url(#linear-gradient-42);}.cls-135{clip-path:url(#clip-path-47);}.cls-136{fill:url(#linear-gradient-43);}.cls-137{clip-path:url(#clip-path-48);}.cls-138{fill:url(#linear-gradient-44);}.cls-139{clip-path:url(#clip-path-49);}.cls-140{fill:url(#linear-gradient-45);}.cls-141{clip-path:url(#clip-path-50);}.cls-142{clip-path:url(#clip-path-51);}.cls-143{fill:url(#linear-gradient-46);}.cls-144{clip-path:url(#clip-path-52);}.cls-145{fill:url(#linear-gradient-47);}.cls-146{clip-path:url(#clip-path-53);}.cls-147{clip-path:url(#clip-path-54);}.cls-148{fill:url(#radial-gradient-4);}.cls-149{fill:#2077bc;}</style><clipPath id="clip-path"><path class="cls-1" d="M66.22,124.7s-13.42,30.58-31.86,7.4a90.12,90.12,0,0,0,173.47-.26c-5.87,7.8-17.54,16.89-31.12-6.61,0,0-16.49,34.7-36.68,0,0,0-15.17,38.43-37.07-.53,0,0-16.38,36.56-36.78,0"/></clipPath><linearGradient id="linear-gradient" x1="-4424.19" y1="-4135.92" x2="-4424.1" y2="-4135.92" gradientTransform="translate(8233969.79 7697607.4) scale(1861.12)" gradientUnits="userSpaceOnUse"><stop offset="0" stop-color="#fff"/><stop offset="1" stop-color="#2eabe2"/></linearGradient><clipPath id="clip-path-2"><path class="cls-1" d="M117.87,38.09c-12.06.06-21.15,3.68-32,10.28-10.28,6.27-16.23,16.93-19.59,24s-3.67,16.49-4.06,19.83a52.61,52.61,0,0,0-.32,6s8-1.35,12.72-1.62A102.84,102.84,0,0,1,94.56,98c6.33,1.13,16.06,6.11,22.88,12.12a121.47,121.47,0,0,1,17.32,19.14c4.6,6.28,10.32,19.69,11.19,22.13S150.17,163.15,151,166a44.23,44.23,0,0,1,1.24,7s3.66-4.62,9.33-14.93,13.15-52.74,13.67-57.12a74.55,74.55,0,0,0,.41-16.15c-.57-6.61-3.12-13.75-6.45-20.53s-4.91-8.35-10-13.14a39.4,39.4,0,0,0-11-7.18c-5.73-3.07-18-5.86-30-5.86h-.36"/></clipPath><linearGradient id="linear-gradient-2" x1="-4423.33" y1="-4134.81" x2="-4423.24" y2="-4134.81" gradientTransform="translate(5410757.62 5057893.41) scale(1223.22)" gradientUnits="userSpaceOnUse"><stop offset="0" stop-color="#fff"/><stop offset="1" stop-color="#b5b4b4"/></linearGradient><clipPath id="clip-path-3"><path class="cls-1" d="M62.7,104.63l-.25.06c.24.57,1.55,3.53,2.47,5.75,1,2.48,4.26,8.6,5.87,11.85s9,16.48,12.42,22.35a87.42,87.42,0,0,0,10.63,13.68c1.18,1.18,6.33,7,6.33,7.06s3.89-7.11,6.33-10.63A144.65,144.65,0,0,1,116,142.82a33.31,33.31,0,0,1,5.76-4.83c1.42-1,5.93-3.43,7.56-4.27-3.2-4.22-9-11-11.24-13.3-9.68-9.9-19-14.36-26.77-15.74a127.43,127.43,0,0,0-14.88-.94c-2.83,0-12.41.56-13.66.86"/></clipPath><linearGradient id="linear-gradient-3" x1="-4430.32" y1="-4133.54" x2="-4430.23" y2="-4133.54" gradientTransform="matrix(-716.54, 0, 0, 716.54, -3174390.81, 2961980.76)" gradientUnits="userSpaceOnUse"><stop offset="0" stop-color="#cfcccc"/><stop offset="0.24" stop-color="#c3c1c1"/><stop offset="0.59" stop-color="#b8b7b7"/><stop offset="1" stop-color="#b5b4b4"/></linearGradient><clipPath id="clip-path-4"><path class="cls-1" d="M87.75,103.71c-1.31.1-1.89.94-2.6,1.78a29.29,29.29,0,0,0-3.89,7.25c-1,3-.44,7.56,0,12.06s4.65,13.64,6.81,17.32,6,5.36,8.33,5.36a10.44,10.44,0,0,0,7.14-3.57c2.11-2.28,4.73-9,5.67-12.45a58.83,58.83,0,0,0,1.38-9.33c.06-1.89,0-2.68-.81-6.74s-7.35-8.71-9.85-9.57a68.88,68.88,0,0,0-12-2.12h-.18"/></clipPath><clipPath id="clip-path-5"><path class="cls-1" d="M80.73,123.38c-.44,10.21,4.94,18.72,12,19s13.12-7.73,13.54-17.95-5-18.72-12-19h-.4c-6.89,0-12.74,7.93-13.16,17.95"/></clipPath><radialGradient id="radial-gradient" cx="-4450.6" cy="-4123.79" r="0.09" gradientTransform="matrix(0, -138.65, -193.23, 0, -796740.04, -616942.28)" gradientUnits="userSpaceOnUse"><stop offset="0" stop-color="#6a6a69"/><stop offset="0.2" stop-color="#6f6f6e"/><stop offset="0.48" stop-color="#808181"/><stop offset="0.8" stop-color="#9e9e9e"/><stop offset="1" stop-color="#b5b4b4"/></radialGradient><clipPath id="clip-path-6"><path class="cls-1" d="M92.73,111.94a1.12,1.12,0,0,0-1,1.18l.07,2a1.08,1.08,0,0,0,2.16-.08h0l0-2a1.1,1.1,0,0,0-1.08-1.09h0"/></clipPath><linearGradient id="linear-gradient-4" x1="-4562.69" y1="-4016.5" x2="-4562.59" y2="-4016.5" gradientTransform="matrix(-23.13, 0, 0, 24.38, -105420.53, 98036.43)" gradientUnits="userSpaceOnUse"><stop offset="0" stop-color="#e5e4e3"/><stop offset="1" stop-color="#818283"/></linearGradient><clipPath id="clip-path-7"><path class="cls-1" d="M90.44,114.86a1.11,1.11,0,0,0-1,1.17l.08,2a1.11,1.11,0,0,0,1.12,1.09,1.08,1.08,0,0,0,1-1.15v0l-.07-2a1.11,1.11,0,0,0-1.08-1.09h0"/></clipPath><linearGradient id="linear-gradient-5" x1="-4563.73" y1="-4017.53" x2="-4563.64" y2="-4017.53" gradientTransform="matrix(-23.13, 0, 0, 24.39, -105478.22, 98104.6)" xlink:href="#linear-gradient-4"/><clipPath id="clip-path-8"><path class="cls-1" d="M90.48,120.3a1.12,1.12,0,0,0-1,1.18l.08,2a1.09,1.09,0,0,0,1.09,1.1h0a1.11,1.11,0,0,0,1-1.17h0l-.08-2a1.11,1.11,0,0,0-1.07-1.09h0"/></clipPath><linearGradient id="linear-gradient-6" x1="-4563.74" y1="-4019.77" x2="-4563.64" y2="-4019.77" gradientTransform="matrix(-23.14, 0, 0, 24.4, -105521.88, 98204.81)" xlink:href="#linear-gradient-4"/><clipPath id="clip-path-9"><path class="cls-1" d="M90.72,125.78a1.11,1.11,0,0,0-1,1.17l.07,2a1.08,1.08,0,0,0,1.12,1,1.07,1.07,0,0,0,1-1.12h0l-.07-2.06a1.1,1.1,0,0,0-1.08-1.09h0"/></clipPath><linearGradient id="linear-gradient-7" x1="-4563.9" y1="-4021.84" x2="-4563.81" y2="-4021.84" gradientTransform="matrix(-23.11, 0, 0, 24.37, -105397.24, 98140.11)" xlink:href="#linear-gradient-4"/><clipPath id="clip-path-10"><path class="cls-1" d="M90.77,130.46a1.11,1.11,0,0,0-1,1.17l.08,2a1.08,1.08,0,0,0,2.15-.07h0l-.07-2a1.12,1.12,0,0,0-1.08-1.1h0"/></clipPath><linearGradient id="linear-gradient-8" x1="-4563.78" y1="-4023.98" x2="-4563.69" y2="-4023.98" gradientTransform="matrix(-23.14, 0, 0, 24.4, -105533.11, 98317.81)" xlink:href="#linear-gradient-4"/><clipPath id="clip-path-11"><path class="cls-1" d="M88.06,127.7a1.12,1.12,0,0,0-1,1.18l.08,2a1.08,1.08,0,1,0,2.15-.08l-.1-2a1.11,1.11,0,0,0-1.08-1.1h0"/></clipPath><linearGradient id="linear-gradient-9" x1="-4564.67" y1="-4023.15" x2="-4564.57" y2="-4023.15" gradientTransform="matrix(-23.17, 0, 0, 24.42, -105660.58, 98375.13)" xlink:href="#linear-gradient-4"/><clipPath id="clip-path-12"><path class="cls-1" d="M88,122.69a1.12,1.12,0,0,0-1,1.18l.08,2a1.08,1.08,0,1,0,2.15-.08h0l-.06-2a1.12,1.12,0,0,0-1.08-1.09h0"/></clipPath><linearGradient id="linear-gradient-10" x1="-4564.36" y1="-4020.89" x2="-4564.26" y2="-4020.89" gradientTransform="matrix(-23.16, 0, 0, 24.42, -105628.29, 98312.74)" xlink:href="#linear-gradient-4"/><clipPath id="clip-path-13"><path class="cls-1" d="M87.84,117.32a1.11,1.11,0,0,0-1,1.17h0l.08,2a1.08,1.08,0,1,0,2.15-.08h0l-.07-2a1.1,1.1,0,0,0-1.08-1.1h0"/></clipPath><linearGradient id="linear-gradient-11" x1="-4564.71" y1="-4018.76" x2="-4564.61" y2="-4018.76" gradientTransform="matrix(-23.15, 0, 0, 24.4, -105565.3, 98177.31)" xlink:href="#linear-gradient-4"/><clipPath id="clip-path-14"><path class="cls-1" d="M95.12,114.94a1.05,1.05,0,0,0-.9,1.17l.08,2a.94.94,0,1,0,1.88-.07l-.07-2a1.07,1.07,0,0,0-1-1.11h0"/></clipPath><linearGradient id="linear-gradient-12" x1="-4582.22" y1="-4017.91" x2="-4582.13" y2="-4017.91" gradientTransform="matrix(-20.1, 0, 0, 24.41, -91986.06, 98194.27)" xlink:href="#linear-gradient-4"/><clipPath id="clip-path-15"><path class="cls-1" d="M95.42,120.23a1.05,1.05,0,0,0-.89,1.17l.07,2a1.06,1.06,0,0,0,.94,1.11,1,1,0,0,0,.89-1.17l-.08-2a1,1,0,0,0-.94-1.1h0"/></clipPath><linearGradient id="linear-gradient-13" x1="-4581.96" y1="-4019.89" x2="-4581.86" y2="-4019.89" gradientTransform="matrix(-20.08, 0, 0, 24.38, -91866.64, 98124.95)" xlink:href="#linear-gradient-4"/><clipPath id="clip-path-16"><path class="cls-1" d="M95.65,125.56a1,1,0,0,0-.89,1.17l0,2a1.07,1.07,0,0,0,1,1.11,1,1,0,0,0,.94-1.11l-.07-2a1.06,1.06,0,0,0-.95-1.1h0"/></clipPath><linearGradient id="linear-gradient-14" x1="-4582.27" y1="-4022.01" x2="-4582.17" y2="-4022.01" gradientTransform="matrix(-20.09, 0, 0, 24.41, -91975.34, 98304.87)" xlink:href="#linear-gradient-4"/><clipPath id="clip-path-17"><path class="cls-1" d="M95.83,130.5a1,1,0,0,0-.89,1.17l.06,2a1.07,1.07,0,0,0,1,1.11,1.06,1.06,0,0,0,.89-1.17l0-2.06a1.06,1.06,0,0,0-1-1.1h0"/></clipPath><linearGradient id="linear-gradient-15" x1="-4582.23" y1="-4023.98" x2="-4582.14" y2="-4023.98" gradientTransform="matrix(-20.09, 0, 0, 24.4, -91941.96, 98317.73)" xlink:href="#linear-gradient-4"/><clipPath id="clip-path-18"><path class="cls-1" d="M98,126.67a1,1,0,0,0-.84,1.18l.07,2A.92.92,0,1,0,99,129.8l-.07-2a1.06,1.06,0,0,0-1-1.11h0"/></clipPath><linearGradient id="linear-gradient-16" x1="-4590.3" y1="-4022.6" x2="-4590.22" y2="-4022.6" gradientTransform="matrix(-18.93, 0, 0, 24.41, -86781.36, 98318.16)" xlink:href="#linear-gradient-4"/><clipPath id="clip-path-19"><path class="cls-1" d="M97.81,122a1,1,0,0,0-.84,1.17l.07,2a.95.95,0,1,0,1.77-.07l-.07-2a1,1,0,0,0-.95-1.1h0"/></clipPath><linearGradient id="linear-gradient-17" x1="-4590.73" y1="-4020.91" x2="-4590.63" y2="-4020.91" gradientTransform="matrix(-18.92, 0, 0, 24.39, -86738.53, 98194.16)" xlink:href="#linear-gradient-4"/><clipPath id="clip-path-20"><path class="cls-1" d="M97.58,117a1,1,0,0,0-.84,1.17l.08,2a.93.93,0,0,0,.58,1.2.94.94,0,0,0,1.2-.58.92.92,0,0,0,0-.69l-.07-2a1,1,0,0,0-.89-1.11h0"/></clipPath><linearGradient id="linear-gradient-18" x1="-4591.06" y1="-4018.27" x2="-4590.96" y2="-4018.27" gradientTransform="matrix(-18.89, 0, 0, 24.37, -86642.1, 98044.4)" xlink:href="#linear-gradient-4"/><clipPath id="clip-path-21"><path class="cls-1" d="M93,117.4a1.1,1.1,0,0,0-1,1.15v0l.08,2a1.08,1.08,0,0,0,2.15.11,1.28,1.28,0,0,0,0-.19l-.07-2a1.12,1.12,0,0,0-1.07-1.1h0"/></clipPath><linearGradient id="linear-gradient-19" x1="-4562.69" y1="-4018.62" x2="-4562.59" y2="-4018.62" gradientTransform="matrix(-23.13, 0, 0, 24.39, -105452.94, 98133.69)" xlink:href="#linear-gradient-4"/><clipPath id="clip-path-22"><path class="cls-1" d="M93.15,122.8a1.1,1.1,0,0,0-1,1.17v0l.08,2a1.09,1.09,0,0,0,1.09,1.1h0a1.11,1.11,0,0,0,1-1.17l-.07-2a1.11,1.11,0,0,0-1.09-1.1h0"/></clipPath><linearGradient id="linear-gradient-20" x1="-4562.65" y1="-4020.91" x2="-4562.57" y2="-4020.91" gradientTransform="matrix(-23.14, 0, 0, 24.4, -105502.75, 98235.07)" xlink:href="#linear-gradient-4"/><clipPath id="clip-path-23"><path class="cls-1" d="M93.34,127.79a1.11,1.11,0,0,0-1,1.17l.08,2a1.08,1.08,0,0,0,1.12,1,1.09,1.09,0,0,0,1-1.12l-.07-2a1.11,1.11,0,0,0-1.08-1.09h0"/></clipPath><linearGradient id="linear-gradient-21" x1="-4562.64" y1="-4022.81" x2="-4562.55" y2="-4022.81" gradientTransform="matrix(-23.14, 0, 0, 24.4, -105494.51, 98286.56)" xlink:href="#linear-gradient-4"/><clipPath id="clip-path-24"><path class="cls-1" d="M93.44,132.85a1.11,1.11,0,0,0-1,1.18l.07,2a1.07,1.07,0,0,0,1.12,1,1.08,1.08,0,0,0,1-1.11h0l-.08-2a1.11,1.11,0,0,0-1.08-1.1h0"/></clipPath><linearGradient id="linear-gradient-22" x1="-4562.74" y1="-4024.76" x2="-4562.65" y2="-4024.76" gradientTransform="matrix(-23.13, 0, 0, 24.39, -105452.18, 98298.98)" xlink:href="#linear-gradient-4"/><clipPath id="clip-path-25"><path class="cls-1" d="M160.94,93.78c-2.73.66-4.63,3.14-6.22,5.33s-5.95,9.63-7,17.22c-1.22,8.5-1.64,17.68-1,23.73.56,5.41,2.15,11.19,3,12.94a5.36,5.36,0,0,0,4.18,3.33c2.07.24,8,.56,10.19-1s5-6.28,7.25-11.23a78.32,78.32,0,0,0,7.16-29.59c.08-2.07-.73-5.35-1.54-8.11a26.84,26.84,0,0,0-2.68-6.68,11.53,11.53,0,0,0-4.38-4.44,15.88,15.88,0,0,0-7.12-1.76,8,8,0,0,0-1.88.19"/></clipPath><linearGradient id="linear-gradient-23" x1="-4433.33" y1="-4129.32" x2="-4433.23" y2="-4129.32" gradientTransform="matrix(-344.82, 0, 0, 344.82, -1528524.81, 1423996.86)" gradientUnits="userSpaceOnUse"><stop offset="0" stop-color="#999a99"/><stop offset="1" stop-color="#f4f2f1"/></linearGradient><clipPath id="clip-path-26"><path class="cls-1" d="M167.41,95.88c.33.27,3.05,6.26,3.05,6.26l3,0s-1.35-4.27-1.73-4.92a8.88,8.88,0,0,0-3.5-2.24,19,19,0,0,0-3-.78s1.82,1.35,2.14,1.63"/></clipPath><linearGradient id="linear-gradient-24" x1="-4454.45" y1="-4103.43" x2="-4454.35" y2="-4103.43" gradientTransform="matrix(-88.19, 0, 0, 88.19, -392666.95, 361979.66)" gradientUnits="userSpaceOnUse"><stop offset="0" stop-color="#e5e4e3"/><stop offset="1" stop-color="#999a99"/></linearGradient><clipPath id="clip-path-27"><path class="cls-1" d="M150.74,110a27.43,27.43,0,0,0-1.5,3.93,37.58,37.58,0,0,0-.64,4.47c0,.73.16,1.38.44,1.42s4.21.6,5.43.6,5.92.37,6.29.28,1.34-2.92,1.42-3.77.23-3.15,0-3.25c0,0-6.33-3.05-6.9-3.13s-3.9-.53-4.46-.53h-.08"/></clipPath><linearGradient id="linear-gradient-25" x1="-4447.8" y1="-4122.78" x2="-4447.71" y2="-4122.78" gradientTransform="matrix(0, -147.13, -147.13, 0, -606429.57, -654284.08)" xlink:href="#linear-gradient-24"/><clipPath id="clip-path-28"><path class="cls-1" d="M157.26,142.63a17.92,17.92,0,0,1-5.67.89c-1.73-.05-2.83-.16-2.71.49s.87,5.52,1.36,7a3,3,0,0,0,3.08,2.16,13.49,13.49,0,0,0,5.79-2.1c1.95-1.16,3-2.76,2.83-4s-.4-3-.48-3.52c0,0-.16-1.73-.87-1.78h-.12a11.27,11.27,0,0,0-3.17.95"/></clipPath><linearGradient id="linear-gradient-26" x1="-4438.83" y1="-4114.61" x2="-4438.74" y2="-4114.61" gradientTransform="matrix(-140.22, 0, 0, 140.22, -622247.89, 577097.85)" gradientUnits="userSpaceOnUse"><stop offset="0" stop-color="#e5e4e3"/><stop offset="1" stop-color="#b5b4b4"/></linearGradient><clipPath id="clip-path-29"><path class="cls-1" d="M150.74,146a1.64,1.64,0,0,0,1.26,1.89c.77.07,1.45-.69,1.54-1.69a1.65,1.65,0,0,0-1.26-1.89h-.09a1.67,1.67,0,0,0-1.45,1.69"/></clipPath><radialGradient id="radial-gradient-2" cx="-4592.74" cy="-4005" r="0.09" gradientTransform="matrix(0, -17.33, -17.33, 0, -69256.21, -79451.28)" gradientUnits="userSpaceOnUse"><stop offset="0" stop-color="#1c1c1c"/><stop offset="1" stop-color="#e5e4e3"/></radialGradient><clipPath id="clip-path-30"><path class="cls-1" d="M150.88,116a1.55,1.55,0,1,0,3.09-.27,1.54,1.54,0,0,0-1.29-1.39h-.2a1.81,1.81,0,0,0-1.6,1.68"/></clipPath><radialGradient id="radial-gradient-3" cx="-4594" cy="-4012.17" r="0.09" gradientTransform="matrix(0, -18.58, -18.58, 0, -74397.75, -85251.68)" xlink:href="#radial-gradient-2"/><clipPath id="clip-path-31"><path class="cls-1" d="M171,112.91l-.35,2a1.08,1.08,0,1,0,2.09.52.68.68,0,0,0,0-.14l.36-2a1.11,1.11,0,0,0-.87-1.31H172a1.1,1.1,0,0,0-1.07.94"/></clipPath><linearGradient id="linear-gradient-27" x1="-4553.71" y1="-4041.32" x2="-4553.62" y2="-4041.32" gradientTransform="matrix(0, -23.13, -24.38, 0, -98355.62, -105198.66)" xlink:href="#linear-gradient-4"/><clipPath id="clip-path-32"><path class="cls-1" d="M168.11,115.27l-.36,2a1.08,1.08,0,0,0,2.1.52c0-.05,0-.09,0-.14l.36-2a1.1,1.1,0,0,0-.86-1.3h-.18a1.11,1.11,0,0,0-1.08.94"/></clipPath><linearGradient id="linear-gradient-28" x1="-4554.73" y1="-4042.57" x2="-4554.63" y2="-4042.57" gradientTransform="matrix(0, -23.13, -24.38, 0, -98388.94, -105227.92)" xlink:href="#linear-gradient-4"/><clipPath id="clip-path-33"><path class="cls-1" d="M167,120.61l-.35,2a1.08,1.08,0,0,0,2.09.51.51.51,0,0,0,0-.13l.36-2a1.09,1.09,0,0,0-.85-1.31h-.19a1.12,1.12,0,0,0-1.08,1"/></clipPath><linearGradient id="linear-gradient-29" x1="-4554.79" y1="-4044.66" x2="-4554.7" y2="-4044.66" gradientTransform="matrix(0, -23.13, -24.38, 0, -98440.96, -105218.08)" xlink:href="#linear-gradient-4"/><clipPath id="clip-path-34"><path class="cls-1" d="M166.07,126l-.35,2a1.08,1.08,0,0,0,2.09.51.7.7,0,0,0,0-.14l.36-2a1.11,1.11,0,0,0-.86-1.31h-.18a1.13,1.13,0,0,0-1.09.94"/></clipPath><linearGradient id="linear-gradient-30" x1="-4554.77" y1="-4046.87" x2="-4554.68" y2="-4046.87" gradientTransform="matrix(0, -23.13, -24.38, 0, -98495.72, -105214.14)" xlink:href="#linear-gradient-4"/><clipPath id="clip-path-35"><path class="cls-1" d="M165.14,130.62l-.36,2a1.08,1.08,0,1,0,2.12.36h0l.35-2a1.1,1.1,0,0,0-.86-1.3h-.18a1.1,1.1,0,0,0-1.07.94"/></clipPath><linearGradient id="linear-gradient-31" x1="-4554.77" y1="-4048.84" x2="-4554.68" y2="-4048.84" gradientTransform="matrix(0, -23.14, -24.39, 0, -98585.12, -105257.29)" xlink:href="#linear-gradient-4"/><clipPath id="clip-path-36"><path class="cls-1" d="M163.07,127.34l-.36,2a1.08,1.08,0,1,0,2.12.38h0l.35-2a1.1,1.1,0,0,0-.85-1.31h-.19a1.12,1.12,0,0,0-1.07.95"/></clipPath><linearGradient id="linear-gradient-32" x1="-4555.87" y1="-4047.7" x2="-4555.77" y2="-4047.7" gradientTransform="matrix(0, -23.14, -24.39, 0, -98559.38, -105285.36)" xlink:href="#linear-gradient-4"/><clipPath id="clip-path-37"><path class="cls-1" d="M164.09,122.42l-.35,2a1.08,1.08,0,0,0,2.09.51.68.68,0,0,0,0-.14l.36-2a1.09,1.09,0,0,0-.86-1.3h-.18a1.12,1.12,0,0,0-1.08.94"/></clipPath><linearGradient id="linear-gradient-33" x1="-4555.89" y1="-4045.38" x2="-4555.8" y2="-4045.38" gradientTransform="matrix(0, -23.13, -24.39, 0, -98501.95, -105267.74)" xlink:href="#linear-gradient-4"/><clipPath id="clip-path-38"><path class="cls-1" d="M165,117.13l-.35,2a1.08,1.08,0,1,0,2.13.36h0l.35-2a1.1,1.1,0,0,0-.85-1.3h0a.54.54,0,0,0-.18,0,1.13,1.13,0,0,0-1.09.94"/></clipPath><linearGradient id="linear-gradient-34" x1="-4555.72" y1="-4043.46" x2="-4555.64" y2="-4043.46" gradientTransform="matrix(0, -23.15, -24.4, 0, -98494.61, -105327.34)" xlink:href="#linear-gradient-4"/><clipPath id="clip-path-39"><path class="cls-1" d="M172.8,116.38l-.35,2a.94.94,0,0,0,1.77.65.91.91,0,0,0,.06-.32l.36-2a1.06,1.06,0,0,0-.72-1.29h-.14a1.1,1.1,0,0,0-.94,1"/></clipPath><linearGradient id="linear-gradient-35" x1="-4572.1" y1="-4042.25" x2="-4572" y2="-4042.25" gradientTransform="matrix(0, -20.08, -24.4, 0, -98457.48, -91710.01)" xlink:href="#linear-gradient-4"/><clipPath id="clip-path-40"><path class="cls-1" d="M172,121.56l-.35,2a1,1,0,0,0,.71,1.28,1.08,1.08,0,0,0,1.13-.94l.35-2a1,1,0,0,0-.72-1.28H173a1.1,1.1,0,0,0-.95.94"/></clipPath><linearGradient id="linear-gradient-36" x1="-4571.98" y1="-4044.32" x2="-4571.89" y2="-4044.32" gradientTransform="matrix(0, -20.08, -24.39, 0, -98468.29, -91667.63)" xlink:href="#linear-gradient-4"/><clipPath id="clip-path-41"><path class="cls-1" d="M171.08,126.84l-.36,2a1.05,1.05,0,0,0,.73,1.28,1,1,0,0,0,1.11-.94l.36-2a1,1,0,0,0-.73-1.28h-.13a1.08,1.08,0,0,0-.94.94"/></clipPath><linearGradient id="linear-gradient-37" x1="-4571.89" y1="-4046.64" x2="-4571.81" y2="-4046.64" gradientTransform="matrix(0, -20.09, -24.4, 0, -98566.11, -91706.35)" xlink:href="#linear-gradient-4"/><clipPath id="clip-path-42"><path class="cls-1" d="M170.21,131.73l-.35,2a.94.94,0,0,0,.61,1.19,1,1,0,0,0,1.19-.6,1.17,1.17,0,0,0,0-.26l.35-2a1,1,0,0,0-.71-1.28h-.15a1.09,1.09,0,0,0-.94.95"/></clipPath><linearGradient id="linear-gradient-38" x1="-4572.83" y1="-4048.4" x2="-4572.74" y2="-4048.4" gradientTransform="matrix(0, -20.01, -24.3, 0, -98213.15, -91357.56)" xlink:href="#linear-gradient-4"/><clipPath id="clip-path-43"><path class="cls-1" d="M173.16,128.45l-.35,2a1,1,0,0,0,.67,1.28c.47.08.94-.35,1.06-.95l.36-2a1,1,0,0,0-.67-1.27h-.12a1.08,1.08,0,0,0-.94.94"/></clipPath><linearGradient id="linear-gradient-39" x1="-4579.75" y1="-4047.36" x2="-4579.67" y2="-4047.36" gradientTransform="matrix(0, -18.92, -24.39, 0, -98541.24, -86498.63)" xlink:href="#linear-gradient-4"/><clipPath id="clip-path-44"><path class="cls-1" d="M174,123.85l-.35,2a1,1,0,0,0,.66,1.27c.48.09.94-.34,1.07-1l.36-2a1,1,0,0,0-.67-1.27h-.13a1.06,1.06,0,0,0-.94.94"/></clipPath><linearGradient id="linear-gradient-40" x1="-4579.94" y1="-4044.94" x2="-4579.85" y2="-4044.94" gradientTransform="matrix(0, -18.9, -24.38, 0, -98440.89, -86439.58)" xlink:href="#linear-gradient-4"/><clipPath id="clip-path-45"><path class="cls-1" d="M174.84,118.88l-.36,2a1,1,0,0,0,.63,1.25c.47.09.95-.35,1.07-.94l.35-2a1,1,0,0,0-.67-1.26h-.11a1.08,1.08,0,0,0-.95.94"/></clipPath><linearGradient id="linear-gradient-41" x1="-4579.7" y1="-4043.36" x2="-4579.61" y2="-4043.36" gradientTransform="matrix(0, -18.93, -24.41, 0, -98523.02, -86565.36)" xlink:href="#linear-gradient-4"/><clipPath id="clip-path-46"><path class="cls-1" d="M170.1,118.34l-.36,2a1.08,1.08,0,1,0,2.12.36h0l.35-2a1.11,1.11,0,0,0-.86-1.3h-.2a1.1,1.1,0,0,0-1.07.94"/></clipPath><linearGradient id="linear-gradient-42" x1="-4553.59" y1="-4043.36" x2="-4553.5" y2="-4043.36" gradientTransform="matrix(0, -23.15, -24.41, 0, -98527.39, -105300.43)" xlink:href="#linear-gradient-4"/><clipPath id="clip-path-47"><path class="cls-1" d="M169.09,123.61l-.36,2a1.1,1.1,0,0,0,.86,1.3,1.11,1.11,0,0,0,1.26-.94h0l.35-2a1.1,1.1,0,0,0-.86-1.3h-.18a1.1,1.1,0,0,0-1.07.94"/></clipPath><linearGradient id="linear-gradient-43" x1="-4553.66" y1="-4045.28" x2="-4553.56" y2="-4045.28" gradientTransform="matrix(0, -23.14, -24.4, 0, -98534.94, -105242.25)" xlink:href="#linear-gradient-4"/><clipPath id="clip-path-48"><path class="cls-1" d="M168.22,128.54l-.36,2A1.08,1.08,0,0,0,170,131a.59.59,0,0,0,0-.13l.36-2a1.1,1.1,0,0,0-.86-1.3h-.18a1.1,1.1,0,0,0-1.07.94"/></clipPath><linearGradient id="linear-gradient-44" x1="-4553.62" y1="-4047.56" x2="-4553.53" y2="-4047.56" gradientTransform="matrix(0, -23.15, -24.41, 0, -98631.87, -105294.69)" xlink:href="#linear-gradient-4"/><clipPath id="clip-path-49"><path class="cls-1" d="M167.23,133.5l-.36,2a1.08,1.08,0,0,0,2.13.38l.36-2a1.12,1.12,0,0,0-.87-1.31h-.18a1.11,1.11,0,0,0-1.08.94"/></clipPath><linearGradient id="linear-gradient-45" x1="-4553.68" y1="-4049.77" x2="-4553.59" y2="-4049.77" gradientTransform="matrix(0, -23.14, -24.39, 0, -98605.66, -105223.49)" xlink:href="#linear-gradient-4"/><clipPath id="clip-path-50"><rect class="cls-1" x="61.94" y="38.09" width="116.55" height="134.91"/></clipPath><clipPath id="clip-path-51"><path class="cls-1" d="M148.23,44a39.63,39.63,0,0,1,11,7.18c5.07,4.79,6.61,6.37,10,13.14s5.87,13.88,6.45,20.54a74.46,74.46,0,0,1-.41,16.14c-.52,4.38-8,46.82-13.67,57.13S152.28,173,152.28,173a44.23,44.23,0,0,0-1.24-7c-.87-2.83-4.22-12.22-5.09-14.66s-6.61-15.85-11.19-22.12A121.71,121.71,0,0,0,117.49,110c-6.81-6-16.55-11-22.88-12.12A103.73,103.73,0,0,0,74.7,96.51C70,96.78,62,98.14,62,98.14a50.21,50.21,0,0,1,.33-6c.38-3.3.7-12.77,4.05-19.84S75.68,54.6,86,48.32c10.82-6.61,19.91-10.22,32-10.28s24.56,2.75,30.35,5.86"/></clipPath><linearGradient id="linear-gradient-46" x1="-4428.26" y1="-4134.81" x2="-4428.17" y2="-4134.81" gradientTransform="matrix(-1223.22, 0, 0, 1223.22, -5416553.12, 5057893.04)" gradientUnits="userSpaceOnUse"><stop offset="0" stop-color="#818283"/><stop offset="0.17" stop-color="#a8a9aa"/><stop offset="0.36" stop-color="#cececf"/><stop offset="0.53" stop-color="#e9e9e9"/><stop offset="0.68" stop-color="#fafafa"/><stop offset="0.8" stop-color="#fff"/><stop offset="1" stop-color="#fff"/></linearGradient><clipPath id="clip-path-52"><path class="cls-1" d="M178.49,114.56c.08-2.07-.73-5.35-1.54-8.11a26.84,26.84,0,0,0-2.68-6.68,11.53,11.53,0,0,0-4.38-4.44c-2.44-1.39-6.61-2.14-9-1.57-2.73.66-4.63,3.14-6.22,5.33s-5.95,9.64-7,17.22c-1.22,8.5-1.63,17.69-1,23.73.56,5.41,2.15,11.2,3,12.94a5.36,5.36,0,0,0,4.19,3.33c2.07.24,8,.57,10.18-.95s5-6.28,7.26-11.23a78.62,78.62,0,0,0,7.18-29.57"/></clipPath><linearGradient id="linear-gradient-47" x1="-4433.33" y1="-4129.32" x2="-4433.23" y2="-4129.32" gradientTransform="matrix(-344.82, 0, 0, 344.82, -1528524.81, 1423996.86)" gradientUnits="userSpaceOnUse"><stop offset="0" stop-color="#818283"/><stop offset="1" stop-color="#fff"/></linearGradient><clipPath id="clip-path-53"><rect class="cls-1" x="65.93" y="43.22" width="42.19" height="44.33"/></clipPath><clipPath id="clip-path-54"><path class="cls-1" d="M96.26,73.94c-10.47,11.34-23.1,16.62-28.2,11.89s-.74-17.73,9.75-29S100.91,40.23,106,45s.75,17.72-9.72,29"/></clipPath><radialGradient id="radial-gradient-4" cx="-4391.61" cy="-4136.67" r="0.09" gradientTransform="matrix(0, 135.23, -299.05, 0.02, -1236984.83, 594002.89)" gradientUnits="userSpaceOnUse"><stop offset="0" stop-color="#fff"/><stop offset="0.3" stop-color="#ddd"/><stop offset="0.95" stop-color="#868788"/><stop offset="1" stop-color="#818283"/></radialGradient></defs><g id="Layer_1-2" data-name="Layer 1"><circle class="cls-2" cx="121.89" cy="106.69" r="85.98"/><g class="cls-3"><rect class="cls-4" x="34.39" y="124.7" width="173.47" height="72.91"/></g><path class="cls-5" d="M96.22,168.33a49.24,49.24,0,0,0-6.13,19.33,3.43,3.43,0,0,0,4.65,1.39A3.57,3.57,0,0,0,96,187.91a2.12,2.12,0,0,1,.72-.61,41.7,41.7,0,0,1,5.17-15.68c2.14-3.61-3.48-6.88-5.6-3.28"/><path class="cls-5" d="M127.67,235.27c1.53-5,4.54-9.19,6.76-13.83a66.77,66.77,0,0,0,2.65-7.5,82,82,0,0,0,2.36-8.31c1.19-5.37,1.41-11,3-16.27,1.24-4.23,5.15-12.28,5.67-16.72.24-2,5.21-.41,5.11,3.78-.12,4.72-2.5,9-4.08,13.29-1.88,5.2-2.35,11-3.18,16.46a54.83,54.83,0,0,1-2.22,8.34c-.94,2.83-1.78,5.67-2.92,8.45-2,4.81-5.33,9-6.87,14-1.22,4-7.5,2.29-6.26-1.72"/><g class="cls-6"><rect class="cls-7" x="61.89" y="38.09" width="114.37" height="134.91"/></g><path class="cls-5" d="M121.69,138a33.31,33.31,0,0,0-5.76,4.83,144.65,144.65,0,0,0-9.45,11.93c-2.44,3.52-6.34,10.67-6.34,10.63s-5.19-5.89-6.33-7.06a89,89,0,0,1-10.62-13.68c-3.45-5.88-10.79-19.11-12.42-22.35s-4.86-9.37-5.88-11.85-2.44-5.75-2.44-5.75a3,3,0,0,0-1.77,1.54,6.49,6.49,0,0,0-.68,2.4,21.34,21.34,0,0,0,.87,3.86c.37.94,9.37,18.08,11.34,22s11.52,20,13.88,23S94.53,168.3,96.55,170s3.57,2.83,4,2.83,2.61-3.27,3.41-4.63a110.75,110.75,0,0,1,8.2-12.91c3.78-4.73,7.34-9.67,10.87-11.85s4.3-2.93,5.76-3.46,3.86-1.68,3.86-1.68l-2.9-4.85s-6.35,3.33-8.08,4.56"/><g class="cls-8"><rect class="cls-9" x="62.45" y="103.77" width="66.79" height="61.66"/></g><g class="cls-10"><rect class="cls-11" x="80.23" y="103.61" width="30.4" height="43.87"/><path class="cls-11" d="M79.22,123.37v17h-3a24.82,24.82,0,0,0,17.57,6.83,24.25,24.25,0,0,0,.38-48.5l-1.13,0a24.87,24.87,0,0,0-17.35,7.37h3.58Z"/><path class="cls-11" d="M79.22,123.36v16.71H76.51a24.3,24.3,0,0,0,17.22,6.69,23.77,23.77,0,0,0,.4-47.54l-1.13,0a24.32,24.32,0,0,0-17,7.22h3.23Z"/><path class="cls-11" d="M79.22,123.36v16.35H76.87a23.82,23.82,0,0,0,16.87,6.57,23.3,23.3,0,1,0,.41-46.59c-.37,0-.75,0-1.12,0a23.87,23.87,0,0,0-16.67,7.08h2.83Z"/><path class="cls-12" d="M79.22,123.35v16.06h-2a23.4,23.4,0,0,0,16.54,6.43,22.82,22.82,0,0,0,.4-45.64c-.37,0-.74,0-1.11,0a23.37,23.37,0,0,0-16.32,6.94h2.53Z"/><path class="cls-12" d="M79.22,123.34V139h-1.7a22.81,22.81,0,0,0,16.19,6.29,22.34,22.34,0,1,0,.41-44.68c-.37,0-.73,0-1.1,0a22.9,22.9,0,0,0-16,6.78h2.19Z"/><path class="cls-13" d="M79.22,123.33v15.36H77.86a22.4,22.4,0,0,0,15.84,6.16,21.87,21.87,0,0,0,.43-43.74l-1.1,0a22.44,22.44,0,0,0-15.65,6.61h1.84Z"/><path class="cls-13" d="M79.22,123.32v15h-1a21.92,21.92,0,0,0,15.5,6,21.4,21.4,0,1,0,.44-42.79c-.36,0-.73,0-1.09,0a22,22,0,0,0-15.31,6.5h1.49Z"/><path class="cls-14" d="M79.22,123.32V138h-.69a21.43,21.43,0,0,0,15.11,5.89,20.92,20.92,0,0,0,0-41.83H93a21.47,21.47,0,0,0-15,6.36h1.14Z"/><path class="cls-14" d="M72.55,123.31a20.78,20.78,0,1,0,20.78-20.78h-.28a20.62,20.62,0,0,0-20.5,20.74v0"/><path class="cls-15" d="M73,123.3A20.34,20.34,0,1,0,93.43,103h-.37A20.15,20.15,0,0,0,73,123.3h0"/><path class="cls-16" d="M73.51,123.29A19.84,19.84,0,1,0,93.4,103.5h-.33a19.69,19.69,0,0,0-19.56,19.79"/><path class="cls-16" d="M74,123.29A19.38,19.38,0,1,0,93.47,104h-.4a19.19,19.19,0,0,0-19,19.31"/><path class="cls-16" d="M74.49,123.28a18.89,18.89,0,1,0,19-18.83h-.36a18.69,18.69,0,0,0-18.59,18.82"/><path class="cls-17" d="M75,123.27a18.4,18.4,0,1,0,18.45-18.34h-.34A18.23,18.23,0,0,0,75,123.27"/><path class="cls-18" d="M75.45,123.26a18,18,0,1,0,18-17.85H93.1a17.75,17.75,0,0,0-17.65,17.85h0"/><path class="cls-18" d="M75.92,123.25a17.44,17.44,0,1,0,17.5-17.37H93.1a17.29,17.29,0,0,0-17.18,17.37"/><path class="cls-19" d="M76.42,123.25a17,17,0,1,0,17-16.9H93.1a16.8,16.8,0,0,0-16.68,16.9"/><path class="cls-19" d="M76.87,123.25a16.47,16.47,0,1,0,16.52-16.42h-.28A16.29,16.29,0,0,0,76.87,123.2v0"/><path class="cls-20" d="M77.39,123.24a16,16,0,1,0,16-15.93h-.3a15.82,15.82,0,0,0-15.73,15.93h0"/><path class="cls-21" d="M77.87,123.23a15.5,15.5,0,1,0,15.55-15.45h-.29a15.38,15.38,0,0,0-15.26,15.45"/><path class="cls-22" d="M78.36,123.22a15,15,0,1,0,15-15h-.28a14.88,14.88,0,0,0-14.77,15"/><path class="cls-23" d="M78.84,123.22a14.53,14.53,0,1,0,14.57-14.49h-.27a14.41,14.41,0,0,0-14.3,14.49"/><path class="cls-24" d="M79.32,123.21a14.05,14.05,0,1,0,14.09-14h-.26a13.92,13.92,0,0,0-13.83,14h0"/><path class="cls-25" d="M79.8,123.2a13.57,13.57,0,1,0,13.61-13.52h-.25A13.45,13.45,0,0,0,79.8,123.2"/><path class="cls-26" d="M80.29,123.19a13.08,13.08,0,1,0,13.12-13h-.24a13,13,0,0,0-12.88,13h0"/><path class="cls-27" d="M80.78,123.18a12.59,12.59,0,1,0,12.63-12.55h-.24a12.48,12.48,0,0,0-12.39,12.55"/><path class="cls-28" d="M81.26,123.18A12.11,12.11,0,1,0,93.41,111.1h-.23a12,12,0,0,0-11.92,12.07h0"/><path class="cls-29" d="M81.74,123.17a11.63,11.63,0,1,0,11.68-11.58h-.23a11.51,11.51,0,0,0-11.45,11.58h0"/><path class="cls-30" d="M82.23,123.16a11.14,11.14,0,1,0,11.18-11.1H93.2a11,11,0,0,0-11,11.1h0"/><path class="cls-31" d="M82.71,123.15a10.66,10.66,0,1,0,10.7-10.62H93.2a10.57,10.57,0,0,0-10.49,10.62"/><path class="cls-32" d="M83.2,123.15A10.17,10.17,0,1,0,93.41,113h-.2a10.07,10.07,0,0,0-10,10.13h0"/><path class="cls-32" d="M83.68,123.14a9.69,9.69,0,1,0,9.73-9.65h-.19a9.59,9.59,0,0,0-9.54,9.65"/><path class="cls-33" d="M84.17,123.13A9.2,9.2,0,1,0,93.4,114h-.17a9.11,9.11,0,0,0-9.06,9.17h0"/><path class="cls-34" d="M84.65,123.12a8.72,8.72,0,1,0,8.75-8.69h-.16a8.66,8.66,0,0,0-8.59,8.69"/><path class="cls-35" d="M85.13,123.11a8.24,8.24,0,1,0,8.28-8.2h-.17a8.16,8.16,0,0,0-8.11,8.2h0"/><path class="cls-36" d="M85.61,123.11a7.76,7.76,0,1,0,7.79-7.73h-.15a7.68,7.68,0,0,0-7.64,7.72h0"/><path class="cls-37" d="M86.1,123.07a7.27,7.27,0,1,0,7.29-7.25h-.13a7.21,7.21,0,0,0-7.16,7.25h0"/><path class="cls-38" d="M86.59,123.07a6.78,6.78,0,1,0,6.81-6.76h-.13a6.72,6.72,0,0,0-6.68,6.76h0"/><path class="cls-38" d="M87.07,123.07a6.3,6.3,0,1,0,6.33-6.28h-.13a6.24,6.24,0,0,0-6.2,6.28"/><path class="cls-39" d="M87.55,123.07a5.82,5.82,0,1,0,5.85-5.8h-.13a5.78,5.78,0,0,0-5.72,5.8"/><path class="cls-40" d="M88,123.07a5.33,5.33,0,1,0,5.35-5.31h-.11a5.26,5.26,0,0,0-5.24,5.3h0"/><path class="cls-41" d="M88.52,123.07a4.85,4.85,0,1,0,4.87-4.83h-.14a4.8,4.8,0,0,0-4.73,4.83"/><path class="cls-42" d="M89,123.07a4.37,4.37,0,1,0,4.39-4.35H93.3a4.34,4.34,0,0,0-4.3,4.35"/><path class="cls-43" d="M89.49,123.07a3.88,3.88,0,1,0,3.91-3.86h-.13a3.83,3.83,0,0,0-3.78,3.86"/><path class="cls-44" d="M90,123.07a3.39,3.39,0,1,0,3.41-3.38h-.08A3.35,3.35,0,0,0,90,123.07h0"/><path class="cls-45" d="M90.46,123.07a2.91,2.91,0,1,0,2.92-2.91h-.09a2.89,2.89,0,0,0-2.83,2.9"/><path class="cls-46" d="M90.94,123.07a2.43,2.43,0,1,0,2.44-2.42h0A2.39,2.39,0,0,0,90.94,123v0"/><path class="cls-47" d="M91.42,123.07a1.95,1.95,0,1,0,2-1.89h-.11a1.89,1.89,0,0,0-1.89,1.89"/><path class="cls-48" d="M91.91,123a1.46,1.46,0,0,0,1.45,1.46,1.46,1.46,0,0,0,0-2.91h0A1.45,1.45,0,0,0,91.91,123h0"/><path class="cls-49" d="M92.4,123a.95.95,0,0,0,1.89,0,.95.95,0,1,0-1.89,0"/><path class="cls-50" d="M92.93,123a.49.49,0,1,0,.5-.48h0a.46.46,0,0,0-.48.46v0"/></g><g class="cls-51"><rect class="cls-52" x="74.33" y="110.1" width="38.34" height="27.92" transform="translate(-34.37 212.29) rotate(-87.6)"/></g><g class="cls-53"><rect class="cls-54" x="91.58" y="111.9" width="2.43" height="4.4" transform="translate(-4.08 3.44) rotate(-2.08)"/></g><g class="cls-55"><rect class="cls-56" x="89.3" y="114.82" width="2.43" height="4.4" transform="translate(-4.19 3.36) rotate(-2.08)"/></g><g class="cls-57"><rect class="cls-58" x="89.33" y="120.26" width="2.44" height="4.4" transform="translate(-4.39 3.37) rotate(-2.08)"/></g><g class="cls-59"><rect class="cls-60" x="89.57" y="125.75" width="2.43" height="4.4" transform="translate(-4.58 3.38) rotate(-2.08)"/></g><g class="cls-61"><rect class="cls-62" x="89.62" y="130.43" width="2.43" height="4.4" transform="translate(-4.75 3.38) rotate(-2.08)"/></g><g class="cls-63"><rect class="cls-64" x="86.91" y="127.68" width="2.43" height="4.4" transform="translate(-4.66 3.28) rotate(-2.08)"/></g><g class="cls-65"><rect class="cls-66" x="87.37" y="122.42" width="2.43" height="4.41" transform="translate(-4.91 3.64) rotate(-2.29)"/></g><g class="cls-67"><rect class="cls-68" x="86.7" y="117.28" width="2.43" height="4.4" transform="translate(-4.28 3.27) rotate(-2.08)"/></g><g class="cls-69"><rect class="cls-70" x="94.13" y="114.9" width="2.14" height="4.38" transform="translate(-4.19 3.53) rotate(-2.08)"/></g><g class="cls-71"><rect class="cls-72" x="94.9" y="119.89" width="2.15" height="4.39" transform="translate(-4.8 3.93) rotate(-2.29)"/></g><g class="cls-73"><rect class="cls-74" x="94.65" y="125.52" width="2.14" height="4.38" transform="translate(-4.57 3.56) rotate(-2.08)"/></g><g class="cls-75"><rect class="cls-76" x="94.83" y="130.46" width="2.14" height="4.38" transform="translate(-4.75 3.57) rotate(-2.08)"/></g><g class="cls-77"><rect class="cls-78" x="97.52" y="126.37" width="2.04" height="4.39" transform="translate(-5.06 4.04) rotate(-2.29)"/></g><g class="cls-79"><rect class="cls-80" x="96.87" y="121.98" width="2.04" height="4.38" transform="translate(-4.44 3.63) rotate(-2.08)"/></g><g class="cls-81"><rect class="cls-82" x="96.63" y="116.94" width="2.04" height="4.38" transform="translate(-4.26 3.62) rotate(-2.08)"/></g><g class="cls-83"><rect class="cls-84" x="91.88" y="117.38" width="2.43" height="4.4" transform="translate(-4.28 3.46) rotate(-2.08)"/></g><g class="cls-85"><rect class="cls-86" x="92" y="122.77" width="2.43" height="4.4" transform="translate(-4.47 3.47) rotate(-2.08)"/></g><g class="cls-87"><rect class="cls-88" x="92.2" y="127.76" width="2.43" height="4.4" transform="translate(-4.66 3.48) rotate(-2.08)"/></g><g class="cls-89"><rect class="cls-90" x="92.28" y="132.83" width="2.43" height="4.4" transform="translate(-4.84 3.48) rotate(-2.08)"/></g><path class="cls-5" d="M76.35,118.16a42.54,42.54,0,0,0,3.08,15.67A49.85,49.85,0,0,0,84,143.44c2.1,3.41,5.23,7.14,8.06,8.24a15.27,15.27,0,0,0,8.56.77c2.76-.57,6.36-1.4,10-7.47a39.63,39.63,0,0,0,5.66-16.43c.66-5.19,1.1-8.23.53-11.33s-9.72-13.58-16.91-14.94-19-5.17-22.67,7.27a25.68,25.68,0,0,0-.89,8.59m4.93-5.41a29.41,29.41,0,0,1,3.89-7.24c.7-.82,1.3-1.68,2.6-1.79A66.86,66.86,0,0,1,100,105.82c2.5.86,9.1,5.51,9.86,9.57s.86,4.81.81,6.73a58.66,58.66,0,0,1-1.38,9.33c-1,3.41-3.55,10.18-5.67,12.45a10.3,10.3,0,0,1-7.14,3.57c-2.32,0-6.16-1.68-8.32-5.36s-6.39-12.76-6.82-17.31-1-9.08,0-12.07"/><path class="cls-5" d="M152.28,173a43.15,43.15,0,0,0-1.25-7c-.86-2.83-4.21-12.22-5.08-14.66s-6.61-15.85-11.19-22.12A121.71,121.71,0,0,0,117.49,110c-6.81-6-16.55-11-22.88-12.12A103.73,103.73,0,0,0,74.7,96.51C70,96.78,62,98.14,62,98.14a3.16,3.16,0,0,0-1.7,1.88,30.66,30.66,0,0,0-.33,3.31,44.84,44.84,0,0,0,0,4.78c.16.36.41-1,.63-1.61a3.08,3.08,0,0,1,2.07-1.89c1.25-.3,10.8-.86,13.67-.86a127.4,127.4,0,0,1,14.87.94c7.77,1.38,17.1,5.84,26.78,15.74a176.26,176.26,0,0,1,12.61,15.21,162.43,162.43,0,0,1,11.14,21.73c2.17,5.73,4.43,11.13,5.09,13.79a42,42,0,0,1,1.24,7.63c0,1.56-.21,3.3.44,3.24s3.29-3.51,5.67-6.7,8.38-12.56,10.17-15.53,4.92-8.6,6.28-11.33a17.54,17.54,0,0,0,2-7.26c0-1.78-1.75-1.64-2.76-.32-.81,1.06-5.81,11.69-6.61,13.65s-6.12,11.46-7.62,13.71-3.3,4.77-3.3,4.77"/><g class="cls-91"><rect class="cls-92" x="146.03" y="93.59" width="32.55" height="63.31"/></g><g class="cls-93"><rect class="cls-94" x="165.27" y="94.25" width="8.22" height="7.94"/></g><g class="cls-95"><rect class="cls-96" x="148.67" y="107.43" width="13.68" height="15.93" transform="translate(7.52 240.29) rotate(-76.74)"/></g><g class="cls-97"><rect class="cls-98" x="147.35" y="140.04" width="16.09" height="14.79" transform="matrix(0.96, -0.29, 0.29, 0.96, -36, 51.24)"/></g><path class="cls-11" d="M161.24,113.77s-3-1.42-4.26-1.89a17.71,17.71,0,0,0-4-1.22c-1.34-.16-2.15-.2-2.39.25s.16,1.34,1,1.7,3.21,1.71,4.5,1.71,5.11-.53,5.11-.53"/><path class="cls-11" d="M160,120.35s-2.84-.5-4.79-.62-6-.52-6-.52l.44.57,5.44.32Z"/><g class="cls-99"><rect class="cls-100" x="150.2" y="144.56" width="3.89" height="3.23" transform="translate(-5.64 286.25) rotate(-85.45)"/></g><g class="cls-101"><rect class="cls-102" x="150.14" y="114.34" width="4.46" height="3.92" transform="translate(12.6 247.49) rotate(-80.54)"/></g><g class="cls-103"><rect class="cls-104" x="169.45" y="112.41" width="4.76" height="3.42" transform="translate(29.34 263.28) rotate(-79.9)"/></g><g class="cls-105"><rect class="cls-106" x="166.61" y="114.79" width="4.76" height="3.42" transform="translate(24.66 262.44) rotate(-79.9)"/></g><g class="cls-107"><rect class="cls-108" x="165.48" y="120.12" width="4.76" height="3.42" transform="translate(18.49 265.72) rotate(-79.9)"/></g><g class="cls-109"><rect class="cls-110" x="164.57" y="125.52" width="4.76" height="3.42" transform="translate(12.41 269.27) rotate(-79.9)"/></g><g class="cls-111"><rect class="cls-112" x="163.63" y="130.12" width="4.76" height="3.42" transform="matrix(0.18, -0.98, 0.98, 0.18, 7.11, 272.14)"/></g><g class="cls-113"><rect class="cls-114" x="161.56" y="126.85" width="4.76" height="3.42" transform="translate(8.63 267.41) rotate(-79.9)"/></g><g class="cls-115"><rect class="cls-116" x="162.58" y="121.94" width="4.76" height="3.42" transform="translate(14.3 264.37) rotate(-79.9)"/></g><g class="cls-117"><rect class="cls-118" x="163.55" y="116.64" width="4.76" height="3.42" transform="matrix(0.18, -0.98, 0.98, 0.18, 20.31, 260.96)"/></g><g class="cls-119"><rect class="cls-120" x="171.19" y="115.99" width="4.7" height="3.14" transform="translate(27.37 267.8) rotate(-79.9)"/></g><g class="cls-121"><rect class="cls-122" x="170.38" y="121.19" width="4.7" height="3.15" transform="translate(21.58 271.28) rotate(-79.9)"/></g><g class="cls-123"><rect class="cls-124" x="169.47" y="126.49" width="4.7" height="3.14" transform="translate(15.62 274.76) rotate(-79.9)"/></g><g class="cls-125"><rect class="cls-126" x="168.84" y="132.69" width="4.68" height="3.13" transform="translate(8.2 278.36) rotate(-79.59)"/></g><g class="cls-127"><rect class="cls-128" x="171.51" y="128.12" width="4.67" height="3.03" transform="translate(15.73 278.05) rotate(-79.9)"/></g><g class="cls-129"><rect class="cls-130" x="172.35" y="123.53" width="4.67" height="3.03" transform="translate(20.95 275.1) rotate(-79.9)"/></g><g class="cls-131"><rect class="cls-132" x="173.18" y="118.55" width="4.67" height="3.03" transform="translate(26.53 271.81) rotate(-79.9)"/></g><g class="cls-133"><rect class="cls-134" x="168.59" y="117.83" width="4.76" height="3.42" transform="translate(23.3 266.9) rotate(-79.9)"/></g><g class="cls-135"><rect class="cls-136" x="167.58" y="123.13" width="4.76" height="3.42" transform="translate(17.24 270.27) rotate(-79.9)"/></g><g class="cls-137"><rect class="cls-138" x="166.7" y="128.05" width="4.76" height="3.42" transform="translate(11.68 273.47) rotate(-79.9)"/></g><g class="cls-139"><rect class="cls-140" x="165.73" y="133.01" width="4.76" height="3.42" transform="translate(6 276.6) rotate(-79.9)"/></g><path class="cls-11" d="M160.73,148.88s-2.74-.16-3.63-.11a10.94,10.94,0,0,0-4.88,1.25c-1.23.72-1.27,1.68-1.05,1.89a3.19,3.19,0,0,0,2.73.72,11.29,11.29,0,0,0,4.4-1.67,21.16,21.16,0,0,0,2.43-2.1"/><path class="cls-11" d="M159.36,142.09s-1.65.68-2.67,1a16.78,16.78,0,0,1-3.9.73,24.81,24.81,0,0,1-3.11-.13v.16s1.1.11,2.56.16a15.91,15.91,0,0,0,2.29-.13c.55-.07,2.1-.55,2.5-.65a23.68,23.68,0,0,0,2.33-.95c.06-.06,0-.18,0-.18"/><g class="cls-141"><g class="cls-142"><rect class="cls-143" x="61.89" y="38.04" width="114.37" height="134.97"/></g><g class="cls-144"><rect class="cls-145" x="146.03" y="93.21" width="32.55" height="63.68"/></g></g><g class="cls-146"><g class="cls-147"><rect class="cls-148" x="52.2" y="30.63" width="69.63" height="69.52" transform="translate(-20.1 84.7) rotate(-47.14)"/></g></g><path class="cls-5" d="M121.89,198.64a91.95,91.95,0,1,1,65-26.92A92,92,0,0,1,121.89,198.64Zm0-177.52a85.57,85.57,0,1,0,85.57,85.56,85.57,85.57,0,0,0-85.57-85.56Z"/><path class="cls-149" d="M146.07,74.38l3.78-3.48,4.23,4.58L150.31,79l1.78,1.89,2.65-2.44,4.67,5.06-11.29,10.4-4.72-5.08,2.68-2.47-1.79-1.89L133.35,94.61,129.12,90l-2.19-22.56,6.86-6.33ZM135.68,84l4.47-4.13-5.55-5.94Z"/></g></svg>