<svg id="Layer_1" data-name="Layer 1" xmlns="http://www.w3.org/2000/svg" viewBox="0 0 250 250"><defs><style>.cls-1{fill:#232a59;}.cls-2{fill:#0f7ec2;}.cls-3{fill:#e62344;}.cls-4{fill:#009c3f;}.cls-5{fill:#f9b31a;}.cls-6{fill:#2b2422;}</style></defs><polygon class="cls-1" points="173.19 79.49 179.73 68.15 168.39 61.6 161.84 72.94 173.19 79.49 173.19 79.49"/><polygon class="cls-1" points="170.75 39.49 170.75 39.49 170.75 52.59 183.85 52.59 183.85 39.49 170.75 39.49 170.75 39.49"/><polygon class="cls-1" points="155.22 146.35 170.72 137.41 168.32 133.25 152.83 142.2 155.22 146.35 155.22 146.35"/><polygon class="cls-1" points="192.85 90.86 197.65 90.86 197.65 72.96 192.85 72.96 192.85 90.86 192.85 90.86"/><polygon class="cls-1" points="179.7 121.87 183.85 124.27 192.8 108.77 188.65 106.38 179.7 121.87 179.7 121.87"/><polygon class="cls-1" points="143.9 121.87 143.9 121.87 143.9 139.77 148.69 139.77 148.69 121.87 143.9 121.87 143.9 121.87"/><polygon class="cls-1" points="168.38 133.26 179.72 121.91 173.17 115.36 161.83 126.71 168.38 133.26 168.38 133.26"/><polygon class="cls-1" points="168.38 97.39 179.72 86.05 173.17 79.5 161.83 90.85 168.38 97.39 168.38 97.39"/><polygon class="cls-1" points="161.8 108.78 161.8 108.78 152.85 106.38 148.7 121.88 157.65 124.28 161.8 108.78 161.8 108.78"/><polygon class="cls-1" points="188.71 106.35 192.86 90.85 183.92 88.45 179.76 103.95 188.71 106.35 188.71 106.35"/><polygon class="cls-1" points="183.9 52.58 179.75 68.08 188.7 70.48 192.85 54.98 183.9 52.58 183.9 52.58"/><polygon class="cls-1" points="155.22 48.44 152.83 57.39 168.32 61.54 170.72 52.59 155.22 48.44 155.22 48.44"/><polygon class="cls-1" points="103.91 44.31 90.81 44.31 90.81 57.41 103.91 57.41 103.91 44.31 103.91 44.31"/><polygon class="cls-1" points="70.47 66.34 81.81 59.79 75.26 48.45 63.92 55 70.47 66.34 70.47 66.34"/><polygon class="cls-1" points="170.75 26.39 155.25 17.45 152.86 21.6 168.35 30.55 170.75 26.39 170.75 26.39"/><polygon class="cls-1" points="101.52 17.44 86.02 26.39 88.42 30.54 103.92 21.6 101.52 17.44 101.52 17.44"/><polygon class="cls-1" points="137.36 12.62 119.47 12.62 119.47 17.41 137.36 17.41 137.36 12.62 137.36 12.62"/><polygon class="cls-1" points="168.38 35.35 152.88 44.29 155.28 48.45 170.77 39.5 168.38 35.35 168.38 35.35"/><polygon class="cls-1" points="152.85 21.59 137.35 17.44 134.96 26.38 150.45 30.54 152.85 21.59 152.85 21.59"/><polygon class="cls-1" points="121.8 39.49 106.3 35.34 103.9 44.28 119.4 48.44 121.8 39.49 121.8 39.49"/><polygon class="cls-1" points="134.95 39.49 134.95 39.49 137.35 48.44 152.84 44.28 150.44 35.34 134.95 39.49 134.95 39.49"/><polygon class="cls-1" points="119.42 17.44 103.92 21.6 106.32 30.54 121.82 26.39 119.42 17.44 119.42 17.44"/><polygon class="cls-1" points="88.37 35.35 72.87 39.5 75.27 48.45 90.76 44.29 88.37 35.35 88.37 35.35"/><polygon class="cls-1" points="85.99 75.35 94.94 72.95 90.79 57.46 81.84 59.85 85.99 75.35 85.99 75.35"/><polygon class="cls-1" points="108.04 121.87 114.58 133.22 125.93 126.67 119.38 115.32 108.04 121.87 108.04 121.87"/><polygon class="cls-1" points="143.9 139.78 132.55 133.22 126 144.57 137.35 151.12 143.9 139.78 143.9 139.78"/><polygon class="cls-1" points="63.91 72.91 59.12 72.91 59.12 90.8 63.91 90.8 63.91 72.91 63.91 72.91"/><polygon class="cls-1" points="85.99 137.4 101.49 146.35 103.89 142.2 88.39 133.25 85.99 137.4 85.99 137.4"/><polygon class="cls-1" points="63.89 108.78 72.84 124.28 76.99 121.88 68.04 106.38 63.89 108.78 63.89 108.78"/><polygon class="cls-1" points="85.99 75.35 85.99 75.35 70.5 66.4 68.1 70.56 83.59 79.5 85.99 75.35 85.99 75.35"/><polygon class="cls-1" points="77.04 103.97 72.89 88.47 63.94 90.81 68.09 106.31 77.04 103.97 77.04 103.97"/><polygon class="cls-1" points="94.94 108.78 99.09 124.28 108.04 121.88 103.89 106.38 94.94 108.78 94.94 108.78"/><polygon class="cls-1" points="94.94 90.82 83.6 79.47 77.05 86.02 88.39 97.37 94.94 90.82 94.94 90.82"/><polygon class="cls-1" points="77.04 121.87 88.39 133.22 94.94 126.67 83.59 115.32 77.04 121.87 77.04 121.87"/><polygon class="cls-1" points="108.04 139.78 119.38 151.12 125.93 144.57 114.58 133.22 108.04 139.78 108.04 139.78"/><polygon class="cls-1" points="143.9 121.87 137.35 115.32 126 126.67 132.55 133.22 143.9 121.87 143.9 121.87"/><polygon class="cls-1" points="168.38 97.39 161.83 108.74 173.17 115.29 179.72 103.94 168.38 97.39 168.38 97.39"/><polygon class="cls-1" points="157.66 124.25 148.71 139.75 152.86 142.14 161.81 126.65 157.66 124.25 157.66 124.25"/><polygon class="cls-1" points="179.7 86.01 183.85 88.41 192.8 72.91 188.65 70.51 179.7 86.01 179.7 86.01"/><polygon class="cls-1" points="134.96 26.36 121.8 26.36 121.8 39.46 134.9 39.46 134.9 26.36 134.96 26.36 134.96 26.36"/><polygon class="cls-1" points="150.46 35.36 168.35 35.36 168.35 30.57 150.46 30.57 150.46 35.36 150.46 35.36"/><polygon class="cls-1" points="106.31 30.51 88.35 30.51 88.35 35.36 106.25 35.36 106.25 30.51 106.31 30.51 106.31 30.51"/><polygon class="cls-1" points="94.94 108.78 88.39 97.44 77.05 103.98 83.6 115.33 94.94 108.78 94.94 108.78"/><polygon class="cls-1" points="77.04 86.01 68.09 70.51 63.94 72.91 72.89 88.41 77.04 86.01 77.04 86.01"/><polygon class="cls-1" points="94.94 126.68 103.89 142.18 108.04 139.78 99.09 124.28 94.94 126.68 94.94 126.68"/><path class="cls-2" d="M109.71,210.75a16,16,0,1,0-16,16,11,11,0,0,0,1.4-.06,8.86,8.86,0,0,1-.06-1.29,10.93,10.93,0,0,1,.06-1.4,11,11,0,0,1-1.4.06,13.51,13.51,0,1,1,4.15-.71,10.75,10.75,0,0,0-.18,2v.82a15.81,15.81,0,0,0,12-15.38"/><path class="cls-3" d="M178.92,210.75a16,16,0,0,1-31.87,1.41,14.16,14.16,0,0,1,2.75.58,13.33,13.33,0,1,0-.12-2.87,20.12,20.12,0,0,0-2.63-.46,16,16,0,0,1,31.87,1.34"/><path class="cls-4" d="M145.65,212.05A13.29,13.29,0,0,1,158.8,223.4a14.94,14.94,0,0,0,2.75.58,15.92,15.92,0,0,0-15.9-14.56,11.09,11.09,0,0,0-1.41.06,8.79,8.79,0,0,1,.06,1.28,11.09,11.09,0,0,1-.06,1.41,11.18,11.18,0,0,1,1.41-.12m13.27,14.15a13.32,13.32,0,1,1-17.43-13.51,10.65,10.65,0,0,0,.12-2v-.82a16,16,0,1,0,19.94,16.72,12.15,12.15,0,0,1-2.63-.41"/><path class="cls-5" d="M109.63,212.13a11,11,0,0,0,.06-1.4,9.29,9.29,0,0,0-.06-1.29,11,11,0,0,1,1.4-.06,15.92,15.92,0,0,1,15.91,14.56,14.77,14.77,0,0,1-2.75-.58A13.29,13.29,0,0,0,111,212c-.46.06-.93.06-1.4.12m17.31,14.5A16,16,0,1,1,107,209.91v.82a10.57,10.57,0,0,1-.18,2,13.32,13.32,0,1,0,17.43,13.51,22.53,22.53,0,0,0,2.69.41"/><path class="cls-6" d="M128.36,194.78a16,16,0,0,0-15.91,14.68,13.33,13.33,0,0,1,2.63.47,13.29,13.29,0,1,1,17.37,13.51,10.58,10.58,0,0,0-.17,2v.82a16,16,0,0,0-3.92-31.46m0,29.24a13.3,13.3,0,0,1-13.16-11.34,14,14,0,0,0-2.75-.59,15.93,15.93,0,0,0,15.91,14.56,10.93,10.93,0,0,0,1.4-.06,8.79,8.79,0,0,1-.06-1.28,11.09,11.09,0,0,1,.06-1.41,5.53,5.53,0,0,1-1.4.12"/><polygon class="cls-1" points="61.34 183.99 58.01 183.99 58.01 166.33 53.16 166.33 53.16 163.23 66.2 163.23 66.2 166.33 61.34 166.33 61.34 183.99 61.34 183.99"/><polygon class="cls-1" points="103.31 183.99 99.33 183.99 94.36 175.04 92.49 177.67 92.49 183.99 89.16 183.99 89.16 163.29 92.49 163.29 92.49 172.59 92.55 172.59 98.86 163.23 102.67 163.23 96.58 172.24 103.31 183.99 103.31 183.99"/><polygon class="cls-1" points="114.53 183.99 111.19 183.99 111.19 175.04 105.69 163.23 109.14 163.23 112.83 171.36 112.95 171.36 116.63 163.23 120.08 163.23 114.58 175.04 114.58 183.99 114.53 183.99 114.53 183.99"/><path class="cls-1" d="M155.71,184H144.08v-3l.06-.06,7.71-9.94a2.89,2.89,0,0,0,.65-1.93,2.61,2.61,0,0,0-4.39-2,3.47,3.47,0,0,0-.82,2.34v.17h-3.21v-.17a6.73,6.73,0,0,1,1.69-4.56,5.29,5.29,0,0,1,4-1.7,5.65,5.65,0,0,1,4.27,1.7,5.86,5.86,0,0,1,1.64,4.32,6,6,0,0,1-1.47,4l-5.84,7.6.06.06h7.3V184Z"/><path class="cls-1" d="M188,184H176.33v-3l.06-.06,7.72-9.94a2.94,2.94,0,0,0,.64-1.93,2.6,2.6,0,0,0-2.51-2.69,2.53,2.53,0,0,0-1.87.7,3.47,3.47,0,0,0-.82,2.34v.17h-3.22v-.17a6.69,6.69,0,0,1,1.7-4.56,5.25,5.25,0,0,1,4-1.7,5.55,5.55,0,0,1,4.27,1.7,5.86,5.86,0,0,1,1.64,4.32,6,6,0,0,1-1.46,4l-5.85,7.6.06.06H188V184Z"/><path class="cls-1" d="M129,184.13a6.16,6.16,0,0,1-6.49-6.32v-8.54A6.12,6.12,0,0,1,129,163c3.86,0,6.49,2.58,6.49,6.26v8.54a6.2,6.2,0,0,1-6.49,6.32m0-17.78a3.29,3.29,0,0,0-3.34,3.45v7.48a3.35,3.35,0,1,0,6.67,0V169.8a3.25,3.25,0,0,0-3.33-3.45"/><path class="cls-1" d="M76.62,184.13a6.16,6.16,0,0,1-6.49-6.32v-8.54A6.12,6.12,0,0,1,76.62,163c3.86,0,6.49,2.58,6.49,6.26v8.54a6.2,6.2,0,0,1-6.49,6.32m0-17.78a3.29,3.29,0,0,0-3.33,3.45v7.48a3.34,3.34,0,1,0,6.66,0V169.8a3.25,3.25,0,0,0-3.33-3.45"/><path class="cls-1" d="M166.27,184.13a5.62,5.62,0,0,1-5.79-6v-9c0-3.63,2.34-6,5.79-6s5.79,2.4,5.79,6v9a5.62,5.62,0,0,1-5.79,6m0-17.78c-2.17,0-2.58,1.64-2.58,3v8.48c0,2,.88,3,2.58,3s2.57-1,2.57-3v-8.48c0-1.4-.41-3-2.57-3"/><path class="cls-1" d="M197.83,184.13a5.62,5.62,0,0,1-5.79-6v-9c0-3.63,2.34-6,5.79-6s5.79,2.4,5.79,6v9a5.62,5.62,0,0,1-5.79,6m0-17.78c-2.16,0-2.57,1.64-2.57,3v8.48c0,2,.82,3,2.57,3s2.58-1,2.58-3v-8.48c0-1.4-.41-3-2.58-3"/><polygon class="cls-1" points="178.85 132.75 180.37 132.75 180.37 136.62 180.9 136.62 180.9 132.75 182.42 132.75 182.42 132.41 178.91 132.41 178.91 132.75 178.85 132.75 178.85 132.75"/><polygon class="cls-1" points="186.11 132.35 184.88 135.39 184.83 135.39 183.48 132.35 182.9 132.35 182.9 136.62 183.31 136.62 183.31 133.28 184.47 135.97 185 135.97 186.11 133.22 186.17 133.22 186.17 136.67 186.58 136.67 186.58 132.41 186.11 132.41 186.11 132.35 186.11 132.35"/></svg>