<svg id="Layer_1" data-name="Layer 1" xmlns="http://www.w3.org/2000/svg" xmlns:xlink="http://www.w3.org/1999/xlink" viewBox="0 0 250 250"><defs><style>.cls-1{fill:none;}.cls-2{fill:#066bb0;}.cls-3{clip-path:url(#clip-path);}.cls-4{fill:#ed6e28;}.cls-5{fill:#231f20;}.cls-6{fill:#fff;}</style><clipPath id="clip-path"><path class="cls-1" d="M117.53,19.27a56.64,56.64,0,1,0,26.06-6.37,56.62,56.62,0,0,0-26.06,6.37"/></clipPath></defs><path id="LOGO_BG" data-name="LOGO BG" class="cls-2" d="M75.67,38.59s-14.31,0-14.31,14.31V213.34s0,14.31,14.31,14.31H177.05s14.31,0,14.31-14.31V52.9s0-14.31-14.31-14.31Z"/><g id="LOPTA"><g id="MASKA"><g class="cls-3"><polyline class="cls-4" points="215.49 22.44 198.58 142.7 70.74 124.73 87.64 4.47 215.49 22.44"/></g></g><path class="cls-5" d="M168,117.08A53,53,0,1,1,190.74,45.6,53,53,0,0,1,168,117.08m1.87,3.55a57.08,57.08,0,1,0-76.91-24.5v0a57.18,57.18,0,0,0,76.91,24.47"/><path class="cls-5" d="M195.92,82.54c.33-1.38.6-2.78.83-4.2-7.73-4.11-15.26-5.32-21.47-1-2.09-2.48-4.32-5-6.72-7.57A114.51,114.51,0,0,0,181,30.92a55,55,0,0,0-5-4.29,119.41,119.41,0,0,1-11.84,38.63,99.46,99.46,0,0,0-11.87-9.7c4.89-13.3,3.47-26.89-.88-39.32l-.6-.1c-.75-.11-1.51-.19-2.25-.26,3.75,12,4.64,24.78-.47,36.92A96.82,96.82,0,0,0,98.94,38.66c-.89,1.22-1.68,2.48-2.44,3.77,15.74.89,33.38,4.7,49.45,14.77l-.19.36c-9.8,17.28-32.67,21.72-56,21,.11.7.25,1.4.4,2.09,25.49,1.87,50.74-1.77,60.17-20.52a89.72,89.72,0,0,1,11.36,9.69,108.22,108.22,0,0,1-15.19,20.42,273.19,273.19,0,0,1-29.29,27.11,52.16,52.16,0,0,0,5.32,2.58,206.63,206.63,0,0,0,29.15-26.3,121,121,0,0,0,14.2-19.27q3,3.24,5.7,6.35c-6.42,8-7,22.43-5,38,1.12-.54,2.21-1.11,3.29-1.72-1.33-14.29-.67-27,4.2-33.41a186.47,186.47,0,0,1,13.24,17.76q1.28-1.77,2.4-3.64a142.47,142.47,0,0,0-12-17.28c4.92-2.66,11.3-1.34,18.13,2.18"/></g><path id="ABA" class="cls-6" d="M159.23,176.1l1.35-14.44,1.26,14.44,1.36,11.15h-5.33Zm-15.9,33.54h11.92L156.51,199h8l1.36,10.65h12.43l-10.57-72.22h-14Zm-19.2-42V149h2.71c3.21,0,3.3,1.65,3.3,9.4s-.19,9.21-3.3,9.21Zm0,31.11V179.25H127c3.29,0,3.48,1.95,3.48,9.61s-.19,9.88-3.48,9.88Zm-11.79,10.86h15.9c10.86,0,13.87-5.81,13.87-19.48,0-11.24-.1-17.06-5-18.42,4.44-1.84,4.55-7.66,4.55-15.8,0-11.92-1.26-18.13-13.47-18.13H112.34Zm-22-33.54,1.35-14.44,1.27,14.44,1.35,11.15H88.94ZM74.4,209.64H86.32L87.58,199h8L97,209.64h12.43L98.85,137.42h-14Z"/></svg>