<svg id="Layer_1" data-name="Layer 1" xmlns="http://www.w3.org/2000/svg" viewBox="0 0 250 250"><defs><style>.cls-1{fill:#363331;fill-rule:evenodd;}</style></defs><path class="cls-1" d="M125.75,67.32c12.07,3.33,21.07,4.9,21.07,4.9A188.27,188.27,0,0,1,133,56.68c7-9.9,12.52-16.75,12.52-16.75q-10.49,2.34-20.71,5.72A166,166,0,0,1,115.59,31a89.06,89.06,0,0,0-2.87,19c-10,3.87-16.22,7-16.22,7,5.39,2.43,11,4.55,16.42,6.38a108.59,108.59,0,0,0,3.24,19.77c3-5.41,6.36-10.78,9.66-15.81Z"/><path class="cls-1" d="M180.83,64.32a15.55,15.55,0,0,1-7.08,5.6,146.16,146.16,0,0,0-1.67-15.48,182,182,0,0,1-7.74,18,71.83,71.83,0,0,1-17.52-.17,71.88,71.88,0,0,0,11.45,11.35,107.89,107.89,0,0,1-7.72,11.58,42.11,42.11,0,0,0,15.2-6.59,14.87,14.87,0,0,1,4.38,4.45s2.56-3.62,3.44-12A37.06,37.06,0,0,0,180.83,64.32Z"/><path class="cls-1" d="M178,41.43a39.65,39.65,0,0,0-11.3-14.73c-3.76-7.93-8.13-11.59-8.13-11.59a12.13,12.13,0,0,1-.59,6,54.21,54.21,0,0,0-18-5.28,76.28,76.28,0,0,1,14.47,12.6,76.74,76.74,0,0,1-8.88,11.51,87.15,87.15,0,0,1,16.39-2.26,112.85,112.85,0,0,1,10.17,16.74,67,67,0,0,0-1.51-16.1c5.64,1.06,7.38,3.15,7.38,3.15Z"/><path class="cls-1" d="M139.93,15.85a68.46,68.46,0,0,0-13-5,26.56,26.56,0,0,1,10-5.48A53.5,53.5,0,0,0,115.5,8.84a46.81,46.81,0,0,0-14.6.83,15.07,15.07,0,0,1,3.62,5A48.61,48.61,0,0,0,93.14,25.18a79.17,79.17,0,0,1,14.12-5.27c.52.94,1.06,1.88,1.66,2.82a55.1,55.1,0,0,0,6.59,8.33,38.52,38.52,0,0,1,5.81-14A120.79,120.79,0,0,1,139.93,15.85Z"/><path class="cls-1" d="M82.64,33.92a101,101,0,0,1,10.5-8.77,36,36,0,0,0-8,1.05A43.13,43.13,0,0,1,90.84,16S73.67,28.25,70.39,50.32c0,0,1.45-4,6.35-10a35,35,0,0,0,4.19,7.11A57.24,57.24,0,0,1,82.64,34Z"/><path class="cls-1" d="M96.43,57a96.82,96.82,0,0,0-14.31,1.37,101.59,101.59,0,0,1-1.19-11,48.69,48.69,0,0,0-6,12.89c-4.16,1.55-5.22,3-5.22,3a19.09,19.09,0,0,0,3.59,6.4,35,35,0,0,0,2.55,16A33.74,33.74,0,0,1,79.68,76a72.91,72.91,0,0,0,10.16,6.72A63.47,63.47,0,0,1,84.41,69a80.09,80.09,0,0,1,12-12Z"/><path class="cls-1" d="M126,106a112.68,112.68,0,0,1-12.24-6,129.71,129.71,0,0,1,2.32-16.78,75.79,75.79,0,0,1-13.1,10A125.23,125.23,0,0,1,89.82,82.71a84.71,84.71,0,0,0,6.24,13.84c-3.9,1.45-7.92,2.13-11.59,1.23,0,0,4.34,5.42,17.72,7.72,3.71,4.4,8.23,8,13.51,9.3,0,0-1.59-1.74-2-8.29a108.66,108.66,0,0,0,12.24-.55Z"/><path class="cls-1" d="M150.26,105.42a29.49,29.49,0,0,0,.29-10.22,68.17,68.17,0,0,1-9.8,11.39A77.43,77.43,0,0,1,126,106a35.52,35.52,0,0,0,8,5.83c-5.65,3.48-9.41,3.76-9.41,3.76A55.07,55.07,0,0,0,164,100a39.43,39.43,0,0,1-13.74,5.4Z"/><path class="cls-1" d="M98.75,171a34,34,0,0,1,51.77.62l1.64-1.55a36.21,36.21,0,0,0-51-4.43,38.31,38.31,0,0,0-3.92,3.83Z"/><polygon class="cls-1" points="121.48 152.95 111.52 155.02 109.02 142.97 118.83 140.93 119.3 143.14 112.85 144.48 113.37 147.01 119.52 145.73 119.98 147.94 113.83 149.21 114.43 152.11 121.02 150.75 121.48 152.95 121.48 152.95"/><polygon class="cls-1" points="140.47 145.17 134.53 143.92 133.96 146.61 139.9 147.86 139.43 150.07 133.5 148.82 132.46 153.75 129.09 153.04 131.64 141.01 140.93 142.97 140.47 145.17 140.47 145.17"/><path class="cls-1" d="M154.8,165.77l-3-2.82.47-2.65-5.07-3.52L145,158.19l-3.3-1.87,12-7.13,3.27,2.26-2.09,14.28Zm-1-13.18-4.52,2.83,3.59,2.49.94-5.36Z"/><path class="cls-1" d="M100.09,160.8c-2.21,1.75-6,3.18-8.69,0l-4-5.07L90,153.65l3.88,5c1.4,1.64,3.16,1.33,4.55.23s2.12-2.75.85-4.49l-3.88-5,2.69-2.07,4,5.08c2.36,3.23.94,6.15-2,8.47Z"/><path class="cls-1" d="M166.91,153.75a58.19,58.19,0,0,0-82.28-2h0c-.83.79-1.64,1.61-2.42,2.44l-1.82-1.87a61.25,61.25,0,0,1,86.6-2h0c.6.57,1.18,1.15,1.75,1.74Z"/><path class="cls-1" d="M178.82,202.68c-7.37,0-11.84-6.17-11.84-13a11.78,11.78,0,0,1,11.41-12.13H179c7.53,0,12.09,6,12.09,12.59,0,7.8-5.64,12.49-12.23,12.49Zm-.41-21.53c-4.59,0-5.95,4.37-5.95,7.33,0,4.33,1.88,10.66,7.21,10.66,3.76,0,6-3.37,6-7.41,0-4.28-1.67-10.58-7.22-10.58Z"/><path class="cls-1" d="M133.75,199.17c0,1.33.26,1.81,2.41,2.23v.92c-2.33-.12-3.77-.22-5.14-.22s-2.83.1-4.45.22v-.94c1.45-.27,1.71-.9,1.71-2.64V180.67c0-1-.45-1.52-1.71-1.55v-1h11c6.85,0,9.33,3.26,9.33,7.53,0,4.58-3.48,7.4-8.25,7.4-1.81,0-4.48-.94-4.48-1.71,0-.32.22-.32.56-.32s.81.11,1.29.11c3.88,0,5.4-2.19,5.4-5.26,0-3.33-2.07-4.51-5.33-4.51l-2.29.24v17.59Z"/><path class="cls-1" d="M154,180.45c0-1-.44-1.52-1.7-1.55V178c1.63.11,3.08.22,4.44.22s2.82-.11,4.43-.22v.94c-1.25,0-1.69.51-1.69,1.55v19.39c0,1,.44,1.52,1.69,1.56v.92c-1.62-.11-3.06-.22-4.43-.22s-2.82.11-4.44.22v-.94c1.26,0,1.7-.52,1.7-1.56Z"/><path class="cls-1" d="M198.52,180.42c0-1-.44-1.51-1.7-1.54v-.94c1.63.11,3.07.22,4.44.22a17.69,17.69,0,0,0,3.26-.22l10.23,16.55h0V180.94c0-1.88-1.21-2.06-2.22-2.06v-.94c1.23.11,2.41.22,3.56.22s2.44-.11,3.62-.22v.94c-1.26,0-1.7.51-1.7,1.54v21.9h-3.92l-12.24-19.11h-.1v16.11c0,1.88,1.23,2.07,2.23,2.07v.93c-1.22-.12-2.41-.22-3.56-.22s-2.44.1-3.62.22v-.94c1.26,0,1.7-.53,1.7-1.57V180.42Z"/><path class="cls-1" d="M227.32,193.9c.76,4.15,3.49,6.09,7.53,6.09,2.24,0,5.48-.64,5.48-3.5,0-2.29-2.35-2.9-4.11-3.42l-2.7-.8c-3.89-1.14-7.78-2.83-7.78-7.28,0-5.9,5.71-7.69,11.39-7.69a21.34,21.34,0,0,1,7.09,1.21c0,2.74.15,5.07.3,7h-.94c-.8-3.51-3.65-5.13-7.08-5.13-1.88,0-5.11.6-5.11,3.22,0,2.1,1.88,2.71,3.39,3.17l4,1.14c3.86,1.11,7.43,2.52,7.43,7.47s-5.07,7.69-11.29,7.69a25.14,25.14,0,0,1-8.28-1.37c0-3-.11-5.64-.29-7.85Z"/><path class="cls-1" d="M34.93,180.44c0-1-.43-1.51-1.69-1.55V178c1.63.1,3.07.22,4.43.22s2.83-.12,4.44-.22v.94c-1.25,0-1.7.52-1.7,1.55v7.34h9v-7.34c0-1-.45-1.51-1.7-1.55V178c1.62.1,3.07.22,4.43.22s2.83-.12,4.44-.22v.94c-1.25,0-1.7.51-1.7,1.54v19.4c0,1,.45,1.52,1.7,1.56v.93c-1.62-.12-3.06-.23-4.44-.23s-2.82.11-4.44.23v-.94c1.26,0,1.71-.53,1.71-1.56v-8.5h-9v8.47c0,1,.44,1.52,1.7,1.56v1c-1.62-.12-3.06-.23-4.44-.23s-2.82.11-4.44.23v-.94c1.27,0,1.7-.53,1.7-1.56Z"/><path class="cls-1" d="M70.24,191.73c.94-2.63,2.15-5.54,3-8.47h.08a72.87,72.87,0,0,0,2.13,8.47Zm-8.95,10.59c1.3-.12,2.55-.22,3.84-.22s2.56.1,3.76.22v-.94c-1.21-.08-1.74-.52-1.74-1.19a4.11,4.11,0,0,1,.3-1.29l1.63-4.37h7.21l1.19,3.59a5.76,5.76,0,0,1,.37,1.88c0,.85-.48,1.15-1.88,1.4v.92c1.59-.12,3.18-.22,4.77-.22s3.15.1,4.71.22v-.95c-1.1-.3-1.66-.78-2.22-2.4L76.49,177.9c-1.15.11-2.34.22-3.47.22s-2.3-.12-3.49-.22v.94c1,0,1.42.59,1.42.94a5.31,5.31,0,0,1-.48,1.44l-7.26,18.39a2.25,2.25,0,0,1-1.88,1.71v1Z"/><path class="cls-1" d="M93,183.93c0-1,.11-2.07.11-3.55,0-1.16-.26-1.3-1.66-1.48V178c1.11.1,2.43.22,3.76.22s2.66-.12,4-.22l6.55,17.12,5.81-17.15c1.29.11,2.55.22,3.84.22s2.6-.11,3.85-.22v.94c-1.29.11-1.48.51-1.48,1.52s.15,2.69.26,4l1.18,15.79c.09.94,1.15,1.11,1.89,1.23v.91c-1.6-.11-3.22-.22-4.82-.22s-3.21.11-4.71.22v-.94c1.81-.23,2.29-.56,2.29-2.26,0-.89-.12-2.56-.22-3.77l-.89-11h0l-6.18,18.2h-3.11l-7.09-18.4h-.12L96,195c0,1.88-.11,2.92-.11,3.91,0,1.89.19,2.26,2.41,2.53v.91c-1.49-.12-2.82-.22-4.26-.22a36,36,0,0,0-3.88.22v-.94c1.44-.12,2-.45,2.11-2L93,183.92Z"/><path class="cls-1" d="M27.67,201a15.21,15.21,0,0,1-8.55,2.73c-8.82,0-13.8-6.85-13.8-13.86,0-7.18,5-14.12,14.53-14.12a19.59,19.59,0,0,1,6.71,1c0,2.82.15,5.5.35,8.18H25.84c-.65-3.42-3-5.23-6.47-5.23-4.65,0-8.25,3.66-8.25,9.86,0,4.66,3.84,9.94,9.22,9.94a13.76,13.76,0,0,0,7.8-3.11l-.47,4.59Z"/><path class="cls-1" d="M67.75,215.69c0-.79-.34-1.16-1.31-1.19v-.78c1.25.08,2.37.17,3.42.17,1.21,0,2.94-.09,3.77-.17v.78c-1.46,0-1.66.77-1.66,1.57v14h5.28c1.89,0,2.66-.86,3.14-3h.94a32.28,32.28,0,0,0-.69,5.54H66.41v-.78c.94,0,1.31-.4,1.31-1.2Z"/><path class="cls-1" d="M85.89,215.8c0-.8-.34-1.18-1.31-1.21v-.78H99c0,1.47.09,2.94.24,4.4h-.78c-.29-1.58-.69-2.12-2.23-2.12H90.13v5.51h3.76c1.29,0,1.49-.43,1.66-1.46h.77c-.08.71-.17,1.94-.17,2.73s.09,2,.17,2.71h-.78c-.17-1-.37-1.46-1.66-1.46H90.12v5.93h6.43c1.53,0,2-.51,2.5-2.92H100c-.25,2.35-.32,3.87-.35,5.43H84.58v-.78c.94,0,1.31-.4,1.31-1.2Z"/><path class="cls-1" d="M103.44,231.8a1.76,1.76,0,0,0,1.49-1.31l5.59-14.17a3.16,3.16,0,0,0,.37-1.11c0-.28-.3-.73-1.08-.73v-.78c.94.08,1.81.17,2.69.17s1.8-.09,2.68-.17l5.26,16.24c.43,1.25.86,1.63,1.71,1.89v.77c-1.2-.08-2.42-.16-3.62-.16s-2.46.08-3.69.16v-.77c1.06-.2,1.44-.44,1.44-1.09a5,5,0,0,0-.3-1.43l-.94-2.76H109.5l-1.26,3.36a3.39,3.39,0,0,0-.23,1c0,.51.4.85,1.35.94v.78c-.94-.08-2-.16-3-.16s-2,.08-3,.16v-.84Zm10.94-7.48a53.35,53.35,0,0,1-1.65-6.59h-.06c-.66,2.28-1.57,4.53-2.31,6.59Z"/><path class="cls-1" d="M137.44,225.9c0-1.15-.51-1.21-1.79-1.24v-.94c1.16.09,2.34.17,3.53.17s2.55-.08,3.83-.17v.94c-1,0-1.52.29-1.52,1.57v6.4h-1.66l-.65-1.89a7.82,7.82,0,0,1-5.64,2.29c-5.38,0-8.8-4.43-8.8-9.57,0-6.2,4.15-10,10.35-10a10.9,10.9,0,0,1,5.65,1.34c0,1.4,0,3,.17,5h-.82c-.38-2.55-2.83-3.76-5.16-3.76-4,0-5.91,3-5.91,6.72s2,7.53,5.31,7.53c2,0,3.15-.94,3.15-2.26v-2Z"/><path class="cls-1" d="M148.75,215.69c0-.79-.34-1.16-1.31-1.19v-.78c.94.08,2.08.17,3.28.17,1.48,0,2.66-.09,3.77-.17v.78c-1.23,0-1.54.28-1.54,1.4v10.67c0,3.23,1.33,3.86,3.65,3.86s3.66-.68,3.66-3.86V215.9c0-1.12-.31-1.35-1.54-1.4v-.78c1.14.08,2.3.17,3.76.17,1.2,0,2.37-.09,3.28-.17v.78c-.95,0-1.31.4-1.31,1.19V226c0,5.28-2.75,7-7.89,7s-7.9-1.7-7.9-6.59v-10.7Z"/><path class="cls-1" d="M171.88,215.8c0-.8-.34-1.18-1.3-1.21v-.78H185c0,1.57.09,2.82.23,4.4h-.78c-.29-1.58-.69-2.12-2.23-2.12h-6.11v5.43h3.76c1.28,0,1.49-.42,1.66-1.45h.78c-.08.71-.17,1.94-.17,2.71s.09,2,.17,2.72h-.78c-.17-1-.38-1.46-1.66-1.46h-3.76v6h6.43c1.53,0,2-.51,2.5-2.92H186c-.25,2.35-.31,3.87-.34,5.43H170.59v-.78c.95,0,1.31-.4,1.31-1.2V215.8Z"/><path class="cls-1" d="M190.44,240.32a3.43,3.43,0,1,0-.08,0Zm-2.82-3.43a2.76,2.76,0,1,1,0,.14Zm2.06.27h.76l1,1.71h.67L191,237.14a1,1,0,0,0,1-1,.13.13,0,0,0,0-.06h0c0-.77-.46-1.12-1.38-1.12h-1.5v3.95h.6v-1.79Zm0-.5v-1.23h.82c.42,0,.86.1.86.58s-.45.65-.94.65Z"/></svg>