<svg id="Layer_1" data-name="Layer 1" xmlns="http://www.w3.org/2000/svg" viewBox="0 0 250 250"><defs><style>.cls-1{fill:#d9b07a;}.cls-1,.cls-2,.cls-3,.cls-4{fill-rule:evenodd;}.cls-2{fill:#1867b0;}.cls-3{fill:#fff;}.cls-4{fill:#e7372a;}</style></defs><path class="cls-1" d="M211.05,48c-11.66-.72-21.8-3.05-30.11-6.91A47.59,47.59,0,0,1,164.72,29.1c-7.15-8.29-8.21-16.34-8.23-16.42l-.31-2.37H89.12l-.29,2.37c0,.09-1.08,8.14-8.23,16.43A47.78,47.78,0,0,1,64.38,41.05C56.06,44.87,45.93,47.24,34.27,48l-3.05.19.55,3a473.88,473.88,0,0,0,20.39,71.17c8.27,21.9,17.57,40.85,27.68,56.26,12.7,19.39,26.72,33.2,41.61,41l1.26.66,1.26-.66c14.9-7.86,28.9-21.67,41.6-41,10.05-15.37,19.35-34.28,27.61-56.21a473.89,473.89,0,0,0,20.36-71.22l.55-3Z"/><path class="cls-2" d="M132.33,182.7c.06-.34.13-.68.19-1,3.17-17.18,6.41-40.56,9.61-69.59,4.69-42.63,8-85.09,8.79-96.39H94.42c.83,11.28,4.08,53.74,8.79,96.39,3.2,29,6.42,52.49,9.6,69.59.07.36.13.7.19,1a30.11,30.11,0,0,1,19.31,0Z"/><path class="cls-1" d="M111.72,150.9h7.64a4.93,4.93,0,0,0,1.14,2.74,3.34,3.34,0,0,0,2.45.84,3.24,3.24,0,0,0,2.17-.68,2.36,2.36,0,0,0,.78-1.91c0-1.28-1.09-2.29-3.3-3.1-.43-.16-.76-.27-.95-.37a40,40,0,0,1-4.33-1.81,11,11,0,0,1-2.33-1.54,9.76,9.76,0,0,1-2.11-3.49,14.26,14.26,0,0,1-.71-4.63,11.82,11.82,0,0,1,2.75-8.22,11,11,0,0,1,14.92-.12q2.73,2.87,3.06,8.17h-7.46a3.76,3.76,0,0,0-1-2.32,3,3,0,0,0-2.19-.75,2.54,2.54,0,0,0-1.9.59,2.36,2.36,0,0,0-.61,1.81c0,1.18,1.06,2.14,3.2,2.86a1.72,1.72,0,0,0,.42.18l1.41.49c2.87,1,4.71,2,5.59,2.82a9.57,9.57,0,0,1,2.36,3.55,13.24,13.24,0,0,1,.75,4.66c0,3.88-1,6.86-2.86,9s-4.59,3.12-8.11,3.12a10,10,0,0,1-7.69-3.12q-2.86-3.13-3.19-8.8Z"/><path class="cls-1" d="M111.12,113.18V78h7.45s8,20.16,8.28,21.34c-.08-.63-.21-21.36-.21-21.36h7.49v35.15H126.6s-8-20.13-8.28-21.26c.09.61.21,21.26.21,21.26Z"/><polygon class="cls-1" points="111.12 64.5 111.12 29.35 118.98 29.35 118.98 41.27 126.28 41.27 126.28 29.35 134.13 29.35 134.13 64.5 126.28 64.5 126.28 50.87 118.98 50.87 118.98 64.5 111.12 64.5 111.12 64.5"/><path class="cls-3" d="M174.19,103.43c-.17.82-.35,1.65-.52,2.45C180.1,105,187,104,194.26,102.8c3.13-9.54,5.73-18.45,7.74-26.14-8.06,1.26-15.8,2.31-23.05,3.2-1.43,7.51-3,15.47-4.78,23.57Z"/><path class="cls-3" d="M94.22,77.31c-1-10.17-1.82-19.78-2.55-28.3-7.75-.48-16.46-1.13-25.54-2C67.36,54.68,69,64.29,71,75,79.56,75.93,87.38,76.74,94.22,77.31Z"/><path class="cls-3" d="M179.18,47c-9.07.9-17.79,1.55-25.53,2-.74,8.52-1.59,18.13-2.56,28.3,6.83-.57,14.67-1.33,23.25-2.33,2-10.69,3.6-20.3,4.84-28Z"/><path class="cls-4" d="M77.36,106.6c7.45.89,14.18,1.55,20,2-1-8.76-1.84-17.46-2.65-25.85-6.68-.55-14.31-1.29-22.72-2.24,1.58,8.29,3.37,17.1,5.34,26.06Z"/><path class="cls-3" d="M78.61,112.22c1.84,8.07,3.82,16.18,5.94,24.1,6,.83,11.45,1.44,16.28,1.91q-1.35-10.74-2.7-22.84L98,114.12c-3.82-.3-8.09-.68-12.68-1.16C83.18,112.74,81,112.5,78.61,112.22Z"/><path class="cls-4" d="M93.9,166.7c4.09.69,7.82,1.21,11.15,1.61q-1.74-11.1-3.51-24.59c-4.54-.42-9.73-1-15.44-1.74,2.44,8.7,5.05,17.06,7.8,24.72Z"/><path class="cls-3" d="M106,173.91c-2.95-.34-6.25-.77-9.85-1.33a146.63,146.63,0,0,0,7.12,15.7,30.09,30.09,0,0,1,4.7-3.3Q107,179.84,106,173.91Z"/><path class="cls-3" d="M149.2,172.58c-3.6.56-6.89.95-9.85,1.33q-1,5.93-2,11.06a30.17,30.17,0,0,1,4.71,3.3,146.41,146.41,0,0,0,7.11-15.69Z"/><path class="cls-4" d="M159.21,142c-5.73.75-10.9,1.32-15.44,1.74q-1.77,13.49-3.51,24.59c3.33-.4,7.06-.95,11.14-1.61,2.77-7.64,5.38-16,7.81-24.72Z"/><path class="cls-3" d="M166.68,112.22c-2.34.27-4.58.52-6.68.74-4.57.48-8.82.86-12.67,1.16l-.15,1.27q-1.34,12.09-2.7,22.84c4.78-.47,10.25-1.08,16.29-1.91,2.11-7.92,4.1-16,5.93-24.1Z"/><path class="cls-4" d="M173.29,80.54c-8.4.95-16.06,1.69-22.73,2.24-.81,8.39-1.7,17.09-2.64,25.85,5.86-.48,12.59-1.14,20-2,2-9,3.75-17.77,5.34-26.06Z"/><path class="cls-4" d="M184.45,48.3c-1.15,7.25-2.66,16.15-4.46,26,7.4-1,15.27-2,23.5-3.33,2.07-8.16,3.44-14.43,4.14-17.86a93.79,93.79,0,0,1-23.18-4.77Z"/><path class="cls-4" d="M160.36,32.33a43.92,43.92,0,0,1-4.77-6.85c-.38,4.88-.88,11-1.47,18.14,5.52-.36,11.51-.79,17.76-1.33a50.2,50.2,0,0,1-11.5-9.91Z"/><path class="cls-4" d="M89.74,25.48A44.39,44.39,0,0,1,85,32.33a49.74,49.74,0,0,1-11.45,9.91c6.25.55,12.23,1,17.75,1.33-.59-7.06-1.08-13.21-1.46-18.14Z"/><path class="cls-4" d="M60.85,48.3a93.61,93.61,0,0,1-23.18,4.77c.72,3.43,2.08,9.7,4.14,17.86,8.23,1.34,16.08,2.44,23.52,3.36C63.52,64.45,62,55.55,60.85,48.3Z"/><path class="cls-3" d="M71.11,103.43c-1.73-8.1-3.33-16.06-4.77-23.57-7.25-.89-15-1.91-23.06-3.2,2,7.69,4.62,16.6,7.74,26.14,7.28,1.23,14.17,2.24,20.6,3.08-.17-.8-.35-1.63-.53-2.45Z"/><path class="cls-4" d="M72.89,111.52c-6.07-.78-12.74-1.73-19.89-2.87q2,5.85,4.27,11.89c1.51,4,3.16,8.17,4.77,12.1,5.86,1.13,11.45,2.08,16.64,2.86q-2.94-11.16-5.82-24Z"/><path class="cls-3" d="M80.24,141.16c-4.89-.72-10.12-1.57-15.62-2.58q5.88,13.36,12.26,24.71,5.72,1.34,10.89,2.31Q83.95,154.67,80.24,141.16Z"/><path class="cls-4" d="M89.92,171.54c-3-.54-6.06-1.14-9.3-1.85q1.84,3,3.72,5.91a156.94,156.94,0,0,0,13.81,18.25c.36-.52.74-1,1.14-1.51a154.88,154.88,0,0,1-9.37-20.77Z"/><path class="cls-4" d="M146,192.3c.4.49.78,1,1.15,1.5A158.4,158.4,0,0,0,161,175.6q1.88-2.86,3.72-5.91c-3.26.71-6.37,1.31-9.31,1.85A156,156,0,0,1,146,192.3Z"/><path class="cls-3" d="M157.54,165.6q5.18-1,10.9-2.31,6.36-11.34,12.24-24.71c-5.49,1-10.71,1.86-15.61,2.58Q161.37,154.67,157.54,165.6Z"/><path class="cls-4" d="M166.61,135.47c5.21-.79,10.77-1.74,16.63-2.86q2.46-5.88,4.77-12.1c1.51-4,2.93-8,4.27-11.88-7.16,1.17-13.83,2.12-19.9,2.86q-2.87,12.78-5.81,24Z"/><path class="cls-3" d="M122.66,181.11a30.07,30.07,0,1,1-30,30.09v0A30.12,30.12,0,0,1,122.66,181.11Z"/><path class="cls-1" d="M129.94,220.41c-1.71-3-3.68-6.41-7.4-8.34-9.72,2.63-17.18,2.7-29.93-.12A30,30,0,0,0,95.3,223.6C107.2,225.45,120.18,225.22,129.94,220.41Z"/><path class="cls-1" d="M127,200.19a22.3,22.3,0,0,0-3.07,10.49c7.2,7.18,11,13.08,15.33,25.57a30.27,30.27,0,0,0,8.17-8c-4.37-11.11-11.45-22-20.43-28Z"/><path class="cls-1" d="M122,209.9c2.56-9.54,6.1-16,14.6-25.36a30,30,0,0,0-11.51-3.34c-7.27,9.26-13.07,20.43-13.77,31A25.56,25.56,0,0,0,122,209.9Z"/><path class="cls-1" d="M136.3,231.85a43.81,43.81,0,0,0-5.62-10.1c-10.31,5-22.18,5.23-34.43,3.75A30.37,30.37,0,0,0,106,236.19c10.81.76,20.72-1.33,30.28-4.34Z"/><path class="cls-1" d="M134.37,189.43a28.4,28.4,0,0,0-6.4,9.5c9.44,6.44,15.59,16.52,20.41,27.81a30,30,0,0,0,4.3-14C148,203.24,141.67,196.15,134.37,189.43Z"/><path class="cls-1" d="M109.42,212.07c.84-11.16,6.28-21.31,13.36-31h-.2a29.7,29.7,0,0,0-14.11,3.56c-5.53,8.59-8.38,17.28-10.5,26.62a28,28,0,0,0,11.45.78Z"/><path class="cls-1" d="M104.76,187.05a30.11,30.11,0,0,0-12.14,23l3.67.59c1.21-8.71,4.77-16.08,8.47-23.62Z"/><path class="cls-1" d="M109.42,238.14a29.9,29.9,0,0,0,28.63-1.1l-1.36-3.52c-9,3.64-17.89,4-27.22,4.62Z"/><path class="cls-1" d="M152.7,210.07A30.12,30.12,0,0,0,138,185.34l-2.87,3.25c7.41,5.73,13,13.55,17.57,21.48Z"/></svg>