<svg id="Layer_1" data-name="Layer 1" xmlns="http://www.w3.org/2000/svg" viewBox="0 0 250 250"><defs><style>.cls-1{fill:#e32686;}</style></defs><path class="cls-1" d="M73.7,117.85H77v14.7H73.7v-6.5H69.9v6.5H66.6v-14.7h3.3v5.6h3.8v-5.6Zm8.9,14.7H79.3v-14.7h6.1a5.07,5.07,0,0,1,3.2.9,3.3,3.3,0,0,1,1.1,2.8A3.61,3.61,0,0,1,89,124a3.12,3.12,0,0,1-2.1,1.2h0a2.4,2.4,0,0,1,2.5,2.5c0,.3.1.6.1.9a4.48,4.48,0,0,0,.1,1.1c0,.8.1,1.4.1,1.8a1,1,0,0,0,.6.8v.1H86.7c-.1,0-.2-.3-.2-.5s-.1-.6-.1-.8l-.1-2.8a2.17,2.17,0,0,0-.5-1.4,1.62,1.62,0,0,0-1.4-.5H82.6v6.2Zm0-8.3H84a3,3,0,0,0,1.8-.5,2.06,2.06,0,0,0,.6-1.7c0-1.4-.8-2-2.3-2H82.5l.1,4.2Zm16.6-6.4-2.4,10.9h-.1l-2.3-10.9H90.9l3.7,14.7h4.2l3.7-14.7Zm11,0,4.3,14.7h-3.4l-.8-3.1H106l-.8,3.1h-3.4l4.3-14.7Zm-.4,9.2-1.6-6.6h-.1l-1.6,6.6Zm10.6,5.5v-12.3H124v-2.4H113.6v2.4h3.6v12.3Zm9.5.2a6.56,6.56,0,0,0,4.2-1.1,3.94,3.94,0,0,0,1.5-3.4c0-.4-.1-.9-.1-1.2a2.35,2.35,0,0,0-.5-1,7.64,7.64,0,0,0-.9-.9,10.19,10.19,0,0,0-1.5-.8l-2.5-1a5.14,5.14,0,0,1-1.4-.8,2,2,0,0,1-.3-1.1,1.27,1.27,0,0,1,.1-.6l.3-.6a.92.92,0,0,1,.6-.4,2.77,2.77,0,0,1,.9-.1,1.68,1.68,0,0,1,1.4.6,2.54,2.54,0,0,1,.4,1.6h3.1v-.4a3.42,3.42,0,0,0-.4-1.8,3.18,3.18,0,0,0-1.1-1.2,4.59,4.59,0,0,0-1.6-.7,12.31,12.31,0,0,0-2-.2,5.82,5.82,0,0,0-3.7,1.1,3.82,3.82,0,0,0-1.3,3.2,7.77,7.77,0,0,0,.2,1.6,2,2,0,0,0,.8,1.2,6,6,0,0,0,1.3.9,8.39,8.39,0,0,0,1.9.7,10.87,10.87,0,0,1,1.4.5,3.6,3.6,0,0,1,.9.5,1.79,1.79,0,0,1,.5.7,2.2,2.2,0,0,1,.1.8,1.68,1.68,0,0,1-.6,1.4,2.3,2.3,0,0,1-1.4.4,3.59,3.59,0,0,1-1.1-.2,4.35,4.35,0,0,1-.7-.4.91.91,0,0,1-.3-.7c0-.3-.1-.6-.1-.9v-.4h-3.3v.6a3.85,3.85,0,0,0,1.2,3.1A6.39,6.39,0,0,0,129.9,132.75Zm18.4-14.9h-3.6l-4.2,5.9h0v-5.9h-3.3v14.7h3.3v-4.4l1.2-1.7,3.4,6h3.7l-4.9-8.4Zm1.4,14.7H153v-14.7h-3.3Zm13,0H166v-12.3h3.6v-2.4H159.2v2.4h3.6l-.1,12.3Zm11.6-6.4h5.5v-2.4h-5.5v-3.5h5.8v-2.4H171v14.7h9.3v-2.4h-6.1v-4Zm16.8,4h-5.8v-12.3H182v14.7h9.1Zm4.7-4h5.5v-2.4h-5.5v-3.5h5.8v-2.4h-9.1v14.7h9.3v-2.4h-6.1v-4Zm18.8-8.3H211l-4.2,5.9h-.1v-5.9h-3.2v14.7h3.3v-4.4l1.2-1.7,3.4,6h3.7l-4.9-8.4Zm11.8,4.3a24.13,24.13,0,0,1,0,6.2,6.19,6.19,0,0,1-.8,2.4,3.14,3.14,0,0,1-1.7,1.5,6,6,0,0,1-2.9.5,7.56,7.56,0,0,1-2.9-.5,5,5,0,0,1-1.7-1.5,7.52,7.52,0,0,1-.8-2.4,28.51,28.51,0,0,1-.2-3.1,30.28,30.28,0,0,1,.2-3.1,5.23,5.23,0,0,1,.8-2.4,3.78,3.78,0,0,1,1.7-1.6,7.31,7.31,0,0,1,5.8,0,4.36,4.36,0,0,1,1.7,1.6A5.23,5.23,0,0,1,226.4,122.15Zm-3.1,3a18.52,18.52,0,0,0-.1-2.5c-.1-.7-.2-1.2-.3-1.7a1.53,1.53,0,0,0-.7-1,2.55,2.55,0,0,0-2.4,0,2,2,0,0,0-.7,1,4.31,4.31,0,0,0-.3,1.7c0,.7-.1,1.5-.1,2.5a18.52,18.52,0,0,0,.1,2.5c.1.7.2,1.3.3,1.7a1.32,1.32,0,0,0,.7.9,3.5,3.5,0,0,0,1.2.3,2.13,2.13,0,0,0,1.2-.3,2.18,2.18,0,0,0,.7-.9,4,4,0,0,0,.3-1.7C223.2,127.05,223.3,126.15,223.3,125.15Zm14.9-7.3-2.4,10.4h-.1l-2.3-10.4h-4.9v14.7h3v-11.7h.1l2.9,11.7h2.6l2.9-11.7h.1v11.7h3v-14.7ZM75.5,140.45c0,2.2-1.2,4.1-5,4.1H68.1v6.3H66.6v-14.5H71C74.2,136.25,75.5,138,75.5,140.45Zm-1.4,0c0-2.2-1.2-3-3.5-3H68.1v6h2.5C72.5,143.45,74.1,142.65,74.1,140.45Zm12.5,8.3a2.58,2.58,0,0,0,.7,2.1H85.6a4,4,0,0,1-.4-2l-.1-1.2c-.1-2.6-.6-3.4-3.3-3.4H79v6.6H77.5v-14.5h5c2.8,0,4.2,1.3,4.2,3.7a3.4,3.4,0,0,1-3,3.7h0c2,.2,2.7,1.2,2.8,3.4Zm-1.3-8.5c0-1.8-.8-2.9-3.5-2.9H79.1v5.7h2.5C83.9,143.15,85.3,142.25,85.3,140.25Zm5.3,3.6h6.2v-1.1H90.6v-5.3h6.7v-1.1H89.2V151h8.3v-1.1H90.6Zm15.3,5.4h0l-4-12.9H99.4V151h1.5v-13.4h.1l4.2,13.3h1.4l4.2-13.3h.1v13.3h1.5v-14.6H110Zm9.2,1.6h1.5v-14.5h-1.5Zm9.4-3.8c0,2.3-.9,2.9-2.5,2.9s-2.2-1.1-2.2-3.1v-.4h-1.5v.6c0,2.8,1.3,3.9,3.7,3.9,2.6,0,3.9-1.4,3.9-3.9v-10.8h-1.4Zm5.5-3.2h6.2v-1.1H130v-5.3h6.6v-1.1h-8.1V151h8.3v-1.1h-6.9v-6Zm17.7,4.9a2.58,2.58,0,0,0,.7,2.1h-1.7a4,4,0,0,1-.4-2l-.1-1.2c-.1-2.6-.6-3.4-3.3-3.4h-2.8v6.6h-1.5v-14.5h4.9c2.8,0,4.2,1.3,4.2,3.7a3.4,3.4,0,0,1-3,3.7h0c2,.2,2.7,1.2,2.8,3.4Zm-1.3-8.5c0-1.8-.9-2.9-3.5-2.9h-2.7v5.7h2.5C145.1,143.15,146.4,142.25,146.4,140.25Zm10.8-4h-1.5v14.6H164v-1.1h-6.8Zm8.4,14.6h1.5v-14.5h-1.5Zm8.7-6.3h3.9v.3c0,3.4-1.2,5.2-3.4,5.2s-3.8-1.7-3.8-6.4,1.4-6.4,3.8-6.4a3,3,0,0,1,3.2,3.2h1.5c-.2-2.5-1.6-4.3-4.7-4.3-3.4,0-5.2,2.3-5.2,7.5s1.9,7.5,5.2,7.5a3.75,3.75,0,0,0,3.6-2.6h.1V151h1.1v-7.4h-5.2l-.1,1Zm13.1-8.3,4.8,14.6h-1.6l-1.3-4.2h-5.7l-1.3,4.2h-1.6l4.8-14.6Zm1.6,9.3-2.5-8.2h-.1l-2.5,8.2Z"/><path class="cls-1" d="M59.5,134.35h0a43.73,43.73,0,0,0-8.5-6.1,11.08,11.08,0,0,1,4.7-7.7A26.68,26.68,0,0,1,59.5,134.35Zm-9.7-6.8c-1.2-.6-2.4-1.2-3.7-1.7A38.51,38.51,0,0,0,44.2,110a28.06,28.06,0,0,1,10.9,9.6A12.35,12.35,0,0,0,49.8,127.55Zm2.2,17c-.2-2.1-.5-3.7-.7-5.1a36.06,36.06,0,0,1-.5-9.9,39.69,39.69,0,0,1,8.6,6.5,27.15,27.15,0,0,1-7.5,17.1A41,41,0,0,0,52,144.55Z"/><path class="cls-1" d="M31.3,155.35a50.4,50.4,0,0,0,13.6-28.7,52.23,52.23,0,0,0-5.6-1.8c-1.3,5.8-6.8,11-16.4,15.6-1.7.8-3.5,1.8-5.2,2.8A62.5,62.5,0,0,0,9.6,149a27.05,27.05,0,0,0,16.1,11.7c1.2-1,2.5-2.1,3.6-3.2C30,156.65,30.7,156.05,31.3,155.35Z"/><path class="cls-1" d="M55.7,120.55a10.76,10.76,0,0,0-4.7,7.7,45.33,45.33,0,0,1,8.5,6.2v-.1A26.68,26.68,0,0,0,55.7,120.55Z"/><path class="cls-1" d="M51.3,139.45c.2,1.4.5,3,.7,5.1a41.13,41.13,0,0,1-.1,8.6,27.15,27.15,0,0,0,7.5-17.1,39.69,39.69,0,0,0-8.6-6.5A36.06,36.06,0,0,0,51.3,139.45Z"/><path class="cls-1" d="M50.1,139.65a34.55,34.55,0,0,1-.4-10.7c-1.2-.6-2.4-1.2-3.7-1.8a51.54,51.54,0,0,1-13.5,28.7c-.8.8-1.5,1.6-2.4,2.4l-3,2.7a30.52,30.52,0,0,0,5.2.5,27.14,27.14,0,0,0,16.5-5.6,10.7,10.7,0,0,0,1.6-1.4,45.32,45.32,0,0,0,.3-9.8A29.73,29.73,0,0,0,50.1,139.65Z"/><path class="cls-1" d="M26,121.85a56.1,56.1,0,0,1,12.4,1.4v-.5c.4-6.4-7-10.3-13.4-12.6-1-.3-2-.7-2.9-.9a27.13,27.13,0,0,0-15.2,16.1,53.11,53.11,0,0,1,9.1-2.6A53.91,53.91,0,0,1,26,121.85Z"/><path class="cls-1" d="M46.2,125.85c1.3.5,2.5,1.1,3.7,1.7a11.88,11.88,0,0,1,5.3-8.1,28.06,28.06,0,0,0-10.9-9.6A41,41,0,0,1,46.2,125.85Z"/><path class="cls-1" d="M22.4,139.25c9.3-4.4,14.6-9.3,15.8-14.8a54.31,54.31,0,0,0-12.2-1.4,57.11,57.11,0,0,0-10.3,1,54.59,54.59,0,0,0-9.2,2.8A26.28,26.28,0,0,0,9,147.65a75.19,75.19,0,0,1,8.2-5.7C18.9,141.05,20.6,140.05,22.4,139.25Z"/><path class="cls-1" d="M28.1,110.05c7.8,3.3,11.8,7.7,11.5,12.8a1.7,1.7,0,0,1-.1.7,50.51,50.51,0,0,1,5.5,1.8,36.29,36.29,0,0,0-2.3-16.1,26.87,26.87,0,0,0-10.2-2,26.35,26.35,0,0,0-2.8.2,26.22,26.22,0,0,0-5.7,1.2,19.45,19.45,0,0,1,2.2.8A13.89,13.89,0,0,1,28.1,110.05Z"/></svg>