<svg id="Layer_1" data-name="Layer 1" xmlns="http://www.w3.org/2000/svg" viewBox="0 0 250 250"><defs><style>.cls-1{fill:none;}.cls-2{fill:#3b3185;}.cls-3{fill:#fff;}.cls-4{fill:#e32526;}</style></defs><g id="DRUGA_LIGA_LOGO" data-name="DRUGA LIGA LOGO"><path class="cls-1" d="M24.46,135.18a5.32,5.32,0,0,0,1.16-1.9,8.7,8.7,0,0,0,.44-3.16c0-2.2-.47-2.85-.57-3s-.72-.45-2.25-.48l-1.42,9.76a5.71,5.71,0,0,0,1.08-.28A4,4,0,0,0,24.46,135.18Z"/><path class="cls-2" d="M23.36,137.32a5.16,5.16,0,0,0,2-1.28,6.72,6.72,0,0,0,1.43-2.32,10,10,0,0,0,.56-3.6c0-2.29-.48-3.32-.87-3.77a5.3,5.3,0,0,0-3.43-.9h-.81l-1.79,12.3h.37A7.53,7.53,0,0,0,23.36,137.32Zm-.08-10.64c1.53,0,2.14.35,2.25.48s.57.76.57,3a8.74,8.74,0,0,1-.48,3.16,5.32,5.32,0,0,1-1.16,1.9,3.88,3.88,0,0,1-1.52,1,5.71,5.71,0,0,1-1.08.28Z"/><path class="cls-2" d="M57.15,127.37a1.48,1.48,0,0,0,.43-1.14c0-.47-.15-.57-.22-.62a3.72,3.72,0,0,0-2-.35h-2.8l-.39,2.53H54.9A4,4,0,0,0,57.15,127.37Z"/><path class="cls-2" d="M117.34,125.37a3.66,3.66,0,0,0-2.34-.66,4.16,4.16,0,0,0-2.12.54,5.18,5.18,0,0,0-1.7,1.66,9.62,9.62,0,0,0-1.22,2.92,13.28,13.28,0,0,0-.51,4.06c.07,1.62.12,2.77,1,3.68a3.8,3.8,0,0,0,2.08,1l1.53-9.65h4.55V128A3.54,3.54,0,0,0,117.34,125.37Z"/><path class="cls-2" d="M233.42,136.16l3.52-22.67H210.39l-1.55,10.22-4.67-10.22H179.25L177.62,124h-3.21l1.71-10.52H160.46l-2.8,18.68-3.73-18.68h-14l-8,16.41a7.33,7.33,0,0,0,.2-3.45,14.31,14.31,0,0,0-5.47-10.23c-2.93-2.34-6.91-3.52-11.82-3.52h-.07a21.86,21.86,0,0,0-7.86,1.58,18.57,18.57,0,0,0-5,3l.57-3.82H87.17L84,134.12a12.38,12.38,0,0,1-.53,2.16,2,2,0,0,1-.4.72.49.49,0,0,1-.24.15,4.56,4.56,0,0,1-1.22.13,1.84,1.84,0,0,1-1.07-.27,2.12,2.12,0,0,1-.26-1.13,7.3,7.3,0,0,1,.09-.94l3.3-21.48H68.12l-.43,2.74-.42-.31c-2.35-1.64-5.71-2.43-10.28-2.43H40.29l-1,6.86a12.75,12.75,0,0,0-2.23-2.74,13.62,13.62,0,0,0-5.19-3.13,18.75,18.75,0,0,0-6.13-1h-16L4.41,149.86H21.87c5.72,0,10.3-1.44,13.66-4.26l-.63,4.26H50.13l1.67-11h0a5.45,5.45,0,0,1,1.8.21,1.35,1.35,0,0,1,.34.17v.07a5,5,0,0,1,0,1.22l-.42,3a14.22,14.22,0,0,0-.14,2.26,11.23,11.23,0,0,0,.18,1.83l.5,2.24h15.5v-2.67c2.8,2.32,6.83,3.5,12,3.5a24.8,24.8,0,0,0,6.75-.85,14.48,14.48,0,0,0,5.45-2.92,14,14,0,0,0,3.51-4.66,15.68,15.68,0,0,0,2.49,3.66A14.56,14.56,0,0,0,105,149.5a17.14,17.14,0,0,0,6.48,1.21,16.48,16.48,0,0,0,5.74-1l.32-.12v.24h21.1l1.53-3.67h5.35l.46,3.67h24.63l1.71-12h3.21l-1.71,12h26.59l1.45-10.06,4.56,10.06H245.3l2-13.7Zm10.82,12.47H211.89v0h-4.73l-6-13.16-1.9,13.16H175.18l1.72-12h-5.69l-1.72,12H147.06l-.47-3.66h-7.25l-1.53,3.66H118.62l-.09-.89a10.86,10.86,0,0,1-1.79.85,15,15,0,0,1-5.31.87,16,16,0,0,1-6-1.11,13.59,13.59,0,0,1-4.75-3.28,15.37,15.37,0,0,1-3-5c-.13-.36-.25-.74-.36-1.12a18.23,18.23,0,0,1-1,2.57A12.83,12.83,0,0,1,93,146.07a13.15,13.15,0,0,1-5,2.63,23.47,23.47,0,0,1-6.41.8c-5,0-8.78-1.13-11.37-3.36a11,11,0,0,1-2.57-3.29l-.1,1a3.7,3.7,0,0,0,0,.94l.83.36v3.5H55.06l-.29-1.28a8.48,8.48,0,0,1-.15-1.59,11.93,11.93,0,0,1,.13-2.07l.41-3a5.46,5.46,0,0,0,0-1.51,1.27,1.27,0,0,0-.28-.7,2,2,0,0,0-.82-.58,6.45,6.45,0,0,0-2.23-.28H50.75l-1.67,11H36.32l1-6.86a13.18,13.18,0,0,1-1.73,2.14c-3.18,3.15-7.8,4.74-13.72,4.74h-16l5-33.92h14.9a18,18,0,0,1,5.74.9,12.26,12.26,0,0,1,7.82,7.73,13.43,13.43,0,0,1,.49,1.64l1.53-10.27H57c4.31,0,7.44.73,9.58,2.22a7.11,7.11,0,0,1,1.94,2l.66-4.19h13l-3.08,20a7.37,7.37,0,0,0,0,1.15,2.83,2.83,0,0,0,.59,2,2.71,2.71,0,0,0,1.94.67,6.14,6.14,0,0,0,1.6-.18,1.77,1.77,0,0,0,.77-.48,3.21,3.21,0,0,0,.67-1.14,13.15,13.15,0,0,0,.59-2.4l3-19.63h12.9l-1,6.36a18.67,18.67,0,0,1,1.38-1.68,16.91,16.91,0,0,1,5.85-4,20.33,20.33,0,0,1,7.42-1.49h0a16.55,16.55,0,0,1,6.25.82,13.34,13.34,0,0,1,9.53,11.2,13.09,13.09,0,0,1,.08,3l-1.39,9.15,11.4-23.34h12.2l4.91,24.59,3.68-24.59h13.16l-1.72,10.53h5.72l1.62-10.53h23.08l6.14,13.14,2-13.25H235.5L232,137.34h13.89Z"/><path class="cls-3" d="M23.91,138.86a6.69,6.69,0,0,0,2.6-1.67,8.28,8.28,0,0,0,1.78-2.88,11.47,11.47,0,0,0,.67-4.19c0-2.26-.42-3.87-1.27-4.85s-2.4-1.46-4.66-1.46H20.8l-2.27,15.58H20.8A9.41,9.41,0,0,0,23.91,138.86Zm-1.69-13.41h.84c1.7,0,2.92.32,3.43.9s.87,1.48.87,3.77a10,10,0,0,1-.56,3.6A6.72,6.72,0,0,1,25.37,136a5.16,5.16,0,0,1-2,1.28,7.69,7.69,0,0,1-2.56.43h-.37Z"/><path class="cls-3" d="M58.13,128.68a3.06,3.06,0,0,0,1.09-2.41,2.27,2.27,0,0,0-.91-2,5.14,5.14,0,0,0-3-.65H51.15l-.88,5.79H54.9A5.44,5.44,0,0,0,58.13,128.68Zm-5.57-3.42h2.76a3.72,3.72,0,0,1,2,.35c.07,0,.21.15.22.62a1.48,1.48,0,0,1-.43,1.14,4,4,0,0,1-2.25.42H52.17Z"/><polygon class="cls-3" points="140.64 137.12 146.99 137.12 145.37 125.81 140.64 137.12"/><path class="cls-3" d="M232,137.38l3.53-22.67H211.44l-2,13.25-6.05-13.25H180.3l-1.62,10.53H173l1.72-10.53H161.52l-3.68,24.59-4.91-24.59h-12.2l-11.4,23.34,1.39-9.15a13.09,13.09,0,0,0-.08-3,13.34,13.34,0,0,0-9.53-11.2,16.55,16.55,0,0,0-6.25-.82h0a20.33,20.33,0,0,0-7.42,1.49,16.91,16.91,0,0,0-5.85,4,18.67,18.67,0,0,0-1.38,1.68l1-6.36h-13l-3,19.63a13.15,13.15,0,0,1-.59,2.4,3.21,3.21,0,0,1-.67,1.14,1.77,1.77,0,0,1-.77.48,6.14,6.14,0,0,1-1.6.18,2.71,2.71,0,0,1-1.94-.67,2.83,2.83,0,0,1-.59-2,8.78,8.78,0,0,1,.11-1.15l3.08-20h-13l-.74,4.22a7.11,7.11,0,0,0-1.94-2c-2.14-1.49-5.27-2.22-9.58-2.22H41.35L39.82,125a13.43,13.43,0,0,0-.49-1.64,12.26,12.26,0,0,0-7.82-7.73,18,18,0,0,0-5.74-.9H10.86l-5,33.92h16c5.92,0,10.54-1.59,13.72-4.74a13.53,13.53,0,0,0,1.74-2.12l-1,6.86H49.06l1.67-11h1.09a6.52,6.52,0,0,1,2.24.3,2,2,0,0,1,.87.56,1.27,1.27,0,0,1,.28.7,5.46,5.46,0,0,1,0,1.51l-.41,3a11.93,11.93,0,0,0-.13,2.07,8.48,8.48,0,0,0,.15,1.59l.29,1.28H68.36v-3.5l-.83-.36a3.7,3.7,0,0,1,0-.94l.1-1a11,11,0,0,0,2.57,3.29c2.59,2.23,6.41,3.36,11.37,3.36a23.47,23.47,0,0,0,6.41-.8,13.15,13.15,0,0,0,5-2.63,12.83,12.83,0,0,0,3.34-4.55,18.23,18.23,0,0,0,1-2.57c.11.38.23.76.36,1.12a15.37,15.37,0,0,0,3,5,13.59,13.59,0,0,0,4.75,3.28,16,16,0,0,0,6,1.11,15.21,15.21,0,0,0,5.31-.87,10.86,10.86,0,0,0,1.79-.85l.09.89h19.17l1.53-3.66h7.25l.47,3.66h22.45l1.72-12h5.69l-1.72,12h24.11l1.9-13.16,6,13.16h4.71v0h32.35l1.63-11.25ZM34.43,142.73Q30.14,147,21.87,147H7.73l4.54-30.64h13.5a15.9,15.9,0,0,1,5.21.81,10.62,10.62,0,0,1,6.82,6.76,17.68,17.68,0,0,1,1,6.16C38.75,135.67,37.31,139.92,34.43,142.73Zm31.51,2.46a1.29,1.29,0,0,0,.79,1V147H56.39a9.09,9.09,0,0,1-.12-1.27,10.7,10.7,0,0,1,.12-1.79l.41-3.06a7.55,7.55,0,0,0,0-1.9,2.94,2.94,0,0,0-.62-1.55,3.65,3.65,0,0,0-1.58-1.07,8.31,8.31,0,0,0-2.81-.39h-2.5l-1.67,11H38.21l4.55-30.64H57c3.92,0,6.81.64,8.65,1.92s2.75,3.38,2.75,6.28q0,6.18-5.84,8.72a5.09,5.09,0,0,1,3.13,2.92,9.38,9.38,0,0,1,.54,4.36l-.33,3.11A5.17,5.17,0,0,0,65.94,145.19ZM96.44,135a21.74,21.74,0,0,1-1.62,5.81,11,11,0,0,1-7.31,6.29,22,22,0,0,1-6,.74q-6.87,0-10.3-3T67.69,136v-1.48a11,11,0,0,1,.26-1.9l2.55-16.32h9.73l-2.78,18.13a9.75,9.75,0,0,0-.14,1.43,3.83,3.83,0,0,0,4.11,4.27,7.45,7.45,0,0,0,2.11-.26A3.37,3.37,0,0,0,85,139a4.53,4.53,0,0,0,1-1.72,14.91,14.91,0,0,0,.67-2.69l2.83-18.26h9.6Zm23.66,12-.23-2.31a10.68,10.68,0,0,1-3.71,2.38,13.34,13.34,0,0,1-4.73.77,13.88,13.88,0,0,1-5.4-1,11.56,11.56,0,0,1-4.17-2.91,13.54,13.54,0,0,1-2.71-4.5,17.77,17.77,0,0,1-1-5.91,21.74,21.74,0,0,1,1.2-7.42,16.34,16.34,0,0,1,3.41-5.61,15.34,15.34,0,0,1,5.3-3.56,18.86,18.86,0,0,1,6.83-1.37q6.4,0,10,2.9a11.7,11.7,0,0,1,4.17,8.47h-9a4.83,4.83,0,0,0-1.62-2.81,5.13,5.13,0,0,0-3.39-1,5.74,5.74,0,0,0-2.94.77,6.7,6.7,0,0,0-2.25,2.18,11.24,11.24,0,0,0-1.44,3.4,19.64,19.64,0,0,0-.55,4.45,7.06,7.06,0,0,0,1.39,4.78,5.35,5.35,0,0,0,4,1.67,5.86,5.86,0,0,0,3.11-.86,6.42,6.42,0,0,0,2.31-2.62h-4.21l1-6.3h13.35L126.31,147Zm-1.48-18.07h-4.56l-1.56,9.69a3.8,3.8,0,0,1-2.08-1c-.86-.91-.91-2.06-1-3.68a13.28,13.28,0,0,1,.51-4.06,9.62,9.62,0,0,1,1.22-2.92,5.18,5.18,0,0,1,1.7-1.66,4.16,4.16,0,0,1,2.12-.54,3.66,3.66,0,0,1,2.34.66,3.57,3.57,0,0,1,1.26,2.65ZM148.48,147l-.47-3.66h-9.78L136.7,147h-9.92l15-30.64h9.82L157.72,147Zm28.59,0,1.71-12h-9l-1.72,12h-9.73l4.59-30.64h9.83l-1.69,10.55h9l1.62-10.52h9.78L186.92,147Zm31.14,0L201,131.07l-.6-1.33-.23,1.51L197.88,147h-9.09l4.59-30.64h9L209.52,132l.74,1.63.28-1.67,2.36-15.58H222L217.3,147Zm34.61,0H219.06l4.68-30.64h9.83L230.06,139H244Z"/><path class="cls-4" d="M37.8,123.92a11.19,11.19,0,0,0-2.69-4.27A10.9,10.9,0,0,0,31,117.17a15.9,15.9,0,0,0-5.21-.81H12.27L7.73,147H21.87q8.25,0,12.56-4.26c2.88-2.85,4.32-7.06,4.32-12.66A17.86,17.86,0,0,0,37.8,123.92Zm-17-.1h2.26c2.26,0,3.82.49,4.66,1.46S29,127.87,29,130.13a11.47,11.47,0,0,1-.67,4.19,8.28,8.28,0,0,1-1.78,2.88,6.69,6.69,0,0,1-2.6,1.67,9.41,9.41,0,0,1-3.11.53h-2.3Z"/><path class="cls-4" d="M66.22,140.55a9.38,9.38,0,0,0-.54-4.36,5.09,5.09,0,0,0-3.13-2.92q5.85-2.55,5.84-8.72c0-2.9-.91-5-2.75-6.28s-4.73-1.92-8.65-1.92H42.76L38.21,147h9.46l1.67-11h2.5a8.31,8.31,0,0,1,2.81.39,3.65,3.65,0,0,1,1.58,1.07,2.94,2.94,0,0,1,.62,1.55,7.55,7.55,0,0,1,0,1.9l-.46,3a10.7,10.7,0,0,0-.12,1.79,9.09,9.09,0,0,0,.12,1.27H66.73v-.79a1.29,1.29,0,0,1-.79-1,4.91,4.91,0,0,1,0-1.53ZM51.15,123.63h4.17a5.14,5.14,0,0,1,3,.65,2.27,2.27,0,0,1,.91,2,3.06,3.06,0,0,1-1.09,2.41,5.52,5.52,0,0,1-3.23.74H50.27Z"/><path class="cls-4" d="M99.22,116.35h-9.6l-2.83,18.26a14.91,14.91,0,0,1-.67,2.69,4.53,4.53,0,0,1-1,1.72,3.37,3.37,0,0,1-1.48.9,7.45,7.45,0,0,1-2.11.26,3.83,3.83,0,0,1-4.11-4.27,9.75,9.75,0,0,1,.14-1.43l2.78-18.13H70.57l-2.51,16.32a11,11,0,0,0-.26,1.9v1.48q.09,5.85,3.52,8.81t10.3,3a22,22,0,0,0,6-.74,11,11,0,0,0,7.31-6.29A21.74,21.74,0,0,0,96.55,135Z"/><path class="cls-4" d="M128.82,130.54H115.47l-1,6.3h4.21a6.42,6.42,0,0,1-2.31,2.62,5.86,5.86,0,0,1-3.11.86,5.35,5.35,0,0,1-4-1.67,7.06,7.06,0,0,1-1.39-4.78,19.64,19.64,0,0,1,.55-4.45,11.24,11.24,0,0,1,1.44-3.4,6.7,6.7,0,0,1,2.25-2.18,5.74,5.74,0,0,1,2.94-.77,5.13,5.13,0,0,1,3.39,1,4.8,4.8,0,0,1,1.62,2.85h9a11.71,11.71,0,0,0-4.2-8.46q-3.64-2.89-10-2.9a18.91,18.91,0,0,0-6.8,1.36,15.28,15.28,0,0,0-5.29,3.59,16.34,16.34,0,0,0-3.41,5.61,21.74,21.74,0,0,0-1.2,7.42,17.77,17.77,0,0,0,1,5.91,13.54,13.54,0,0,0,2.71,4.5,11.67,11.67,0,0,0,4.17,2.87,13.88,13.88,0,0,0,5.4,1,13.34,13.34,0,0,0,4.73-.77,10.68,10.68,0,0,0,3.71-2.38l.23,2.31h6.21Z"/><path class="cls-4" d="M151.58,116.35h-9.82l-15,30.64h9.92l1.53-3.66h9.85l.47,3.66h9.22Zm-10.94,20.77,4.73-11.31L147,137.12Z"/><polygon class="cls-2" points="191.49 116.35 181.7 116.35 180.08 126.87 171.04 126.87 172.76 116.35 162.93 116.35 158.34 146.99 168.07 146.99 169.79 134.99 178.78 134.99 177.07 146.99 186.94 146.99 191.49 116.35"/><polygon class="cls-2" points="221.94 116.35 212.85 116.35 210.49 131.93 210.21 133.6 209.47 131.97 202.33 116.35 193.38 116.35 188.79 146.99 197.87 146.99 200.15 131.23 200.38 129.72 200.98 131.05 208.21 146.99 217.25 146.99 221.94 116.35"/><polygon class="cls-2" points="233.6 116.35 223.77 116.35 219.09 146.99 242.82 146.99 243.98 139.02 230.07 139.02 233.6 116.35"/></g></svg>