<?xml version="1.0" encoding="utf-8"?>
<!-- Generator: Adobe Illustrator 25.0.0, SVG Export Plug-In . SVG Version: 6.00 Build 0)  -->
<svg version="1.1" id="Layer_1" xmlns="http://www.w3.org/2000/svg" xmlns:xlink="http://www.w3.org/1999/xlink" x="0px" y="0px"
	 viewBox="0 0 250 250" style="enable-background:new 0 0 250 250;" xml:space="preserve">
<style type="text/css">
	.st0{fill:#A19A6C;}
	.st1{fill:#1BA9E1;}
	.st2{fill:#E5292B;}
	.st3{fill:#F4F4F4;}
</style>
<path class="st0" d="M177.5,118.5L177.5,118.5L159,70.2L142,74l10.3,33.8L96.4,96.1l-5.8,13l74.1,23c5.4,1.7,11.2-1.3,12.9-6.7
	C178.4,123.1,178.3,120.7,177.5,118.5L177.5,118.5z"/>
<path class="st1" d="M215.5,42.2c-2.4-7-10-10.7-17-8.4L151.2,50l-15,5.1l-25.3,8.7l-11.7,4L45.3,86h-0.1c-2.5,0.9-3.9,3.6-3,6.2
	c0.5,1.5,1.7,2.6,3.1,3L84.1,107l4.8-12.5l-20-4l23.5-5.1l9.8-2.2l39.7-9l17-3.8l46.9-10.6c0.5-0.1,0.9-0.2,1.4-0.4
	C214.2,56.9,217.9,49.3,215.5,42.2C215.5,42.2,215.5,42.2,215.5,42.2L215.5,42.2z"/>
<path class="st2" d="M88.9,94.5L84.1,107l-18.5,45.4c-0.4,0.9,0.1,2,1,2.4c0.9,0.4,2-0.1,2.4-1c0,0,0,0,0,0L90.6,109l5.8-13l5.8-13
	l-9.8,2.2L88.9,94.5z"/>
<path class="st2" d="M134.5,6.6l-0.1-0.3c-1.2-3.2-4.8-4.8-8-3.6c0,0,0,0,0,0c-1.6,0.6-2.9,1.9-3.6,3.6L99.2,67.8l11.7-4l16.7-37.2
	l8.7,28.6l15-5.1L134.5,6.6z"/>
<path class="st3" d="M62.6,203.1c-0.3,0.9-0.5,1.8-0.7,2.8c-1.6-0.5-3.3-0.8-5-0.8c-4.5,0-5.6,2-5.6,5.5c0,4.5,1.6,5.9,5.5,5.9
	c1.9,0,3.8-0.4,5.6-1c0.1,0.6,0.3,1.8,0.4,2.5c-2.3,0.5-4.6,0.7-6.9,0.8c-5.3,0-8.1-1.8-8.1-7.8c0-6.5,3.3-8.2,9.4-8.2
	C59,202.7,60.8,202.8,62.6,203.1z"/>
<path class="st3" d="M77.4,205.5c0-0.9,0-1.7-0.2-2.6h3.6c-0.1,0.8-0.2,1.7-0.2,2.6V216c0,0.9,0,1.7,0.2,2.6h-3.6
	c0.1-0.8,0.2-1.7,0.2-2.6v-4.3h-7.1v4.3c0,0.9,0,1.7,0.2,2.6h-3.6c0.1-0.8,0.1-1.7,0.1-2.6v-10.5c0-0.9,0-1.7-0.2-2.6h3.7
	c-0.1,0.8-0.2,1.7-0.2,2.6v4h7.1V205.5z"/>
<path class="st3" d="M84.2,218.5c0.4-0.9,0.8-1.7,1.2-2.6l5.7-13h3.2l5.5,13c0.3,0.8,0.8,1.7,1.2,2.6h-4.1c-0.1-0.9-0.3-1.7-0.6-2.6
	l-0.7-1.8h-6.5l-0.7,1.9c-0.3,0.8-0.5,1.7-0.6,2.6L84.2,218.5z M89.8,212.1h5l-2.5-6.3L89.8,212.1z"/>
<path class="st3" d="M122.3,202.9c-0.1,0.8-0.2,1.7-0.2,2.6V216c0,0.9,0,1.7,0.2,2.6h-3.3c0.1-0.8,0.2-1.7,0.2-2.6v-9.1l-4.4,8.5
	h-2.2l-4.6-8.7v9.2c0,0.9,0,1.7,0.2,2.6h-3.3c0.1-0.8,0.2-1.7,0.2-2.6v-10.5c0-0.9,0-1.7-0.2-2.6h4l5,9.2l4.8-9.2H122.3z"/>
<path class="st3" d="M127.1,218.5c0.1-0.8,0.2-1.7,0.2-2.6v-10.5c0-0.9-0.1-1.7-0.2-2.6h6.3c4.2,0,6.1,1.8,6.1,5c0,3.6-2.5,5-5.4,5
	c-0.7,0-1.4-0.1-2.1-0.4V211c0.4,0,0.7,0.1,1.1,0.1c1.8,0,3.3-0.9,3.3-3c0-1.6-1-2.9-3.2-2.9h-2.5V216c0,0.9,0.1,1.7,0.4,2.6
	L127.1,218.5z"/>
<path class="st3" d="M147.6,216c0,0.9,0,1.7,0.1,2.6h-3.6c0.1-0.8,0.2-1.7,0.1-2.6v-10.5c0-0.9,0-1.7-0.1-2.6h3.6
	c-0.1,0.8-0.2,1.7-0.1,2.6V216z"/>
<path class="st3" d="M152.2,210.9c0-6.3,3.3-8.2,8.9-8.2c5.4,0,8.4,1.8,8.4,7.8c0,6.3-3.3,8.2-8.9,8.2S152.2,216.9,152.2,210.9z
	 M166.1,210.7c0-4.4-1.6-5.8-5.2-5.8c-4.2,0-5.3,2-5.3,5.8c0,4.4,1.5,5.9,5.1,5.9C164.9,216.5,166.1,214.5,166.1,210.7L166.1,210.7z
	"/>
<path class="st3" d="M176.5,207.5v8.5c0,0.9,0,1.7,0.1,2.6h-3c0.1-0.8,0.2-1.7,0.2-2.6v-10.5c0-0.9-0.1-1.7-0.3-2.6h3l9.1,11.1v-8.5
	c0-0.9,0-1.7-0.2-2.6h3c-0.1,0.8-0.2,1.7-0.1,2.6v13h-2.6L176.5,207.5z"/>
<path class="st3" d="M193,215.6c1.5,0.6,3,0.9,4.6,0.9c2.4,0,3.6-1,3.6-2.3c0-3.4-8.8-0.9-8.8-6.6c0-2.8,2.2-4.8,6.8-4.8
	c1.6,0,3.2,0.2,4.8,0.6c-0.4,0.8-0.6,1.5-1,2.3c-1.3-0.4-2.6-0.6-3.9-0.6c-1.2,0-3.4,0.4-3.4,2.1c0,3.5,8.9,1,8.9,6.7
	c0,3-2.5,4.9-7.3,4.9c-1.6,0-3.3-0.2-4.9-0.7L193,215.6z"/>
<path class="st3" d="M82,242.5h4.2c0.9,0,1.7-0.1,2.6-0.4l-0.2,2.6h-10c0.1-0.8,0.2-1.7,0.2-2.6v-10.5c0-0.9,0-1.7-0.2-2.6h3.6
	c-0.1,0.8-0.2,1.7-0.2,2.6L82,242.5z"/>
<path class="st3" d="M96,235.7h5.4l-0.4,2.1h-5v4.7h4.9c0.9,0,1.7-0.1,2.6-0.4l-0.4,2.6H92.5c0.1-0.8,0.2-1.7,0.2-2.6v-10.5
	c0-0.9,0-1.7-0.2-2.6h10.1l-0.5,2.6c-0.8-0.3-1.7-0.4-2.6-0.4H96V235.7z"/>
<path class="st3" d="M106,244.7c0.5-0.9,0.8-1.7,1.2-2.6l5.7-13h3.2l5.5,13c0.3,0.8,0.8,1.7,1.2,2.6h-4.1c-0.1-0.9-0.3-1.7-0.6-2.6
	l-0.7-1.8h-6.5l-0.7,1.8c-0.3,0.8-0.5,1.7-0.6,2.6H106z M111.7,238.3h5l-2.5-6.2L111.7,238.3z"/>
<path class="st3" d="M140.3,229.3c-0.3,0.9-0.5,1.8-0.6,2.7c-1.7-0.5-3.5-0.8-5.4-0.8c-4.6,0-5.6,2.2-5.6,5.6c0,4.3,1.4,6,5.1,6
	c1.2,0,2.3-0.1,3.5-0.4v-1.8c0-0.8,0-1.7-0.1-2.5l3.5-0.4c-0.1,0.8-0.1,1.6-0.1,2.4v1.6c0,0.8,0,1.6,0.1,2.4h-0.4
	c-1.4,0-3.7,0.8-7,0.8c-5.2,0-7.9-2-7.9-7.8c0-6.5,3.3-8.1,9.4-8.1C136.5,229,138.4,229.1,140.3,229.3z"/>
<path class="st3" d="M145.1,231.7c0-0.9-0.1-1.7-0.2-2.6h3.8c-0.1,0.8-0.2,1.7-0.2,2.6v6.3c0,3.8,1.1,4.7,4.5,4.7
	c1.2,0,2.3-0.1,3.4-0.4v-10.6c0-0.9-0.1-1.7-0.2-2.6h3.8c-0.1,0.8-0.2,1.7-0.2,2.6v10c0,0.9,0,1.7,0.2,2.6h-0.5
	c-1.2,0-4.1,0.8-6.9,0.8c-5.6,0-7.4-1.2-7.4-7.1L145.1,231.7z"/>
<path class="st3" d="M167.6,235.7h5.4l-0.4,2.1h-5v4.7h4.9c0.9,0,1.7-0.1,2.6-0.4l-0.4,2.6h-10.4c0.1-0.8,0.2-1.7,0.1-2.6v-10.5
	c0-0.9,0-1.7-0.1-2.6h10.1l-0.5,2.6c-0.8-0.3-1.7-0.4-2.6-0.4h-3.6V235.7z"/>
<path class="st3" d="M102.3,191.1l46-6.4l1.6-6.2l-47.6,11.9V191.1z M103.2,185.4l11.1-2.8l0.4-3.1c-0.7,0.4-1.5,0.6-2.2,0.8
	l-4.6,1.2v-3.5l4.6-1.2l0.4-2.6l-5,1.3v-3.3l3.4-0.9c0.7-0.2,1.5-0.3,2.2-0.2l0.4-3.1l-10.5,2.6c0.1,0.8,0.1,1.5,0.1,2.3v10
	C103.5,183.7,103.4,184.5,103.2,185.4C103.1,185.3,103.1,185.4,103.2,185.4z"/>
<path class="st3" d="M127.8,179.3l4.7-1.2c-0.1-0.8-0.1-1.5-0.1-2.3v-10c0-0.8,0-1.5,0.1-2.3l0,0l-4.7,1.2l0,0
	c0.1,0.7,0.1,1.5,0.1,2.2v3.6l-5.7,1.5v-3.7c0-0.8,0-1.6,0.1-2.4l-4.5,1.1c0.1,0.8,0.1,1.5,0.1,2.3v10c0,0.8,0,1.6-0.1,2.4l4.5-1.1
	v-0.1c-0.1-0.7-0.1-1.5-0.1-2.3v-3.8l5.7-1.4v3.9C127.9,177.7,127.9,178.5,127.8,179.3z"/>
<path class="st3" d="M137.3,176.9l4.6-1.2v-0.2c-0.1-0.7-0.2-1.4-0.2-2.1v-3.8l5.2-1.2l0.4-2.6l-5.6,1.3v-3.3l4.1-1
	c0.7-0.2,1.5-0.3,2.3-0.2l0.4-3.1l-11.1,2.8c0.1,0.8,0.1,1.5,0.1,2.3v10C137.5,175.3,137.4,176.1,137.3,176.9z"/>
</svg>
