<svg id="Layer_1" data-name="Layer 1" xmlns="http://www.w3.org/2000/svg" viewBox="0 0 250 250"><defs><style>.cls-1,.cls-3{fill:none;}.cls-1{stroke:#da271d;stroke-miterlimit:10;stroke-width:8px;}.cls-2{fill:#da271d;}.cls-4{fill:#fcfbfb;}.cls-5{fill:#2e2970;}.cls-6{fill:#2b255b;}</style></defs><circle class="cls-1" cx="123.06" cy="125" r="111.46"/><rect class="cls-2" x="60.08" y="62.33" width="124.92" height="124.92"/><path class="cls-2" d="M185.13,32.11v31h30.93A112.07,112.07,0,0,0,185.13,32.11Z"/><path class="cls-2" d="M185.13,217.48a112.1,112.1,0,0,0,30.54-30.43H185.13Z"/><path class="cls-2" d="M30.73,187.05a112.28,112.28,0,0,0,29.48,29.71V187.05Z"/><path class="cls-2" d="M60.21,32.83a112.14,112.14,0,0,0-29.87,30.3H60.21Z"/><path class="cls-3" d="M120,154.94v8.35s-5.31,5.29-5.4,9.42"/><path class="cls-4" d="M120.22,160.34S115,165.5,115,169.52c0,1.66-1.14,1.4-1.14,2.71v5.42a6.61,6.61,0,0,0-.87,2.45c0,1,0,3.59-2.8,3.59s-3.24-3.15-3.24-4.38.09-6.64.7-6.9,2.45-1.23,2.45-2.89,1-2.45,1-9.62c-.09-3-.44-6,.44-5.94,1-.09,1.31-3.67,1.31-3.67s-1-2.63-.87-3.85.61-3.59.78-5.07-.78-2.45-.78-3.85,1.83-5.68.87-5.77-4.72,1.75-4.72,2.88,2.18,1.4,2,3.5-3.93,5.42-4,7.08-1.84,6.39-4.29,6.39-1.4-4.55-1.4-5.25,1.58-4.11.44-3.67-6.38,1.14-8,.61-3.41-1.84-3-4.11,3.59-9.7,10-15.3c.61-2.1.52-1.66.52-1.66a6.75,6.75,0,0,0,2-4.2,11.89,11.89,0,0,0,2,0s7.34-7.52,7.87-9.62a63.59,63.59,0,0,0,1.48-13.29c-.09-2.88,1.75-8,.88-7.87a51.86,51.86,0,0,1-5.25-.52s-5.51-1.84-7.43-3.5c-1.84-.43-8.4-2.1-10-3s-3.23-2.89-7.52-2.71c-1.31-.61-.61-2.19-2.18-2.19s-2.28-3.49-1.4-4.72.87-1.31,2.71-1.31,2.36,2.19,2.36,2.71.7,1.75,2.8,1.92,11.62.35,11.62.35,1.58,1.93,8.22,1.93,7.17-.09,7.17-.09a13.64,13.64,0,0,1,4.48-1c2.17,0,3.22,1.92,5.23,2s.79-3.5.79-4.72-1-5.07.87-5.07,3.93-.7,4.37-1.84c2.71,0,9.53.7,9.53,3.59s1,4.11,1,5.59-1.31,6.38-2.27,6.38-2.19.18-2.19,1.23,1.32,2.62,2.1,2.62a7.35,7.35,0,0,1,5.16,2.71c1.66,2.19,1.23,3.67,2.27,4.72s3.24,4.73,4.11,5.16a12.22,12.22,0,0,1,2.8,2.89c.35.52.79,2.1,1.66,2.36s3.15,0,5.51,1.92,7.61,6.82,9.36,6.73,4.37-3.32,5.16-4.28,3.67-1.22,4-.26.17,3.32-1.14,4-4.46,3.41-4.46,4.37,2.36,3.85,1.75,5.07-2.27-1.66-3.15-2-8.91-6.29-9.88-6.29-4.89.43-7.69-1.66-3.67-4.38-5.6-4.38-4.28-2.44-5-3.84-5-.62-5.86,1.92-4,6.47-4.81,11.8-3.41,7.79-3,15.57c-1.05,1.83-3.24.78-3.41,1.48s-.18,9.18-5.86,15C120.22,152.21,121.78,153.87,120.22,160.34Z"/><circle class="cls-4" cx="73.75" cy="157.74" r="7.87"/><path class="cls-5" d="M75.13,58.31H69.8v-13s-3.2,1.54-5.21,2.49c.12-3.08,0-5,0-5s5.92-.94,6.27-5h4.27Z"/><rect class="cls-5" x="81.66" y="52" width="6.14" height="6.14"/><polygon class="cls-6" points="97.27 58.14 90.5 58.14 90.5 37.83 97.43 37.83 97.43 45.13 103.35 45.02 103.35 38.03 110.34 38.03 110.34 57.88 103.41 57.88 103.41 50.1 97.32 50.1 97.27 58.14"/><polygon class="cls-6" points="119.28 58.14 113.36 58.14 113.36 38.09 122.35 38.09 124.47 47.99 125.47 47.99 127.38 38.09 136.43 38.09 136.43 57.93 130.5 57.93 130.5 46.92 129.33 46.92 127.44 58.01 122.48 58.01 120.34 46.98 119.28 46.98 119.28 58.14"/><polygon class="cls-6" points="145.28 57.85 139.45 57.85 139.45 38.09 145.28 38.09 151.46 46.98 152.52 46.98 152.52 38.09 158.4 38.09 158.4 57.85 152.52 57.85 147.11 49.12 145.28 49.15 145.28 57.85"/><polygon class="cls-6" points="162.44 38.09 162.44 58.14 178.38 58.14 178.38 53.02 168.48 53.02 168.46 38.09 162.44 38.09"/></svg>