<svg id="Layer_1" data-name="Layer 1" xmlns="http://www.w3.org/2000/svg" viewBox="0 0 250 250"><defs><style>.cls-1{fill:#15243e;}</style></defs><path class="cls-1" d="M60.59,57.51c2.33-7.46,6-13.57,10.91-14.12,9.44-1,20.44,14.79,22.36,33.39,1.78,17.21-2.25,36.05-11.68,37.1-5.75.64-11.07-1.71-15.2-10.64,6.37,1.75,14.44-.81,14.44-.81,2.87-9.29,2.86-26.38,2.86-26.38-5.9-15.6-12.34-22.76-12.34-22.76A48.92,48.92,0,0,0,60.59,57.51Z"/><path class="cls-1" d="M68.14,93.64c-3.71.45-7.43-5.08-8.3-12.35S61.27,67.79,65,67.35s7.43,5.07,8.31,12.33S71.85,93.23,68.14,93.64Z"/><path class="cls-1" d="M152.86,58a12.17,12.17,0,1,1-13.5-10.91A12.18,12.18,0,0,1,152.86,58Z"/><path class="cls-1" d="M175.07,55.53C172.7,34.88,155,20,135.52,22.19s-33.36,20.78-31,41.42c2,17.75,15.41,31.28,31.53,33.3,0,0-.31-3.57-.74-7.1s-.89-7-.89-7l-4.22.45a77.08,77.08,0,0,1-8.66-10,67.28,67.28,0,0,1-6-10.87s1.8-6.37,4.17-12.25,5.38-11.5,5.38-11.5a115.47,115.47,0,0,1,11.54-2c6.27-.71,12.76-.76,12.76-.76a79.55,79.55,0,0,1,8,9.49,93.78,93.78,0,0,1,6.69,11.41A54.8,54.8,0,0,1,160.9,68.5a77.56,77.56,0,0,1-6.4,12l-3.81.62s.51,3.36.76,6.79c.28,3.63.45,7.2.45,7.2C167.13,89.49,177.1,73.27,175.07,55.53Z"/><path class="cls-1" d="M168,24.64c-9-8.06-16.39-14.39-16.28-14.78,0-.18,2.26.77,5.74,2.57a65.4,65.4,0,0,1,13,9c9.25,8.15,14.1,17,14,17.38S177,32.69,168,24.64Z"/><path class="cls-1" d="M103.66,8.46a70.09,70.09,0,0,0-12.69,6c5-1,14.83-3.14,23.93-8.88A65.05,65.05,0,0,0,103.66,8.46Z"/><path class="cls-1" d="M136.49,6.33c-.34-1-6.5-2.06-14.37-1.56a12.66,12.66,0,0,1,4.4,1.48l-17.45,7.83L88.22,19.55a4.51,4.51,0,0,1-2.61-1.44c-5.42,4.13-8.87,7.84-8.81,8.73.2,1.78,14.42-1.52,30.89-7.18S137.08,8,136.49,6.33Z"/><path class="cls-1" d="M183.39,79.64c2.15-15.29,5.25-27.8,6.76-27.28.93.32,4.89,13.67,2.69,29-1.83,12.83-7.91,26.49-10.48,26.33C180.8,107.64,181.25,95,183.39,79.64Z"/><path class="cls-1" d="M114.8,137.29c-7.67-1.57-11.52-4.57-12.58-8.73-2.36-9.2,12.58-17.69,31.08-20.51,16.9-2.58,31.43,2.84,33,9.13,1.19,4.88-1.09,8.81-7.55,13.08a32.11,32.11,0,0,0,.28-10.58c-9.5-2.53-24.4-3.93-24.4-3.93-16,6.07-23.07,11.55-23.07,11.55A27.17,27.17,0,0,0,114.8,137.29Z"/><path class="cls-1" d="M149.8,129.24c.53,3.27-4.89,6.86-12.12,8s-13.51-.56-14-3.83,4.89-6.88,12.12-8S149.3,126,149.8,129.24Z"/><path class="cls-1" d="M48.63,185.21v-24h6.26v18.54h7.58v5.45Z"/><path class="cls-1" d="M72.58,185.21v-24H78.8v24Z"/><path class="cls-1" d="M101.64,160.34c4.82,0,8.36,1.88,10.83,6l-5,2.75a6.6,6.6,0,0,0-5.89-3.31c-4.1,0-6,3.33-6,7.7,0,4.07,1.88,7.32,6.52,7.32,2.66,0,5.1-2,5.32-4.26h-5.51v-5h12v1.32c0,7.11-3.29,13.21-12.28,13.21-7.64,0-12.52-5.85-12.52-12.83C89.17,165.89,94.66,160.34,101.64,160.34Z"/><path class="cls-1" d="M130.35,161.22v14.71c0,3.21,2,4.33,4.32,4.33s4.26-1.21,4.26-4v-15h6.32v15.35c0,5.48-3.73,9.33-10.71,9.33-5.29,0-10.45-2.76-10.45-8.65v-16Z"/><path class="cls-1" d="M156.86,161.22H170.8v5.42h-7.64v3.89h7.21v5.31h-7.21v4h7.76v5.33h-14Z"/><path class="cls-1" d="M194.8,161.22h9.72v24h-6.27V166.36H194.8Z"/><path class="cls-1" d="M172.22,228.19s-21.44.39-32-11.64a.27.27,0,0,0-.07-.08v-.05h0a18.41,18.41,0,0,0-8.6-5.26.86.86,0,0,0-.23-.06l-.39-.1c-.2-.05-.39-.11-.59-.14h-.08a17.48,17.48,0,0,0-2.7-.34h-3a1.58,1.58,0,0,1-.38,0l-.56.08-.4.07-.53.1a3.52,3.52,0,0,0-.42.09l-.5.13-.42.11-.47.15a2,2,0,0,0-.42.13,2.2,2.2,0,0,1-.45.17l-.41.16-.46.2-.39.17-.45.21-.39.2-.41.23-.39.23c-.14.07-.26.16-.4.24l-.37.24-.39.26-.36.26-.37.28-.36.28c-.12.1-.24.2-.35.31a2.28,2.28,0,0,0-.33.29c-.12.1-.24.2-.35.31s-.21.2-.31.3l-.35.36-.24.25h0c-.28.3-.53.6-.77.91-2.6,2.78-11.86,11-31.3,11H48.65v1.22H80.93s21.4-.38,31.93,11.63l.1.1h0a18.31,18.31,0,0,0,8.62,5.26l.23.07a1.21,1.21,0,0,1,.39.11l.58.12h.07a15.44,15.44,0,0,0,2.71.33h2.32l.64,0h.38a3.43,3.43,0,0,0,.56-.08l.41-.07a1.84,1.84,0,0,0,.52-.1,3,3,0,0,1,.4-.09l.53-.13.39-.11.51-.15a1.13,1.13,0,0,0,.4-.14l.49-.17.38-.15.47-.19.38-.19.45-.21.37-.19a3.25,3.25,0,0,0,.45-.25l.35-.2.44-.26.34-.22.41-.28.33-.24.42-.31a1.87,1.87,0,0,0,.3-.26l.41-.33c.1-.08.18-.16.29-.24a4.7,4.7,0,0,0,.4-.39l.25-.24c.15-.14.29-.29.41-.42l.2-.2h0c.27-.3.54-.6.78-.91,2.6-2.79,11.86-11,31.29-11H204.5v-1.22Zm-45.64,17.45a16.74,16.74,0,1,1,16.73-16.75h0a16.72,16.72,0,0,1-16.72,16.74Z"/><path class="cls-1" d="M115.61,218.35c.56-.45,4.78,2.31,9,6.26a10.38,10.38,0,0,0,2.62-2.23c2.44-2.59,2.38-4.54,3.08-4.37a.46.46,0,0,1,.4.27c.41,1.28-.16,3.43-.93,5.34a31.1,31.1,0,0,1-2,4,20.85,20.85,0,0,1,3.59,7.9,8.77,8.77,0,0,1-.5,5.16.51.51,0,0,1-.41.29c-.54,0-.22-1.59-1.91-4.73a19,19,0,0,0-1.87-3c-1.89-2.39-1.87-2.2-1.87-2.2s-1.72,2.2-3.45,4c-.58.6-1.13,1.07-1.62,1.5s-1.16,1-1.66.85a.43.43,0,0,1-.26-.48c0-.26,2.94-4,3-8.62,0-3-2.79-6.6-4.29-8.44C115.8,219.08,115.14,218.72,115.61,218.35Z"/><circle class="cls-1" cx="135.17" cy="237.89" r="2.54"/><path class="cls-1" d="M123,221.07a2.34,2.34,0,1,1,2.35,2.33h0a2.33,2.33,0,0,1-2.33-2.33Z"/></svg>