<svg id="Layer_1" data-name="Layer 1" xmlns="http://www.w3.org/2000/svg" viewBox="0 0 250 250"><defs><style>.cls-1{fill:#020303;}.cls-2{fill:#6f7174;}.cls-3{fill:#f1880f;}.cls-4{fill:#fff;}</style></defs><path class="cls-1" d="M130.46,155.42l6.87,1.83.74-2.73-6.87-1.82.3-1.5c.45-1.64,1-1.82,2.54-1.49l5.52,1.49.75-2.84L134.65,147c-2.73-.75-5.07,0-6,3.13l-2.53,9.54a1,1,0,0,0,.57,1.29h0l.17.05,1.82.45Zm-14.62-7.28-.58-2.8-9.35,1.91a1.09,1.09,0,0,0-.93,1.22v.12l1.94,9.69c.59,3.28,3.13,4,5.67,3.43l5.67-1.19-.6-2.84-5.52,1.19c-1.5.3-2.09,0-2.39-1.64l-.3-1.49,6.87-1.34-.6-2.83-6.86,1.33-.75-3.43ZM93,167.53a4.27,4.27,0,0,1-2.83-1.82l-5.37-6.57-2.39,1.94,5.83,7.17a5.79,5.79,0,0,0,4.18,2.36A6.66,6.66,0,0,0,97.51,169a6.51,6.51,0,0,0,2.75-4.63,6.18,6.18,0,0,0-1.49-4.62l-5.83-7.16-2.38,1.92L95.93,161c1,1.35,1.34,2.1,1.19,3.14a3.8,3.8,0,0,1-4,3.28m61.75-11a1.26,1.26,0,0,1,.45,1.64l-4.47,15.36-2.39-2.23.91-3-3-2.24,2.49-1.65,1.2.91,1.49-5.22-9.69,6.31L139,164.7l13.38-8.61a1.35,1.35,0,0,1,1.64,0ZM95.75,178.08l-1.82-1.64a36,36,0,0,1,50.73-3.58,33.8,33.8,0,0,1,3.6,3.58l-1.81,1.64a33.74,33.74,0,0,0-50.72,0M78.84,159.34l-1.65-1.65a61.24,61.24,0,0,1,86.62-1.1l1.1,1.1-1.65,1.65a59,59,0,0,0-83.51-1l-.91.91"/><path class="cls-1" d="M129.13,237h6v1.31a6.24,6.24,0,0,1-4.48,1.94c-3.43,0-5.82-1.94-5.82-6.11s2.68-6.12,5.38-6.12a4.42,4.42,0,0,1,4.62,3.29l4.17-1.2c-1-3.58-3.87-6.13-8.79-6.13a9.63,9.63,0,0,0-9.86,9.35V234c0,6.27,4.48,10,10,10a10.57,10.57,0,0,0,9-4.33v-6.56H129.13Z"/><polygon class="cls-1" points="72.89 224.5 68.42 224.5 68.42 244.04 82.14 244.04 82.14 240.01 72.89 240.01 72.89 224.5"/><polygon class="cls-1" points="88.56 236.13 96.91 236.13 96.91 232.25 88.56 232.25 88.56 228.53 97.65 228.53 97.65 224.5 84.23 224.5 84.23 244.04 97.8 244.04 97.8 240.01 88.56 240.01 88.56 236.13"/><polygon class="cls-1" points="164.78 240.01 164.78 236.13 172.99 236.13 172.99 232.25 164.78 232.25 164.78 228.53 173.73 228.53 173.73 224.5 160.31 224.5 160.31 244.04 173.88 244.04 173.88 240.01 164.78 240.01"/><path class="cls-1" d="M153.26,236.12c0,2.53-1.33,4.18-3.73,4.18s-3.73-1.65-3.73-4.18V224.64h-4.45v11.78c0,5.39,3.73,7.92,8.18,7.92s8.19-2.53,8.19-7.92V224.64h-4.46Z"/><path class="cls-1" d="M107.8,224.5l-7.91,19.39H105l1.34-3.73h7.61l1.34,3.73h5.07l-7.9-19.39Zm0,11.83,2.24-6,2.23,6Z"/><path class="cls-1" d="M82.26,203c0,4-2.09,6.58-6,6.58s-6-2.54-6-6.58V185h-7v18.5c0,8.5,5.82,12.38,12.84,12.38s12.82-4,12.82-12.38V185h-7V203Z"/><path class="cls-1" d="M175.94,195.11c0-6.55-4.92-10-10.91-10H153.15v30.28h7V205.11h4.92C171.05,205.11,175.94,201.67,175.94,195.11Zm-11.3,3.72H160v-7.61h4.63c3.13,0,4.32,1.64,4.32,3.88s-1.2,3.73-4.32,3.73Z"/><polygon class="cls-1" points="45.14 203.18 58.12 203.18 58.12 196.91 45.14 196.91 45.14 191.24 59.16 191.24 59.16 184.97 38.13 184.97 38.13 215.4 59.46 215.4 59.46 209.13 45.14 209.13 45.14 203.18"/><path class="cls-1" d="M192.53,185h-7.27l-12.38,30.29h7.91l2.23-5.83H195l2.24,5.83h7.87Zm-7.27,18.37,3.59-9.25,3.58,9.25Z"/><path class="cls-1" d="M116.45,194.67c0-6-4.78-9.7-11-9.7H93.32v30.29h7V204.34h3.74l6.11,10.91h7.76L111.26,203A9,9,0,0,0,116.45,194.67Zm-10.92,3.57h-5.22v-7h5.22c2.83,0,3.88,1.49,3.88,3.43.18,2.08-.87,3.57-3.85,3.57Z"/><path class="cls-1" d="M134.5,184.34c-9,0-14.62,6-14.62,15.82S125.7,216,134.5,216s14.62-6,14.62-15.81S143.26,184.34,134.5,184.34Zm0,25.36c-4.32,0-7.76-3.14-7.76-9.54,0-6.57,3.44-9.55,7.76-9.55s7.76,3.13,7.76,9.55-3.43,9.55-7.76,9.55Z"/><path class="cls-1" d="M125.55,124.85h0a58,58,0,0,0,11.63-2.1h0a.15.15,0,0,0,.16-.12h0v-.17h0c-4.78-5.22-12.24-15.81-17.29-25.35,2.53,10.29,4.77,21.63,5.21,27.59.16.16.16.16.3.16"/><path class="cls-1" d="M147,17.45h0c0-.15,0-.31-.15-.31h0L129,6.87h-.15c-.15,0-.15.15-.3.15h0c-.91,3.88-9.24,42.07,4.18,87.57C127.94,64.9,139.57,32.08,147,17.46"/><path class="cls-2" d="M141.51,121.42C116.26,80.84,120.32,23.4,123.18,6h0a.32.32,0,0,0-.3-.29h0C119.54,7,97.35,16,95,16.88c-.16,0-.16.15-.16.29h0c4.48,20.59,16,69.37,46.7,104.28"/><path class="cls-2" d="M107.05,122.9h0c0,.16,0,.31.15.31a59.4,59.4,0,0,0,13.58,1.93.31.31,0,0,0,.29-.29h0c-.59-9.85-2.83-30.14-11.19-48.22,2.73,18.2-.29,37.29-2.83,46.23"/><path class="cls-3" d="M100.48,121c.16,0,.16,0,.16-.14h0a4.41,4.41,0,0,0,.3-1.35h0c0-.15-.16-.15-.16-.3h0c-18-7.75-30.13-28.78-30.13-49.82,0-16.37,7-34.31,19.11-43.56h0v-.15h0c0-.3-.3-.91-.3-1.35h0c0-.14-.15-.14-.3-.14H89A55.39,55.39,0,0,0,65.73,69.5,56.18,56.18,0,0,0,100.48,121h0"/><path class="cls-3" d="M152.1,22.8h0c-.14,0-.3,0-.3.16l-.54,1.19v.19c0,.15,0,.15.15.15h0c13.42,9.11,21,27.46,21,44.9,0,19.54-9.4,38.93-25.47,47.59h0l-.15.15v.14h0l.75,1.2h0l.14.15h.08a55.61,55.61,0,0,0,29.5-49.16,56.36,56.36,0,0,0-25.2-46.69"/><polygon class="cls-4" points="163.14 119.92 164.48 119.92 164.48 123.66 165.08 123.66 165.08 119.92 166.42 119.92 166.42 119.33 163.14 119.33 163.14 119.92"/><polygon class="cls-4" points="170.75 119.33 169.26 123.06 167.91 119.33 167.17 119.33 167.17 123.66 167.77 123.66 167.77 120.53 168.96 123.66 169.7 123.66 170.9 120.53 170.9 123.66 171.5 123.66 171.5 119.33 170.75 119.33"/></svg>