<svg id="Layer_1" data-name="Layer 1" xmlns="http://www.w3.org/2000/svg" viewBox="0 0 250 250"><defs><style>.cls-1{fill:#e51147;}.cls-2{fill:#04963b;}.cls-3{fill:#2073ba;}.cls-4{fill:#f6a318;}.cls-5{fill:#f0f0f2;}</style></defs><path class="cls-1" d="M121.34,61.09c.68-.91,5.07-9.06,4.18-12.71,0,0,2.83,2.26,5.24,11.28,0,0,1.19-18,2.62-20.81,0,0,2.54,13.15,3.7,20.74,0,0,3.34-11.28,6.69-13.83,0,0-5.88,18.46,5.36,24,15.56,7.65,28.21,24.3,28.21,41.84a43.68,43.68,0,0,1-4.13,18.61,45.74,45.74,0,0,0,6.16-23,46.23,46.23,0,0,0-25-40.9c-12.07-6.25-4.93-28.91-4.93-28.91-9.11,3.08-12.17,18.45-12.17,18.45.74-12-3.9-25.37-3.9-25.37C129.37,38.1,130,56,130,56c-.32-10.35-10-16.78-10-16.78C126.47,51,122,60.12,121.34,61.09Z"/><path class="cls-2" d="M154.85,80.22a41.91,41.91,0,0,0-19.93-8.77,40,40,0,0,1,15.65,7.72c12.51,10,17.15,28.61,13.69,44.1-2.5,11.18,3,10.38,5.47-1.81A42.27,42.27,0,0,0,154.85,80.22Z"/><path class="cls-3" d="M120.5,74.17c7.07-.7,6.23-5.32,3.87-7.3-2.64-2.2-18-3.32-29.86,15.72-9.1,14.61-10.37,34.73,2,52.19,11.5,16.19,42.6,27.24,55,8.49,2.57-3.88,14-2.46,14.09-3.59l.66.15c0-2-6.44-2.71-6.44-2.71a6.32,6.32,0,0,0-7.23-2.08c-.31.13-1.36-.91-3.69-.41,0,0,2.21.33,2.15,1.27,0,0-3.48-1.42-5.44-.19,0,0,2.72.07,3.33,1.44,0,0-1.89-.71-4,1.3,0,0,4.54-1.12,3.73,2.35-.59,2.52-5.56,4-13,3.42a39.75,39.75,0,0,1-10.54-1.86c-8.38-2.53-24-11.9-18.24-26.17,1.44-3.58,7.29-2.32,7.41,1.42a6,6,0,0,1-.43,2.83,5.44,5.44,0,0,0,1.2-4.28,5.88,5.88,0,0,0-6.43-4.91c-2.49.37-6.94,1.79-7.52,10.16-5-11-6.68-25.55,8-30.69,2-.68,4.66-.63,5,1.91s-1.85,4.63-4.55,4.63a4.83,4.83,0,0,1-2.73-.84,5.49,5.49,0,1,0,4.06-9.17,17.77,17.77,0,0,0-12.28,5.11c4.33-16.65,23-29.3,25.68-22.53C125.15,72,121.6,73.82,120.5,74.17Z"/><path class="cls-4" d="M135.69,144.18a21.41,21.41,0,0,1,3.57-8.77c3.53-5.06,8.14-14.18,1.74-25.13-9-15.38-14.48-27.39-8.82-33.89,0,0-11.75,9.38-4.18,27.53,6.05,14.52,2.45,22.56,2.45,22.56.48-10.2-8-18.86-6.61-28,0,0-4.88,5.38-.33,17.84,2,5.48,1.44,14.17,1.44,14.17s-4.83-8.63-4.49-15.79c0,0-5.68,14.47,4.65,27.59a46.68,46.68,0,0,0,9.4,10.67A72,72,0,0,1,135.69,144.18Z"/><path class="cls-5" d="M31.58,207a.2.2,0,0,1-.13.09H28.21a4.28,4.28,0,0,1-2.65-.71,2.87,2.87,0,0,1-.89-2.38v-6.4a2.85,2.85,0,0,1,.89-2.37,4.16,4.16,0,0,1,2.65-.72h3.2a.22.22,0,0,1,.13.08.38.38,0,0,1,0,.15v.83c0,.14-.06.2-.18.2H28.23a4.27,4.27,0,0,0-1.07.1,1.28,1.28,0,0,0-.61.29,1.05,1.05,0,0,0-.29.55,3.47,3.47,0,0,0-.08.79v2.31h5.11a.29.29,0,0,1,.23.1.33.33,0,0,1,.1.23v.62a.35.35,0,0,1-.33.33H26.18v2.81a3.56,3.56,0,0,0,.08.8,1.06,1.06,0,0,0,.29.54,1.35,1.35,0,0,0,.61.3,4.79,4.79,0,0,0,1.07.09h3.21c.12,0,.18.07.18.2v.85A.23.23,0,0,1,31.58,207Z"/><path class="cls-5" d="M44.51,206a4.27,4.27,0,0,1-3.14,1.11A4.29,4.29,0,0,1,38.22,206a4.71,4.71,0,0,1-1.12-3.49V195a.34.34,0,0,1,.32-.32h.91a.33.33,0,0,1,.23.1.31.31,0,0,1,.09.22v7.56a6.76,6.76,0,0,0,.13,1.42,2.29,2.29,0,0,0,.46,1,1.92,1.92,0,0,0,.83.63,3.39,3.39,0,0,0,1.3.22,3.29,3.29,0,0,0,1.28-.22,2,2,0,0,0,.84-.63,2.47,2.47,0,0,0,.46-1,6.86,6.86,0,0,0,.13-1.43V195a.34.34,0,0,1,.32-.32h.91a.33.33,0,0,1,.23.1.31.31,0,0,1,.09.22v7.55A4.73,4.73,0,0,1,44.51,206Z"/><path class="cls-5" d="M59.93,206.79a.2.2,0,0,1-.18.22H58.64a1,1,0,0,1-.24,0,.44.44,0,0,1-.19-.19l-3-5H53v4.88a.35.35,0,0,1-.08.24.28.28,0,0,1-.21.1h-.9a.32.32,0,0,1-.22-.1.41.41,0,0,1-.08-.24V195a.35.35,0,0,1,.08-.26.62.62,0,0,1,.32-.11h2.92a9.49,9.49,0,0,1,1.84.18,4.16,4.16,0,0,1,1.48.6,3.1,3.1,0,0,1,1,1.1,3.57,3.57,0,0,1,.36,1.7v.11a3.85,3.85,0,0,1-.19,1.26,3,3,0,0,1-.54,1,3,3,0,0,1-.83.7,4,4,0,0,1-1,.43l3,5Zm-2-8.67a1.83,1.83,0,0,0-.8-1.73,4.59,4.59,0,0,0-2.36-.49H52.89v4.57h1.83a7.72,7.72,0,0,0,1.36-.11,2.84,2.84,0,0,0,1-.38,1.62,1.62,0,0,0,.61-.71,2.88,2.88,0,0,0,.2-1.12Z"/><path class="cls-5" d="M73.57,201.9a7.34,7.34,0,0,1-.33,2.37,4.34,4.34,0,0,1-.94,1.62,3.55,3.55,0,0,1-1.42.93,5.58,5.58,0,0,1-3.61,0,3.65,3.65,0,0,1-1.43-.93,4.34,4.34,0,0,1-.94-1.62,7.35,7.35,0,0,1-.34-2.37v-2.14a7.35,7.35,0,0,1,.34-2.37,4.34,4.34,0,0,1,.94-1.62,3.65,3.65,0,0,1,1.43-.93,5.58,5.58,0,0,1,3.61,0,3.55,3.55,0,0,1,1.42.93,4.34,4.34,0,0,1,.94,1.62,7.34,7.34,0,0,1,.33,2.37ZM72,199.76a6.67,6.67,0,0,0-.21-1.78,3.37,3.37,0,0,0-.59-1.2,2.29,2.29,0,0,0-.93-.67,3.68,3.68,0,0,0-2.45,0,2.26,2.26,0,0,0-.94.67,3.16,3.16,0,0,0-.6,1.2,7.1,7.1,0,0,0-.2,1.78v2.14a7.1,7.1,0,0,0,.2,1.78,3.37,3.37,0,0,0,.59,1.2,2.26,2.26,0,0,0,.94.67,3.42,3.42,0,0,0,1.23.21,3.22,3.22,0,0,0,1.23-.21,2.29,2.29,0,0,0,.93-.67,3.37,3.37,0,0,0,.59-1.2A6.67,6.67,0,0,0,72,201.9Z"/><path class="cls-5" d="M87,198.36a3.93,3.93,0,0,1-.35,1.76,3,3,0,0,1-1,1.14,3.77,3.77,0,0,1-1.47.63,8.28,8.28,0,0,1-1.86.2h-.87a3.51,3.51,0,0,1-.79-.06v4.67a.41.41,0,0,1-.08.24.32.32,0,0,1-.22.1h-.9a.32.32,0,0,1-.22-.1.41.41,0,0,1-.08-.24V195.09c0-.25.13-.38.4-.42s.78-.07,1.28-.1h1.48a9,9,0,0,1,1.86.19,4.08,4.08,0,0,1,1.47.62,2.82,2.82,0,0,1,1,1.11,3.67,3.67,0,0,1,.35,1.69Zm-1.51-.22a2,2,0,0,0-.76-1.79,4.3,4.3,0,0,0-2.38-.53h-.87a7,7,0,0,0-.79.05v4.85h1.66a4.06,4.06,0,0,0,2.43-.57,2.33,2.33,0,0,0,.71-1.88Z"/><path class="cls-5" d="M99.26,207a.2.2,0,0,1-.13.09H95.89a4.16,4.16,0,0,1-2.65-.71,2.87,2.87,0,0,1-.89-2.38v-6.4a2.85,2.85,0,0,1,.89-2.37,4.16,4.16,0,0,1,2.65-.72h3.24a.22.22,0,0,1,.13.08.38.38,0,0,1,0,.15v.83c0,.14-.06.2-.18.2H95.91a4.27,4.27,0,0,0-1.07.1,1.28,1.28,0,0,0-.61.29,1.05,1.05,0,0,0-.29.55,3.47,3.47,0,0,0-.08.79v2.31H99a.29.29,0,0,1,.23.1.33.33,0,0,1,.1.23v.62A.35.35,0,0,1,99,201H93.86v2.81a3.56,3.56,0,0,0,.08.8,1,1,0,0,0,.29.54,1.35,1.35,0,0,0,.61.3,4.79,4.79,0,0,0,1.07.09h3.21c.12,0,.18.07.18.2v.85a.23.23,0,0,1,.07.32A.2.2,0,0,1,99.26,207Z"/><path class="cls-5" d="M113.58,206.74c0,.18-.1.27-.29.27h-1a.23.23,0,0,1-.18-.08.4.4,0,0,1-.1-.18l-1-3.82H106.7l-1.06,3.82a.42.42,0,0,1-.11.18.27.27,0,0,1-.19.08h-1c-.19,0-.28-.09-.28-.27a.24.24,0,0,1,0-.12l3.07-10.82a1.54,1.54,0,0,1,.29-.62,1.57,1.57,0,0,1,.43-.38,1.74,1.74,0,0,1,.49-.2,2,2,0,0,1,.49-.06h.48a1.66,1.66,0,0,1,.48.19,1.31,1.31,0,0,1,.42.39,1.74,1.74,0,0,1,.3.61l3.07,10.84A.48.48,0,0,1,113.58,206.74Zm-4.46-10.59a.29.29,0,0,0-.3-.3h0a.36.36,0,0,0-.34.3L107,201.62h3.67Z"/><path class="cls-5" d="M127.23,206.86a.41.41,0,0,1-.33.15h-1a.55.55,0,0,1-.53-.27L120.24,197v9.71a.35.35,0,0,1-.08.22.32.32,0,0,1-.22.1h-1.22a.15.15,0,0,1-.08-.16V195.12a.47.47,0,0,1,.14-.33.48.48,0,0,1,.34-.14H120a.9.9,0,0,1,.46.08.78.78,0,0,1,.22.26l5.1,9.71h0V195a.35.35,0,0,1,.08-.22.28.28,0,0,1,.21-.1H127a.28.28,0,0,1,.21.1.27.27,0,0,1,.08.22v11.55A.42.42,0,0,1,127.23,206.86Z"/><path class="cls-5" d="M148,206.87c-.4.07-.86.13-1.37.18s-1.15.07-1.93.07a4.61,4.61,0,0,1-1.56-.27,3.79,3.79,0,0,1-1.38-.88,4.6,4.6,0,0,1-1-1.6,6.8,6.8,0,0,1-.38-2.41v-2.24a6.86,6.86,0,0,1,.4-2.5,4.6,4.6,0,0,1,1-1.6,3.46,3.46,0,0,1,1.43-.84,5.44,5.44,0,0,1,1.6-.24,13.71,13.71,0,0,1,1.92.08c.51.08.92.1,1.23.16a.66.66,0,0,1,.2.06.19.19,0,0,1,.09.18v.83c0,.11-.08.17-.22.17h0l-.7-.06h-2.45a3.55,3.55,0,0,0-1.12.18,2.25,2.25,0,0,0-.94.61,3.11,3.11,0,0,0-.65,1.18,6.1,6.1,0,0,0-.23,1.85V202a6.45,6.45,0,0,0,.21,1.75,3.19,3.19,0,0,0,.6,1.19,2.11,2.11,0,0,0,.89.67,2.93,2.93,0,0,0,1.09.21H146l.81-.07V201a.4.4,0,0,1,.08-.23.32.32,0,0,1,.22-.1h.9a.32.32,0,0,1,.22.1.32.32,0,0,1,.09.23v5.6A.33.33,0,0,1,148,206.87Z"/><path class="cls-5" d="M163,206.74c0,.18-.09.27-.28.27h-1a.23.23,0,0,1-.18-.08.4.4,0,0,1-.1-.18l-1.08-3.82H156l-1,3.82a.44.44,0,0,1-.12.18.25.25,0,0,1-.18.08h-1c-.19,0-.28-.09-.28-.27a.24.24,0,0,1,0-.12l3.08-10.82a1.54,1.54,0,0,1,.29-.62,1.69,1.69,0,0,1,.42-.38,1.74,1.74,0,0,1,.49-.2,2,2,0,0,1,.49-.06h.49a1.66,1.66,0,0,1,.48.19,2,2,0,0,1,.42.39,1.56,1.56,0,0,1,.29.61L163,206.62A.24.24,0,0,1,163,206.74Zm-4.45-10.59c-.06-.2-.16-.3-.32-.3a.33.33,0,0,0-.33.3l-1.51,5.47H160Z"/><path class="cls-5" d="M178,206.91a.33.33,0,0,1-.23.1H177a.35.35,0,0,1-.33-.34v-9.9h0l-2.38,4.92a1.16,1.16,0,0,1-.29.37.83.83,0,0,1-.46.11h-.77a.86.86,0,0,1-.47-.11,1.44,1.44,0,0,1-.28-.37l-2.38-4.92h0v9.9a.35.35,0,0,1-.1.24.33.33,0,0,1-.23.1h-.81a.37.37,0,0,1-.23-.1.36.36,0,0,1-.09-.24V195.14a.44.44,0,0,1,.14-.34.45.45,0,0,1,.33-.15h1.07a.8.8,0,0,1,.34.07.47.47,0,0,1,.2.22l2.74,5.7c.06.12.12.18.2.18s.15-.06.2-.18l2.75-5.7a.51.51,0,0,1,.19-.22.84.84,0,0,1,.35-.07h1.06a.49.49,0,0,1,.34.15.48.48,0,0,1,.14.34v11.53A.33.33,0,0,1,178,206.91Z"/><path class="cls-5" d="M191,207a.14.14,0,0,1-.12.09H187.6a4.16,4.16,0,0,1-2.65-.71,2.87,2.87,0,0,1-.89-2.38v-6.4a2.85,2.85,0,0,1,.89-2.37,4.16,4.16,0,0,1,2.65-.72h3.24a.13.13,0,0,1,.12.08.38.38,0,0,1,0,.15v.83c0,.14-.06.2-.19.2h-3.2a4.27,4.27,0,0,0-1.07.1,1.28,1.28,0,0,0-.61.29,1,1,0,0,0-.3.55,4.22,4.22,0,0,0-.07.79v2.31h5.1a.35.35,0,0,1,.24.1.33.33,0,0,1,.1.23v.62a.29.29,0,0,1-.1.23.35.35,0,0,1-.24.1h-5.1v2.81a4.25,4.25,0,0,0,.07.8,1,1,0,0,0,.3.54,1.35,1.35,0,0,0,.61.3,4.79,4.79,0,0,0,1.07.09h3.2c.13,0,.19.07.19.2v.85A.25.25,0,0,1,191,207Z"/><path class="cls-5" d="M203.55,203.8a4.07,4.07,0,0,1-.19,1.2,2.56,2.56,0,0,1-.64,1.07,3.1,3.1,0,0,1-1.25.76,5.91,5.91,0,0,1-2,.29,13.23,13.23,0,0,1-1.54-.07l-1.22-.16a.45.45,0,0,1-.27-.1.34.34,0,0,1,0-.2v-.66a.22.22,0,0,1,.08-.2.25.25,0,0,1,.2-.07h2.79a4.72,4.72,0,0,0,1.24-.14,2,2,0,0,0,.77-.4,1.42,1.42,0,0,0,.4-.62,2.72,2.72,0,0,0,.12-.8,1.56,1.56,0,0,0-.11-.57,1.32,1.32,0,0,0-.33-.51,4.37,4.37,0,0,0-.61-.53c-.26-.18-.57-.38-1-.62l-1.61-1a6.45,6.45,0,0,1-1.72-1.4,2.64,2.64,0,0,1-.58-1.71,2.53,2.53,0,0,1,1-2.22,5.18,5.18,0,0,1,2.95-.72h1.57l.74.07.58.07a.27.27,0,0,1,.29.25v.75c0,.17-.1.26-.29.26h0l-1.35-.06h-1.52a4,4,0,0,0-1.87.33,1.32,1.32,0,0,0-.57,1.25,1.43,1.43,0,0,0,.43,1,7.59,7.59,0,0,0,1.38,1l1.52.92a8.36,8.36,0,0,1,1.21.83,4.09,4.09,0,0,1,.81.8,2.68,2.68,0,0,1,.45.83A3,3,0,0,1,203.55,203.8Z"/><path class="cls-5" d="M48.1,179.36c2.58,0,2.58-4,2.58-5.28a7,7,0,0,0-7-7h-12a7,7,0,0,0-7,7h0v10.57a7,7,0,0,0,7,7h12a7,7,0,0,0,7-7C50.68,183.44,50.68,179.36,48.1,179.36Zm-19-5.28a2.58,2.58,0,0,1,2.58-2.57h12a2.58,2.58,0,0,1,2.58,2.57v.51a2.6,2.6,0,0,1-2.58,2.58H29.07Zm17.21,10.57a2.6,2.6,0,0,1-2.58,2.58H31.65a2.6,2.6,0,0,1-2.58-2.58v-3.09H43.7a2.6,2.6,0,0,1,2.58,2.58Z"/><path class="cls-5" d="M130.23,184.69a2.6,2.6,0,0,1-2.58,2.58H115.57a2.6,2.6,0,0,1-2.58-2.58h0V167.15h-4.4v17.54a7,7,0,0,0,7,7h12.08a7,7,0,0,0,7-7V167.15h-4.4Z"/><path class="cls-5" d="M71.91,167.15h-12a7,7,0,0,0-7,7V191.7h4.4V181.61H74.49v10.06h4.4V174.12A7,7,0,0,0,71.91,167.15ZM57.28,177.21v-3.09a2.58,2.58,0,0,1,2.58-2.57h12a2.58,2.58,0,0,1,2.58,2.57v3.09Z"/><rect class="cls-5" x="81.09" y="167.15" width="4.4" height="24.52"/><path class="cls-5" d="M90.65,177.48l15.74-10.33H98.86l-11.32,7.21a7,7,0,0,0,0,9.87l11.32,7.43h7.53L90.65,181.13a2.58,2.58,0,0,1,0-3.65Z"/><path class="cls-4" d="M196.4,167.15h-16a7,7,0,0,0-7,7v10.56a7,7,0,0,0,7,7h16a7,7,0,0,0,7-7V174.13A7,7,0,0,0,196.4,167.15Zm2.6,17.54a2.59,2.59,0,0,1-2.59,2.58h-16a2.6,2.6,0,0,1-2.58-2.58V174.13a2.6,2.6,0,0,1,2.58-2.58h16a2.59,2.59,0,0,1,2.59,2.58Z"/><rect class="cls-4" x="205.59" y="167.15" width="4.39" height="39.97"/><path class="cls-4" d="M171.21,187.27h-23a2.6,2.6,0,0,1-2.58-2.58v-.49a2.59,2.59,0,0,1,2.58-2.58h16a7,7,0,0,0,7-7h0v-.51a7,7,0,0,0-7-7h-16a7,7,0,0,0-7,7v.62h4.4v-.62a2.6,2.6,0,0,1,2.58-2.58h16a2.6,2.6,0,0,1,2.58,2.58v.51a2.6,2.6,0,0,1-2.58,2.58h-16a7,7,0,0,0-7,7v.49a7,7,0,0,0,7,7h23Z"/><path class="cls-4" d="M242.16,171.54v-4.39h-30v13.61a7,7,0,0,0,7,7h16a2.57,2.57,0,0,1,2.58,2.56h0V200a2.6,2.6,0,0,1-2.58,2.58h-16a2.59,2.59,0,0,1-2.59-2.58v-4.82h-4.39V200a7,7,0,0,0,7,7h16a7,7,0,0,0,7-7v-9.61a7,7,0,0,0-7-7h-16a2.58,2.58,0,0,1-2.58-2.57V171.6Z"/><path class="cls-4" d="M28.48,163.64a1.27,1.27,0,0,1-.09.47.92.92,0,0,1-.28.42,1.22,1.22,0,0,1-.5.3,2,2,0,0,1-.76.12h-.63a2.77,2.77,0,0,1-.5-.1.06.06,0,0,1-.08,0,0,0,0,0,1,0,0v-.58a.14.14,0,0,1,0-.09h1.21a.69.69,0,0,0,.42-.1.42.42,0,0,0,.11-.32.35.35,0,0,0-.08-.22,1.39,1.39,0,0,0-.31-.23l-.83-.49a1.7,1.7,0,0,1-.34-.26,1.39,1.39,0,0,1-.21-.27,1.57,1.57,0,0,1-.12-.3,1.61,1.61,0,0,1,0-.31,1.21,1.21,0,0,1,.08-.46.94.94,0,0,1,.25-.37,1.4,1.4,0,0,1,.47-.24,2.25,2.25,0,0,1,.73-.09h1l.23.05h.06a.11.11,0,0,1,0,.08v.6a.09.09,0,0,1,0,.07h-.08l-.27.12H27a.64.64,0,0,0-.36.08.28.28,0,0,0-.1.24.21.21,0,0,0,0,.11.36.36,0,0,0,.07.1l.12.09c.05,0,.12.07.2.12l.76.41a1.55,1.55,0,0,1,.64.55A1.47,1.47,0,0,1,28.48,163.64Z"/><path class="cls-4" d="M32,161.27H31v3.47a.14.14,0,0,1,0,.09H30a.14.14,0,0,1,0-.09v-3.47H28.91a.11.11,0,0,1,0-.08v-.7a.11.11,0,0,1,.08,0h3.09a.11.11,0,0,1,0,.08v.62A.09.09,0,0,1,32,161.27Z"/><path class="cls-4" d="M18.48,160.46H5.82V165H10.3v38.2a4,4,0,0,0,4,4h4.2a4,4,0,0,0,4-4V164.44a4,4,0,0,0-4-4Z"/></svg>