<svg id="Layer_1" data-name="Layer 1" xmlns="http://www.w3.org/2000/svg" viewBox="0 0 250 250"><defs><style>.cls-1{fill:#fff;}.cls-2{fill:#fec703;}.cls-3{fill:#2a4b9b;}</style></defs><ellipse class="cls-1" cx="123.98" cy="96.74" rx="68.78" ry="69.02"/><path class="cls-2" d="M123.91,102.67l-34.5,34.61-34-34.61c2,29.4,20.47,49.86,44.62,58.81L124,137.6Z"/><path class="cls-3" d="M124,137.45l0,28.31a68.74,68.74,0,0,0,34.84-9.42V137.45Z"/><path class="cls-2" d="M158.76,102.67V137.6h20.66a68.73,68.73,0,0,0,13.09-34.93Z"/><path class="cls-3" d="M158.76,102.67l30-29.83a69.05,69.05,0,0,0-13-21.72l-51.82,51.55Z"/><path class="cls-2" d="M156.2,35.72a68.77,68.77,0,0,0-32.24-8V67.8Z"/><path class="cls-3" d="M97.76,32.85c-27.74,10.6-45,40-42.31,69.82H97.76Z"/><polygon class="cls-1" points="156.15 177.92 167.25 177.92 176.94 209.81 186.77 177.92 197.31 177.92 183.26 221.33 170.62 221.33 156.15 177.92"/><polygon class="cls-1" points="111.64 221.33 146.38 221.33 146.38 212.08 121.71 212.08 121.71 204.1 144.58 204.1 144.58 194.75 121.56 194.75 121.56 187.34 146.02 187.34 146.02 177.92 111.64 177.92 111.64 221.33"/><path class="cls-1" d="M99.68,212.17a22.48,22.48,0,1,1-.12-24.95L91.11,192a12.86,12.86,0,1,0,.14,15.47Z"/></svg>