<svg width="190" height="29" fill="none" xmlns="http://www.w3.org/2000/svg"><g clip-path="url(#clip0)" fill="#fff"><path d="M124.238 12.905c-3.489-.703-4.285-1.639-4.285-3.175v-.04c0-1.514 1.428-2.736 3.592-2.736a6.373 6.373 0 0 1 4.388 1.639l.704-.85c-1.491-1.17-2.898-1.763-5.041-1.763-2.729 0-4.726 1.66-4.726 3.816v.042c0 2.198 1.431 3.38 4.959 4.085 3.34.662 4.16 1.554 4.16 3.09v.035c0 1.66-1.513 2.881-3.718 2.881-2.164 0-3.655-.683-5.274-2.156l-.705.81c1.765 1.555 3.571 2.322 5.925 2.322 2.835 0 4.874-1.617 4.874-3.96v-.038c0-2.107-1.428-3.317-4.832-4.002M138.43 5.906h-6.481v14.93h1.151v-5.164h5.328c1.3 0 2.546-.514 3.465-1.43a4.874 4.874 0 0 0 0-6.906 4.908 4.908 0 0 0-3.465-1.43h.002zm-.002 8.762H133.1V6.91h5.328a3.898 3.898 0 0 1 2.69 1.17 3.87 3.87 0 0 1 0 5.417 3.898 3.898 0 0 1-2.69 1.168M177.036 5.915v1.004h5.905v13.918h1.154V6.92H190V5.915h-12.964zM175.449 10.794a4.87 4.87 0 0 0-1.435-3.451 4.905 4.905 0 0 0-3.463-1.43h-6.192v14.923h1.154v-5.162s5.214 0 5.167-.014l3.773 5.176h1.297l-3.893-5.34a4.896 4.896 0 0 0 2.599-1.745 4.87 4.87 0 0 0 1.005-2.957h-.012zm-4.886 3.876h-5.041V6.917h5.041c1.032 0 2.021.409 2.751 1.136a3.871 3.871 0 0 1 0 5.482 3.898 3.898 0 0 1-2.751 1.135zM147.363 13.375c0-3.487 2.901-6.32 6.481-6.32.22 0 .439 0 .655.033l.47-1.1a7.959 7.959 0 0 0-1.125-.08c-4.217 0-7.637 3.343-7.637 7.465a7.385 7.385 0 0 0 .815 3.36 7.421 7.421 0 0 0 2.257 2.625l.47-1.09a6.252 6.252 0 0 1-2.384-4.895M158.417 7.39l-.47 1.09a6.236 6.236 0 0 1 2.384 4.895c0 3.488-2.903 6.32-6.483 6.32-.221 0-.442 0-.656-.033l-.469 1.098c.372.054.748.082 1.125.082 4.228 0 7.634-3.342 7.634-7.465a7.384 7.384 0 0 0-.812-3.36 7.422 7.422 0 0 0-2.253-2.627zM67.308 11.381a5.447 5.447 0 0 0-1.604-3.858 5.485 5.485 0 0 0-3.872-1.598H55.02v14.967h3.747v-4.057h2.92l2.163 4.057h4.033l-2.755-5.164a5.448 5.448 0 0 0 2.177-4.35l.003.003zm-5.581 2.294h-2.972V9.09h2.974c.611 0 1.197.241 1.63.672a2.292 2.292 0 0 1 0 3.248 2.309 2.309 0 0 1-1.63.672M36.644 20.892h3.89l6.373-14.96-3.89-.007-6.373 14.967zM46.91 15.066l2.48 5.826h3.89L48.854 10.5l-1.945 4.565zM70.188 20.891H81.96v-3.157h-8.029v-2.746h4.007l1.346-3.16h-5.353V9.084h8.029V5.927H70.188V20.89zM94.108 14.647l-5.812-8.722h-4.03v14.967h3.744v-8.72l5.809 8.72h4.033V5.925h-3.744v8.722zM99.941 20.892h3.89l6.373-14.96-3.892-.007-6.37 14.967zM110.203 15.066l2.481 5.826h3.89L112.148 10.5l-1.945 4.565zM12.605 6.009l-6.37 14.967h3.887l6.375-14.963-3.892-.004zM18.98 20.976h3.89l-4.428-10.393-1.945 4.567 2.483 5.826z"/><path d="M1.272 14.499c0-2.056.48-4.085 1.404-5.924a13.253 13.253 0 0 1 3.915-4.672A13.333 13.333 0 0 1 18.29 1.79l.498-1.17a14.596 14.596 0 0 0-10.39.74 14.522 14.522 0 0 0-7.231 7.472 14.452 14.452 0 0 0-.365 10.374 14.511 14.511 0 0 0 6.688 7.959l.498-1.17a13.273 13.273 0 0 1-4.911-4.848A13.213 13.213 0 0 1 1.272 14.5zM22.052 2.078l-.5 1.17a13.245 13.245 0 0 1 5.692 7.247 13.195 13.195 0 0 1-.424 9.193 13.257 13.257 0 0 1-6.335 6.696 13.326 13.326 0 0 1-9.184.963l-.5 1.17c3.387.9 6.987.552 10.137-.981a14.52 14.52 0 0 0 7.007-7.366 14.452 14.452 0 0 0 .444-10.14 14.508 14.508 0 0 0-6.337-7.945"/></g><defs><clipPath id="clip0"><path fill="#fff" d="M0 0h190v29H0z"/></clipPath></defs></svg>