<svg id="Layer_1" data-name="Layer 1" xmlns="http://www.w3.org/2000/svg" viewBox="0 0 478 105.47"><defs><style>.cls-1{fill:#fff;}</style></defs><path class="cls-1" d="M201.15,42.79V9.86h3.94V22.57h17.4V9.86h4V42.79h-4V26.29h-17.4v16.5Z"/><path class="cls-1" d="M234.1,42.79V22.22h3.12v4.27a11.19,11.19,0,0,1,3-3.8,6.4,6.4,0,0,1,3.89-1.16,6.2,6.2,0,0,1,1.22.11l.48.08a4.4,4.4,0,0,1,.69.22l-1.17,3.16-.51-.15-.72-.13a5.7,5.7,0,0,0-1-.09,4.76,4.76,0,0,0-4.17,2q-1.41,2-1.41,6.05v10Z"/><path class="cls-1" d="M257,44,246.77,22.2h3.95l6.19,14.33,6.23-14.33h3.94Z"/><path class="cls-1" d="M290,22.22V42.79h-3.42V39.07a8.88,8.88,0,0,1-3.16,3.42,8.13,8.13,0,0,1-4.31,1.19,9.15,9.15,0,0,1-7.13-3,11.63,11.63,0,0,1-2.72-8.06,11.77,11.77,0,0,1,2.64-8,8.87,8.87,0,0,1,7-3,8.56,8.56,0,0,1,4.46,1.12,8.38,8.38,0,0,1,3.11,3.44V22.22Zm-3.42,10.52a8.07,8.07,0,0,0-1.9-5.6,7,7,0,0,0-9.91-.15A7.73,7.73,0,0,0,273,32.43a8.37,8.37,0,0,0,1.79,5.73,7.26,7.26,0,0,0,10,.06A7.79,7.79,0,0,0,286.62,32.74Z"/><path class="cls-1" d="M297.64,25.1h-3.79V22.2h3.79V14h3.57V22.2H305v2.9h-3.79V42.79h-3.57Z"/><path class="cls-1" d="M306.81,39.32l3.05-2A6.4,6.4,0,0,0,312,39.76a5.38,5.38,0,0,0,3.08.87,4.32,4.32,0,0,0,2.79-.85,2.74,2.74,0,0,0,1.06-2.25,2.39,2.39,0,0,0-.7-1.76,7.13,7.13,0,0,0-2.52-1.36l-.59-.2q-7.49-2.57-7.49-6.48a5.62,5.62,0,0,1,2-4.46,7.78,7.78,0,0,1,5.24-1.74,9.23,9.23,0,0,1,4.54,1,6.23,6.23,0,0,1,2.77,3l-2.85,1.74a4.5,4.5,0,0,0-1.86-2.15,5.35,5.35,0,0,0-2.81-.75,3.69,3.69,0,0,0-2.51.86,2.84,2.84,0,0,0-1,2.21c0,1.26,1.36,2.31,4.07,3.17l1.21.38a11.16,11.16,0,0,1,4.65,2.45,5.15,5.15,0,0,1,1.29,3.65,6,6,0,0,1-2.07,4.7,7.91,7.91,0,0,1-5.43,1.83,10.23,10.23,0,0,1-4.84-1.07A8.19,8.19,0,0,1,306.81,39.32Z"/><path class="cls-1" d="M327.78,42.79V7.93h3.5v23.6l9.93-9.32h4.7l-10.25,9.42,11.18,11.15h-4.93L331.28,31.89v10.9Z"/><path class="cls-1" d="M369.59,22.22V42.79h-3.42V39.07A9,9,0,0,1,363,42.49a8.15,8.15,0,0,1-4.31,1.19,9.12,9.12,0,0,1-7.13-3,11.63,11.63,0,0,1-2.72-8.06,11.81,11.81,0,0,1,2.63-8,8.91,8.91,0,0,1,7-3A8.56,8.56,0,0,1,363,22.65a8.36,8.36,0,0,1,3.1,3.44V22.22Zm-3.42,10.52a8.08,8.08,0,0,0-1.91-5.6,7,7,0,0,0-9.91-.15,7.77,7.77,0,0,0-1.78,5.44,8.42,8.42,0,0,0,1.78,5.73,7.28,7.28,0,0,0,10,.06A7.79,7.79,0,0,0,366.17,32.74Z"/><path class="cls-1" d="M200.86,88V67.41H204v4.28a11.14,11.14,0,0,1,3-3.81,6.47,6.47,0,0,1,3.89-1.16,5.38,5.38,0,0,1,1.21.12,3.79,3.79,0,0,1,.49.08,4.14,4.14,0,0,1,.68.21l-1.17,3.16c-.21-.07-.38-.11-.5-.14l-.72-.14a5.72,5.72,0,0,0-1-.09,4.76,4.76,0,0,0-4.17,2q-1.4,2-1.4,6V88Z"/><path class="cls-1" d="M236.12,67.41V88H232.7V84.27a8.92,8.92,0,0,1-3.16,3.41,8,8,0,0,1-4.31,1.19,9.14,9.14,0,0,1-7.13-3,11.61,11.61,0,0,1-2.72-8A11.84,11.84,0,0,1,218,69.74a8.91,8.91,0,0,1,7.05-3,8.66,8.66,0,0,1,4.46,1.12,8.52,8.52,0,0,1,3.11,3.44V67.41ZM232.7,77.93a8,8,0,0,0-1.9-5.59,7,7,0,0,0-9.91-.16,7.74,7.74,0,0,0-1.79,5.44,8.34,8.34,0,0,0,1.79,5.73,7.28,7.28,0,0,0,10,.07A7.83,7.83,0,0,0,232.7,77.93Z"/><path class="cls-1" d="M262.3,53.12V88h-3.41V84.27a9.25,9.25,0,0,1-3.15,3.4,8,8,0,0,1-4.32,1.2,9.12,9.12,0,0,1-7.13-3,11.56,11.56,0,0,1-2.72-8,11.79,11.79,0,0,1,2.64-8.06,9,9,0,0,1,7.08-3,8.32,8.32,0,0,1,4.46,1.16,8.64,8.64,0,0,1,3.06,3.45V53.12Zm-3.41,24.72A7.85,7.85,0,0,0,257,72.3a6.53,6.53,0,0,0-5-2.08,6.35,6.35,0,0,0-4.88,1.89,7.42,7.42,0,0,0-1.77,5.28,9,9,0,0,0,1.77,5.91A6,6,0,0,0,252,85.45a6.5,6.5,0,0,0,5.08-2A8,8,0,0,0,258.89,77.84Z"/><path class="cls-1" d="M268.78,57.46a2.55,2.55,0,0,1,4.37-1.79,2.5,2.5,0,0,1,.76,1.83,2.47,2.47,0,0,1-.74,1.77,2.44,2.44,0,0,1-1.82.76,2.48,2.48,0,0,1-1.81-.74A2.43,2.43,0,0,1,268.78,57.46ZM269.59,88V67.39h3.57V88Z"/><path class="cls-1" d="M279,77.79a11.31,11.31,0,0,1,.82-4.27A10.66,10.66,0,0,1,282.2,70a11.18,11.18,0,0,1,3.66-2.4,11.5,11.5,0,0,1,4.3-.83,11.25,11.25,0,0,1,4.25.82A11.45,11.45,0,0,1,298.07,70a10.25,10.25,0,0,1,2.43,3.58,10.93,10.93,0,0,1,.84,4.23,10.71,10.71,0,0,1-3.25,7.76A11.65,11.65,0,0,1,294.41,88a10.87,10.87,0,0,1-4.25.86,11.13,11.13,0,0,1-4.33-.83,10.85,10.85,0,0,1-3.61-2.43A11.41,11.41,0,0,1,279.79,82,11,11,0,0,1,279,77.79Zm3.72,0a7.6,7.6,0,0,0,2.19,5.51,7.31,7.31,0,0,0,10.57,0,8,8,0,0,0,0-11A7,7,0,0,0,290.18,70a7.13,7.13,0,0,0-5.31,2.25A7.61,7.61,0,0,0,282.68,77.76Z"/><path class="cls-1" d="M307.38,70.29h-3.8v-2.9h3.8V59.14H311v8.25h3.79v2.9H311V88h-3.57Z"/><path class="cls-1" d="M337.09,78.17H320.78v.32a7.54,7.54,0,0,0,1.89,5.35,6.34,6.34,0,0,0,4.92,2.06,6.58,6.58,0,0,0,3.72-1.1,10,10,0,0,0,3-3.43L337,83.19a11.06,11.06,0,0,1-4,4.24,10.64,10.64,0,0,1-5.58,1.44,9.94,9.94,0,0,1-7.58-3.1,11.4,11.4,0,0,1-2.92-8.13,11.11,11.11,0,0,1,2.88-7.91,9.69,9.69,0,0,1,7.4-3.08,9.36,9.36,0,0,1,7.23,2.9,11.27,11.27,0,0,1,2.67,7.93Zm-3.78-2.83a5.64,5.64,0,0,0-.48-2.35,5.48,5.48,0,0,0-1.34-1.81A6.35,6.35,0,0,0,327,69.7a6.1,6.1,0,0,0-4.24,1.52,6.27,6.27,0,0,0-2,4.12Z"/><path class="cls-1" d="M342.59,88V53.12h3.56V88Z"/><path class="cls-1" d="M371.9,78.17H355.59v.32a7.59,7.59,0,0,0,1.89,5.35,6.35,6.35,0,0,0,4.93,2.06,6.53,6.53,0,0,0,3.71-1.1,10.14,10.14,0,0,0,3-3.43l2.68,1.82a11.14,11.14,0,0,1-4,4.24,10.69,10.69,0,0,1-5.58,1.44,9.94,9.94,0,0,1-7.58-3.1,11.35,11.35,0,0,1-2.92-8.13,11.15,11.15,0,0,1,2.87-7.91A9.7,9.7,0,0,1,362,66.65a9.36,9.36,0,0,1,7.23,2.9,11.32,11.32,0,0,1,2.66,7.93Zm-3.77-2.83a5.49,5.49,0,0,0-.49-2.35,5.34,5.34,0,0,0-1.34-1.81,6.31,6.31,0,0,0-4.45-1.48,6.08,6.08,0,0,0-4.24,1.52,6.37,6.37,0,0,0-2,4.12Z"/><path class="cls-1" d="M384,89.23l-10.2-21.84h4l6.19,14.33,6.23-14.33h3.93Z"/><path class="cls-1" d="M397.19,57.46a2.55,2.55,0,0,1,4.37-1.79,2.5,2.5,0,0,1,.76,1.83,2.47,2.47,0,0,1-.74,1.77,2.44,2.44,0,0,1-1.82.76,2.48,2.48,0,0,1-1.81-.74A2.43,2.43,0,0,1,397.19,57.46ZM398,88V67.39h3.57V88Z"/><path class="cls-1" d="M406.11,88l11.78-17.54H406.83v-3h17.22L412.27,84.93H424v3Z"/><path class="cls-1" d="M428.19,57.46a2.56,2.56,0,1,1,4.38,1.81,2.4,2.4,0,0,1-1.81.76,2.51,2.51,0,0,1-1.82-.74A2.46,2.46,0,0,1,428.19,57.46ZM429,88V67.39h3.57V88Z"/><path class="cls-1" d="M439.33,57.46a2.57,2.57,0,0,1,5.13,0,2.43,2.43,0,0,1-.74,1.77,2.4,2.4,0,0,1-1.81.76,2.51,2.51,0,0,1-1.82-.74A2.47,2.47,0,0,1,439.33,57.46Zm.82,40.48V67.39h3.57V97.94Z"/><path class="cls-1" d="M470.33,67.41V88h-3.42V84.27a8.85,8.85,0,0,1-3.16,3.41,8,8,0,0,1-4.31,1.19,9.14,9.14,0,0,1-7.13-3,11.61,11.61,0,0,1-2.72-8,11.84,11.84,0,0,1,2.63-8.05,8.91,8.91,0,0,1,7-3,8.66,8.66,0,0,1,4.46,1.12,8.43,8.43,0,0,1,3.1,3.44V67.41Zm-3.42,10.52a8,8,0,0,0-1.9-5.59,7,7,0,0,0-9.91-.16,7.74,7.74,0,0,0-1.79,5.44,8.34,8.34,0,0,0,1.79,5.73,7.28,7.28,0,0,0,10,.07A7.83,7.83,0,0,0,466.91,77.93Z"/><path class="cls-1" d="M80.74,25.5H73V42.92h7.75c7.73,0,10.25-4.67,10.31-8.71C91.12,29.58,87.6,25.5,80.74,25.5Zm.48,14.16H76.36V28.75h4.86c4.3,0,6.5,2.56,6.45,5.46C87.63,36.74,86.05,39.66,81.22,39.66Z"/><path class="cls-1" d="M93.83,9.67l-.58-.29a8.15,8.15,0,0,0-3.32-.77H51.88v31H35.25v-31H10.56V88H34.77V61.15H51.56V88h24.8V66.22L89.24,88h29.18L97.52,55.64s.5-.21,1.19-.47c7.21-3.19,13.73-9.78,14.4-22.84a9.41,9.41,0,0,0,0-1h2.94v34H139V88h25.65V62.16H142.52V31.38h22.13V8.61H93.84ZM139.08,62.1H119.46V42.75h19.62Zm22.15,3.21V84.74H142.52V65.31ZM97.13,29.23V11.89h64.14V28H139.08V39.43H119.46V28h-9.7V32c.11,17.71-16.86,21.69-16.86,21.69l-.59.15,20,30.95H91.2l-18-30.88V84.74H55V57.84H31.48v26.9H13.79V11.89l18.15,0v31H55.06V12.05H90a10.64,10.64,0,0,1,4,1.06V29.23Z"/></svg>