<?xml version="1.0" encoding="utf-8"?>
<!-- Generator: Adobe Illustrator 24.1.3, SVG Export Plug-In . SVG Version: 6.00 Build 0)  -->
<svg version="1.1" id="Layer_1" xmlns="http://www.w3.org/2000/svg" xmlns:xlink="http://www.w3.org/1999/xlink" x="0px" y="0px"
	 viewBox="0 0 649.6 157.5" style="enable-background:new 0 0 649.6 157.5;" xml:space="preserve">
<style type="text/css">
	.st0{fill:#E20074;}
</style>
<desc>Created by EvoPdf</desc>
<g>
	<g transform="matrix(1,0,0,1,0,0)">
	</g>
	<g transform="matrix(1,0,0,1,0,0)">
	</g>
	<g transform="matrix(1,0,0,1,0,0)">
	</g>
	<g transform="matrix(1,0,0,1,0,0)">
	</g>
	<g transform="matrix(1,0,0,1,8,8)">
	</g>
	<g transform="matrix(1.12795,0,0,1.12795,-105.797,7.54491)">
	</g>
	<g transform="matrix(1.12795,0,0,1.12795,-105.797,7.54491)">
		<path vector-effect="none" class="st0" d="M104.9,80.9h22.5V57.6h-22.5V80.9L104.9,80.9"/>
	</g>
	<g transform="matrix(1.12795,0,0,1.12795,-105.797,7.54491)">
	</g>
	<g transform="matrix(1.12795,0,0,1.12795,-105.797,7.54491)">
		<path vector-effect="none" class="st0" d="M174.7,80.9h23.6V57.6h-23.6V80.9"/>
	</g>
	<g transform="matrix(1.12795,0,0,1.12795,-105.797,7.54491)">
	</g>
	<g transform="matrix(1.12795,0,0,1.12795,-105.797,7.54491)">
		<path vector-effect="none" class="st0" d="M244.2,80.9h23.6V57.6h-23.6V80.9"/>
	</g>
	<g transform="matrix(1.12795,0,0,1.12795,-105.797,7.54491)">
	</g>
	<g transform="matrix(1.12795,0,0,1.12795,-105.797,7.54491)">
		<path vector-effect="none" class="st0" d="M300.4,94.5c0,7.9,1.1,12.2,3.5,14.7c1.1,2.2,4.3,3.3,9,3.3c1.1,0,3.3,0,6.8,0
			c0,6.8,0,6.8,0,6.8c-56.2,0-56.2,0-56.2,0c0-6.8,0-6.8,0-6.8c4.3,0,7.9,0,10,0c4.6-1.1,6.8-4.3,7.9-7.9c1.1-2.2,1.1-5.7,1.1-10
			c0-84.1,0-84.1,0-84.1c-10,0-16.8,3.5-22.5,9c-5.4,5.7-7.9,14.7-9,26.9c-6.8-1.1-6.8-1.1-6.8-1.1c1.4-40.4,1.4-40.4,1.4-40.4
			c92,0,92,0,92,0c1.1,40.4,1.1,40.4,1.1,40.4c-6.8,1.1-6.8,1.1-6.8,1.1c-1.1-12.2-4.3-21.2-9-26.9c-5.7-5.4-13.6-9-22.5-9"/>
	</g>
	<g transform="matrix(1.12795,0,0,1.12795,-105.797,7.54491)">
	</g>
	<g transform="matrix(1.12795,0,0,1.12795,-105.797,7.54491)">
		<path vector-effect="none" class="st0" d="M315,80.9h23.6V57.6H315V80.9"/>
	</g>
	<g transform="matrix(1.12795,0,0,1.12795,-105.797,7.54491)">
	</g>
	<g transform="matrix(1.12795,0,0,1.12795,-105.797,7.54491)">
		<path vector-effect="none" class="st0" d="M632.9,80.9h23.6V57.6h-23.6V80.9"/>
	</g>
	<g transform="matrix(1.12795,0,0,1.12795,-105.797,7.54491)">
	</g>
	<g transform="matrix(1.12795,0,0,1.12795,-105.797,7.54491)">
		<path vector-effect="none" class="st0" d="M385.9,28.2c0,14.7,0,14.7,0,14.7c0,3.3,0,4.3,1.1,5.7c0,1.1,1.1,1.1,3.3,1.1
			c1.1,0,1.1,0,1.1,0c0,2.2,0,2.2,0,2.2c-17.9,0-17.9,0-17.9,0c0-2.2,0-2.2,0-2.2c1.1,0,1.1,0,1.1,0c1.4,0,2.4,0,3.5-1.1
			c1.1-1.4,1.1-2.4,1.1-5.7c0-29,0-29,0-29c0-3.5,0-4.6-1.1-5.7c-1.1-1.1-2.2-1.1-3.5-1.1c-1.1,0-1.1,0-1.1,0c0-2.4,0-2.4,0-2.4
			c17.9,0,17.9,0,17.9,0c0,2.4,0,2.4,0,2.4c-1.1,0-1.1,0-1.1,0c-2.2,0-3.3,0-3.3,1.1c-1.1,1.1-1.1,2.2-1.1,5.7c0,11.1,0,11.1,0,11.1
			c16.8,0,16.8,0,16.8,0c0-11.1,0-11.1,0-11.1c0-3.5,0-4.6-1.1-5.7c0-1.1-1.1-1.1-3.5-1.1c-1.1,0-1.1,0-1.1,0c0-2.4,0-2.4,0-2.4
			c17.9,0,17.9,0,17.9,0c0,2.4,0,2.4,0,2.4c-1.1,0-1.1,0-1.1,0c-1.1,0-2.2,0-3.3,1.1c-1.1,1.1-1.1,2.2-1.1,5.7c0,29,0,29,0,29
			c0,3.3,0,4.3,1.1,5.7c1.1,1.1,2.2,1.1,3.3,1.1c1.1,0,1.1,0,1.1,0c0,2.2,0,2.2,0,2.2c-17.9,0-17.9,0-17.9,0c0-2.2,0-2.2,0-2.2
			c1.1,0,1.1,0,1.1,0c2.4,0,3.5,0,3.5-1.1c1.1-1.4,1.1-2.4,1.1-5.7c0-14.7,0-14.7,0-14.7"/>
	</g>
	<g transform="matrix(1.12795,0,0,1.12795,-105.797,7.54491)">
	</g>
	<g transform="matrix(1.12795,0,0,1.12795,-105.797,7.54491)">
		<path vector-effect="none" class="st0" d="M428.5,28.2c2.2-6.8,5.7-10,9-10c3.5,0,5.7,2.2,5.7,4.6c0,2.2-1.1,4.3-3.5,4.3
			c-2.2,0-3.3-1.1-3.3-3.3c0-1.1,0-2.4,1.1-3.5c-1.1,0-1.1,0-1.1,0c-1.1,0-3.3,3.5-5.7,6.8c-1.1,3.3-1.1,7.9-1.1,14.7
			c0,2.2,0,2.2,0,2.2c0,3.3,0,4.6,0,4.6c1.1,1.1,2.2,1.1,3.5,1.1c2.2,0,2.2,0,2.2,0c0,2.2,0,2.2,0,2.2c-16.8,0-16.8,0-16.8,0
			c0-2.2,0-2.2,0-2.2c1.1,0,1.1,0,1.1,0c3.3,0,3.3-1.1,3.3-5.7c0-16.8,0-16.8,0-16.8c0-4.3,0-5.7-3.3-5.7c-1.1,0-1.1,0-1.1,0
			c0-2.2,0-2.2,0-2.2c10-1.1,10-1.1,10-1.1"/>
	</g>
	<g transform="matrix(1.12795,0,0,1.12795,-105.797,7.54491)">
	</g>
	<g transform="matrix(1.12795,0,0,1.12795,-105.797,7.54491)">
		<path vector-effect="none" class="st0" d="M460,51.9c-10-25.8-10-25.8-10-25.8c-1.1-3.3-2.4-4.6-3.5-4.6c-1.1,0-1.1,0-1.1,0
			c0-2.2,0-2.2,0-2.2c14.7,0,14.7,0,14.7,0c0,2.2,0,2.2,0,2.2c-1.1,0-1.1,0-1.1,0c-2.4,0-3.5,0-3.5,2.4c0,0,0,1.1,1.1,2.2
			c6.8,19,6.8,19,6.8,19c6.8-17.9,6.8-17.9,6.8-17.9c0-1.1,0-2.2,0-3.3c0-1.1-1.1-2.4-3.3-2.4c-1.1,0-1.1,0-1.1,0c0-2.2,0-2.2,0-2.2
			c12.2,0,12.2,0,12.2,0c0,2.2,0,2.2,0,2.2c-3.3,0-4.3,1.4-5.7,4.6c-9,25.8-9,25.8-9,25.8"/>
	</g>
	<g transform="matrix(1.12795,0,0,1.12795,-105.797,7.54491)">
	</g>
	<g transform="matrix(1.12795,0,0,1.12795,-105.797,7.54491)">
		<path vector-effect="none" class="st0" d="M509.4,42.9c-1.1,3.3-1.1,3.3-1.1,5.7c-1.1,2.2-3.5,3.3-5.7,3.3c-3.3,0-4.3-1.1-5.7-5.7
			c-2.2,4.6-5.4,6.8-10,6.8c-4.3,0-7.9-3.3-7.9-9c0-6.8,5.7-11.1,17.9-11.1c0-4.6,0-4.6,0-4.6c0-5.4-2.2-7.9-6.5-7.9
			c-2.4,0-3.5,1.1-4.6,2.4c1.1,0,2.2,1.1,2.2,3.3s-1.1,4.3-3.3,4.3c-2.2,0-4.6-2.2-4.6-4.3c0-4.6,5.7-7.9,11.4-7.9
			c4.3,0,7.9,1.1,10,4.6c1.1,1.1,1.1,3.3,1.1,7.6c0,13.6,0,13.6,0,13.6c0,3.3,1.1,4.6,2.2,4.6c1.4,0,1.4-1.4,1.4-4.6
			c0-1.1,0-1.1,0-1.1H509.4L509.4,42.9 M496.9,35c-3.3,0-5.4,0-7.9,1.1c-2.2,2.2-4.3,4.6-4.3,7.9c0,3.3,2.2,5.7,4.3,5.7
			c3.5,0,4.6-2.4,6.8-4.6c1.1-2.2,1.1-3.3,1.1-7.9"/>
	</g>
	<g transform="matrix(1.12795,0,0,1.12795,-105.797,7.54491)">
	</g>
	<g transform="matrix(1.12795,0,0,1.12795,-105.797,7.54491)">
		<path vector-effect="none" class="st0" d="M520.5,41.8c0,2.2,0,3.3,0,4.3c1.1,2.4,2.4,3.5,3.5,3.5c3.3,0,4.3-3.5,4.3-7.9
			c0-1.1,0-1.1,0-1.1c2.4,0,2.4,0,2.4,0c0,1.1,0,1.1,0,1.1c0,6.8-2.4,11.1-7.9,11.1c-3.5,0-5.7-1.1-6.8-3.3
			c-1.1-1.1-1.1-3.5-1.1-7.9c0-20.4,0-20.4,0-20.4c-5.7,0-5.7,0-5.7,0c0-2.2,0-2.2,0-2.2c6.8-1.1,7.9-4.3,9-12.2c2.2,0,2.2,0,2.2,0
			c0,12.2,0,12.2,0,12.2c9,0,9,0,9,0c0,2.2,0,2.2,0,2.2c-9,0-9,0-9,0"/>
	</g>
	<g transform="matrix(1.12795,0,0,1.12795,-105.797,7.54491)">
	</g>
	<g transform="matrix(1.12795,0,0,1.12795,-105.797,7.54491)">
		<path vector-effect="none" class="st0" d="M554.4,29.3c-2.4,0-2.4,0-2.4,0c-1.1-5.4-3.3-9-7.9-9c-3.3,0-5.4,2.4-5.4,5.7
			c0,2.2,1.1,3.3,5.4,4.3c4.6,2.4,6.8,2.4,7.9,3.5c3.5,2.2,4.6,4.3,4.6,7.9c0,6.8-4.6,11.1-11.4,11.1c-2.2,0-4.3-1.1-7.9-3.3
			c0,0,0,0-1.1,0c0,0,0,1.1-1.1,2.2c-1.1,0-1.1,0-1.1,0c0-12.2,0-12.2,0-12.2c1.1,0,1.1,0,1.1,0c1.1,3.3,2.2,5.4,3.5,6.5
			c1.1,2.4,4.3,4.6,6.5,4.6c3.5,0,5.7-3.5,5.7-6.8c0-1.1-1.1-3.3-2.2-4.3c-2.2-1.4-2.2-1.4-6.8-2.4c-5.7-2.2-7.9-5.4-7.9-10
			c0-4.3,3.3-9,9-9c2.2,0,5.7,1.1,6.8,2.2c1.1,0,1.1,0,1.1,0c1.1,0,1.1,0,1.1-1.1c2.4,0,2.4,0,2.4,0"/>
	</g>
	<g transform="matrix(1.12795,0,0,1.12795,-105.797,7.54491)">
	</g>
	<g transform="matrix(1.12795,0,0,1.12795,-105.797,7.54491)">
		<path vector-effect="none" class="st0" d="M583.5,51.9C572.3,35,572.3,35,572.3,35c-2.4,3.3-2.4,3.3-2.4,3.3c0,5.7,0,5.7,0,5.7
			c0,4.6,0,5.7,3.5,5.7c1.1,0,1.1,0,1.1,0c0,2.2,0,2.2,0,2.2c-15.7,0-15.7,0-15.7,0c0-2.2,0-2.2,0-2.2c1.1,0,1.1,0,1.1,0
			c3.5,0,4.6-1.1,4.6-5.7c0-31.5,0-31.5,0-31.5c0-4.3-1.1-5.4-4.6-5.4c0-2.4,0-2.4,0-2.4c10-1.1,10-1.1,10-1.1c0,30.4,0,30.4,0,30.4
			c9.2-7.9,9.2-7.9,9.2-7.9c2.2-1.1,2.2-2.2,2.2-3.3c0-1.4-1.1-1.4-2.2-1.4c-1.4,0-1.4,0-1.4,0c0-2.2,0-2.2,0-2.2
			c13.6,0,13.6,0,13.6,0c0,2.2,0,2.2,0,2.2c-1.1,0-1.1,0-1.1,0c-1.1,0-2.2,0-5.7,3.5c-7.9,6.8-7.9,6.8-7.9,6.8c9,13.3,9,13.3,9,13.3
			c2.4,3.5,3.5,4.6,5.7,4.6c0,2.2,0,2.2,0,2.2"/>
	</g>
	<g transform="matrix(1.12795,0,0,1.12795,-105.797,7.54491)">
	</g>
	<g transform="matrix(1.12795,0,0,1.12795,-105.797,7.54491)">
		<path vector-effect="none" class="st0" d="M604.9,44c0,4.6,1.1,5.7,4.3,5.7c1.1,0,1.1,0,1.1,0c0,2.2,0,2.2,0,2.2
			c-15.7,0-15.7,0-15.7,0c0-2.2,0-2.2,0-2.2c1.4,0,1.4,0,1.4,0c2.2,0,3.3-1.1,3.3-5.7c0-16.8,0-16.8,0-16.8c0-4.3-1.1-5.7-3.3-5.7
			c-1.4,0-1.4,0-1.4,0c0-2.2,0-2.2,0-2.2c10.3-1.1,10.3-1.1,10.3-1.1V44 M606,8.2c0,2.2-2.2,3.3-4.6,3.3c-2.2,0-3.3-1.1-3.3-3.3
			c0-2.2,1.1-4.6,3.3-4.6C603.8,3.5,606,6,606,8.2"/>
	</g>
	<g transform="matrix(1.12795,0,0,1.12795,-105.797,7.54491)">
	</g>
	<g transform="matrix(1.12795,0,0,1.12795,-105.797,7.54491)">
		<path vector-effect="none" class="st0" d="M393.7,110.2c0,3.3,0,4.3,1.1,5.4c0,1.4,2.2,1.4,3.3,1.4c2.4,0,2.4,0,2.4,0
			c0,2.2,0,2.2,0,2.2c-20.4,0-20.4,0-20.4,0c0-2.2,0-2.2,0-2.2c2.2,0,2.2,0,2.2,0c1.4,0,2.4,0,3.5-1.4c1.1-1.1,1.1-2.2,1.1-5.4
			c0-35.8,0-35.8,0-35.8c-1.1,0-1.1,0-1.1,0c-4.6,0-7.9,2.2-9,5.4c-1.1,2.2-2.4,4.6-2.4,7.9c-2.2,0-2.2,0-2.2,0
			c0-15.7,0-15.7,0-15.7c36.1,0,36.1,0,36.1,0c0,15.7,0,15.7,0,15.7c-2.4,0-2.4,0-2.4,0c-1.1-10-4.3-13.3-11.1-13.3
			c-1.1,0-1.1,0-1.1,0"/>
	</g>
	<g transform="matrix(1.12795,0,0,1.12795,-105.797,7.54491)">
	</g>
	<g transform="matrix(1.12795,0,0,1.12795,-105.797,7.54491)">
		<path vector-effect="none" class="st0" d="M414.9,102.3c0,10,2.4,14.7,7.9,14.7c4.6,0,6.8-1.4,9-6.8c2.4,1.1,2.4,1.1,2.4,1.1
			c-3.5,5.7-6.8,9-12.5,9c-7.9,0-13.3-6.8-13.3-17.9c0-10,5.4-16.8,13.3-16.8c6.8,0,12.5,6.8,12.5,16.8H414.9L414.9,102.3
			 M427.4,100.2c1.1-7.9-2.2-12.5-5.7-12.5c-4.3,0-6.8,4.6-6.8,12.5"/>
	</g>
	<g transform="matrix(1.12795,0,0,1.12795,-105.797,7.54491)">
	</g>
	<g transform="matrix(1.12795,0,0,1.12795,-105.797,7.54491)">
		<path vector-effect="none" class="st0" d="M448.8,111.3c0,4.3,1.1,5.7,3.3,5.7c1.1,0,1.1,0,1.1,0c0,2.2,0,2.2,0,2.2
			c-14.7,0-14.7,0-14.7,0c0-2.2,0-2.2,0-2.2c1.1,0,1.1,0,1.1,0c2.4,0,3.5-1.4,3.5-5.7c0-31.5,0-31.5,0-31.5c0-4.3-1.1-5.4-3.5-5.4
			c-1.1,0-1.1,0-1.1,0c0-2.4,0-2.4,0-2.4c10.3-1.1,10.3-1.1,10.3-1.1"/>
	</g>
	<g transform="matrix(1.12795,0,0,1.12795,-105.797,7.54491)">
	</g>
	<g transform="matrix(1.12795,0,0,1.12795,-105.797,7.54491)">
		<path vector-effect="none" class="st0" d="M463.2,102.3c0,10,3.5,14.7,9,14.7c3.5,0,5.7-1.4,7.9-6.8c2.4,1.1,2.4,1.1,2.4,1.1
			c-2.4,5.7-6.8,9-11.4,9c-9,0-14.7-6.8-14.7-17.9c0-10,5.7-16.8,13.6-16.8c7.9,0,12.5,6.8,13.6,16.8H463.2L463.2,102.3
			 M476.8,100.2c0-7.9-2.2-12.5-6.8-12.5c-3.3,0-6.8,4.6-6.8,12.5"/>
	</g>
	<g transform="matrix(1.12795,0,0,1.12795,-105.797,7.54491)">
	</g>
	<g transform="matrix(1.12795,0,0,1.12795,-105.797,7.54491)">
		<path vector-effect="none" class="st0" d="M510.4,119.2c-10-16.8-10-16.8-10-16.8c-3.5,2.2-3.5,2.2-3.5,2.2c0,6.8,0,6.8,0,6.8
			c0,4.3,1.4,5.7,4.6,5.7c1.1,0,1.1,0,1.1,0c0,2.2,0,2.2,0,2.2c-15.7,0-15.7,0-15.7,0c0-2.2,0-2.2,0-2.2c1.1,0,1.1,0,1.1,0
			c3.5,0,3.5-1.4,3.5-5.7c0-31.5,0-31.5,0-31.5c0-4.3,0-5.4-3.5-5.4c-1.1,0-1.1,0-1.1,0c0-2.4,0-2.4,0-2.4c10-1.1,10-1.1,10-1.1
			c0,30.4,0,30.4,0,30.4c10.3-7.9,10.3-7.9,10.3-7.9c1.1-1.1,2.2-2.2,2.2-3.5c0-1.1-1.1-1.1-3.3-1.1c-1.4,0-1.4,0-1.4,0
			c0-2.2,0-2.2,0-2.2c14.7,0,14.7,0,14.7,0c0,2.2,0,2.2,0,2.2c-1.1,0-1.1,0-1.1,0c-2.2,0-3.3,0-5.7,3.5c-7.9,6.5-7.9,6.5-7.9,6.5
			c7.9,13.6,7.9,13.6,7.9,13.6c2.4,3.3,3.5,4.6,6.8,4.6c0,2.2,0,2.2,0,2.2"/>
	</g>
	<g transform="matrix(1.12795,0,0,1.12795,-105.797,7.54491)">
	</g>
	<g transform="matrix(1.12795,0,0,1.12795,-105.797,7.54491)">
		<path vector-effect="none" class="st0" d="M549.8,102.3c0,11.1-5.7,17.9-14.7,17.9c-7.9,0-13.6-6.8-13.6-17.9
			c0-10,5.7-16.8,14.7-16.8C544.1,85.5,549.8,92.3,549.8,102.3 M529.4,92.3c-1.1,2.2-1.1,5.4-1.1,10c0,10,2.4,15.7,7.9,15.7
			c4.6,0,6.8-5.7,6.8-15.7c0-4.6,0-7.9-1.1-10c-1.1-3.5-3.3-4.6-5.7-4.6C533,87.7,530.8,88.8,529.4,92.3"/>
	</g>
	<g transform="matrix(1.12795,0,0,1.12795,-105.797,7.54491)">
	</g>
	<g transform="matrix(1.12795,0,0,1.12795,-105.797,7.54491)">
		<path vector-effect="none" class="st0" d="M592.4,98.8c0-4.3,0-6.5-1.1-7.6c0-1.4-2.2-2.4-3.3-2.4c-2.4,0-3.5,1.1-4.6,3.5
			c-2.2,2.2-2.2,4.3-2.2,10c0,9,0,9,0,9c0,4.3,1.1,5.7,3.3,5.7c1.1,0,1.1,0,1.1,0c0,2.2,0,2.2,0,2.2c-10,0-10,0-10,0c0-19,0-19,0-19
			c0-5.7,0-6.8-1.1-9c-1.1-1.4-2.2-2.4-3.3-2.4c-2.4,0-4.6,1.1-5.7,3.5c-1.1,2.2-1.1,4.3-1.1,10c0,9,0,9,0,9c0,4.3,1.1,5.7,3.3,5.7
			c1.1,0,1.1,0,1.1,0c0,2.2,0,2.2,0,2.2c-14.4,0-14.4,0-14.4,0c0-2.2,0-2.2,0-2.2c1.1,0,1.1,0,1.1,0c2.2,0,3.3-1.4,3.3-5.7
			c0-16.8,0-16.8,0-16.8c0-4.6-1.1-5.7-3.3-5.7c-1.1,0-1.1,0-1.1,0c0-2.2,0-2.2,0-2.2c10-1.1,10-1.1,10-1.1c0,6.8,0,6.8,0,6.8
			c1.1-4.6,4.3-6.8,7.9-6.8c4.3,0,6.8,2.2,9,6.8c1.1-4.6,4.3-6.8,7.9-6.8c3.3,0,5.4,1.1,7.9,4.3c1.1,1.4,1.1,3.5,1.1,7.9
			c0,13.6,0,13.6,0,13.6c0,4.3,1.1,5.7,4.3,5.7c0,2.2,0,2.2,0,2.2c-10,0-10,0-10,0"/>
	</g>
	<g transform="matrix(1.12795,0,0,1.12795,-105.797,7.54491)">
	</g>
	<g transform="matrix(1,0,0,1,8,8)">
	</g>
	<g transform="matrix(1,0,0,1,8,8)">
	</g>
	<g transform="matrix(1,0,0,1,0,0)">
	</g>
	<g transform="matrix(1,0,0,1,0,0)">
	</g>
	<g transform="matrix(1,0,0,1,0,0)">
	</g>
	<g transform="matrix(1,0,0,1,0,0)">
	</g>
	<g transform="matrix(1,0,0,1,8,8)">
	</g>
	<g transform="matrix(1,0,0,1,8,8)">
	</g>
	<g transform="matrix(1,0,0,1,8,8)">
	</g>
	<g transform="matrix(1,0,0,1,0,0)">
	</g>
	<g transform="matrix(1,0,0,1,0,0)">
	</g>
	<g transform="matrix(1,0,0,1,0,0)">
	</g>
	<g transform="matrix(1,0,0,1,0,0)">
	</g>
	<g transform="matrix(1,0,0,1,0,0)">
	</g>
	<g transform="matrix(1,0,0,1,0,0)">
	</g>
</g>
</svg>
