<svg xmlns="http://www.w3.org/2000/svg" viewBox="0 0 1170.9 480.92"><defs><style>.cls-1{fill:none;}.cls-2{fill:#00b5eb;}.cls-3{fill:#00465e;}.cls-4{fill:#005874;}.cls-5{fill:#002436;}.cls-6{fill:#002f43;}.cls-7{fill:#005d7b;}.cls-8{fill:#00addf;}.cls-9{fill:#00ade0;}.cls-10{fill:#009bc8;}.cls-11{fill:#009dcb;}.cls-12{fill:#00a6d7;}.cls-13{fill:#007092;}.cls-14{fill:#0083aa;}.cls-15{fill:#006989;}.cls-16{fill:#00799d;}.cls-17{fill:#00455d;}.cls-18{fill:#0084ab;}.cls-19{fill:#00779b;}.cls-20{fill:#007da2;}.cls-21{fill:#00607e;}.cls-22{fill:#003246;}.cls-23{fill:#006888;}.cls-24{fill:#e6e6e6;}.cls-25{fill:#e6e7e8;}</style></defs><g id="Layer_1" data-name="Layer 1"><path class="cls-1" d="M200.1,274h0c-1-1.54-2-3.11-3.09-4.64C198.06,270.86,199.07,272.43,200.1,274Z"/><path class="cls-1" d="M293.53,305.06c.14-.73.26-1.47.4-2.2h0C293.79,303.59,293.67,304.33,293.53,305.06Z"/><path class="cls-1" d="M228.34,235.54c-.11-.66-.14-1.34-.23-2,.57-.15,1.15-.28,1.71-.46-.56.18-1.14.31-1.71.46C228.2,234.2,228.23,234.88,228.34,235.54Z"/><path class="cls-1" d="M256.76,317.42c.16.21.3.45.46.65C257.06,317.87,256.92,317.63,256.76,317.42Z"/><polygon class="cls-1" points="297.82 285.7 297.74 285.68 297.74 285.68 297.82 285.7"/><path class="cls-1" d="M362,202.86c.77,2.08,1.52,4.18,2.32,6.25-.8-2.07-1.55-4.17-2.32-6.25h0Z"/><path class="cls-1" d="M338.51,264l11.69,2.42,1.13.18-1.13-.18Z"/><path class="cls-1" d="M328.54,362.45a9,9,0,0,0,.41-1.27v0A9,9,0,0,1,328.54,362.45Z"/><path class="cls-1" d="M351.35,237.3l-.54.28h0Z"/><path class="cls-1" d="M243.89,361.38c.57.16,1.13.33,1.7.47-.57-.14-1.13-.31-1.7-.47Z"/><path class="cls-1" d="M96.67,256.14c.39-1.15.67-2.34,1-3.51-.14-1.19-.22-2.39-.42-3.57.2,1.18.28,2.38.42,3.57C97.34,253.8,97.06,255,96.67,256.14Z"/><path class="cls-1" d="M350.81,237.58c-.12.06-.25.1-.38.15.13,0,.26-.09.38-.15Z"/><path class="cls-1" d="M247.45,247.07l3.24-.21h0l-3.24.21Z"/><path class="cls-1" d="M245.53,228.32l0,.5h0Z"/><path class="cls-1" d="M247.45,245.6c0-.42-.09-.85-.13-1.27h0c0,.42.08.85.13,1.27Z"/><path class="cls-1" d="M246.36,135.86l-1.07,0c-.2-.26-.37-.57-.58-.82.21.25.38.56.58.82Z"/><path class="cls-1" d="M246.9,135.32l-.54.29.54-.29Z"/><path class="cls-1" d="M103.06,253.31l13.18,2.61h0Z"/><path class="cls-1" d="M132.59,261.88c1,.34,2,.57,3,.85a1.11,1.11,0,0,1,0,.26,1.11,1.11,0,0,0,0-.26C134.59,262.45,133.57,262.22,132.59,261.88Z"/><path class="cls-1" d="M142.35,227.25c1.29,2.18,2.6,4.36,3.9,6.54,0,.11.05.22.08.33,0-.11-.05-.22-.08-.33C145,231.61,143.64,229.43,142.35,227.25Z"/><path class="cls-1" d="M136.74,303.44h0c.42,1.47.86,2.94,1.23,4.42C137.59,306.39,137.15,304.92,136.74,303.44Z"/><path class="cls-1" d="M138.74,221.65a5.65,5.65,0,0,0,1,.67c0,.08,0,.17,0,.26,0-.09,0-.18,0-.26A5.65,5.65,0,0,1,138.74,221.65Z"/><path class="cls-1" d="M247.7,232.72c-.67-1.32-1.43-2.6-2.14-3.9h0C246.27,230.12,247,231.4,247.7,232.72Z"/><path class="cls-1" d="M130.84,297.71c2,1.75,3.95,3.48,5.92,5.22h0C134.79,301.19,132.81,299.46,130.84,297.71Z"/><path class="cls-1" d="M143.85,132.33q0,8.47,0,17,0-8.51,0-17Z"/><path class="cls-1" d="M246.94,135.27a.1.1,0,0,1,0,0h0A.1.1,0,0,0,246.94,135.27Z"/><path class="cls-1" d="M359.68,237.67c-2.11-.53-4.24-1-6.37-1.47l-.31-.07.31.07C355.44,236.69,357.57,237.14,359.68,237.67Z"/><path class="cls-1" d="M366.65,171.14a3.32,3.32,0,0,1,.71.34A3.32,3.32,0,0,0,366.65,171.14Z"/><path class="cls-1" d="M192.26,119.31c-.19.11-.36.29-.55.41l-.45.2c.21-.09.33-.15.45-.19S192.07,119.42,192.26,119.31Z"/><path class="cls-2" d="M334,355.93a8,8,0,0,1-.43-.92q-1.47-4.75-2.92-9.51c-.28-.91-.52-1.84-.85-2.73-.1-.29-.42-.51-.65-.76.23,1.89.44,3.78.69,5.66.3,2.33.65,4.65,1,7,.18,1.25.36,2.5.53,3.76a7.3,7.3,0,0,1-.76,1.19c-.51.56-1.09,1-1.65,1.56v0a9,9,0,0,1-.41,1.27c-.64,1.29-1.29,2.57-1.93,3.85A149.22,149.22,0,0,0,346,351.45l-9.69,3.71C335.54,355.43,334.81,355.66,334,355.93Z"/><path class="cls-3" d="M317,115.16c-2.05,1.86-4.08,3.74-6.16,5.59s-4,3.5-6.05,5.27c-1.09,1-2.15,2-3.24,2.93-1.7,1.5-3.42,3-5.13,4.46l.56.55h.25a11.86,11.86,0,0,1,1.6.24q8.13,2.49,16.23,5l14,4.33a11,11,0,0,1,1.22.54c1.11.71,2.24,1.37,3.3,2.13q9,6.48,17.86,13c.85.61,1.67,1.25,2.53,1.86a7.76,7.76,0,0,0,1,.49c2.49-4.91,5-9.8,7.44-14.71A152.2,152.2,0,0,0,348,131.22c-.62,0-1.24,0-1.85,0-.37,0-.71-.34-1.07-.52-.2-.21-.48-.38-.59-.64-.46-1.06-.91-2.13-1.36-3.2a151.49,151.49,0,0,0-21.79-15.6c-.48.48-1,1-1.46,1.42C318.92,113.51,317.93,114.31,317,115.16Z"/><path class="cls-4" d="M221.49,94c-.44,1-.84,2.12-1.31,3.14-1.46,3.14-3,6.26-4.41,9.39-1.1,2.35-2.17,4.71-3.27,7.06-.18.4-.43.77-.75,1.32l-18.42-11.61-.26,0c-.91.67-1.81,1.36-2.73,2l-15.9,11.08c0,.1,0,.2,0,.29l16.46,2.78c-3.31,5.4-6.59,10.61-9.91,15.79-.09.28-.17.56-.26.83a3.8,3.8,0,0,1,1,.67q4.93,6.33,9.82,12.7c.55.71,1,1.48,1.51,2.22v.82c.67.11.64.71.77,1.16,1.41,4.69,2.78,9.4,4.19,14.1a11.84,11.84,0,0,0,.79,1.7l3.07-.81,1.29-.3c.21-.5.38-1,.63-1.5q4.53-9,9.12-17.94a6.2,6.2,0,0,1,.92-1.08c-.17-1.83.45-3.56.65-5.34.06-.58.11-1.16.17-1.74-1.18,1-2.38,2.08-3.55,3.16-1.53,1.4-3,2.85-4.57,4.26-.63.57-1.33,1.07-2,1.6-.83-.41-.92-1.3-1.23-2-1.8-4-3.53-8.07-5.28-12.11q-2.81-6.51-5.58-13l-1.18-2.75.45-.2c.19-.12.36-.3.55-.41a.56.56,0,0,1,.2-.08q8.88-1.92,17.78-3.77a4.67,4.67,0,0,1,1.41.18,1.18,1.18,0,0,1,1.28,0c4.88,2.46,9.76,4.89,14.64,7.34.07,0,.1.14.29.41l-4-.22c-.55,0-1.09-.09-1.63-.1l-10.48-.28c-.5,0-1,0-1.55,0-.09.33-.15.58-.22.83l2.19,8q1.24,4.6,2.47,9.2l5.53-.5c1.26-.11,2.53-.2,3.78-.32s2.23-.25,3.53-.39c-.54-2.63-1.07-5.18-1.58-7.68.84-2.92,1.67-5.79,2.5-8.66a1.12,1.12,0,0,1,.16-.22c.57-2,1.11-4.11,1.7-6.16.88-3.1,1.8-6.19,2.71-9.28.14-.47.32-.93.55-1.56,6.19.64,12.27,1.59,18.38,2.37a3.21,3.21,0,0,1,.08.36l-23.11,14.3a1.15,1.15,0,0,0,.6,1.12c2.57,1.79,5.1,3.63,7.66,5.44s4.91,3.45,7.34,5.2a1.51,1.51,0,0,1,.23.21c.21.25.38.56.58.82l1.07,0v-.25l.54-.29a.1.1,0,0,0,0,0,7.26,7.26,0,0,1,1-1.1c4.65-3.46,9.33-6.9,14-10.34l3.26-2.45-1.64-1.77A11.88,11.88,0,0,1,261,116.5a2,2,0,0,0-.46-.5c-.85-.87-1.71-1.73-2.57-2.59l-3.55-3.56c-.32-.32-.62-.65-1-1.07a4.19,4.19,0,0,1,.52-1.06c1.33-1.48,2.73-2.89,4.06-4.38.75-.84,1.42-1.76,2.1-2.67a1.51,1.51,0,0,0,.18-.53c-.08-.13-.1-.17-.14-.2a.26.26,0,0,0-.11-.07.88.88,0,0,0-.27-.06,2.75,2.75,0,0,0-.41,0h-23l-9.36-6.24,1.83-2q-4,.43-7.86,1.08s.05.08.07.13C221.17,93.14,221.31,93.6,221.49,94Z"/><path class="cls-5" d="M144.11,132.33c.37.16.73.37,1.11.5l12.07,3.92,9.34,3c.47.16.93.36,1.53.59q2.4,8.16,4.8,16.39h.41l1.06.83c1.49-5.11,2.95-10.23,4.44-15.33.59-2.05,1.25-4.07,1.88-6.11.09-.27.17-.55.26-.83a6.15,6.15,0,0,1-.67-1.12q-2.53-7.23-5-14.48c-.33-1-.57-2-.86-3,0-.09,0-.19,0-.29a7.09,7.09,0,0,1-1.29-.38l-6.35-3.23a150.54,150.54,0,0,0-22.86,17.33c0,.62-.07,1.24-.11,1.86Z"/><path class="cls-6" d="M292.57,104.65c.17,2.17.35,4.33.51,6.5.11,1.44.22,2.89.3,4.34.11,1.94.15,3.9.29,5.84.12,1.62.35,3.23.5,4.86.05.54,0,1.08,0,1.86a5.69,5.69,0,0,1-.41-.75c-1.06-3-2.08-6.12-3.15-9.16-1.16-3.3-2.35-6.59-3.53-9.89l-.81.54a13.47,13.47,0,0,1-.68,1.31q-5.5,8.22-11,16.4c-.56.83-1.15,1.64-1.71,2.46a7.29,7.29,0,0,0-.43.88c.65,0,1.14,0,1.62,0,1.13-.07,2.25-.2,3.38-.23,1.58,0,3.17,0,4.75,0,2.44-.09,4.89-.24,7.33-.37.14,0,.28-.08.4,0a11.9,11.9,0,0,0,4.59-.18c1-1,1.93-2,2.84-2.92q3.51-3.63,7-7.27c1.66-1.74,3.31-3.5,5-5.24,1.87-2,3.73-3.92,5.6-5.87a148.92,148.92,0,0,0-20.08-8.73c-.74,1.3-1.69,2.43-2.39,3.71C292.48,103.3,292.51,104,292.57,104.65Z"/><path class="cls-3" d="M236.27,99.79h23a2.75,2.75,0,0,1,.41,0,.88.88,0,0,1,.27.06.26.26,0,0,1,.11.07s.06.07.14.2a1.51,1.51,0,0,1-.18.53c-.68.91-1.35,1.83-2.1,2.67-1.33,1.49-2.73,2.9-4.06,4.38a4.19,4.19,0,0,0-.52,1.06c.39.42.69.75,1,1.07l3.55,3.56c.86.86,1.72,1.72,2.57,2.59a2,2,0,0,1,.46.5,11.88,11.88,0,0,0,2.62,3.11l1.64,1.77c2.88-1.74,5.76-3.47,8.63-5.22l11.53-7a5.28,5.28,0,0,1,.89-.34l.81-.54c-2.08-2.49-4.18-5-6.25-7.48q-2.91-3.49-5.78-7a.61.61,0,0,1-.16-.27l-.58-.11.07.13c-4.51,2.08-9.09,4.08-13.71,6.11a4.3,4.3,0,0,1-.83-.82c-1.29-2.24-2.57-4.5-3.81-6.76a5,5,0,0,1-.34-1.11c-1-.07-2-.13-3-.18H238.12c-3.15.15-6.28.41-9.38.75l-1.83,2Z"/><path class="cls-5" d="M174.44,116.45l15.9-11.08c.92-.65,1.82-1.34,2.73-2l-1.4-2.85a149.53,149.53,0,0,0-24.87,12.33l6.35,3.23A7.09,7.09,0,0,0,174.44,116.45Z"/><path class="cls-6" d="M193.33,103.34c.63-.22,1.26-.47,1.89-.68L220,94.38c.47-.15,1-.22,1.45-.34-.18-.44-.32-.9-.54-1.32,0,0,0-.09-.07-.13a148.79,148.79,0,0,0-29.21,7.92l1.4,2.85Z"/><path class="cls-5" d="M280.84,100.77c2.07,2.5,4.17,5,6.25,7.48,1.18,3.3,2.37,6.59,3.53,9.89,1.07,3,2.09,6.11,3.15,9.16a5.69,5.69,0,0,0,.41.75c0-.78,0-1.32,0-1.86-.15-1.63-.38-3.24-.5-4.86-.14-1.94-.18-3.9-.29-5.84-.08-1.45-.19-2.9-.3-4.34-.16-2.17-.34-4.33-.51-6.5-.06-.67-.09-1.35-.14-2,.7-1.28,1.65-2.41,2.39-3.71a148.37,148.37,0,0,0-19-5.25,5.29,5.29,0,0,0-.79.08Q277.94,97.26,280.84,100.77Z"/><path class="cls-6" d="M259.85,98.81a4.3,4.3,0,0,0,.83.82c4.62-2,9.2-4,13.71-6.11l-.07-.13a150,150,0,0,0-18.62-2.45,5,5,0,0,0,.34,1.11C257.28,94.31,258.56,96.57,259.85,98.81Z"/><path class="cls-6" d="M275.85,93.69l-1-.19a.61.61,0,0,0,.16.27A5.29,5.29,0,0,1,275.85,93.69Z"/><path class="cls-7" d="M113.17,282.14c.45-3.27.91-6.54,1.35-9.81.31-2.33.58-4.66.89-7s.66-4.74,1-7.12c.07-.52.28-1.07-.2-1.53-2.43,1.5-4.86,3-7.29,4.51l-10.83,6.61c.53,2.85,1.14,5.66,1.82,8.45,1.64.75,3.28,1.5,4.93,2.23C107.59,279.73,110.39,280.93,113.17,282.14Z"/><path class="cls-8" d="M357.64,318.23c0,3.31,0,6.62,0,9.94q-.09,5.88-.25,11.76a150.66,150.66,0,0,0,13.82-18.14c-4-1.13-8-2.27-12.06-3.38A9.07,9.07,0,0,0,357.64,318.23Z"/><path class="cls-9" d="M310.06,363.62h0l-.83,0a123.34,123.34,0,0,1-12.4.54c-.25-1.65-.49-3.15-.72-4.65a3.4,3.4,0,0,0-1,0c-3.24.87-6.48,1.78-9.72,2.68q-8.2,2.26-16.4,4.53a11.69,11.69,0,0,1-1.34.21c-.93-.12-1.89-.16-2.8-.37-6.43-1.53-12.85-3.1-19.26-4.65-.57-.14-1.13-.31-1.7-.47l-.26,0c.22,1.71.43,3.42.66,5.12s.47,3.5.71,5.25c.3,2.15.61,4.31.91,6.46.25,1.75.49,3.5.73,5.25.11.84.21,1.68.35,2.83-2.21-1.2-4.15-2.27-6.1-3.31a60.85,60.85,0,0,0-5.86-3.13c-.25,1.85-.46,3.45-.7,5.05s-.53,3.21-.8,4.81c1.43.11,2.87.21,4.32.28,2.92-1.17,5.89-2.28,9-3.37a29.39,29.39,0,0,1-.06,3.54,150.75,150.75,0,0,0,26.89-2.66l2.22-9.73c0-.25,0-.51-.07-.76-1.22-1.41-2.46-2.8-3.66-4.22s-2.57-3.07-3.84-4.61a3.87,3.87,0,0,1-.36-.58c1-.06,14,4,15.89,5-.31.3-.55.59-.84.82-1.39,1.1-2.79,2.18-4.19,3.27.46,1.37.9,2.75,1.41,4.09.57,1.53,1.24,3,1.81,4.56a1.77,1.77,0,0,1,.08.33,148.67,148.67,0,0,0,32.16-12.22q-2-4.4-4-8.8A6,6,0,0,1,310.06,363.62Z"/><path class="cls-10" d="M184.3,359.09a3.17,3.17,0,0,0,.6-1.44,5.87,5.87,0,0,0-1,.53q-7.41,5.58-14.79,11.19,2.92,1.72,5.92,3.32l.52-.75Q179.94,365.52,184.3,359.09Z"/><path class="cls-10" d="M201.42,377.06c-1,.11-1.89.19-2.79.32-2.83.42-5.65.81-8.47,1.28l-1.79.31c4,1.64,8,3.13,12.2,4.42.12-.83.24-1.67.35-2.51C201.09,379.68,201.23,378.46,201.42,377.06Z"/><path class="cls-11" d="M312.15,321.38c0,1.36-.1,2.73-.17,4.09-.14,2.8-.33,5.6-.5,8.4,0,.32,0,.64,0,.95-.1,2.35-.19,4.71-.3,7.06a4.42,4.42,0,0,1-.14.6h-1.75c-2-.09-4.06-.18-6.09-.29-.68,0-1.35-.13-2-.19l-6.21-.5c-1.26-.1-2.53-.22-3.79-.29-2-.12-4-.2-6-.29.34.73.61,1.5,1,2.19q4.2,7,8.46,14c.37.61.79,1.18,1.32,2,1-1.06,1.87-2,2.73-2.91.46-.49.87-1,1.33-1.54,2.76-2.95,5.53-5.89,8.29-8.85.85-.92,1.66-1.88,2.48-2.83l.31.12c0,.61,0,1.22,0,1.82-.06.95-.16,1.89-.23,2.84-.18,2.35-.35,4.69-.52,7l0,.41c-.09,2.81-.19,5.62-.28,8.44h0l5.36-.67,5.5-.71,4.82-.63,3.21-.43v0c-.7-.83-1.34-1.71-2.11-2.48q-6.37-6.44-12.81-12.84c-.33-.33-.63-.69-1-1,.07-.09.15-.17.22-.25a16.27,16.27,0,0,1,1.37.91q5.69,4.53,11.34,9.08c1.34,1.08,2.67,2.17,4,3.21a8,8,0,0,0,1.31.66c-.17-1.26-.35-2.51-.53-3.76-.32-2.33-.67-4.65-1-7-.25-1.88-.46-3.77-.69-5.66-.17-1.09-.34-2.18-.52-3.28-.4-1.52-.82-3-1.21-4.57-.81-3.14-1.63-6.29-2.4-9.44a1.56,1.56,0,0,1,0-.57H312.15Z"/><path class="cls-11" d="M357.64,318.23c-1.83,1.25-3.68,2.48-5.5,3.75s-3.68,2.63-5.53,3.95q-7.75,5.51-15.52,11c-.75.54-1.73.82-2.15,1.76L352,345.65c1.84-1.86,3.62-3.77,5.36-5.72q.15-5.88.25-11.76C357.65,324.85,357.63,321.54,357.64,318.23Z"/><path class="cls-8" d="M328.66,338.73c.18,1.1.35,2.19.52,3.28.23.25.55.47.65.76.33.89.57,1.82.85,2.73q1.45,4.75,2.92,9.51a8,8,0,0,0,.43.92c.78-.27,1.51-.5,2.23-.77l9.69-3.71q3.1-2.82,6.05-5.8l-23.06-6.94Z"/><path class="cls-12" d="M329,361.18l-3.21.43-4.82.63-5.5.71-5.36.67a6,6,0,0,0,.27,1q2,4.41,4,8.8,6.34-3.29,12.31-7.15c.64-1.28,1.29-2.56,1.93-3.85A9,9,0,0,0,329,361.18Z"/><path class="cls-12" d="M326,354.54q-5.67-4.55-11.34-9.08a16.27,16.27,0,0,0-1.37-.91c-.07.08-.15.16-.22.25.32.35.62.71,1,1q6.42,6.42,12.81,12.84c.77.77,1.41,1.65,2.11,2.48.56-.51,1.14-1,1.65-1.56a7.3,7.3,0,0,0,.76-1.19,8,8,0,0,1-1.31-.66C328.69,356.71,327.36,355.62,326,354.54Z"/><path class="cls-13" d="M302.46,156.53,295.69,155c-.26-.06-.52-.08-1-.15,0,.57,0,1.06,0,1.55-.07,1.63-.15,3.27-.25,4.9,0,.2-.18.39-.27.59-.89.16-1.77.38-2.66.48-1.43.15-2.88.19-4.32.32s-3,.31-4.44.46c-1.12.12-2.25.24-3.37.33-2.52.2-5,.37-7.56.59-1.67.14-3.32.36-5,.55l5.22,4.56c1.77,1.56,3.52,3.15,5.29,4.71s3.72,3.19,5.57,4.8q2.46,2.15,4.91,4.32l2.17,2,21.58-27.63a4.93,4.93,0,0,1-2.38.7Z"/><path class="cls-13" d="M366.37,170.86l0,0h0Z"/><path class="cls-13" d="M333.5,191.51v2.23c.5-.57,1-1.19,1.58-1.94Z"/><path class="cls-13" d="M263.89,199.43c-1-.68-2-1.33-3.05-2l-9.25,11.85c1.4-1.13,2.83-2.21,4.22-3.36C258.41,203.8,261.11,201.77,263.89,199.43Z"/><path class="cls-13" d="M247.45,245.6c0-.42-.09-.85-.13-1.27l-.37-.27c0,.13.07.26.1.39C247.16,244.84,247.31,245.22,247.45,245.6Z"/><path class="cls-13" d="M278.07,193c-2.32,1-4.63,2.12-6.95,3.17s-4.55,2-7,3.13a10.12,10.12,0,0,0,.25,1.43c.78,2.23,1.61,4.45,2.4,6.68.16.45.24.93.39,1.51-6.07,1.08-12,2.39-17.94,3.37l-3.34,4.27q-1.32,5.38-2.65,10.76c-.09.4-.13.81-.2,1.21,0,.1,0,.19,0,.29l3.15,12.23.69-.88c0-.3-.07-.6-.1-.91-.3-2.46-.66-4.91-1-7.37-.13-1-.18-2.06-.27-3.1h0l0-.5c-.16-.76.4-1,.9-1.34,2.62-1.61,5.22-3.22,7.84-4.82,1-.61,2-1.2,3-1.79a18.15,18.15,0,0,1,1.73-.81l5.45-1.89,5.32-6.81-2-1.67a53.29,53.29,0,0,1,5.09-2.29l13.89-17.78c-.63.27-1.25.55-1.86.85C282.68,191.07,280.35,192,278.07,193Z"/><path class="cls-13" d="M316.89,155.28h0l-3.64,1.38H315l1.1-.7A8.83,8.83,0,0,0,316.89,155.28Z"/><path class="cls-13" d="M281,244.4c.27,0,.53-.14.8-.16.43,0,.87,0,1.54,0-1.41,3.12-3.22,5.83-4.75,8.68s-3.14,5.59-4.8,8.55a82.18,82.18,0,0,0,8.24,2.83c2.67.87,5.33,1.75,8.13,2.68-.38.78-.68,1.43-1,2.06q-2.5,4.77-5,9.53a6.44,6.44,0,0,1-.63.85l.36.55c1.59.65,3.18,1.28,4.76,2,2.79,1.19,5.57,2.41,8.35,3.61a4.19,4.19,0,0,0,.8.15l.08,0c.54-.66,1-1.37,1.61-2,3.16-3.4,6.35-6.77,9.51-10.17l3.21-3.48v-5.88l-3.7.46c-1.8.24-3.59.5-5.38.73l-5.26.64c-1.89.23-3.77.49-5.66.72-.43,0-.87,0-1.3.07-.06-.09-.11-.18-.16-.27l6.87-8.12c2.32-2.73,4.66-5.45,7-8.18s4.51-5.48,7-8.17a6.92,6.92,0,0,1,.56.88V195.11l-38.86,49.75c.75-.05,1.51-.12,2.26-.16C277.36,244.59,279.18,244.51,281,244.4Z"/><path class="cls-13" d="M354,161.05c-.86-.61-1.68-1.25-2.53-1.86q-8.93-6.51-17.86-13c-1.06-.76-2.19-1.42-3.3-2.13-3,2.72-6.06,5.45-9.11,8.14-.73.65-1.56,1.2-2.35,1.79l-.56.47a2.85,2.85,0,0,1-.36,1c-.35.4-.7.81-1.06,1.21l16.9.08c-.1,6.69-.15,9.44-.19,13.75l.33-.51c.26-.41.56-.79,1-1.39.4.92.76,1.64,1,2.38q2.91,7.56,5.79,15.15c.27.72.42,1.48.63,2.22,3.4-1,6.81-1.94,10.22-2.89a4.23,4.23,0,0,0,1.95-1.18c1.84-1.88,3.71-3.74,5.7-5.73l.45,1.06c.88,1.69,1.77,3.38,2.63,5.08.31.61.54,1.25.84,1.87,1.91,3.93,3.84,7.85,5.74,11.79.7,1.47,1.34,3,2,4.48l.48-.29q4.95-6.27,9.89-12.53c.2-.4,0-.66-.24-1-1.83-2.07-3.64-4.16-5.45-6.24-3.19-3.66-6.38-7.3-9.56-11a2.74,2.74,0,0,1-.34-.71h0l-.26-.26-.36-.3c-.91-.72-1-1-.35-1.87,1.84-2.59,3.68-5.19,5.54-7.77a3.63,3.63,0,0,1,.78-.66,152,152,0,0,0-9.61-13.45c-2.48,4.91-4.95,9.8-7.44,14.71A7.76,7.76,0,0,1,354,161.05Z"/><path class="cls-13" d="M228.25,199.62l1,.81,3.65-4.68c-1.08,0-2.17.1-3.26.24Z"/><path class="cls-5" d="M304.33,118.78q-3.49,3.64-7,7.27c-.91,1-1.83,1.88-2.84,2.92a11.9,11.9,0,0,1-4.59.18c-.12,0-.26,0-.4,0-2.44.13-4.89.28-7.33.37-1.58.06-3.17,0-4.75,0-1.13,0-2.25.16-3.38.23-.48,0-1,0-1.62,0a7.29,7.29,0,0,1,.43-.88c.56-.82,1.15-1.63,1.71-2.46q5.54-8.19,11-16.4a13.47,13.47,0,0,0,.68-1.31,5.28,5.28,0,0,0-.89.34l-11.53,7c-2.87,1.75-5.75,3.48-8.63,5.22L262,123.83c-4.66,3.44-9.34,6.88-14,10.34a7.26,7.26,0,0,0-1,1.1.1.1,0,0,1,0,0h0c1.53-.15,3.06-.3,4.59-.47,1.8-.2,3.6-.4,5.4-.62s3.86-.5,5.79-.73l5.4-.63c.49-.06,1-.18,1.47-.2.67,0,1.35,0,2.17,0,.12,1,.28,1.92.33,2.86.12,2.58.19,5.17.29,7.76.07,1.58.14,3.17.29,4.75a8.85,8.85,0,0,0,.53,1.78c1.92-1.28,3.83-2.58,5.77-3.83s4-2.47,6-3.76a3.38,3.38,0,0,0,1.13-1.3c1.09-2.14,2.11-4.32,3.21-6.61l7.14-.9c1.71-1.48,3.43-3,5.13-4.46,1.09-1,2.15-2,3.24-2.93,2-1.77,4.05-3.49,6.05-5.27s4.11-3.73,6.16-5.59c.95-.85,1.94-1.65,2.87-2.51.5-.46,1-.94,1.46-1.42q-3.15-1.86-6.41-3.56c-1.87,2-3.73,3.91-5.6,5.87C307.64,115.28,306,117,304.33,118.78Z"/><path class="cls-6" d="M289,158.81c1.35.74,2.72,1.44,4.07,2.19a10.74,10.74,0,0,1,1.17.87c.09-.2.26-.39.27-.59.1-1.63.18-3.27.25-4.9,0-.49,0-1,0-1.55.44.07.7.09,1,.15l6.77,1.55,6.78,1.49c-.35-.79-.65-1.6-1.05-2.36-1.54-2.94-3.11-5.86-4.66-8.8-1.93-3.66-3.86-7.32-5.76-11a11.4,11.4,0,0,1-.55-1.65,2,2,0,0,0,0-.25H297l-.56-.55-7.14.9c-1.1,2.29-2.12,4.47-3.21,6.61a3.38,3.38,0,0,1-1.13,1.3c-2,1.29-4,2.49-6,3.76s-3.85,2.55-5.77,3.83a26.22,26.22,0,0,0,2.36,1.58C280,153.88,284.48,156.34,289,158.81Z"/><path class="cls-6" d="M345.05,130.67l1.21-1c-1-.95-2.09-1.89-3.16-2.81.45,1.07.9,2.14,1.36,3.2C344.57,130.29,344.85,130.46,345.05,130.67Z"/><path class="cls-5" d="M297.21,134a2,2,0,0,1,0,.25c1.86,1.64,3.74,3.28,5.59,4.94q4.38,4,8.74,7.95c1.74,1.59,3.44,3.22,5.15,4.84.72.68,1.42,1.37,2.13,2.06.79-.59,1.62-1.14,2.35-1.79,3.05-2.69,6.08-5.42,9.11-8.14a11,11,0,0,0-1.22-.54l-14-4.33q-8.1-2.5-16.23-5a11.86,11.86,0,0,0-1.6-.24Z"/><path class="cls-4" d="M346.12,131.19c.61,0,1.23,0,1.85,0-.57-.53-1.13-1.06-1.71-1.58l-1.21,1C345.41,130.85,345.75,131.17,346.12,131.19Z"/><path class="cls-5" d="M297.22,134h0Z"/><path class="cls-3" d="M179.32,157.54c2.94-1.29,5.9-2.53,8.85-3.78,1.62-.69,3.25-1.35,4.88-2-.5-.74-1-1.51-1.51-2.22q-4.87-6.37-9.82-12.7a3.8,3.8,0,0,0-1-.67c-.63,2-1.29,4.06-1.88,6.11-1.49,5.1-3,10.22-4.44,15.33l1.78,1.39C177.25,158.48,178.28,158,179.32,157.54Z"/><path class="cls-3" d="M118.41,167.61c1,.5,2,1.09,3,1.6,1.75.9,3.51,1.75,5.25,2.64q6.63,3.36,13.24,6.75c3.16,1.62,6.3,3.26,9.46,4.86,1,.49,2,.92,2.94,1.37v0a9.28,9.28,0,0,1,.87-1.51c1.26-1.46,2.57-2.89,3.85-4.34V158.25l-1.8-.19q-2.78-.27-5.56-.47a2.52,2.52,0,0,0-.92.19l-20.26,6-9.81,2.91a3.19,3.19,0,0,1-.54.06l-.81.28c0,.18,0,.36,0,.55h.26C117.86,167.61,118.19,167.5,118.41,167.61Z"/><path class="cls-5" d="M207,181.34a11.28,11.28,0,0,1,.24,1.85s0,0,0,0l.47.37a7.07,7.07,0,0,1,1.31.49c3.72,2.09,7.41,4.22,11.11,6.35,2.84,1.63,5.66,3.27,8.5,4.89a7.14,7.14,0,0,0,1,.39c.26-2.16.53-4.32.77-6.48.22-1.93.41-3.87.63-5.81s.47-3.87.7-5.8.41-3.88.67-5.81c.22-1.6.52-3.19.78-4.79,0-.45,0-.89,0-1.34h0a3.76,3.76,0,0,1-.82-.43c-1-.83-1.9-1.68-2.83-2.55-1.76-1.64-3.48-3.33-5.26-5-2.7-2.48-5.46-4.91-8.17-7.39-.83-.77-1.56-1.64-2.34-2.47a6.2,6.2,0,0,0-.92,1.08q-4.59,9-9.12,17.94c-.25.48-.42,1-.63,1.5.65,2.25,1.29,4.5,2,6.75C205.74,177.22,206.42,179.26,207,181.34Z"/><path class="cls-3" d="M224.34,157.74c1.78,1.63,3.5,3.32,5.26,5,.93.87,1.87,1.72,2.83,2.55a3.76,3.76,0,0,0,.82.43q3.42-7.26,6.83-14.52c.67-1.44,1.28-2.9,1.91-4.35l-14.07-7.05.05-.32c.54-.13,1.08-.27,1.63-.39q7.5-1.58,15-3.15a5.05,5.05,0,0,1,.68-.06c-.2-.26-.37-.57-.58-.82a1.51,1.51,0,0,0-.23-.21c-2.43-1.75-4.9-3.46-7.34-5.2s-5.09-3.65-7.66-5.44a1.15,1.15,0,0,1-.6-1.12l-.31,0a1.12,1.12,0,0,0-.16.22c-.83,2.87-1.66,5.74-2.5,8.66.51,2.5,1,5,1.58,7.68-1.3.14-2.41.28-3.53.39s-2.52.21-3.78.32l-5.53.5h0c-.06.58-.11,1.16-.17,1.74-.2,1.78-.82,3.51-.65,5.34.78.83,1.51,1.7,2.34,2.47C218.88,152.83,221.64,155.26,224.34,157.74Z"/><path class="cls-5" d="M244.61,135.9q-7.52,1.56-15,3.15c-.55.12-1.09.26-1.63.39l-.05.32L242,146.81c1.24.82,2.49,1.63,3.7,2.49,3.17,2.26,6.32,4.56,9.48,6.84l10.27,7.39a15.86,15.86,0,0,0,1.41.77q2.14-5.22,4.28-10.44c.5-1.21,1-2.43,1.55-3.8-.84-.49-1.63-1-2.46-1.43-4.05-2.14-8.12-4.25-12.18-6.38q-4.52-2.37-9-4.78c-.92-.49-1.78-1.07-2.67-1.61l-1.07,0A5.05,5.05,0,0,0,244.61,135.9Z"/><path class="cls-6" d="M179.32,157.54c-1,.45-2.07.94-3.11,1.43l13.7,10.7q1.31-7.36,2.62-14.74c.14-.8.35-1.59.52-2.38v-.82c-1.63.68-3.26,1.34-4.88,2C185.22,155,182.26,156.25,179.32,157.54Z"/><path class="cls-6" d="M193.46,172.45l13.69,10.69.11.05a11.28,11.28,0,0,0-.24-1.85c-.6-2.08-1.28-4.12-1.9-6.19-.67-2.25-1.31-4.5-2-6.75l-1.29.3-3.07.81-5.25,2.89Z"/><path class="cls-3" d="M258,142.25c4.06,2.13,8.13,4.24,12.18,6.38.83.43,1.62.94,2.46,1.43-.56,1.37-1.05,2.59-1.55,3.8q-2.13,5.22-4.28,10.44a2,2,0,0,1,0,.25l0,0c1.66-.19,3.31-.41,5-.55,2.52-.22,5-.39,7.56-.59,1.12-.09,2.25-.21,3.37-.33,1.48-.15,3-.33,4.44-.46s2.89-.17,4.32-.32c.89-.1,1.77-.32,2.66-.48A10.74,10.74,0,0,0,293,161c-1.35-.75-2.72-1.45-4.07-2.19-4.49-2.47-9-4.93-13.45-7.42a26.22,26.22,0,0,1-2.36-1.58,8.85,8.85,0,0,1-.53-1.78c-.15-1.58-.22-3.17-.29-4.75-.1-2.59-.17-5.18-.29-7.76-.05-.94-.21-1.87-.33-2.86-.82,0-1.5,0-2.17,0-.49,0-1,.14-1.47.2l-5.4.63c-1.93.23-3.86.5-5.79.73s-3.6.42-5.4.62c-1.53.17-3.06.32-4.59.47h0l-.54.29v.25c.89.54,1.75,1.12,2.67,1.61Q253.52,139.89,258,142.25Z"/><path class="cls-3" d="M208.63,128.37c.28-1.38.53-2.76.84-4.12.06-.25.34-.45.52-.67s.13-.5.22-.83c.56,0,1,0,1.55,0l10.48.28c.54,0,1.08.07,1.63.1l4,.22c-.19-.27-.22-.37-.29-.41-4.88-2.45-9.76-4.88-14.64-7.34a1.18,1.18,0,0,0-1.28,0c-.62,2.32-1.24,4.63-1.88,7-1.9-.3-3.63-.56-5.35-.85-3.57-.6-7.13-1.22-10.7-1.83-.67-.11-1.34-.18-2-.27-.12,0-.24.1-.45.19l1.18,2.75q2.79,6.51,5.58,13c1.75,4,3.48,8.09,5.28,12.11.31.71.4,1.6,1.23,2,.39-2.22.76-4.46,1.18-6.68C206.67,138.22,207.66,133.29,208.63,128.37Z"/><path class="cls-3" d="M212.5,113.63c1.1-2.35,2.17-4.71,3.27-7.06,1.46-3.13,2.95-6.25,4.41-9.39.47-1,.87-2.09,1.31-3.14-.49.12-1,.19-1.45.34l-24.82,8.28c-.63.21-1.26.46-1.89.68L211.75,115C212.07,114.4,212.32,114,212.5,113.63Z"/><path class="cls-5" d="M252,108.75a3.21,3.21,0,0,0-.08-.36c-6.11-.78-12.19-1.73-18.38-2.37-.23.63-.41,1.09-.55,1.56-.91,3.09-1.83,6.18-2.71,9.28-.59,2-1.13,4.11-1.7,6.16l.31,0Z"/><path class="cls-5" d="M174.46,116.74c.29,1,.53,2,.86,3q2.49,7.26,5,14.48a6.15,6.15,0,0,0,.67,1.12c3.32-5.18,6.6-10.39,9.91-15.79Z"/><path class="cls-6" d="M212.18,131.59l-2.19-8c-.18.22-.46.42-.52.67-.31,1.36-.56,2.74-.84,4.12-1,4.92-2,9.85-2.92,14.77-.42,2.22-.79,4.46-1.18,6.68.67-.53,1.37-1,2-1.6,1.54-1.41,3-2.86,4.57-4.26,1.17-1.08,2.37-2.11,3.55-3.16h0Q213.42,136.2,212.18,131.59Z"/><path class="cls-3" d="M189.91,169.67l3.55,2.78.09,0,5.25-2.89a11.84,11.84,0,0,1-.79-1.7c-1.41-4.7-2.78-9.41-4.19-14.1-.13-.45-.1-1.05-.77-1.16-.17.79-.38,1.58-.52,2.38Q191.21,162.3,189.91,169.67Z"/><path class="cls-13" d="M193.72,120c3.57.61,7.13,1.23,10.7,1.83,1.72.29,3.45.55,5.35.85.64-2.41,1.26-4.72,1.88-7a4.67,4.67,0,0,0-1.41-.18q-8.9,1.85-17.78,3.77a.56.56,0,0,0-.2.08c-.19.11-.36.29-.55.42C192.38,119.82,193.05,119.89,193.72,120Z"/><path class="cls-5" d="M128.49,163.8l20.26-6a2.52,2.52,0,0,1,.92-.19q2.79.19,5.56.47l1.8.19v-1.5H173q-2.4-8.22-4.8-16.39c-.6-.23-1.06-.43-1.53-.59l-9.34-3-12.07-3.92c-.38-.13-.74-.34-1.11-.5h-.26q0,8.47,0,17c0,.49.24,1.14-.54,1.33a2.74,2.74,0,0,1-.47.49L125.43,162q-3.29,2-6.56,4.11a7,7,0,0,0-.73.59v.06a3.19,3.19,0,0,0,.54-.06Z"/><path class="cls-5" d="M143.83,132c0-.62.07-1.24.11-1.86l-1.25,1.17.31.23A6.07,6.07,0,0,0,143.83,132Z"/><path class="cls-5" d="M130.78,144.42c1.84-1.75,3.66-3.52,5.53-5.24,2.49-2.31,5-4.57,7.54-6.85h.26l-.28-.3a6.07,6.07,0,0,1-.83-.46l-.31-.23a149.65,149.65,0,0,0-13.26,14.2A7.81,7.81,0,0,0,130,145C130.24,144.77,130.55,144.63,130.78,144.42Z"/><path class="cls-14" d="M226.24,384.9c-1-.34-1.73-.64-2.53-.89l-10-3.17c-3.52-1.1-7-2.2-10.54-3.33a8.18,8.18,0,0,1-1.38-.77,13.92,13.92,0,0,1-.19-2.12c.11-1.62.32-3.24.49-4.86.25-2.34.52-4.67.76-7,.1-.86.21-1.72.23-2.57,0-1.89.64-3.76.22-5.84a14.37,14.37,0,0,0-1.61,0l-10.5,1.35c-1,.13-2.05.34-3.09.46a13.13,13.13,0,0,1-1.67,0c-.44-1.38,0-2.76-.31-4.28-3-3-6.18-6.16-9.4-9.44,1.11-.89,2-1.66,3-2.4l13.45-10.39a1.14,1.14,0,0,0,.15-.23c-1.36-1.05-2.71-2.11-4.09-3.13-2.92-2.16-5.85-4.29-8.77-6.44a4.73,4.73,0,0,0-1.28.34l-.79.5v3.37H173c-1.54,1-3.1,1.93-4.65,2.89-2.69,1.68-5.38,3.38-8.09,5a3.9,3.9,0,0,0-1.53,1.82c-1.45,3.24-3,6.43-4.5,9.64l-1,2.11-10.86-2.28c-.39-.08-.8-.12-1.2-.17,0,1.61,0,3.23,0,4.84a150.51,150.51,0,0,0,28,21.4q7.4-5.61,14.79-11.19a5.87,5.87,0,0,1,1-.53,3.17,3.17,0,0,1-.6,1.44q-4.37,6.44-8.74,12.85l-.52.75q6.48,3.46,13.33,6.28l1.79-.31c2.82-.47,5.64-.86,8.47-1.28.9-.13,1.82-.21,2.79-.32-.19,1.4-.33,2.62-.5,3.82-.11.84-.23,1.68-.35,2.51A148.33,148.33,0,0,0,221,388.22l4.58-2.74C225.72,385.37,225.87,385.2,226.24,384.9Z"/><path class="cls-15" d="M184.16,289.5a10.7,10.7,0,0,0,1.49.58l0,0c-.73-1.14-1.43-2.3-2.21-3.41q-2.52-3.54-5.08-7.06v6.18l3.72,2.39C182.8,288.6,183.45,289.1,184.16,289.5Z"/><path class="cls-15" d="M123.69,318.48c-3.47-12.08-6.86-23.91-10.26-35.73l.22-.17a8.61,8.61,0,0,1,1.08.69c2.09,1.87,4.15,3.79,6.25,5.66s4.17,3.64,6.24,5.47c1.23,1.09,2.41,2.22,3.62,3.31,2,1.75,3.95,3.48,5.92,5.22H137c2.77-3.7,5.52-7.42,8.3-11.11s5.49-7.22,8.25-10.82a10.91,10.91,0,0,1,1.08-1,23.55,23.55,0,0,1-.13-4.49c0-1.53,0-3.07,0-4.81a8.48,8.48,0,0,1,1.14.5c.47.29.93.6,1.39.89v-7.18l-2,3.8c-.25.47-.55.92-.89,1.49l-5.12-2L135.6,263c-1,.79-2,1.54-3,2.37-3.19,2.77-6.36,5.56-9.53,8.34l-9.22,8.08a3.15,3.15,0,0,1-.71.36c-2.78-1.21-5.58-2.41-8.34-3.65-1.65-.73-3.29-1.48-4.93-2.23A148.83,148.83,0,0,0,115.42,315l3.61,1.52Z"/><path class="cls-16" d="M123.07,319l.81-.22c1.33-1.66,2.65-3.33,4-5,1.67-2,3.37-4,5.06-6,.61-.73,1.24-1.44,1.87-2.15l1.92-2.19h0l0-.51c-2-1.74-3.95-3.47-5.92-5.22-1.21-1.09-2.39-2.22-3.62-3.31-2.07-1.83-4.17-3.63-6.24-5.47s-4.16-3.79-6.25-5.66a8.61,8.61,0,0,0-1.08-.69l-.22.17c3.4,11.82,6.79,23.65,10.26,35.73l-4.66-2L115.42,315c1,1.74,2,3.45,3.1,5.14l3.35-.89A12,12,0,0,1,123.07,319Z"/><path class="cls-15" d="M122.36,320.15a10.63,10.63,0,0,0,.71-1.12,12,12,0,0,0-1.2.19l-3.35.89,1.62,2.51,1.19-1.38C121.65,320.86,122.05,320.54,122.36,320.15Z"/><path class="cls-15" d="M116.2,256.69c0-.25,0-.51,0-.77l-13.18-2.61a23.74,23.74,0,0,1-3.72-1l12.5-1.14a.81.81,0,0,1,0-.22l-15.68-23.8q-.54,6.12-.58,12.38c.56,3.17,1.12,6.33,1.66,9.5.2,1.18.28,2.38.42,3.57-.32,1.17-.6,2.36-1,3.51-.06.2-.14.39-.21.59q.62,5.61,1.62,11.08l10.83-6.61C111.34,259.71,113.77,258.19,116.2,256.69Z"/><path class="cls-17" d="M132.59,261.88q-7.5-2.65-15-5.35c-.25-.09-.48-.21-.78-.34.77-3.22,1.53-6.39,2.3-9.55q1.26-5.14,2.51-10.3a5.88,5.88,0,0,0,.09-1,15.79,15.79,0,0,0-1.15,1.47c-2.65,4.43-5.26,8.88-7.91,13.3a4.83,4.83,0,0,1-.81.82.81.81,0,0,0,0,.22l4.4,4.72h0c0,.26,0,.52,0,.77.48.46.27,1,.2,1.53-.33,2.38-.68,4.74-1,7.12s-.58,4.66-.89,7c-.44,3.27-.9,6.54-1.35,9.81a3.15,3.15,0,0,0,.71-.36l9.22-8.08c3.17-2.78,6.34-5.57,9.53-8.34,1-.83,2-1.58,3-2.37a1.11,1.11,0,0,0,0-.26C134.59,262.45,133.57,262.22,132.59,261.88Z"/><path class="cls-12" d="M381.13,295c-.43-.45-.92-.28-1.39-.11-3.91,1.35-7.81,2.72-11.72,4.06-2.85,1-5.7,1.92-8.54,2.87-1.38.46-2.76.91-4.13,1.38-.24.08-.47.21-.87.39a2.88,2.88,0,0,0,.53.15c2.73,0,5.48.18,8.19,0,5.59-.45,11.19-.09,16.77-.23.39,0,.79,0,1.26.06-1,1-22.3,13.82-23.46,14.11-1.42-4.44-2.4-9-3.82-13.79L351.36,307c-1.11,1.37-2.21,2.76-3.33,4.13a1.29,1.29,0,0,1-.46.26h0c-1,.62-2,1.3-3,1.85q-5.54,2.94-11.08,5.84v5.07H325a1.56,1.56,0,0,0,0,.57c.77,3.15,1.59,6.3,2.4,9.44.39,1.53.81,3,1.21,4.57l.28,0c.42-.94,1.4-1.22,2.15-1.76q7.76-5.54,15.52-11c1.85-1.32,3.68-2.65,5.53-3.95s3.67-2.5,5.5-3.75a9.07,9.07,0,0,1,1.48.18c4,1.11,8,2.25,12.06,3.38a149,149,0,0,0,10.47-19.05c-.25-2.34-.5-4.67-.72-7A2.1,2.1,0,0,1,381.13,295Z"/><path class="cls-9" d="M380.93,295.73c.22,2.34.47,4.67.72,7,.58-1.27,1.15-2.54,1.7-3.83-.76-1.29-1.48-2.61-2.22-3.92A2.1,2.1,0,0,0,380.93,295.73Z"/><path class="cls-10" d="M280.36,347.55c1.45-2.2,2.85-4.42,4.28-6.63,0-.1,0-.2,0-.3l-.27-.25h0c-1.07-.36-2.16-.66-3.2-1.08-4.46-1.81-8.9-3.66-13.35-5.49l-3.4-1.37-1.35-.24-.3.24c-1.58,2.43-3.15,4.88-4.76,7.3q-6.69,10-13.39,20.07a11.79,11.79,0,0,0-.72,1.57c.57.16,1.13.33,1.7.47,6.41,1.55,12.83,3.12,19.26,4.65.91.21,1.87.25,2.8.37.27-.47.51-1,.81-1.41Q274.4,356.51,280.36,347.55Z"/><path class="cls-10" d="M226.69,384.63a6.4,6.4,0,0,1,.06-1.08q1.88-8.07,3.77-16.13h0a13.94,13.94,0,0,0-1.59.3q-10.08,3.34-20.16,6.74c-1.8.61-3.6,1.26-5.4,1.86-.51.18-1.05.28-1.58.41a8.18,8.18,0,0,0,1.38.77c3.51,1.13,7,2.23,10.54,3.33l10,3.17c.8.25,1.58.55,2.53.89-.37.3-.52.47-.7.58L221,388.22q5.16.86,10.44,1.34c-1.38-1.3-2.76-2.6-4.12-3.92A4.19,4.19,0,0,1,226.69,384.63Z"/><path class="cls-12" d="M310.37,354.77c.17-2.35.34-4.69.52-7,.07-1,.17-1.89.23-2.84,0-.6,0-1.21,0-1.82l-.31-.12c-.82.95-1.63,1.91-2.48,2.83-2.76,3-5.53,5.9-8.29,8.85-.46.5-.87,1.05-1.33,1.54-.86.94-1.73,1.85-2.73,2.91-.53-.8-1-1.37-1.32-2q-4.25-7-8.46-14c-.41-.69-.68-1.46-1-2.19h-.54c-1.43,2.21-2.83,4.43-4.28,6.63q-5.94,9-11.9,17.91c-.3.45-.54.94-.81,1.41a11.69,11.69,0,0,0,1.34-.21q8.2-2.25,16.4-4.53c3.24-.9,6.48-1.81,9.72-2.68a3.4,3.4,0,0,1,1,0c1.22.31,2.46.56,3.66.93,2.88.9,5.75,1.84,8.62,2.78a7.22,7.22,0,0,1,.84.4l.83,0c.09-2.82.19-5.63.28-8.44Z"/><path class="cls-12" d="M235,379.89a60.85,60.85,0,0,1,5.86,3.13c2,1,3.89,2.11,6.1,3.31-.14-1.15-.24-2-.35-2.83-.24-1.75-.48-3.5-.73-5.25-.3-2.15-.61-4.31-.91-6.46-.24-1.75-.48-3.5-.71-5.25s-.44-3.41-.66-5.12c-.56-.52-1.13-1-1.68-1.58-3.43-3.42-6.86-6.86-10.3-10.28-.35-.35-.75-.65-1.13-1q0,9.42,0,18.84h0c.16.29.33.58.49.88l4,11.39-2.57.11a29.57,29.57,0,0,0,.46,5.94c.16,1.12.22,2.25.35,3.37a3.19,3.19,0,0,0,.21.64h.07c.27-1.6.55-3.21.8-4.81S234.78,381.74,235,379.89Z"/><path class="cls-18" d="M244.61,359.81q6.67-10.05,13.39-20.07c1.61-2.42,3.18-4.87,4.76-7.3l0,0a18,18,0,0,0-1.77.68q-14.43,7.26-28.84,14.55c-.53.26-1.08.45-1.63.68a2.64,2.64,0,0,1,0,.28c.38.32.78.62,1.13,1,3.44,3.42,6.87,6.86,10.3,10.28.55.54,1.12,1.06,1.68,1.58l.26,0h0A11.79,11.79,0,0,1,244.61,359.81Z"/><path class="cls-12" d="M275.91,377.81l-2.22,9.73c2.67-.51,5.33-1.1,7.95-1.75-1.54-2.28-3.08-4.57-4.64-6.83A9.84,9.84,0,0,0,275.91,377.81Z"/><path class="cls-10" d="M283,373.42c.29-.23.53-.52.84-.82-1.88-1-14.87-5-15.89-5a3.87,3.87,0,0,0,.36.58c1.27,1.54,2.54,3.09,3.84,4.61s2.44,2.81,3.66,4.22l3-.36C280.24,375.6,281.64,374.52,283,373.42Z"/><path class="cls-12" d="M246.86,386.66c-3.12,1.09-6.09,2.2-9,3.37,2.49.12,5,.19,7.54.19l1.41,0A29.39,29.39,0,0,0,246.86,386.66Z"/><path class="cls-11" d="M232.9,385.74a29.57,29.57,0,0,1-.46-5.94l-.29-.1c-.68.64-1.35,1.3-2,1.92-1.13,1-2.28,2-3.42,3a4.19,4.19,0,0,0,.59,1c1.36,1.32,2.74,2.62,4.12,3.92l2.06.19a3.19,3.19,0,0,1-.21-.64C233.12,388,233.06,386.86,232.9,385.74Z"/><path class="cls-11" d="M299.77,360.42c-1.2-.37-2.44-.62-3.66-.93.23,1.5.47,3,.72,4.65a123.34,123.34,0,0,0,12.4-.54,7.22,7.22,0,0,0-.84-.4C305.52,362.26,302.65,361.32,299.77,360.42Z"/><path class="cls-11" d="M280.25,380.78c-.51-1.34-.95-2.72-1.41-4.09l-3,.36c0,.25.05.51.07.76A9.84,9.84,0,0,1,277,379c1.56,2.26,3.1,4.55,4.64,6.83l.5-.12a1.77,1.77,0,0,0-.08-.33C281.49,383.81,280.82,382.31,280.25,380.78Z"/><path class="cls-18" d="M363.12,265.7l-10.84.87c-.32,0-.64,0-.95,0l-1.13-.18L338.51,264l-5-1v56.14q5.55-2.91,11.08-5.84c1-.55,2-1.23,3-1.85h0c-.69-.88-1.42-1.74-2.07-2.66-3-4.33-6-8.67-9-13-.73-1.05-1.47-2.08-2.19-3.13a7,7,0,0,1-.43-.92l.2-.2c3.28,2,6.56,4,9.82,6s6.51,4.1,10,6.08c.5-1.1,1-2,1.35-3q3.58-8.48,7.13-17a7.26,7.26,0,0,1,2.17-2.4c1-.92,2.08-1.75,3.11-2.64,2.71-2.34,5.43-4.68,8.11-7.05,1.29-1.14,2.5-2.37,3.74-3.56L374,264.83Z"/><path class="cls-19" d="M302.35,308l-7.16-6.29c-.3-.26-.65-.47-1-.71l-.26.6c.34.3.26.58,0,.85,0,.15,0,.3,0,.45h0c-.14.73-.26,1.47-.4,2.2s-.28,1.56-.44,2.33c-.81,3.86-1.65,7.71-2.48,11.57-.23,1.06-.51,2.11-.74,3.17-.9,4.12-1.8,8.24-2.67,12.36a6.74,6.74,0,0,0,0,1.28c1.12.35,2.2.7,3.28,1q8.91,2.54,17.83,5.07a3.93,3.93,0,0,1,1,.63H311a4.42,4.42,0,0,0,.14-.6c.11-2.35.2-4.71.3-7.06,0-.31,0-.63,0-.95.17-2.8.36-5.6.5-8.4.07-1.36.12-2.73.17-4.09v-4.92l-.16-.1Z"/><path class="cls-17" d="M299.15,285.93c-.44-.06-.88-.15-1.33-.23l-.08,0c0,.1,0,.2,0,.3.14.34.26.69.41,1,1.89,3.89,3.8,7.78,5.67,11.68q3.92,8.19,7.81,16.4a7.91,7.91,0,0,1,.35,1.29l.16.1V287.81l-6.54-1C303.46,286.49,301.31,286.22,299.15,285.93Z"/><path class="cls-18" d="M290.47,336.78c-1.08-.31-2.16-.66-3.28-1a6.74,6.74,0,0,1,0-1.28c.87-4.12,1.77-8.24,2.67-12.36.23-1.06.51-2.11.74-3.17.83-3.86,1.67-7.71,2.48-11.57.16-.77.31-1.55.44-2.33s.26-1.47.4-2.2c-.25.31-.55.59-.77.9a1.86,1.86,0,0,0-.19.33c-2.74,6.68-5.44,13.38-8.17,20.06-1.2,3-2.44,5.88-3.67,8.81a4.65,4.65,0,0,1-.34.56l0,.54q1.65,2.79,3.29,5.59a5.32,5.32,0,0,1,.3.69v0l.27.25c0,.1,0,.2,0,.3h.54c2,.09,4,.17,6,.29,1.26.07,2.53.19,3.79.29l6.21.5c.68.06,1.35.16,2,.19,2,.11,4.06.2,6.09.29a3.93,3.93,0,0,0-1-.63Q299.39,339.3,290.47,336.78Z"/><polygon class="cls-18" points="293.93 302.86 293.93 302.86 293.93 302.86 293.93 302.86"/><path class="cls-4" d="M233.53,167.74a3.45,3.45,0,0,0-.32-.71c-.26,1.6-.56,3.19-.78,4.79-.26,1.93-.45,3.87-.67,5.81s-.48,3.87-.7,5.8-.41,3.88-.63,5.81c-.24,2.16-.51,4.32-.77,6.48,0,.09,0,.18,0,.27,1.09-.14,2.18-.21,3.26-.24l5.51-7.05c-.69-3-1.39-5.95-2.08-8.92Q235,173.77,233.53,167.74Z"/><path class="cls-4" d="M283,178.67c-1.85-1.61-3.72-3.19-5.57-4.8s-3.52-3.15-5.29-4.71l-5.22-4.56,0,0-17.94,0-3.67,0c-.27,1.51-.55,3-.8,4.53-.62,3.75-1.25,7.49-1.85,11.24l-.6,3.77,4.16-5.32,29.27,0-14.59,18.67c1,.64,2,1.29,3.05,2-2.78,2.34-5.48,4.37-8.08,6.52-1.39,1.15-2.82,2.23-4.22,3.36l-2.34,3c6-1,11.87-2.29,17.94-3.37-.15-.58-.23-1.06-.39-1.51-.79-2.23-1.62-4.45-2.4-6.68a10.12,10.12,0,0,1-.25-1.43c2.42-1.09,4.7-2.1,7-3.13s4.63-2.13,6.95-3.17,4.61-2,6.85-3.05c.61-.3,1.23-.58,1.86-.85L290,185l-2.17-2Q285.43,180.82,283,178.67Z"/><path class="cls-20" d="M263,271q-5.21,4.58-10.42,9.15c-1.77,1.55-3.53,3.13-5.3,4.69a6.87,6.87,0,0,1-.89.59,6.67,6.67,0,0,1-1.09.5c-2.36.58-4.73,1.13-7.09,1.69a.52.52,0,0,0,0,.25c.94,1.44,1.92,2.86,2.82,4.32q4.32,7,8.61,14.09c2.09,3.41,4.19,6.82,6.27,10.23a5.48,5.48,0,0,1,.33.88l.55,0h0l0,0c.73-3.31,1.45-6.63,2.2-9.93q1.75-7.84,3.54-15.67c0-.16.11-.32.23-.7L277,300l.53,0,2.24.19,14.44.67c0-.13,0-.26.05-.39a7.7,7.7,0,0,1-.6-.89q-4.69-9.23-9.36-18.45a11.14,11.14,0,0,1-.46-1.13l-.36-.55c-1-1.69-2-3.38-2.89-5.09-2-3.71-4-7.44-6-11.14a8.35,8.35,0,0,0-1.11-1.28c-.81.65-1.64,1.27-2.42,2C268.33,266.22,265.68,268.62,263,271Z"/><path class="cls-3" d="M182.6,204.24a7.87,7.87,0,0,1,1.29.33q6.62,2.88,13.22,5.79c3.24,1.43,6.47,2.85,9.7,4.3a11,11,0,0,1,1.27.77l.26.09.34,0,2.13-.23-2.08-1.62c-.07.33-.13.65-.2,1a4,4,0,0,1-.82-.57c-.63-.84-1.22-1.7-1.8-2.57l-.08-.11-26.17-20.45c-.29.09-.58.18-.87.24l-.4.09V202c.77.31,1.55.63,2.3,1A18.84,18.84,0,0,1,182.6,204.24Z"/><path class="cls-3" d="M152.3,184.83a5.55,5.55,0,0,0,.55,1.18c1.39,1.72,2.79,3.42,4.18,5.13v-7c-1.57.21-3.14.46-4.72.69Z"/><path class="cls-3" d="M229.66,195.72a7.14,7.14,0,0,1-1-.39c-2.84-1.62-5.66-3.26-8.5-4.89-3.7-2.13-7.39-4.26-11.11-6.35a7.07,7.07,0,0,0-1.31-.49l20.51,16,1.42-3.63C229.67,195.9,229.66,195.81,229.66,195.72Z"/><path class="cls-5" d="M354.65,206.18a5.52,5.52,0,0,0-1.22-.05H333.49c0,8.38,0,18.78,0,31.82l1.12-.12c2.07-.22,4.14-.47,6.2-.71,1.8-.21,3.6-.43,5.4-.62,2.25-.23,4.51-.43,6.76-.65.18-2.11.35-4.23.52-6.34.1-1.26.22-2.52.29-3.79.11-1.85.17-3.7.3-5.55s.33-3.42.5-5.12l0-.28.57-8.11C355,206.5,354.85,206.22,354.65,206.18Z"/><path class="cls-21" d="M273.37,261.59c0,.1.05.21.07.31a8.35,8.35,0,0,1,1.11,1.28c2,3.7,4,7.43,6,11.14.93,1.71,1.92,3.4,2.89,5.09a6.44,6.44,0,0,0,.63-.85q2.53-4.76,5-9.53c.33-.63.63-1.28,1-2.06-2.8-.93-5.46-1.81-8.13-2.68a82.18,82.18,0,0,1-8.24-2.83c1.66-3,3.28-5.73,4.8-8.55s3.34-5.56,4.75-8.68c-.67,0-1.11,0-1.54,0-.27,0-.53.15-.8.16-1.81.11-3.63.19-5.44.3-.75,0-1.51.11-2.26.16-2.42,3.08-5.06,6.47-8,10.19l7,5.52A11.26,11.26,0,0,1,273.37,261.59Z"/><path class="cls-21" d="M257.3,220.37c-.25,2.41-.49,4.84-.74,7.25l0,.22,8-10.17L259,219.56A18.15,18.15,0,0,0,257.3,220.37Z"/><path class="cls-15" d="M299.43,283.71c-.58.62-1.07,1.33-1.61,2,.45.08.89.17,1.33.23,2.16.29,4.31.56,6.46.88l6.54,1V270.06l-3.21,3.48C305.78,276.94,302.59,280.31,299.43,283.71Z"/><path class="cls-6" d="M372.13,226.9q0-8.81,0-17.63V204l.84-.65-.61-.84-.48.29-9.86,0c.77,2.08,1.52,4.18,2.32,6.25,1.86,4.82,3.75,9.64,5.63,14.45a32.93,32.93,0,0,1,1.41,4.07,2.32,2.32,0,0,1-.68-.43c-2.19-2.94-4.36-5.9-6.54-8.85l-6.36-8.65c-.59-.8-1.16-1.62-1.78-2.41a3.68,3.68,0,0,0-.82-.62l-.57,8.11,0,.28c-.17,1.7-.37,3.41-.5,5.12s-.19,3.7-.3,5.55c-.07,1.27-.19,2.53-.29,3.79-.17,2.11-.34,4.23-.52,6.34a1.23,1.23,0,0,1,0,.27l.31.07c2.13.49,4.26.94,6.37,1.47q7.41,1.83,14.8,3.72c1.9.48,3.78,1,5.68,1.45a14.25,14.25,0,0,0,1.48.22c-1.66-2.45-3.31-4.91-5-7.35-1.49-2.18-3-4.34-4.53-6.58.21-.2.39-.38.58-.55C372,228.22,372.13,227.52,372.13,226.9Z"/><path class="cls-3" d="M384.69,185.36l.15.17-.36-.89c.07.25.13.49.21.73Z"/><path class="cls-3" d="M373.54,162.76q5.2,10.25,10.38,20.51A150.49,150.49,0,0,0,373.54,162.76Z"/><path class="cls-3" d="M333.62,184.72a8,8,0,0,0,.1,1.17c.33,1.32.75,2.62,1,3.94a18.77,18.77,0,0,0,2.36,5.17c1.14,2.11,2.33,4.19,3.49,6.3a8.09,8.09,0,0,1,.38,1h0l.09.05-.09-.05h-.29c-.09.68-.71.75-1.17,1-1.71.78-3.44,1.52-5.15,2.3-.21.1-.34.36-.5.55h19.58a5.52,5.52,0,0,1,1.22.05c.2,0,.36.32.54.49a3.68,3.68,0,0,1,.82.62c.62.79,1.19,1.61,1.78,2.41l6.36,8.65c2.18,3,4.35,5.91,6.54,8.85a2.32,2.32,0,0,0,.68.43,32.93,32.93,0,0,0-1.41-4.07c-1.88-4.81-3.77-9.63-5.63-14.45-.8-2.07-1.55-4.17-2.32-6.25h-.26a58.82,58.82,0,0,1-6.42,3c-.15-1.21-.33-2.23-.4-3.26-.14-1.75-.18-3.52-.31-5.28s-.34-3.59-.48-5.39a49.58,49.58,0,0,1-.16-5.74,4.38,4.38,0,0,1,.4.62c1.95,4.24,3.88,8.49,5.85,12.73.36.77.83,1.5,1.24,2.24.07-.74.18-1.49.19-2.24s-.14-1.25-.19-1.87c-.19-2.43-.36-4.86-.53-7.29,0-.14,0-.28,0-.41-.09-2.12-.17-4.25-.28-6.37-.06-1-.21-2-.25-3a3.23,3.23,0,0,1,.27-1l-.45-1.06c-2,2-3.86,3.85-5.7,5.73a4.23,4.23,0,0,1-1.95,1.18c-3.41.95-6.82,1.93-10.22,2.89l-1.14.3Z"/><path class="cls-15" d="M241.46,229.19l-7.29,2.43-.92,1.17-.78-.61-2.65.89c-.56.18-1.14.31-1.71.46.09.67.12,1.35.23,2,0,.22.08.44.14.66q2.36,8.72,4.8,17.42c.55,1.94,1.14,3.87,1.72,5.8.06.19.11.38.17.57h.28a11.08,11.08,0,0,1,1-1.43c1.19-1.24,2.44-2.44,3.64-3.67q3.47-3.57,6.89-7.16a5.55,5.55,0,0,0,.47-.66h0V245.6h0c-.14-.38-.29-.76-.4-1.15,0-.13-.06-.26-.1-.39L245,242.6l1.19-1.53L243,228.84C242.52,229,242,229,241.46,229.19Z"/><path class="cls-4" d="M304.54,250.23c-2.32,2.73-4.66,5.45-7,8.18l-6.87,8.12c.05.09.1.18.16.27.43,0,.87,0,1.3-.07,1.89-.23,3.77-.49,5.66-.72l5.26-.64c1.79-.23,3.58-.49,5.38-.73l3.7-.46V242.94a6.92,6.92,0,0,0-.56-.88C309.05,244.75,306.85,247.54,304.54,250.23Z"/><path class="cls-4" d="M335.08,191.8c-.62.75-1.08,1.37-1.58,1.94v6.5l1.95.55,5.22,1.53H341a8.09,8.09,0,0,0-.38-1c-1.16-2.11-2.35-4.19-3.49-6.3a18.77,18.77,0,0,1-2.36-5.17c-.26-1.32-.68-2.62-1-3.94a8,8,0,0,1-.1-1.17l7.58,3.93,1.14-.3c-.21-.74-.36-1.5-.63-2.22q-2.88-7.59-5.79-15.15c-.28-.74-.64-1.46-1-2.38-.43.6-.73,1-1,1.39l-.33.51c0,4.07-.05,9.53-.06,21Z"/><polygon class="cls-4" points="340.96 202.31 340.96 202.31 340.96 202.31 340.96 202.31"/><path class="cls-4" d="M340.82,237.13c-2.06.24-4.13.49-6.2.71l-1.12.12v11.61l.66-.45c2.3-1.61,4.59-3.25,6.89-4.88l9-6.34a2.26,2.26,0,0,1,.35-.17c.13,0,.26-.09.38-.15l.54-.28.29-.28,1.34-.82,0-.07a1.23,1.23,0,0,0,0-.27c-2.25.22-4.51.42-6.76.65C344.42,236.7,342.62,236.92,340.82,237.13Z"/><polygon class="cls-4" points="351.35 237.3 351.35 237.3 351.34 237.31 351.35 237.3"/><path class="cls-5" d="M384.69,185.37c-.7-.48-1.43-.92-2.09-1.45q-7.62-6.21-15.24-12.44a3.32,3.32,0,0,0-.71-.34h0a2.74,2.74,0,0,0,.34.71c3.18,3.66,6.37,7.3,9.56,11,1.81,2.08,3.62,4.17,5.45,6.24.25.3.44.56.24,1a5.62,5.62,0,0,1,.53.92c1.36,3.83,2.68,7.68,4,11.51.58,1.66,1.2,3.3,1.79,5a8.81,8.81,0,0,1,.2.92h.27l.28-.27c.22-1.25.4-2.51.66-3.75.12-.57.25-1.15.37-1.73a149.32,149.32,0,0,0-5.54-17l-.15-.17Z"/><path class="cls-4" d="M243.06,228.55c.07-.4.11-.81.2-1.21q1.34-5.39,2.65-10.76l-7.12,9.11c1,.69,1.9,1.4,2.87,2.06C242.1,228.06,242.59,228.28,243.06,228.55Z"/><path class="cls-21" d="M228.11,233.53c.57-.15,1.15-.28,1.71-.46l2.65-.89L226,227.13c.42,1.61.83,3.23,1.26,4.84C227.42,232.53,227.28,233.32,228.11,233.53Z"/><path class="cls-21" d="M243,228.84c0-.1,0-.19,0-.29-.47-.27-1-.49-1.4-.8-1-.66-1.91-1.37-2.87-2.06-1.3,1.68-2.82,3.62-4.62,5.93l7.29-2.43C242,229,242.52,229,243,228.84Z"/><path class="cls-4" d="M365.68,168.71c-.62.88-.56,1.15.35,1.87l.36.3,0,0,0,0h0l.26.26a3.32,3.32,0,0,1,.71.34q7.63,6.21,15.24,12.44c.66.53,1.39,1,2.09,1.45-.08-.24-.14-.48-.21-.73-.19-.45-.37-.91-.56-1.37q-5.18-10.26-10.38-20.51c-.5-.83-1-1.66-1.54-2.48a3.63,3.63,0,0,0-.78.66C369.36,163.52,367.52,166.12,365.68,168.71Z"/><polygon class="cls-4" points="366.65 171.14 366.65 171.14 366.66 171.15 366.65 171.14"/><polygon class="cls-17" points="245.56 228.82 245.56 228.82 245.55 228.81 245.56 228.82 245.56 228.82"/><path class="cls-17" d="M257.3,220.37c-1,.59-2,1.18-3,1.79-2.62,1.6-5.22,3.21-7.84,4.82-.5.31-1.06.58-.9,1.34l0,.5c.71,1.3,1.47,2.58,2.14,3.9l2,3.92,6.88-8.8,0-.22C256.81,225.21,257.05,222.78,257.3,220.37Z"/><path class="cls-3" d="M311.55,147.1q-4.35-4-8.74-7.95c-1.85-1.66-3.73-3.3-5.59-4.94a11.4,11.4,0,0,0,.55,1.65c1.9,3.68,3.83,7.34,5.76,11,1.55,2.94,3.12,5.86,4.66,8.8.4.76.7,1.57,1.05,2.36a4.93,4.93,0,0,0,2.38-.7l.53-.67h1.11l3.64-1.38h0l.56-.28h0l.28-.27.55-.27.56-.47c-.71-.69-1.41-1.38-2.13-2.06C315,150.32,313.29,148.69,311.55,147.1Z"/><path class="cls-5" d="M374.81,203.8,387.35,208a13.93,13.93,0,0,0,1.45.35,8.81,8.81,0,0,0-.2-.92c-.59-1.66-1.21-3.3-1.79-5-1.36-3.83-2.68-7.68-4-11.51a5.62,5.62,0,0,0-.53-.92q-4.94,6.27-9.89,12.53l.61.84A18.42,18.42,0,0,1,374.81,203.8Z"/><path class="cls-4" d="M360.64,183.58c.11,2.12.19,4.25.28,6.37,0,.13,0,.27,0,.41.17,2.43.34,4.86.53,7.29,0,.62.19,1.25.19,1.87s-.12,1.5-.19,2.24c.1.37.19.73.28,1.09H362l9.86,0c-.66-1.5-1.3-3-2-4.48-1.9-3.94-3.83-7.86-5.74-11.79-.3-.62-.53-1.26-.84-1.87-.86-1.7-1.75-3.39-2.63-5.08a3.23,3.23,0,0,0-.27,1C360.43,181.61,360.58,182.59,360.64,183.58Z"/><path class="cls-21" d="M293.65,299.54a7.7,7.7,0,0,0,.6.89c.44-1.83.92-3.65,1.31-5.49.59-2.74,1.11-5.48,1.69-8.21.06-.27.33-.5.5-.75,0-.1,0-.2,0-.3h0a4.19,4.19,0,0,1-.8-.15c-2.78-1.2-5.56-2.42-8.35-3.61-1.58-.68-3.17-1.31-4.76-2a11.14,11.14,0,0,0,.46,1.13Q289,290.32,293.65,299.54Z"/><path class="cls-21" d="M269.8,210.86l3.09-4a53.29,53.29,0,0,0-5.09,2.29Z"/><path class="cls-6" d="M342.69,245.5c1.89-1.76,3.76-3.55,5.64-5.31.63-.59,1.31-1.12,1.93-1.72a4.17,4.17,0,0,0,.55-.89h0c-.12.06-.25.1-.38.15a2.26,2.26,0,0,0-.35.17l-9,6.34c-2.3,1.63-4.59,3.27-6.89,4.88l-.66.45V254l4.9-4.57C339.83,248.14,341.27,246.83,342.69,245.5Z"/><path class="cls-20" d="M245.56,228.82h0c.09,1,.14,2.07.27,3.1.3,2.46.66,4.91,1,7.37,0,.31.06.61.1.91l2.77-3.55-2-3.92C247,231.4,246.27,230.12,245.56,228.82Z"/><path class="cls-20" d="M247.45,247.07h0l3.24-.21-3.37-2.53c0,.42.08.85.13,1.27Z"/><path class="cls-6" d="M334.35,205.58c1.71-.78,3.44-1.52,5.15-2.3.46-.21,1.08-.28,1.17-1l-5.22-1.53-1.95-.55c0,1.85,0,3.82,0,5.9h.36C334,205.94,334.14,205.68,334.35,205.58Z"/><path class="cls-4" d="M317.44,155h0l-.56.28a8.83,8.83,0,0,1-.81.68l-1.1.7h1.87c.36-.4.71-.81,1.06-1.21a2.85,2.85,0,0,0,.36-1l-.55.27Z"/><polygon class="cls-4" points="316.89 155.28 316.9 155.28 316.89 155.28 316.89 155.28"/><path class="cls-22" d="M112.65,250.16c2.65-4.42,5.26-8.87,7.91-13.3a15.79,15.79,0,0,1,1.15-1.47h0c.08-.19.17-.37.25-.56s0-.54.07-.76c4.87-3.2,9.68-6.38,14.52-9.53,1-.66,2.13-1.17,3.19-1.75l0-.21c0-.09,0-.18,0-.26a5.65,5.65,0,0,1-1-.67q-2.34-2.43-4.63-4.9a3.54,3.54,0,0,1-.43-.82.64.64,0,0,1-.2,0,1.93,1.93,0,0,1-.71.15c-3.31-.57-6.6-1.15-9.9-1.75l-13.08-2.42-2.17-.41c-3.46,2.18-6.89,4.44-10.4,6.69q-.68,4.47-1.06,9L111.84,251A4.83,4.83,0,0,0,112.65,250.16Z"/><path class="cls-22" d="M97.24,249.06c-.54-3.17-1.1-6.33-1.66-9.5,0,.28,0,.56,0,.84,0,4.37.2,8.69.57,13l1.52-.74C97.52,251.44,97.44,250.24,97.24,249.06Z"/><path class="cls-6" d="M139.34,200.65a2.69,2.69,0,0,0,.4,0c2.84-.81,5.67-1.63,8.52-2.43L157,195.8v-4.66c-1.39-1.71-2.79-3.41-4.18-5.13a5.55,5.55,0,0,1-.55-1.18c-1-.45-2-.88-2.94-1.37-3.16-1.6-6.3-3.24-9.46-4.86q-6.61-3.37-13.24-6.75c-1.74-.89-3.5-1.74-5.25-2.64-1-.51-2-1.1-3-1.6-.22-.11-.55,0-.83,0,.23,1.89.44,3.78.69,5.67.3,2.24.64,4.49,1,6.73.42,2.91.86,5.83,1.27,8.74.32,2.33.62,4.67.93,7,0,.08,0,.17,0,.25l.53.28c1.53.35,3.08.68,4.61,1.07C130.84,198.44,135.09,199.55,139.34,200.65Z"/><path class="cls-4" d="M152.31,184.81c1.58-.23,3.15-.48,4.72-.69V179c-1.28,1.45-2.59,2.88-3.85,4.34A9.28,9.28,0,0,0,152.31,184.81Z"/><path class="cls-4" d="M179.66,190.91l-1.27-1v1.32l.4-.09C179.08,191.09,179.37,191,179.66,190.91Z"/><path class="cls-5" d="M118.14,166.77v-.06c-.52-.44-.08-.83.1-1.2.75-1.55,1.54-3.09,2.3-4.63q2.63-5.34,5.23-10.68a150.38,150.38,0,0,0-11.13,17l2.69-.17Z"/><path class="cls-17" d="M118.59,195.47c1,.11,1.89.19,2.84.29-.31-2.34-.61-4.68-.93-7-.41-2.91-.85-5.83-1.27-8.74-.32-2.24-.66-4.49-1-6.73-.25-1.89-.46-3.78-.69-5.67h-.26c-1,2.39-2,4.77-3,7.17L107,192.67a5,5,0,0,1-.31.61l0,.8,6.74.76C115.1,195,116.84,195.27,118.59,195.47Z"/><path class="cls-5" d="M106.4,192.39a3.37,3.37,0,0,0,.24.89,5,5,0,0,0,.31-.61l7.38-17.9c1-2.4,2-4.78,3-7.17,0-.19,0-.37,0-.55l-2.69.17a149.77,149.77,0,0,0-7.74,16c-.09,2.3-.16,4.61-.26,6.91C106.61,190.87,106.44,191.63,106.4,192.39Z"/><path class="cls-13" d="M244.45,169.13c.25-1.51.53-3,.8-4.53-1.17.09-2.34.15-3.51.28-2.11.24-4.21.53-6.32.76-.54.05-1.08.05-1.63.05h-.54c0,.45,0,.89,0,1.34a3.45,3.45,0,0,1,.32.71q1.42,6,2.83,12c.69,3,1.39,5.95,2.08,8.92l3.56-4.56.6-3.77C243.2,176.62,243.83,172.88,244.45,169.13Z"/><path class="cls-5" d="M207.15,183.14l.12.09s0,0,0,0Z"/><path class="cls-6" d="M235.42,165.64c2.11-.23,4.21-.52,6.32-.76,1.17-.13,2.34-.19,3.51-.28l3.67,0,17.94,0a2,2,0,0,0,0-.25,15.86,15.86,0,0,1-1.41-.77l-10.27-7.39c-3.16-2.28-6.31-4.58-9.48-6.84-1.21-.86-2.46-1.67-3.7-2.49-.63,1.45-1.24,2.91-1.91,4.35q-3.41,7.26-6.83,14.52h.54C234.34,165.69,234.88,165.69,235.42,165.64Z"/><path class="cls-5" d="M118.24,165.51c-.18.37-.62.76-.1,1.2a7,7,0,0,1,.73-.59q3.27-2.07,6.56-4.11l17.39-10.88a2.74,2.74,0,0,0,.47-.49c-1.95-.35-3.9-.72-5.86-1.06-3.3-.57-6.6-1.12-9.9-1.67-.6.75-1.18,1.52-1.76,2.29q-2.61,5.34-5.23,10.68C119.78,162.42,119,164,118.24,165.51Z"/><path class="cls-5" d="M143.29,150.64c.78-.19.54-.84.54-1.33q0-8.51,0-17c-2.52,2.28-5,4.54-7.54,6.85-1.87,1.72-3.69,3.49-5.53,5.24-.23.21-.54.35-.76.57a7.81,7.81,0,0,1-.59.55c-.64.78-1.28,1.57-1.9,2.37,3.3.55,6.6,1.1,9.9,1.67C139.39,149.92,141.34,150.29,143.29,150.64Z"/><path class="cls-19" d="M157,300.71l-1.52.19-3.1.38-5.67.63c-2.07.24-4.13.51-6.21.73-1.17.13-2.34.19-3.52.28h-.25l0,.51h0c.41,1.48.85,2.95,1.22,4.43.63,2.51,1.21,5,1.81,7.54q1.84,7.59,3.68,15.19a9,9,0,0,1,.1,1c-1.08-1.28-2-2.32-2.87-3.39l-6.23-7.54c-.77-.93-1.58-1.84-2.37-2.77a4.78,4.78,0,0,0,.33,1c2.46,4.08,4.87,8.19,7.44,12.2a5.87,5.87,0,0,1,1,3.27c0,2.9.18,5.8.28,8.7.4.05.81.09,1.2.17l10.86,2.28,1-2.11c1.51-3.21,3.05-6.4,4.5-9.64a3.9,3.9,0,0,1,1.53-1.82c2.71-1.66,5.4-3.36,8.09-5,1.55-1,3.11-1.92,4.65-2.89H157Z"/><path class="cls-19" d="M195.49,314.89c3-.94,6.06-1.9,9.1-2.83,1.42-.44,2.87-.82,4.31-1.22,0-.19,0-.37,0-.55a3.15,3.15,0,0,1-.71-.36c-1.87-1.66-3.71-3.36-5.59-5-2.52-2.21-5.09-4.38-7.62-6.59-1.78-1.55-3.53-3.14-5.3-4.7-1.08-.95-2.17-1.89-3.38-2.94-.75.77-1.44,1.42-2.07,2.11-1.35,1.48-2.62,3-4,4.46a3.37,3.37,0,0,1-1.75.93h-.06v22.5l.79-.5a4.73,4.73,0,0,1,1.28-.34,5.18,5.18,0,0,1,1.11-.68C186.2,317.74,190.85,316.33,195.49,314.89Z"/><path class="cls-19" d="M229.85,342.11c-.23-2-.47-4-.72-6.05-.17-1.3-.38-2.59-.57-3.88-1.05-.27-2.11-.52-3.15-.82L210.22,327c-.39-.11-.77-.28-1.26-.45V311.1c-.69.73-1.19,1.22-1.63,1.75-3.29,4-6.56,8-9.85,12-1.16,1.4-2.34,2.78-3.52,4.16a3.33,3.33,0,0,1-.64.45,1.14,1.14,0,0,1-.15.23l-13.45,10.39c-1,.74-1.9,1.51-3,2.4,3.22,3.28,6.4,6.39,9.4,9.44.28,1.52-.13,2.9.31,4.28a13.13,13.13,0,0,0,1.67,0c1-.12,2.06-.33,3.09-.46l10.5-1.35a14.37,14.37,0,0,1,1.61,0c.42,2.08-.18,4-.22,5.84,0,.85-.13,1.71-.23,2.57-.24,2.34-.51,4.67-.76,7-.17,1.62-.38,3.24-.49,4.86a13.92,13.92,0,0,0,.19,2.12c.53-.13,1.07-.23,1.58-.41,1.8-.6,3.6-1.25,5.4-1.86q10.08-3.39,20.16-6.74a13.94,13.94,0,0,1,1.59-.3q0-9.42,0-18.84a2.64,2.64,0,0,0,0-.28C230.29,346.24,230.08,344.17,229.85,342.11Z"/><path class="cls-19" d="M123.88,318.81l-.81.22a10.63,10.63,0,0,1-.71,1.12c-.31.39-.71.71-1,1.09l-1.19,1.38c1,1.5,2,3,3,4.45.2-2.13.44-4.26.65-6.39C123.88,320.06,123.86,319.43,123.88,318.81Z"/><path class="cls-23" d="M140.87,334.43a5.87,5.87,0,0,0-1-3.27c-2.57-4-5-8.12-7.44-12.2a4.78,4.78,0,0,1-.33-1h0l-.27-.27h0l-.28-.28h0c-.1-.18-.19-.36-.28-.54l-.9-.78a14.36,14.36,0,0,1,.56-1.53c1.24-2.53,2.52-5.05,3.77-7.58.2-.41.65-.85.12-1.34-.63.71-1.26,1.42-1.87,2.15-1.69,2-3.39,4-5.06,6-1.35,1.65-2.67,3.32-4,5,0,.62,0,1.25-.06,1.87-.21,2.13-.45,4.26-.65,6.39a151.07,151.07,0,0,0,18,20.9c0-1.61,0-3.23,0-4.84C141.05,340.23,140.9,337.33,140.87,334.43Z"/><path class="cls-18" d="M197.48,324.83c3.29-4,6.56-8,9.85-12,.44-.53.94-1,1.63-1.75v15.44c.49.17.87.34,1.26.45l15.19,4.37c1,.3,2.1.55,3.15.82V307.61c-1.68.4-3.21.75-4.74,1.14-2.9.74-5.78,1.53-8.7,2.23a8.94,8.94,0,0,1-2.43.1c-1.27,0-2.53-.16-3.79-.24-1.44.4-2.89.78-4.31,1.22-3,.93-6.07,1.89-9.1,2.83-4.64,1.44-9.29,2.85-13.92,4.3a5.18,5.18,0,0,0-1.11.68c2.92,2.15,5.85,4.28,8.77,6.44,1.38,1,2.73,2.08,4.09,3.13A3.33,3.33,0,0,0,194,329C195.14,327.61,196.32,326.23,197.48,324.83Z"/><path class="cls-18" d="M381.81,243.37q-3.57,9.7-7.12,19.41c-.19.51-.33,1-.48,1.55.85-.57,1.72-1.13,2.56-1.73,1.39-1,2.76-2,4.42-3.21-.51,3.06-1,5.8-1.42,8.53,1.29-.55,2.59-1.07,3.86-1.67,2.43-1.13,4.83-2.32,7.25-3.46l2.84-1.31a151,151,0,0,0,1.46-18.67q-4.94.1-9.84.27C384.16,243.12,383,243.27,381.81,243.37Z"/><path class="cls-23" d="M146.74,301.91l5.67-.63,3.1-.38,1.52-.19V272c-.46-.29-.92-.6-1.39-.89a8.48,8.48,0,0,0-1.14-.5c0,1.74,0,3.28,0,4.81a23.55,23.55,0,0,0,.13,4.49,10.91,10.91,0,0,0-1.08,1q-4.14,5.4-8.25,10.82c-2.78,3.69-5.53,7.41-8.3,11.11,1.18-.09,2.35-.15,3.52-.28C142.61,302.42,144.67,302.15,146.74,301.91Z"/><path class="cls-23" d="M200.43,274.24l-.33-.27h0c-1.14-.45-2.29-.85-3.4-1.36-3.22-1.49-6.41-3-9.63-4.51q-4.33-2-8.68-4v15.48q2.55,3.53,5.08,7.06c.78,1.11,1.48,2.27,2.21,3.41l.39.32-.16.13-.26-.43a10.7,10.7,0,0,1-1.49-.58c-.71-.4-1.36-.9-2-1.34l-3.72-2.39v12.44h.06a3.37,3.37,0,0,0,1.75-.93c1.39-1.44,2.66-3,4-4.46.63-.69,1.32-1.34,2.07-2.11,1.21,1.05,2.3,2,3.38,2.94,1.77,1.56,3.52,3.15,5.3,4.7,2.53,2.21,5.1,4.38,7.62,6.59,1.88,1.64,3.72,3.34,5.59,5a3.15,3.15,0,0,0,.71.36q-2.13-9.07-4.25-18.16Z"/><path class="cls-15" d="M147.16,235.15a11.75,11.75,0,0,0-.79-.93c-.73,1.81-1.49,3.6-2.17,5.42q-4.32,11.54-8.61,23.09a1.11,1.11,0,0,1,0,.26l13.46,5.2,5.12,2c.34-.57.64-1,.89-1.49l2-3.8V249.57Z"/><path class="cls-7" d="M196.7,272.61c1.11.51,2.26.91,3.4,1.36h0c-1-1.54-2-3.11-3.09-4.64-2.22-3.21-4.46-6.41-6.69-9.61q-4.27-6.15-8.55-12.3a19.33,19.33,0,0,1-1-1.9h-.13l-.13,0-.31.17-.51.15-1.27.78v17.47q4.34,2,8.68,4C190.29,269.58,193.48,271.12,196.7,272.61Z"/><path class="cls-15" d="M140.68,328.26c.89,1.07,1.79,2.11,2.87,3.39a9,9,0,0,0-.1-1q-1.83-7.61-3.68-15.19c-.6-2.51-1.18-5-1.81-7.54-.37-1.48-.81-2.95-1.23-4.42l-1.92,2.19c.53.49.08.93-.12,1.34-1.25,2.53-2.53,5-3.77,7.58a14.36,14.36,0,0,0-.56,1.53l.9.78c.09.18.18.36.28.54h0l.28.28h0l.27.27h0c.79.93,1.6,1.84,2.37,2.77Z"/><path class="cls-17" d="M97.66,252.63l-1.52.74c.09,1.12.2,2.24.32,3.36.07-.2.15-.39.21-.59C97.06,255,97.34,253.8,97.66,252.63Z"/><path class="cls-5" d="M111.84,251.2l-12.5,1.14a23.74,23.74,0,0,0,3.72,1l13.18,2.61Z"/><path class="cls-4" d="M119.11,246.64c-.77,3.16-1.53,6.33-2.3,9.55.3.13.53.25.78.34q7.5,2.69,15,5.35c1,.34,2,.57,3,.85q4.31-11.55,8.61-23.09c.68-1.82,1.44-3.61,2.17-5.42l0-.1c0-.11-.05-.22-.08-.33-1.3-2.18-2.61-4.36-3.9-6.54l-2.62-4.46c-1.06.58-2.17,1.09-3.19,1.75-4.84,3.15-9.65,6.33-14.52,9.53,0,.22,0,.49-.07.76s-.17.37-.25.56h0a5.88,5.88,0,0,1-.09,1Q120.38,241.49,119.11,246.64Z"/><path class="cls-11" d="M383.63,266.25c-1.27.6-2.57,1.12-3.86,1.67l-.26,0c-1.24,1.19-2.45,2.42-3.74,3.56-2.68,2.37-5.4,4.71-8.11,7.05-1,.89-2.11,1.72-3.11,2.64a7.26,7.26,0,0,0-2.17,2.4q-3.53,8.49-7.13,17c-.4,1-.85,1.89-1.35,3-3.45-2-6.69-4.06-10-6.08s-6.54-4-9.82-6l-.2.2a7,7,0,0,0,.43.92c.72,1.05,1.46,2.08,2.19,3.13,3,4.34,6,8.68,9,13,.65.92,1.38,1.78,2.07,2.66h0a1.29,1.29,0,0,0,.46-.26c1.12-1.37,2.22-2.76,3.33-4.13l2.59-3.16c1.42,4.76,2.4,9.35,3.82,13.79,1.16-.29,22.45-13.12,23.46-14.11-.47,0-.87-.07-1.26-.06-5.58.14-11.18-.22-16.77.23-2.71.22-5.46,0-8.19,0a2.88,2.88,0,0,1-.53-.15c.4-.18.63-.31.87-.39,1.37-.47,2.75-.92,4.13-1.38,2.84-.95,5.69-1.89,8.54-2.87,3.91-1.34,7.81-2.71,11.72-4.06.47-.17,1-.34,1.39.11.74,1.31,1.46,2.63,2.22,3.92a148.62,148.62,0,0,0,10.37-37.43l-2.84,1.31C388.46,263.93,386.06,265.12,383.63,266.25Z"/><path class="cls-18" d="M270.52,332.8l5.76.74,4.3.54c-2.15-1.51-4.29-3-6.44-4.54-3.79-2.64-7.6-5.26-11.39-7.89-.19-.13-.35-.29-.52-.43l-.29,0c.38,3.27.75,6.54,1.13,9.81a.49.49,0,0,1,0,.82l0,0a2,2,0,0,1,0,.23l0,0,1.35.24a3.64,3.64,0,0,1,1.14-.24C267.21,332.36,268.86,332.59,270.52,332.8Z"/><path class="cls-19" d="M284.05,339.65q-1.64-2.81-3.29-5.59l-.18,0-4.3-.54-5.76-.74c-1.66-.21-3.31-.44-5-.6a3.64,3.64,0,0,0-1.14.24l3.4,1.37c4.45,1.83,8.89,3.68,13.35,5.49,1,.42,2.13.72,3.2,1.08h0v0A5.32,5.32,0,0,0,284.05,339.65Z"/><path class="cls-18" d="M262.74,332.4l0,0,.3-.24,0,0Z"/><path class="cls-18" d="M226.69,384.63c1.14-1,2.29-2,3.42-3,.69-.62,1.36-1.28,2-1.92-.23-1.89-.44-3.78-.67-5.67-.22-1.7-.47-3.4-.67-5.11,0-.2.13-.42.2-.62-.16-.3-.33-.59-.49-.88q-1.89,8.07-3.77,16.13A6.4,6.4,0,0,0,226.69,384.63Z"/><path class="cls-19" d="M231.48,374c.23,1.89.44,3.78.67,5.67l.29.1,2.57-.11-4-11.39c-.07.2-.23.42-.2.62C231,370.63,231.26,372.33,231.48,374Z"/><path class="cls-16" d="M263.05,331.93c-2.82,0-5.66-.14-8.47,0-1.64.11-3.25-.07-4.87-.05l-19,.27H229c-.21-2.79-.08-5.46-.1-8.12s0-5.47,0-8.2v-8.06c0-.26,0-.51,0-.76a9.55,9.55,0,0,1-.61-1.19q-5.87-17.55-11.71-35.1c-.12-.38-.17-.79-.26-1.19l-.27,0h-.32c-2.55.8-5.1,1.61-7.66,2.4q-2.59.81-5.21,1.57c-.52.16-1.05.27-1.58.4l-.82.31,4.2,17.89q2.12,9.08,4.25,18.16c0,.18,0,.36,0,.55,1.26.08,2.52.2,3.79.24a8.94,8.94,0,0,0,2.43-.1c2.92-.7,5.8-1.49,8.7-2.23,1.53-.39,3.06-.74,4.74-1.14v24.57c.19,1.29.4,2.58.57,3.88.25,2,.49,4,.72,6.05s.44,4.13.65,6.2c.55-.23,1.1-.42,1.63-.68q14.43-7.28,28.84-14.55a18,18,0,0,1,1.77-.68l.29-.24A2,2,0,0,0,263.05,331.93Z"/><path class="cls-13" d="M352.48,243.5c0,.14,0,.27,0,.41-.1,2.85-.16,5.7-.3,8.55-.11,2.3-.33,4.6-.5,6.9,0,.13,0,.27,0,.41-.1,2.26-.21,4.51-.31,6.78.31,0,.63,0,.95,0l10.84-.87,10.84-.87,0-.18q-2.22-3-4.43-6-7-9.57-13.93-19.17c-.77-1.07-1.51-2.16-2.26-3.24l-.31-.07,0,.07C352.81,238.64,352.65,241.07,352.48,243.5Z"/><path class="cls-21" d="M351.66,259.36c.17-2.3.39-4.6.5-6.9.14-2.85.2-5.7.3-8.55,0-.14,0-.27,0-.41.17-2.43.33-4.86.5-7.3l-1.34.82-.29.28h0l-.54.28h0a4.17,4.17,0,0,1-.55.89c-.62.6-1.3,1.13-1.93,1.72-1.88,1.76-3.75,3.55-5.64,5.31-1.42,1.33-2.86,2.64-4.29,4L333.5,254v2c3.15,1.84,6.3,3.67,9.45,5.52,2.31,1.35,4.6,2.72,6.91,4.08.25.15.65.24.34.68l1.13.18c.1-2.27.21-4.52.31-6.78C351.64,259.63,351.65,259.49,351.66,259.36Z"/><path class="cls-13" d="M349.86,265.69c-2.31-1.36-4.6-2.73-6.91-4.08-3.15-1.85-6.3-3.68-9.45-5.52v6.85l5,1,11.69,2.42C350.51,265.93,350.11,265.84,349.86,265.69Z"/><path class="cls-12" d="M374,264.83l5.55,3.11.26,0c.46-2.73.91-5.47,1.42-8.53-1.66,1.21-3,2.22-4.42,3.21-.84.6-1.71,1.16-2.56,1.73l-.28.32Z"/><path class="cls-23" d="M279.76,300.15l-2.24-.19-.53,0c.11,1.26.2,2.53.34,3.79s.32,2.33.46,3.49c.28,2.34.55,4.67.8,7,.21,2,.37,4.06.59,6.08s.52,4,.75,6.06.4,4,.61,5.94a11.4,11.4,0,0,0,.25,1.16,4.65,4.65,0,0,0,.34-.56c1.23-2.93,2.47-5.86,3.67-8.81,2.73-6.68,5.43-13.38,8.17-20.06a1.86,1.86,0,0,1,.19-.33c.22-.31.52-.59.77-.9h0c0-.15,0-.3,0-.45l0-.85.26-.6a.22.22,0,0,0,0-.14Z"/><path class="cls-13" d="M295.56,294.94c-.39,1.84-.87,3.66-1.31,5.49,0,.13,0,.26-.05.39a.22.22,0,0,1,0,.14c.33.24.68.45,1,.71l7.16,6.29,9.64,8.4a7.91,7.91,0,0,0-.35-1.29q-3.9-8.22-7.81-16.4c-1.87-3.9-3.78-7.79-5.67-11.68-.15-.32-.27-.67-.41-1-.17.25-.44.48-.5.75C296.67,289.46,296.15,292.2,295.56,294.94Z"/><path class="cls-18" d="M294,301.56l0,.85C294.21,302.14,294.29,301.86,294,301.56Z"/><path class="cls-7" d="M279.93,326.42c-.23-2-.52-4-.75-6.06s-.38-4.05-.59-6.08c-.25-2.34-.52-4.67-.8-7-.14-1.16-.33-2.32-.46-3.49s-.23-2.53-.34-3.79l-14.25-8.9c-.12.38-.19.54-.23.7q-1.77,7.83-3.54,15.67c-.75,3.3-1.47,6.62-2.2,9.93,1.29-1.06,2.6-2.11,3.86-3.2q5.4-4.69,10.78-9.42c1.06-.93,2.09-1.9,3.15-2.83.31-.27.67-.49,1-.73l.23.2a2.49,2.49,0,0,1-.21.56q-5.24,7.48-10.5,14.95c-.86,1.23-1.74,2.45-2.6,3.68a3.09,3.09,0,0,0-.25.62c.17.14.33.3.52.43,3.79,2.63,7.6,5.25,11.39,7.89,2.15,1.5,4.29,3,6.44,4.54l.18,0,0-.54a11.4,11.4,0,0,1-.25-1.16C280.33,330.38,280.15,328.39,279.93,326.42Zm-3.78-25.49-.1-.09.21-.23.1.09Z"/><path class="cls-7" d="M257.25,318.1l0,0c-.16-.2-.3-.44-.46-.65l-.55,0c-1.33-.4-2.69-.75-4-1.22-3.51-1.26-7-2.56-10.5-3.84q-5.62-2.07-11.27-4.11a15.69,15.69,0,0,0-1.57-.41v8.06c0,2.73,0,5.47,0,8.2s-.11,5.33.1,8.12h1.78l19-.27c1.62,0,3.23.16,4.87.05,2.81-.18,5.65-.05,8.47,0l0,0v-.82c-.38-3.27-.75-6.54-1.13-9.81-1.5-1-3-2-4.49-3A1.19,1.19,0,0,1,257.25,318.1Z"/><path class="cls-23" d="M238.18,287.87a.52.52,0,0,1,0-.25c-.35-2.93-.71-5.86-1-8.79-.23-1.94-.41-3.88-.63-5.82-.33-2.84-.68-5.68-1-8.52-.16-1.35-.25-2.71-.37-4.06l0-.1a4.39,4.39,0,0,0-1,.22q-8.7,4.32-17.38,8.69a2.18,2.18,0,0,0-.42.33c.09.4.14.81.26,1.19q5.85,17.55,11.71,35.1a9.55,9.55,0,0,0,.61,1.19q4.22-8.83,8.44-17.66C237.56,288.86,237.89,288.37,238.18,287.87Z"/><path class="cls-15" d="M235.12,260.33l0,.1c.54,1.1,1.12,2.18,1.61,3.29q4.08,9.16,8.11,18.34l1.5,3.37a6.87,6.87,0,0,0,.89-.59c1.77-1.56,3.53-3.14,5.3-4.69q5.21-4.59,10.42-9.15c2.69-2.38,5.34-4.78,8-7.15.78-.68,1.61-1.3,2.42-2,0-.1,0-.21-.07-.31l-8.14-.38c-.22,0-.45,0-.68-.06-3.67-.1-7.35-.18-11-.32-2.95-.12-5.89-.32-8.83-.48-.27,0-.55,0-.82,0l-8.43-.33h-.28C235.16,260.1,235.14,260.22,235.12,260.33Z"/><path class="cls-15" d="M241.7,312.33c3.5,1.28,7,2.58,10.5,3.84,1.32.47,2.68.82,4,1.22a5.48,5.48,0,0,0-.33-.88c-2.08-3.41-4.18-6.82-6.27-10.23q-4.31-7-8.61-14.09c-.9-1.46-1.88-2.88-2.82-4.32-.29.5-.62,1-.87,1.52q-4.23,8.82-8.44,17.66c0,.25,0,.5,0,.76a15.69,15.69,0,0,1,1.57.41Q236.08,310.26,241.7,312.33Z"/><path class="cls-15" d="M236.52,273c.22,1.94.4,3.88.63,5.82.34,2.93.7,5.86,1,8.79,2.36-.56,4.73-1.11,7.09-1.69a6.67,6.67,0,0,0,1.09-.5l-1.5-3.37q-4-9.17-8.11-18.34c-.49-1.11-1.07-2.19-1.61-3.29.12,1.35.21,2.71.37,4.06C235.84,267.33,236.19,270.17,236.52,273Z"/><path class="cls-15" d="M214.84,263.17c-.75-3.81-1.55-7.6-2.31-11.41a5.55,5.55,0,0,1-.05-1.08c.05-.27,0-.63.16-.81,1.15-1.3,2.33-2.55,3.51-3.81,2.83-3,5.67-6,8.48-9.06.92-1,1.78-2,2.83-3.25l-12.72-1.21-7.33,6.63a13,13,0,0,1-.14-1.5c.16-3.21.34-6.43.52-9.64a2.53,2.53,0,0,0,0-.28c.1-2.81.18-5.62.29-8.43.06-1.27.17-2.53.25-3.8l-.26-.09c-2.91,1-5.8,2-8.71,3-4.63,1.59-9.26,3.15-13.89,4.73-.38,1.53-.81,3.06-1.14,4.61q-1.74,8.1-3.43,16.22a14.57,14.57,0,0,0-.17,1.48,19.33,19.33,0,0,0,1,1.9q4.26,6.17,8.55,12.3c2.23,3.2,4.47,6.4,6.69,9.61,1.05,1.53,2.06,3.1,3.09,4.64l.33.27.82-.31c-.17-.12-.46-.23-.48-.38-.2-1.11-.38-2.23-.5-3.35-.09-.93-.06-1.88-.1-2.81-.09-2.12-.19-4.23-.29-6.35-.08-1.62-.17-3.24-.26-4.86h0l-.09-.05.1,0v0c.69.49,1.41.93,2,1.47,1.89,1.55,3.74,3.13,5.62,4.7,2.36,2,4.74,3.9,7.09,5.87a16.69,16.69,0,0,1,1.32,1.34H216C215.63,267.42,215.26,265.29,214.84,263.17Z"/><path class="cls-21" d="M146.87,233.53a2.89,2.89,0,0,1-.62.26c0,.11.05.22.08.33,3.15.34,6.29.67,9.43,1l1.27.16v-9.69l-2.64,2.06Q150.64,230.61,146.87,233.53Z"/><path class="cls-21" d="M179.66,245.86l.51-.15.31-.17.13,0h.13a14.57,14.57,0,0,1,.17-1.48q1.69-8.11,3.43-16.22c.33-1.55.76-3.08,1.14-4.61a7.68,7.68,0,0,1-.36-1.12c-.44-2.9-.88-5.81-1.29-8.71s-.82-6.09-1.23-9.14a18.84,18.84,0,0,0-1.91-1.24c-.75-.37-1.53-.69-2.3-1v43.13l.21.05C179,245.29,179.5,245.33,179.66,245.86Z"/><path class="cls-20" d="M215,231.49c0,.06-.14.09-.38.24-2-5.44-4-10.84-6-16.25l-.34,0c-.08,1.27-.19,2.53-.25,3.8-.11,2.81-.19,5.62-.29,8.43a2.53,2.53,0,0,1,0,.28c-.18,3.21-.36,6.43-.52,9.64a13,13,0,0,0,.14,1.5l7.33-6.63,12.72,1.21c-1.05,1.22-1.91,2.26-2.83,3.25-2.81,3-5.65,6-8.48,9.06-1.18,1.26-2.36,2.51-3.51,3.81-.15.18-.11.54-.16.81l10.34,4.24L235.17,260c-.06-.19-.11-.38-.17-.57-.58-1.93-1.17-3.86-1.72-5.8q-2.43-8.72-4.8-17.42c-.06-.22-.1-.44-.14-.66-.11-.66-.14-1.34-.23-2-.83-.21-.69-1-.84-1.56-.43-1.61-.84-3.23-1.26-4.84l-6.79-5.3-.5,1.19C217.5,225.85,216.26,228.66,215,231.49Z"/><path class="cls-6" d="M157,218.05V199.24L156,200.69q-5,6.72-10,13.42c-2.07,2.75-4.18,5.47-6.27,8.21,0,.08,0,.17,0,.26l16.35-4.29Z"/><path class="cls-4" d="M146,214.11q5-6.69,10-13.42l1.05-1.45V195.8l-8.77,2.45c-2.85.8-5.68,1.62-8.52,2.43-.23.73-.43,1.47-.72,2.18q-2.66,6.54-5.34,13.07a3.54,3.54,0,0,0,.43.82q2.29,2.48,4.63,4.9a5.65,5.65,0,0,0,1,.67C141.81,219.58,143.92,216.86,146,214.11Z"/><path class="cls-6" d="M208.08,215.43a11,11,0,0,0-1.27-.77c-3.23-1.45-6.46-2.87-9.7-4.3q-6.6-2.91-13.22-5.79a7.87,7.87,0,0,0-1.29-.33c.41,3,.8,6.09,1.23,9.14s.85,5.81,1.29,8.71a7.68,7.68,0,0,0,.36,1.12c4.63-1.58,9.26-3.14,13.89-4.73C202.28,217.48,205.17,216.45,208.08,215.43Z"/><path class="cls-6" d="M207.71,214a4,4,0,0,0,.82.57c.07-.33.13-.65.2-1l-2.9-2.27.08.11C206.49,212.34,207.08,213.2,207.71,214Z"/><path class="cls-15" d="M214.64,231.73c.24-.15.35-.18.38-.24,1.24-2.83,2.48-5.64,3.7-8.47l.5-1.19-8.41-6.58-2.13.23C210.66,220.89,212.64,226.29,214.64,231.73Z"/><path class="cls-16" d="M247,247.73q-3.43,3.59-6.89,7.16c-1.2,1.23-2.45,2.43-3.64,3.67a11.08,11.08,0,0,0-1,1.43l8.43.33c.27,0,.55,0,.82,0,2.94.16,5.88.36,8.83.48,3.67.14,7.35.22,11,.32.23,0,.46.05.68.06l8.14.38a11.26,11.26,0,0,0-1.05-1l-7-5.52c-.45.58-.89,1.15-1.36,1.74l-13.27-9.93-3.24.21A5.55,5.55,0,0,1,247,247.73Z"/><path class="cls-15" d="M394.16,222.71l-5.83-.48h-.27l-.64.05c-3.32,1.45-6.64,2.91-10,4.35-1.38.59-2.77,1.13-4.16,1.69l-.57.26c-.19.17-.37.35-.58.55,1.54,2.24,3,4.4,4.53,6.58,1.66,2.44,3.31,4.9,5,7.35l.17.31c1.17-.1,2.35-.25,3.53-.29q4.91-.17,9.84-.27c0-.8,0-1.6,0-2.41A151.82,151.82,0,0,0,394.16,222.71Z"/><path class="cls-5" d="M389.35,208.32h-.55a13.93,13.93,0,0,1-1.45-.35l-12.54-4.17a18.42,18.42,0,0,0-1.85-.42l-.84.65v5.24q0,8.82,0,17.63c0,.62-.16,1.32.59,1.68l.57-.26c0-.15-.16-.35-.1-.46a3.44,3.44,0,0,1,.54-.77c2.71-2.81,5.41-5.61,8.13-8.4a16.23,16.23,0,0,1,1.54-1.19,20.35,20.35,0,0,0,4,4.78l.64-.05c1.55-.84,3.09-1.71,4.66-2.52l1-.51q-.76-5.41-1.92-10.69c-.38,0-.76.06-1.15.07A5.47,5.47,0,0,1,389.35,208.32Z"/><path class="cls-5" d="M374.48,241.39q-7.39-1.87-14.8-3.72c-2.11-.53-4.24-1-6.37-1.47.75,1.08,1.49,2.17,2.26,3.24q7,9.59,13.93,19.17,2.21,3,4.43,6l.28-.32c.15-.51.29-1,.48-1.55q3.56-9.7,7.12-19.41l-.17-.31a14.25,14.25,0,0,1-1.48-.22C378.26,242.37,376.38,241.87,374.48,241.39Z"/><path class="cls-6" d="M389.35,208.05h0c.95,0,1.49-.68,2.08-1.22q-.49-2.15-1.05-4.26c-.12.58-.25,1.16-.37,1.73C389.75,205.54,389.57,206.8,389.35,208.05Z"/><path class="cls-6" d="M360.23,199.52c-2-4.24-3.9-8.49-5.85-12.73a4.38,4.38,0,0,0-.4-.62,49.58,49.58,0,0,0,.16,5.74c.14,1.8.35,3.59.48,5.39s.17,3.53.31,5.28c.07,1,.25,2,.4,3.26a58.82,58.82,0,0,0,6.42-3c-.09-.36-.18-.72-.28-1.09C361.06,201,360.59,200.29,360.23,199.52Z"/><path class="cls-4" d="M341.05,202.36l-.09-.05h0Z"/><path class="cls-6" d="M389.35,208.05h0l-.28.27h.28Z"/><path class="cls-17" d="M109.79,211.88l13.08,2.42c3.3.6,6.59,1.18,9.9,1.75a1.93,1.93,0,0,0,.71-.15q-5.22-8.79-10.41-17.59c-.4-.66-.74-1.35-1.1-2l-.53-.28-12,1.94-3-3.86c-.58-1.72-1.17-3.43-1.75-5.15q-1.08,3-2,6l2.17-.47a5.41,5.41,0,0,1,.89,0l-3.93,3.32-.78,2.71q3.06,5.19,6.13,10.38c-.06.09-.12.17-.17.26q-4-1.38-7.89-2.78c-.71,3.24-1.32,6.53-1.81,9.84,3.51-2.25,6.94-4.51,10.4-6.69Z"/><path class="cls-17" d="M146.25,233.79a2.89,2.89,0,0,0,.62-.26q3.78-2.92,7.52-5.85l2.64-2.06v-7.57l-.92.24-16.35,4.29,0,.21,2.62,4.46C143.64,229.43,145,231.61,146.25,233.79Z"/><path class="cls-5" d="M107.09,210.84Q104,205.65,101,200.46c-.71,2.59-1.36,5.21-1.93,7.86q3.93,1.4,7.89,2.78C107,211,107,210.93,107.09,210.84Z"/><path class="cls-5" d="M104.78,194.44l-2.17.47c-.3.94-.58,1.89-.87,2.84l3.93-3.32A5.41,5.41,0,0,0,104.78,194.44Z"/><path class="cls-5" d="M139.74,200.68a2.69,2.69,0,0,1-.4,0c-4.25-1.1-8.5-2.21-12.76-3.29-1.53-.39-3.08-.72-4.61-1.07.36.67.7,1.36,1.1,2q5.19,8.81,10.41,17.59a.64.64,0,0,0,.2,0q2.67-6.52,5.34-13.07C139.31,202.15,139.51,201.41,139.74,200.68Z"/><path class="cls-3" d="M106.61,194.08l0-.8a3.37,3.37,0,0,1-.24-.89c0-.76.21-1.52.24-2.29.1-2.3.17-4.61.26-6.91-.79,1.9-1.55,3.81-2.25,5.75.58,1.72,1.17,3.43,1.75,5.15Z"/><path class="cls-21" d="M118.59,195.47c-1.75-.2-3.49-.43-5.24-.63l-6.74-.76h-.21l3,3.86,12-1.94c0-.08,0-.17,0-.25C120.48,195.66,119.54,195.58,118.59,195.47Z"/><path class="cls-15" d="M185.91,290.51l.16-.13-.39-.32,0,0Z"/><path class="cls-5" d="M146.33,234.12l0,.1a11.75,11.75,0,0,1,.79.93L157,249.57V235.31l-1.27-.16C152.62,234.79,149.48,234.46,146.33,234.12Z"/><path class="cls-17" d="M178.6,245.18l-.21-.05v1.51l1.27-.78C179.5,245.33,179,245.29,178.6,245.18Z"/><path class="cls-15" d="M265.08,316.92q5.25-7.47,10.5-14.95a2.49,2.49,0,0,0,.21-.56l-.23-.2c-.33.24-.69.46-1,.73-1.06.93-2.09,1.9-3.15,2.83q-5.39,4.71-10.78,9.42c-1.26,1.09-2.57,2.14-3.86,3.2l0,0h0c.16.21.3.45.46.65l0,0a1.19,1.19,0,0,0,.2.19c1.48,1,3,2,4.49,3l.29,0a3.09,3.09,0,0,1,.25-.62C263.34,319.37,264.22,318.15,265.08,316.92Z"/><path class="cls-16" d="M263.07,331.07v.82A.49.49,0,0,0,263.07,331.07Z"/><path class="cls-7" d="M212.48,250.68a5.55,5.55,0,0,0,.05,1.08c.76,3.81,1.56,7.6,2.31,11.41.42,2.12.79,4.25,1.18,6.38h0l.27,0a2.18,2.18,0,0,1,.42-.33q8.68-4.37,17.38-8.69a4.39,4.39,0,0,1,1-.22c0-.11,0-.23,0-.34h0l-12.35-5.07Z"/><path class="cls-7" d="M199.61,256.17h0v0Z"/><path class="cls-7" d="M214.38,268.22c-2.35-2-4.73-3.91-7.09-5.87-1.88-1.57-3.73-3.15-5.62-4.7-.64-.54-1.36-1-2-1.47.09,1.62.18,3.24.26,4.86.1,2.12.2,4.23.29,6.35,0,.93,0,1.88.1,2.81.12,1.12.3,2.24.5,3.35,0,.15.31.26.48.38.53-.13,1.06-.24,1.58-.4q2.61-.76,5.21-1.57c2.56-.79,5.11-1.6,7.66-2.4A16.69,16.69,0,0,0,214.38,268.22Z"/><path class="cls-15" d="M276.05,300.84l.1.09.21-.23-.1-.09Z"/><path class="cls-7" d="M199.52,256.12l.09.05h0Z"/><path class="cls-7" d="M388.06,222.23h.27l5.83.48q-.21-1.77-.45-3.51l-1,.51C391.15,220.52,389.61,221.39,388.06,222.23Z"/><path class="cls-5" d="M383.4,217.5a16.23,16.23,0,0,0-1.54,1.19c-2.72,2.79-5.42,5.59-8.13,8.4a3.44,3.44,0,0,0-.54.77c-.06.11.06.31.1.46,1.39-.56,2.78-1.1,4.16-1.69,3.33-1.44,6.65-2.9,10-4.35A20.35,20.35,0,0,1,383.4,217.5Z"/><path class="cls-5" d="M389.35,208.32a5.47,5.47,0,0,0,1.29.26c.39,0,.77,0,1.15-.07l-.36-1.68c-.59.54-1.13,1.25-2.08,1.22Z"/><path class="cls-24" d="M178.39,285.77V189.92l1.27,1,26.17,20.45,2.9,2.27,2.08,1.62,8.41,6.58,6.79,5.3,6.46,5.05.78.61.92-1.17c1.8-2.31,3.32-4.25,4.62-5.93l7.12-9.11,3.34-4.27,2.34-3,9.25-11.85,14.59-18.67-29.27,0L242,184.14l-3.56,4.56-5.51,7.05-3.65,4.68-1-.81-20.51-16-.47-.37-.12-.09-13.69-10.69-3.55-2.78L176.21,159l-1.78-1.39-1.06-.83H157V324.08h21.36V285.77Z"/><path class="cls-24" d="M333.5,256.09V238c0-13,0-23.44,0-31.82,0-2.08,0-4,0-5.9v-8.73c0-11.48,0-16.94.06-21,0-4.31.09-7.06.19-13.75l-16.9-.08h-4.7l-.53.67L290,185l-3.26,4.17L272.89,206.9l-3.09,4-5.32,6.81-8,10.17-6.88,8.8-2.77,3.55-.69.88L245,242.6l1.95,1.46.37.27h0l3.37,2.53h0L264,256.79c.47-.59.91-1.16,1.36-1.74,2.91-3.72,5.55-7.11,8-10.19l38.86-49.75v129H333.5V256.09Z"/><path class="cls-25" d="M476.18,295.54a13.83,13.83,0,1,0,0,27.65,16.66,16.66,0,0,0,11.3-4.87l4.7,5.23a23.76,23.76,0,0,1-16.42,7.14c-12.25,0-21.7-9.22-21.7-21.24s9.57-21,22-21a23.16,23.16,0,0,1,16.06,6.66L487.48,301A15.63,15.63,0,0,0,476.18,295.54Z"/><path class="cls-25" d="M524.77,330.33,517.57,318a11.73,11.73,0,0,1-1.48.06h-9.4v12.25h-8V288.7h17.37c10.76,0,16.89,5.17,16.89,14.33,0,6.54-2.92,11.24-8.27,13.5l9.16,13.8Zm-18.08-19.27h9.4c5.94,0,9.27-2.56,9.27-7.79s-3.33-7.61-9.27-7.61h-9.4Z"/><path class="cls-25" d="M572.23,288.7v7H549.69V306h20.22v6.95H549.69v10.47h23.25v7H541.72V288.7Z"/><path class="cls-25" d="M608.15,321.53H587.81l-3.69,8.8h-8.26l18.25-41.63h8.27l18,41.63h-8.56Zm-2.86-6.84L598,297.2l-7.38,17.49Z"/><path class="cls-25" d="M650.55,288.7v7.08h-13v34.55h-8V295.78h-13V288.7Z"/><path class="cls-25" d="M664.17,288.7v41.63h-8V288.7Z"/><path class="cls-25" d="M678,288.7l12.25,32.77,12.37-32.77h8.21l-16.65,41.63h-8.27L669.41,288.7Z"/><path class="cls-25" d="M746.6,288.7v7H724.06V306h20.22v6.95H724.06v10.47h23.25v7H716.09V288.7Z"/><path class="cls-25" d="M786.92,295.6c-3.74,0-6.18,1.37-6.18,3.92,0,8.45,22.36,3.87,22.3,18.8,0,7.79-6.78,12.31-15.94,12.31A27.05,27.05,0,0,1,769.5,324l3.33-6.72c4.28,3.8,9.93,6.12,14.39,6.12s7.14-1.66,7.14-4.58c0-8.68-22.36-3.75-22.36-18.55,0-7.26,6.24-11.9,15.58-11.9a28.36,28.36,0,0,1,15,4.4l-3.21,6.9C795,297,790.13,295.6,786.92,295.6Z"/><path class="cls-25" d="M841.1,288.7v7H818.56V306h20.22v6.95H818.56v10.47h23.26v7H810.59V288.7Z"/><path class="cls-25" d="M876,330.33,868.76,318a12,12,0,0,1-1.49.06h-9.4v12.25h-8V288.7h17.37c10.76,0,16.89,5.17,16.89,14.33,0,6.54-2.91,11.24-8.27,13.5l9.16,13.8Zm-18.08-19.27h9.4c6,0,9.28-2.56,9.28-7.79s-3.33-7.61-9.28-7.61h-9.4Z"/><path class="cls-25" d="M896,288.7l12.25,32.77,12.37-32.77h8.2l-16.65,41.63h-8.26L887.43,288.7Z"/><path class="cls-25" d="M942.09,288.7v41.63h-8V288.7Z"/><path class="cls-25" d="M971.17,295.54a13.83,13.83,0,1,0,0,27.65,16.68,16.68,0,0,0,11.3-4.87l4.7,5.23a23.78,23.78,0,0,1-16.42,7.14c-12.25,0-21.71-9.22-21.71-21.24s9.58-21,22-21a23.16,23.16,0,0,1,16.06,6.66L982.47,301A15.65,15.65,0,0,0,971.17,295.54Z"/><path class="cls-25" d="M1024.22,288.7v7h-22.54V306h20.22v6.95h-20.22v10.47h23.25v7H993.71V288.7Z"/><path class="cls-25" d="M1046.7,295.6c-3.75,0-6.19,1.37-6.19,3.92,0,8.45,22.36,3.87,22.3,18.8,0,7.79-6.78,12.31-15.93,12.31a27.06,27.06,0,0,1-17.61-6.66l3.33-6.72c4.29,3.8,9.94,6.12,14.39,6.12s7.14-1.66,7.14-4.58c0-8.68-22.36-3.75-22.36-18.55,0-7.26,6.24-11.9,15.58-11.9a28.42,28.42,0,0,1,15.05,4.4l-3.21,6.9C1054.73,297,1049.91,295.6,1046.7,295.6Z"/><g id="TEXT"><g id="Mozzaika"><g id="A"><path class="cls-25" d="M1027.6,274c-16.6,0-30.94-8.09-38.64-19.27-24.84-36.24,4.53-84.39,48.43-75,11.87,2.68,19.24,8,26.52,16.73l0-14.89h11.38v90.59h-11.41V256.54c-9.4,11-21.47,17.47-36.31,17.47m-30.86-66.39a52.86,52.86,0,0,0-4.86,14c-3,15.84,8.3,35.86,29,39.89,30.58,6.12,55-31,34.16-57.35-17.31-21.92-48.41-14.78-58.32,3.46"/></g><g id="KL"><rect class="cls-25" x="919.6" y="156.26" width="11.55" height="115.95"/></g><g id="KR"><polygon class="cls-25" points="949.18 225.19 983.22 181.63 967.4 181.63 933.37 225.19 969.98 272.25 985.92 272.21 949.18 225.19"/></g><g id="I"><rect class="cls-25" x="902.11" y="181.66" width="11.41" height="90.55"/></g><g id="IDot"><rect class="cls-25" x="902.15" y="156.26" width="11.41" height="22.31"/></g><g id="A-2" data-name="A"><path class="cls-25" d="M848.38,274c-23.74,0-42.48-15.93-46.75-38.09-5-26,10.53-50.74,35.88-56.36,13.21-2.92,30.13.53,40.83,10.31a69.24,69.24,0,0,1,6.35,6.65l0-14.89H896.1v90.59H884.69V256.54c-9.44,11.1-21.54,17.47-36.31,17.47m-30.86-66.39c-4.6,9-6.89,18.32-4.08,28A36.51,36.51,0,0,0,852.07,262c24.1-2.18,42.66-33.92,23.78-57.83A36.35,36.35,0,0,0,854,191c-14.73-2.53-30.3,5.37-36.43,16.65m67.19-26H896.1v90.59"/></g><g id="Z"><polygon class="cls-25" points="800.66 272.25 728.19 272.25 728.19 263.42 782.71 193.63 728.19 193.66 728.19 181.66 800.68 181.66 800.66 190.92 746.01 260.86 800.66 260.86 800.66 272.25"/></g><g id="Z-2" data-name="Z"><polygon class="cls-25" points="722.12 272.25 649.66 272.25 649.66 263.42 704.18 193.63 649.66 193.66 649.66 181.66 722.14 181.66 722.12 190.92 667.48 260.86 722.12 260.86 722.12 272.25"/></g><g id="O"><path class="cls-25" d="M602,190.38a34.9,34.9,0,0,1,25,10.41,36.78,36.78,0,0,1,9.42,36c-6.2,21.79-32.83,32.36-53.35,19.77a33.07,33.07,0,0,1-10.26-9.86c-16.91-23.9,1.76-56.29,29.19-56.29m0-11.9c-37.12,0-61.31,43.3-38.93,75,12.72,18.77,39.6,27,62.47,14.29a46.21,46.21,0,0,0,24-44.63c-1.85-24.1-21.53-44.67-47.55-44.67"/></g><g id="M"><path class="cls-25" d="M516.76,193.64c-18,23-13.07,16.72-22.81,29.21l-29.68-23.19v72.56H452.72v-90.5h8.84l30.24,23.62,9.13-11.68Z"/><path class="cls-25" d="M548.17,272.26H536.62V202.47l-26.07,33.36-10.26-7.68c15.16-19.38,8.39-10.73,36.33-46.48l11.67.05C548.12,194.53,548.17,180.58,548.17,272.26Z"/></g></g></g></g></svg>