<svg id="Layer_1" data-name="Layer 1" xmlns="http://www.w3.org/2000/svg" viewBox="0 0 841.89 595.28"><defs><style>.cls-1{fill:#f2f2f3;fill-rule:evenodd;}</style></defs><path class="cls-1" d="M224.12,210.75,186,318.51l-37.6-107.76h-39.2l59.22,157.33H202l60.33-157.33Z"/><path class="cls-1" d="M299.08,210.9V368.26h35.14V210.9Z"/><path class="cls-1" d="M379.5,210.9l0,32.19h66.15L377.9,343.83v24.25H489.77V336.26h-68l66.58-100V210.9Z"/><path class="cls-1" d="M569.38,210.85c-10.19,0-18.14,1.64-26.15,9.63a38.12,38.12,0,0,0-11.54,27.91V368h35.1V253.78a10.25,10.25,0,0,1,3.18-7.59c1.78-1.8,5.84-3.17,9.47-3.17h29.33V210.85Z"/><path class="cls-1" d="M643.13,163.11V329.44a37.44,37.44,0,0,0,11.28,27.38c7.87,7.9,15.54,11.26,25.62,11.26h38.62V336.36H689.81a10.43,10.43,0,0,1-10.43-10.45V243h39.27V211H679.38V163.11Z"/><path class="cls-1" d="M17.21,278a404.75,404.75,0,0,0,84.55,248.34l12.57-37.16A372.47,372.47,0,0,1,49.81,299.65Z"/><path class="cls-1" d="M831.33,278.29A404.51,404.51,0,0,0,746.82,30L734.21,67.11a372.19,372.19,0,0,1,64.51,189.53Z"/></svg>