<svg id="Layer_1" data-name="Layer 1" xmlns="http://www.w3.org/2000/svg" viewBox="0 0 250 250"><defs><style>.cls-1{fill:#feffff;}</style></defs><path class="cls-1" d="M52.6,126.63V111H56v5.94h5V111h3.35v15.63H60.94V119.8h-5v6.83Z"/><path class="cls-1" d="M67,126.63V111h6a5.73,5.73,0,0,1,3.66,1,4,4,0,0,1,1.47,3.33,4.69,4.69,0,0,1-.57,2.34,4,4,0,0,1-1.67,1.54,2.65,2.65,0,0,1,1.48,1.19,3.64,3.64,0,0,1,.43,1.25c.09.48.17,1.39.27,2.73a7.68,7.68,0,0,0,.17,1.34,3.71,3.71,0,0,0,.36.88H75.12a2.85,2.85,0,0,1-.22-.74c0-.22-.09-.94-.17-2.17a10.51,10.51,0,0,0-.27-1.77,2.34,2.34,0,0,0-.52-1,2.32,2.32,0,0,0-1.7-.49H70.32v6.14ZM70.32,118h1.84a2.8,2.8,0,0,0,2.1-.64,2.33,2.33,0,0,0,.49-1.56,2,2,0,0,0-.61-1.59,3,3,0,0,0-1.91-.5H70.32Z"/><path class="cls-1" d="M87.61,126.63H83.87L79.6,111h3.53l2.69,11.27L88.51,111h3.43Z"/><path class="cls-1" d="M97,111h3.42l5,15.63H102l-1-3.49H96.45l-1,3.49H92.07Zm.18,9.6h3l-1.51-5.39Z"/><path class="cls-1" d="M109.79,126.63V113.86H106V111h11v2.86h-3.81v12.77Z"/><path class="cls-1" d="M118.05,122.06h3.4a3.29,3.29,0,0,0,.43,1.36,1.93,1.93,0,0,0,1.71.92,2.05,2.05,0,0,0,1.47-.54,2,2,0,0,0-.21-2.94,2.31,2.31,0,0,0-.66-.42c-.22-.1-.7-.28-1.42-.54a10.12,10.12,0,0,1-2.78-1.36,4.26,4.26,0,0,1-1.71-3.53,4.15,4.15,0,0,1,1.19-3.06,5,5,0,0,1,3.68-1.31,5.47,5.47,0,0,1,3.63,1.16,5.06,5.06,0,0,1,1.67,3.33h-3.3a2,2,0,0,0-.57-1.32,2.16,2.16,0,0,0-1.48-.48,1.79,1.79,0,0,0-1.28.42,1.49,1.49,0,0,0-.47,1.16,1.6,1.6,0,0,0,.61,1.31,8.59,8.59,0,0,0,2.44,1.07,9.88,9.88,0,0,1,3.07,1.51,4.1,4.1,0,0,1,1.58,3.33,4.43,4.43,0,0,1-1.47,3.46,5.84,5.84,0,0,1-4.06,1.38,5,5,0,0,1-4.53-2.28A6.26,6.26,0,0,1,118.05,122.06Z"/><path class="cls-1" d="M131,126.63V111h3.36v5.91L139,111h3.75l-5.33,6.44,5.76,9.19h-3.7l-4.12-6.6-1,1.15v5.45Z"/><path class="cls-1" d="M144.45,126.63V111h3.36v15.63Z"/><path class="cls-1" d="M157.91,126.63V113.86h-3.79V111h11v2.86h-3.81v12.77Z"/><path class="cls-1" d="M166.94,126.63V111h10v2.86h-6.62v3.34h6v2.73h-6v3.84h6.76v2.86Z"/><path class="cls-1" d="M179.36,126.63V111h3.35v12.72h6.14v2.91Z"/><path class="cls-1" d="M190.89,126.63V111h10v2.86h-6.62v3.34h6v2.73h-6v3.84H201v2.86Z"/><path class="cls-1" d="M203.31,126.63V111h3.36v5.91l4.65-5.91h3.74l-5.32,6.44,5.76,9.19h-3.76l-4.12-6.6-1,1.15v5.45Z"/><path class="cls-1" d="M223,110.64a5.86,5.86,0,0,1,4.58,2,8.86,8.86,0,0,1,2,6.16,9.58,9.58,0,0,1-1.54,5.55,6.48,6.48,0,0,1-2.32,2,6.2,6.2,0,0,1-2.77.62,6,6,0,0,1-5.19-2.7,9.6,9.6,0,0,1-1.51-5.61,8.64,8.64,0,0,1,2-6A6,6,0,0,1,223,110.64Zm0,2.87a2.63,2.63,0,0,0-2.41,1.45,7.28,7.28,0,0,0-.91,3.77,7.84,7.84,0,0,0,.9,4,2.83,2.83,0,0,0,1.06,1,2.71,2.71,0,0,0,1.39.4,2.6,2.6,0,0,0,1.3-.36,2.82,2.82,0,0,0,1-1,7.68,7.68,0,0,0,1-4,7.52,7.52,0,0,0-.9-3.81,2.61,2.61,0,0,0-2.45-1.45Z"/><path class="cls-1" d="M231.7,126.63V111h4.54L239,121.7l2.71-10.7h4.51v15.63H243V115.76l-2.66,10.87h-2.73l-2.72-10.73v10.73Z"/><path class="cls-1" d="M53.07,145V129.38h4a9.9,9.9,0,0,1,2.36.23,3.81,3.81,0,0,1,1.57.78,4.23,4.23,0,0,1,1.45,3.42,4.12,4.12,0,0,1-1.84,3.69,6.77,6.77,0,0,1-3.71.85H54.45V145Zm1.38-7.88H57a4.74,4.74,0,0,0,2.95-.73A3.12,3.12,0,0,0,61,133.86a2.89,2.89,0,0,0-2.36-3.15,9.7,9.7,0,0,0-1.7-.1H54.45Z"/><path class="cls-1" d="M65.31,145V129.38h5.08a7.16,7.16,0,0,1,2,.24,3.81,3.81,0,0,1,1.46.77,3.88,3.88,0,0,1,1.31,3.12,4.13,4.13,0,0,1-1.24,3.13,3.9,3.9,0,0,1-1.52.83,2.77,2.77,0,0,1,1.69.92,6.62,6.62,0,0,1,.81,3.35,19.2,19.2,0,0,0,.22,2.26,2.68,2.68,0,0,0,.39,1H74a3.31,3.31,0,0,1-.35-1q-.09-.54-.18-2.16a7.85,7.85,0,0,0-.35-2.21,2.17,2.17,0,0,0-1-1.09,6,6,0,0,0-2.89-.52h-2.5v7Zm1.4-8.17h3.21a4.73,4.73,0,0,0,2.77-.63,3.23,3.23,0,0,0,1.09-2.65,2.79,2.79,0,0,0-.84-2.24,3.91,3.91,0,0,0-2.6-.72H66.71Z"/><path class="cls-1" d="M83.66,145H82.08L77.2,129.38h1.52l4.17,13.84,4.16-13.84H88.5Z"/><path class="cls-1" d="M94.45,129.38H96l5.2,15.63H99.65l-1.55-4.88H92.24l-1.58,4.92H89.2Zm-1.82,9.5h5.09l-2.52-7.95Z"/><path class="cls-1" d="M108.63,145V129.38H110V143.8h7.22V145Z"/><path class="cls-1" d="M119.62,145V129.38H121V145Z"/><path class="cls-1" d="M135.87,145H134.7v-2.74a8.39,8.39,0,0,1-1.25,1.76,4.45,4.45,0,0,1-3.3,1.36,5.49,5.49,0,0,1-4.77-2.64,11.18,11.18,0,0,1,.28-11.48A5.4,5.4,0,0,1,130.2,129a5.33,5.33,0,0,1,5.42,4.5h-1.43a5.1,5.1,0,0,0-1-2,3.85,3.85,0,0,0-3-1.27,3.91,3.91,0,0,0-3.35,1.75,8.71,8.71,0,0,0-1.45,5.22,8.87,8.87,0,0,0,1.35,5.11,4,4,0,0,0,3.5,1.87A3.68,3.68,0,0,0,133,143a5.26,5.26,0,0,0,1.21-1.91,10.86,10.86,0,0,0,.46-2.82h-4.39v-1.22h5.67Z"/><path class="cls-1" d="M143,129.38h1.52l5.2,15.63h-1.53l-1.55-4.88h-5.85l-1.59,4.92h-1.46Zm-1.83,9.5h5.09l-2.52-7.95Z"/><path class="cls-1" d="M50.51,132.37l-7.58,12.2-13.36-.36c-.22,0-7-11.84-7-11.84L30,119.45H44Z"/><path class="cls-1" d="M35.3,100.13c-10.82.55-15.9,4.7-20,7.55H25l10-5Z"/><path class="cls-1" d="M5.31,123a27.8,27.8,0,0,1,7.55-12.79h11l3.31,7.91L20,130.69l-9.12,1.67Z"/><path class="cls-1" d="M7.45,147.76c-1.28-2-5.22-10.87-3.06-21.74l5.47,9.33.65,10.24Z"/><path class="cls-1" d="M26.18,163.54c-8.38-2.93-13.81-7.6-17.6-13.85.35-.18,3.12-2.06,3.12-2.06L20,152.85Z"/><path class="cls-1" d="M43.58,164.13c-3.42,1.25-9.46,1.35-14.28.27l-6.2-10.51,5.35-6.7h14.3L49,154.74Z"/><path class="cls-1" d="M64.79,148c-2.32,4.41-6.18,10.7-18.16,15.44l4.58-8.69,10.17-6.1Z"/><path class="cls-1" d="M57.31,107.88a33.25,33.25,0,0,0-19.86-7.75v2.18L47.62,108Z"/></svg>