<svg id="Layer_1" data-name="Layer 1" xmlns="http://www.w3.org/2000/svg" viewBox="0 0 250 250"><defs><style>.cls-1{fill:#fff;}</style></defs><path class="cls-1" d="M134.59,153.41l6.86,1.81.74-2.72-6.86-1.82.3-1.49c.45-1.64,1-1.82,2.53-1.49l5.52,1.49.75-2.84L138.77,145c-2.72-.74-5.06,0-6,3.12l-2.53,9.53a1,1,0,0,0,.56,1.3h0l.17.05,1.82.45ZM120,146.11l-.58-2.8L110,145.22a1.09,1.09,0,0,0-.94,1.21h0a.14.14,0,0,0,0,.09l1.94,9.69c.59,3.28,3.12,4,5.66,3.43l5.66-1.19-.6-2.84-5.51,1.19c-1.5.3-2.09,0-2.39-1.64l-.3-1.48,6.87-1.34-.6-2.83-6.8,1.35-.74-3.43Zm-22.8,19.37a4.26,4.26,0,0,1-2.82-1.82L89,157.1,86.66,159l5.82,7.15a5.8,5.8,0,0,0,4.17,2.37,6.77,6.77,0,0,0,5.07-1.64,6.56,6.56,0,0,0,2.75-4.64,6.29,6.29,0,0,0-1.49-4.61l-5.83-7.15-2.41,1.89L100.1,159c1,1.35,1.34,2.1,1.19,3.13a3.81,3.81,0,0,1-4,3.28m61.68-11a1.28,1.28,0,0,1,.45,1.64L155,171.41l-2.38-2.22.91-3-3-2.24,2.49-1.66,1.19.91,1.49-5.21-9.68,6.3-2.83-1.63,13.36-8.6a1.35,1.35,0,0,1,1.64,0ZM99.92,176l-1.82-1.6a36,36,0,0,1,50.67-3.57,34.66,34.66,0,0,1,3.6,3.57l-1.81,1.64A33.72,33.72,0,0,0,103,172.9,35.11,35.11,0,0,0,99.93,176M83,157.29l-1.65-1.65a61.2,61.2,0,0,1,86.52-1.1l1.1,1.1-1.65,1.65a59,59,0,0,0-83.41-1l-.91.91"/><path class="cls-1" d="M133.26,234.89h6v1.3a6.27,6.27,0,0,1-4.47,1.95c-3.43,0-5.81-1.95-5.81-6.11s2.67-6.11,5.37-6.11A4.43,4.43,0,0,1,139,229.2l4.17-1.19c-1-3.58-3.87-6.12-8.78-6.12a9.6,9.6,0,0,0-9.85,9.34v.66c0,6.26,4.48,10,10,10a10.57,10.57,0,0,0,9-4.33V231H133.26Z"/><polygon class="cls-1" points="77.09 222.37 72.62 222.37 72.62 241.9 86.33 241.9 86.33 237.87 77.09 237.87 77.09 222.37"/><polygon class="cls-1" points="92.74 233.99 101.08 233.99 101.08 230.12 92.74 230.12 92.74 226.4 101.82 226.4 101.82 222.37 88.42 222.37 88.42 241.9 101.97 241.9 101.97 237.87 92.74 237.87 92.74 233.99"/><polygon class="cls-1" points="168.87 237.87 168.87 233.99 177.07 233.99 177.07 230.12 168.87 230.12 168.87 226.4 177.81 226.4 177.81 222.37 164.4 222.37 164.4 241.9 177.96 241.9 177.96 237.87 168.87 237.87"/><path class="cls-1" d="M157.36,234c0,2.52-1.33,4.17-3.72,4.17s-3.73-1.65-3.73-4.17V222.52h-4.44v11.77c0,5.37,3.72,7.9,8.17,7.9s8.18-2.53,8.18-7.9V222.52h-4.46Z"/><path class="cls-1" d="M112,222.41,104,241.74h5.09l1.34-3.73h7.6l1.34,3.73h5.06l-7.87-19.33Zm0,11.82,2.23-6,2.23,6Z"/><path class="cls-1" d="M86.45,200.92c0,4-2.09,6.56-6,6.56s-6-2.54-6-6.56v-18h-7v18.49c0,8.49,5.81,12.36,12.82,12.36s12.81-4,12.81-12.36V182.89h-7v18Z"/><path class="cls-1" d="M180,193c0-6.54-4.91-10-10.89-10h-11.9v30.24h7V203h4.92C175.13,203,180,199.58,180,193Zm-11.28,3.71h-4.63v-7.6h4.63c3.12,0,4.31,1.64,4.31,3.88S171.87,196.73,168.76,196.73Z"/><polygon class="cls-1" points="49.37 201.08 62.34 201.08 62.34 194.82 49.37 194.82 49.37 189.15 63.38 189.15 63.38 182.89 42.37 182.89 42.37 213.28 63.67 213.28 63.67 207.02 49.37 207.02 49.37 201.08"/><path class="cls-1" d="M196.58,182.89h-7.26L177,213.14h7.9l2.22-5.82h12l2.24,5.82h7.86Zm-7.26,18.35,3.59-9.24,3.57,9.24Z"/><path class="cls-1" d="M120.6,192.58c0-6-4.78-9.69-11-9.69H97.49v30.25h7v-10.9h3.73l6.1,10.9H122l-6.66-12.22A9,9,0,0,0,120.6,192.58Zm-10.91,3.56h-5.21v-7h5.21c2.83,0,3.87,1.49,3.87,3.43.18,2.08-.86,3.56-3.84,3.56Z"/><path class="cls-1" d="M138.62,182.26c-9,0-14.6,6-14.6,15.8s5.81,15.79,14.6,15.79,14.61-6,14.61-15.79S147.37,182.26,138.62,182.26Zm0,25.33c-4.31,0-7.75-3.13-7.75-9.53,0-6.56,3.44-9.54,7.75-9.54s7.75,3.13,7.75,9.54-3.42,9.54-7.75,9.54Z"/><path class="cls-1" d="M129.68,122.85h0a59.65,59.65,0,0,0,11.62-2.09h0a.17.17,0,0,0,.16-.13h0v-.16h0c-4.77-5.22-12.22-15.8-17.27-25.32,2.53,10.27,4.77,21.59,5.21,27.55.15.16.15.16.29.16"/><path class="cls-1" d="M151.14,15.57h0c0-.15,0-.31-.15-.31h0L133.11,5H133c-.15,0-.15.15-.3.15h0c-.91,3.87-9.23,42,4.18,87.46-4.77-29.64,6.85-62.43,14.3-77"/><path class="cls-1" d="M145.63,119.41C120.41,78.89,124.46,21.53,127.32,4.1h0a.33.33,0,0,0-.3-.29h0C123.68,5.14,101.52,14.09,99.15,15c-.16,0-.16.15-.16.29h0c4.48,20.57,16,69.29,46.65,104.16"/><path class="cls-1" d="M111.21,120.9h0c0,.15,0,.3.15.3a58.61,58.61,0,0,0,13.56,1.93.31.31,0,0,0,.29-.29h0c-.59-9.84-2.83-30.1-11.18-48.16,2.73,18.18-.29,37.26-2.82,46.18"/><path class="cls-1" d="M104.65,119c.15,0,.15,0,.15-.14h0a4.48,4.48,0,0,0,.3-1.35h0c0-.15-.16-.15-.16-.3h0c-18-7.77-30.09-28.77-30.09-49.77,0-16.35,7-34.27,19.09-43.51h0v-.15h0c0-.3-.3-.91-.3-1.35h0c0-.14-.15-.14-.3-.14h-.15A55.31,55.31,0,0,0,69.94,67.57,56.1,56.1,0,0,0,104.65,119h0"/><path class="cls-1" d="M156.2,20.93h0c-.14,0-.3,0-.3.16l-.54,1.18v.14c0,.16,0,.16.15.16h0c13.41,9.09,21,27.42,21,44.85,0,19.52-9.39,38.88-25.44,47.53h0l-.15.15v.14h0l.75,1.2h0l.14.15h.08a55.59,55.59,0,0,0,29.46-49.11,56.27,56.27,0,0,0-25.17-46.63"/><polygon class="cls-1" points="167.23 117.93 168.57 117.93 168.57 121.65 169.17 121.65 169.17 117.93 170.51 117.93 170.51 117.34 167.23 117.34 167.23 117.93"/><polygon class="cls-1" points="174.83 117.34 173.34 121.05 171.99 117.34 171.25 117.34 171.25 121.65 171.85 121.65 171.85 118.53 173.04 121.65 173.78 121.65 174.98 118.53 174.98 121.65 175.58 121.65 175.58 117.34 174.83 117.34"/></svg>