<svg id="Layer_1" data-name="Layer 1" xmlns="http://www.w3.org/2000/svg" viewBox="0 0 250 250"><defs><style>.cls-1{fill:#fdfdfd;fill-rule:evenodd;}</style></defs><path class="cls-1" d="M212.1,52.05c-11.07-.69-20.69-2.89-28.58-6.56a45.17,45.17,0,0,1-15.4-11.34c-6.79-7.87-7.79-15.5-7.81-15.58L160,16.32H96.37l-.29,2.26c0,.08-1,7.71-7.8,15.58a45.3,45.3,0,0,1-15.4,11.34C65,49.16,55.37,51.36,44.3,52.05l-2.89.18.53,2.84A449.72,449.72,0,0,0,61.3,122.64C69.15,143.45,78,161.4,87.51,176a152.1,152.1,0,0,0,14.74,19.18,28.24,28.24,0,0,0-2.55,10.78l3.48.55c1.15-8.27,4.48-15.26,8-22.43-.48.37-1,.74-1.4,1.12a.16.16,0,0,0-.06,0A136.9,136.9,0,0,1,103,170.32c3.42.53,6.55,1,9.35,1.27q.93,5.63,1.87,10.51a1.92,1.92,0,0,0-.26.17l.78-.42c-5.23,8.12-7.93,16.37-9.89,25.23a26.72,26.72,0,0,0,10.82.73c.8-10.59,6-20.22,12.72-29.38h-.19a28.22,28.22,0,0,0-9,1.46l-.21.05c0-.32-.12-.65-.18-1-3-16.27-6.07-38.49-9.11-66.05-4.46-40.46-7.54-80.77-8.35-91.47H155c-.79,10.7-3.89,51-8.34,91.47-3,27.56-6.09,49.78-9.11,66.05,0,.33-.12.66-.18,1a1.21,1.21,0,0,1-.25-.08,27.86,27.86,0,0,0-6.63-1.34c-6.91,8.79-12.41,19.39-13.07,29.45a24.31,24.31,0,0,0,10.14-2.21c2.43-9.09,5.78-15.17,13.84-24.07.35.18.69.36,1,.56l-.25-.16q.93-4.87,1.88-10.5,4.2-.48,9.35-1.27a141.54,141.54,0,0,1-6.75,14.9,2.31,2.31,0,0,0-.24-.2,30,30,0,0,0-3.69-2.62l-2.67,3.09c7,5.46,12.37,12.86,16.68,20.39A28.47,28.47,0,0,0,154.14,195l.07.13A152.62,152.62,0,0,0,168.93,176c9.55-14.59,18.37-32.53,26.21-53.35A446.64,446.64,0,0,0,214.5,55.06l.54-2.84ZM98.79,53c.69,8.1,1.51,17.21,2.43,26.87-6.48-.55-13.92-1.27-22.06-2.23-1.89-10.14-3.42-19.26-4.6-26.57C83.17,52,91.43,52.59,98.79,53ZM60.23,104.1c-3-9-5.41-17.52-7.35-24.8,7.67,1.19,15,2.19,21.9,3,1.34,7.13,2.85,14.68,4.5,22.37.17.78.34,1.55.5,2.32C73.68,106.23,67.13,105.27,60.23,104.1Zm24.52,57.41q-6-10.77-11.63-23.44c5.21,1,10.17,1.77,14.81,2.45q3.52,12.82,7.15,23.2C91.83,163.08,88.37,162.36,84.75,161.51Zm20-46.66c0,.41.09.81.14,1.21q1.27,11.47,2.56,21.67c-4.54-.44-9.73-1-15.46-1.8-2-7.51-3.9-15.23-5.63-22.88q3.33.39,6.35.7C97.1,114.2,101.13,114.56,104.79,114.85ZM157.62,53c7.35-.45,15.62-1.07,24.24-1.92-1.17,7.3-2.71,16.43-4.6,26.57-8.14,1-15.58,1.67-22.06,2.23C156.11,70.25,156.93,61.14,157.62,53Zm-8.71,84.68q1.29-10.2,2.56-21.67c.05-.4.09-.8.14-1.21,3.66-.29,7.69-.65,12-1.1q3-.31,6.35-.7c-1.74,7.65-3.62,15.35-5.63,22.87C158.64,136.71,153.45,137.29,148.91,137.72Zm22.74,23.79c-3.61.85-7.07,1.57-10.34,2.19q3.62-10.37,7.15-23.19c4.64-.68,9.59-1.49,14.81-2.45Q177.72,150.73,171.65,161.51Zm24.52-57.41c-6.9,1.17-13.44,2.13-19.55,2.93.17-.77.34-1.55.5-2.32,1.66-7.7,3.16-15.24,4.5-22.37,6.89-.84,14.23-1.84,21.89-3C201.58,86.58,199.14,95.05,196.17,104.1Zm-65.63,48.39a2.2,2.2,0,0,0,.73-1.77c0-1.22-1-2.18-3.13-2.94-.4-.16-.72-.26-.93-.35a33.08,33.08,0,0,1-4.1-1.73,10.36,10.36,0,0,1-2.22-1.45,9.49,9.49,0,0,1-2-3.31,13.52,13.52,0,0,1-.66-4.4c0-3.31.86-5.92,2.61-7.8a10.49,10.49,0,0,1,14.16-.12c1.72,1.82,2.69,4.4,2.9,7.76h-7.07a3.57,3.57,0,0,0-.89-2.2,2.86,2.86,0,0,0-2.08-.73,2.43,2.43,0,0,0-1.77.57,2.3,2.3,0,0,0-.58,1.73c0,1.1,1,2,3.05,2.76a1.92,1.92,0,0,0,.41.16l1.34.47c2.69,1,4.47,1.87,5.3,2.68a9,9,0,0,1,2.24,3.37,12.6,12.6,0,0,1,.7,4.43c0,3.68-.89,6.52-2.7,8.51s-4.34,3-7.69,3a9.44,9.44,0,0,1-7.3-3c-1.8-2-2.8-4.77-3-8.36h7.25a4.7,4.7,0,0,0,1.1,2.61,3.62,3.62,0,0,0,4.37.11Zm-13.28-71.9h7.07s7.58,19.13,7.84,20.27c-.06-.59-.19-20.27-.19-20.27h7.1V114H132s-7.62-19.1-7.87-20.18c.09.58.22,20.18.22,20.18h-7.07Zm7.46-46.2V45.7h6.91V34.39h7.47V67.74h-7.47V54.81h-6.91V67.74h-7.46V34.39ZM102.24,218.75a28.18,28.18,0,0,1-2.55-11.05c12.14,2.67,19.17,2.61,28.41.11,3.52,1.83,5.4,5.08,7,7.92C125.85,220.3,113.53,220.52,102.24,218.75Zm49.45,4.4a28.92,28.92,0,0,1-7.75,7.61c-4.1-11.86-7.71-17.46-14.55-24.27a21.08,21.08,0,0,1,2.92-10C140.8,202.24,147.54,212.6,151.69,223.15Zm-39.28,7.56a28.77,28.77,0,0,1-9.27-10.15C114.77,222,126,221.72,135.82,217a42.8,42.8,0,0,1,5.33,9.59C132.08,229.44,122.67,231.42,112.41,230.71Zm44.29-22.22a28.33,28.33,0,0,1-4.09,13.23c-4.57-10.71-10.4-20.28-19.35-26.39a26.61,26.61,0,0,1,6.07-9C146.24,192.7,152.24,199.41,156.7,208.49Zm-15.27,19.68,1.3,3.34a28.39,28.39,0,0,1-27.13,1.05C124.46,232,132.94,231.63,141.43,228.17Z"/></svg>