<svg id="Layer_1" data-name="Layer 1" xmlns="http://www.w3.org/2000/svg" viewBox="0 0 250 250"><defs><style>.cls-1{fill:#f4f4f4;}.cls-2{fill:#76328a;}.cls-3{fill:#e52c28;}.cls-4{fill:#fbea2c;}.cls-5{fill:#1382c5;}.cls-6{fill:#33346d;}.cls-7{fill:#040405;}.cls-8{fill:#0d55a2;}.cls-9{fill:#f07e27;}.cls-10{fill:#13a651;}</style></defs><path class="cls-1" d="M55.21,240.25a6.2,6.2,0,0,1-2.3-.41l.16-.8a7.54,7.54,0,0,0,2.16.33c1.24,0,1.5-.33,1.5-1.21s0-1.13-1.6-1.5c-1.87-.41-2.09-.77-2.09-2.37,0-1.34.56-2,2.47-2a8.66,8.66,0,0,1,2.09.25l-.08.85a9,9,0,0,0-2-.22c-1.26,0-1.49.25-1.49,1.14,0,1.08,0,1.12,1.53,1.5,2,.51,2.16.82,2.16,2.32s-.39,2.11-2.52,2.11"/><path class="cls-1" d="M61.13,240.25a2,2,0,0,1-2.28-1.67,3.38,3.38,0,0,1,0-.45v-1.64a2,2,0,0,1,1.85-2.14h.45A2,2,0,0,1,63.42,236h0a3.09,3.09,0,0,1,0,.43v1.64a2,2,0,0,1-1.85,2.14h0a1.55,1.55,0,0,1-.43,0m0-5c-.89,0-1.33.43-1.33,1.25v1.7c0,.83.44,1.24,1.33,1.24s1.31-.41,1.31-1.24v-1.7a1.15,1.15,0,0,0-1.31-1.29Z"/><path class="cls-1" d="M65.61,234.49v4.31c0,.37.19.52.55.52a5.18,5.18,0,0,0,1.92-.56v-4.27h1v5.65h-.8l-.09-.49a6.17,6.17,0,0,1-2.27.6c-.9,0-1.23-.56-1.23-1.44v-4.32Z"/><path class="cls-1" d="M73.54,240a3.43,3.43,0,0,1-1.19.21c-1,0-1.4-.34-1.4-1.28V235.3H70v-.81h1v-1.4l1-.13v1.53h1.59l-.07.81H71.92v3.5c0,.42.06.63.58.63a3.39,3.39,0,0,0,.9-.15Z"/><path class="cls-1" d="M78,240.14v-4.32c0-.37-.18-.52-.54-.52a5.41,5.41,0,0,0-1.92.58v4.26h-1v-8l1-.14v2.88a5.55,5.55,0,0,1,2.18-.6c.91,0,1.23.57,1.23,1.44v4.33Z"/><polygon class="cls-1" points="82.73 232.41 87.27 232.41 87.27 233.31 83.72 233.31 83.72 235.73 87.02 235.73 87.02 236.63 83.72 236.63 83.72 239.25 87.28 239.25 87.28 240.14 82.73 240.14 82.73 232.41"/><path class="cls-1" d="M92.59,240.14h-.82l-.06-.42a3.26,3.26,0,0,1-1.84.53c-1.05,0-1.49-.63-1.49-1.62,0-1.17.59-1.59,1.72-1.59h1.51v-.88c0-.71-.32-1-1.23-1a8.75,8.75,0,0,0-1.69.19l-.1-.78a7.7,7.7,0,0,1,1.85-.25c1.61,0,2.15.62,2.15,1.83Zm-1-2.29h-1.4c-.6,0-.82.19-.82.75s.1.82.8.82a2.81,2.81,0,0,0,1.46-.47Z"/><path class="cls-1" d="M95.58,240.25a5.81,5.81,0,0,1-1.8-.3l.13-.76a6.8,6.8,0,0,0,1.61.23c.89,0,1-.16,1-.77s0-.67-1.18-1c-1.41-.34-1.53-.63-1.53-1.81s.47-1.52,1.92-1.52a6.16,6.16,0,0,1,1.6.2l-.07.8a8.18,8.18,0,0,0-1.56-.16c-.85,0-1,.2-1,.71s0,.74,1,1c1.62.41,1.75.6,1.75,1.72s-.34,1.64-1.92,1.64"/><path class="cls-1" d="M101.76,240a3.41,3.41,0,0,1-1.18.21c-1,0-1.4-.34-1.4-1.28V235.3h-1v-.81h1v-1.4l1-.13v1.53h1.6l-.09.81h-1.51v3.5c0,.42.06.63.59.63a3.39,3.39,0,0,0,.9-.15Z"/><polygon class="cls-1" points="109.48 240.14 109.48 236.63 106.06 236.63 106.06 240.14 105.07 240.14 105.07 232.41 106.06 232.41 106.06 235.74 109.48 235.74 109.48 232.41 110.48 232.41 110.48 240.14 109.48 240.14"/><path class="cls-1" d="M116.11,240.14h-.83l-.06-.42a3.21,3.21,0,0,1-1.83.53,1.42,1.42,0,0,1-1.5-1.62c0-1.17.6-1.59,1.73-1.59h1.51v-.88c0-.71-.31-1-1.23-1a8.75,8.75,0,0,0-1.69.19l-.11-.78a7.79,7.79,0,0,1,1.86-.25c1.61,0,2.15.62,2.15,1.83Zm-1-2.29h-1.44c-.61,0-.82.19-.82.75s.1.82.8.82a2.81,2.81,0,0,0,1.46-.47Z"/><path class="cls-1" d="M121,240.14v-4.32c0-.37-.2-.52-.55-.52a5.2,5.2,0,0,0-1.92.57v4.27h-1v-5.65h.79l.09.48a6.22,6.22,0,0,1,2.28-.6c.9,0,1.23.57,1.23,1.44v4.33Z"/><path class="cls-1" d="M123.21,236.21a1.64,1.64,0,0,1,1.39-1.84,1.62,1.62,0,0,1,.44,0,9.78,9.78,0,0,1,1.62.17v-2.36l1-.14v8.1h-.83l-.09-.52a2.93,2.93,0,0,1-1.86.63c-1.11,0-1.65-.59-1.65-1.72Zm3.45-.8a10.21,10.21,0,0,0-1.56-.18.84.84,0,0,0-1,.64.73.73,0,0,0,0,.36v2.32c0,.57.18.86.87.86a2.59,2.59,0,0,0,1.6-.67Z"/><path class="cls-1" d="M133.62,238.14c0,1.29-.47,2.11-2.4,2.11a10.38,10.38,0,0,1-2-.22v-7.85l1-.14v2.77a4.24,4.24,0,0,1,1.79-.39c1.17,0,1.66.68,1.66,1.76Zm-3.45,1.17a6.91,6.91,0,0,0,1.11.08c1.15,0,1.37-.46,1.37-1.22V236.1c0-.58-.26-.87-1-.87a4.27,4.27,0,0,0-1.56.43Z"/><path class="cls-1" d="M138.92,240.14h-.81l-.06-.42a3.21,3.21,0,0,1-1.83.53c-1.06,0-1.5-.63-1.5-1.62,0-1.17.59-1.59,1.73-1.59H138v-.88c0-.71-.31-1-1.22-1a8.85,8.85,0,0,0-1.7.19l-.1-.78a7.7,7.7,0,0,1,1.85-.25c1.62,0,2.14.62,2.14,1.83Zm-1-2.29h-1.44c-.6,0-.82.19-.82.75s.1.82.8.82A2.79,2.79,0,0,0,138,239Z"/><polygon class="cls-1" points="140.35 240.14 140.35 232.18 141.33 232.04 141.33 240.14 140.35 240.14"/><polygon class="cls-1" points="142.9 240.14 142.9 232.18 143.87 232.04 143.87 240.14 142.9 240.14"/><path class="cls-1" d="M153.6,240.14h-1l-.64-1.86h-3.28l-.63,1.86h-1l2.62-7.73H151Zm-3.28-7-1.39,4.28h2.77Z"/><path class="cls-1" d="M156.12,240.25a5.74,5.74,0,0,1-1.79-.3l.12-.76a6.81,6.81,0,0,0,1.62.23c.89,0,1-.16,1-.77s0-.67-1.18-1c-1.41-.34-1.53-.63-1.53-1.81s.46-1.52,1.92-1.52a6.16,6.16,0,0,1,1.6.2l-.07.8a8.28,8.28,0,0,0-1.57-.16c-.84,0-1,.2-1,.71s0,.74,1,1c1.62.41,1.74.6,1.74,1.72s-.33,1.64-1.91,1.64"/><path class="cls-1" d="M160.92,240.25a5.74,5.74,0,0,1-1.79-.3l.12-.76a6.81,6.81,0,0,0,1.62.23c.89,0,1-.16,1-.77s0-.67-1.18-1c-1.41-.34-1.53-.63-1.53-1.81s.47-1.52,1.92-1.52a6.16,6.16,0,0,1,1.6.2l-.07.8a8.18,8.18,0,0,0-1.56-.16c-.84,0-1,.2-1,.71s0,.74,1,1c1.62.41,1.74.6,1.74,1.72s-.33,1.64-1.92,1.64"/><path class="cls-1" d="M166.16,240.25a2,2,0,0,1-2.27-1.69h0a1.55,1.55,0,0,1,0-.43v-1.64a2.3,2.3,0,0,1,4.6,0h0v1.64a2,2,0,0,1-1.85,2.14h0a1.62,1.62,0,0,1-.44,0m0-5a1.13,1.13,0,0,0-1.3.95,1,1,0,0,0,0,.3v1.7c0,.83.44,1.24,1.31,1.24s1.33-.41,1.33-1.24v-1.7a1.19,1.19,0,0,0-1.35-1.31Z"/><path class="cls-1" d="M169.39,238.2v-1.78c0-1.29.49-2,2.26-2a5.53,5.53,0,0,1,1.34.17l-.09.82a5.74,5.74,0,0,0-1.24-.13c-1,0-1.29.28-1.29,1.16v1.85c0,.87.33,1.15,1.29,1.15a6.43,6.43,0,0,0,1.24-.12l.1.81a5.1,5.1,0,0,1-1.35.17c-1.82,0-2.26-.75-2.26-2.05"/><path class="cls-1" d="M175.2,233.58h-1v-1.4h1Zm-1,6.56h1m0,0h-1v-5.65h1Z"/><path class="cls-1" d="M180.74,240.14h-.83l-.06-.42a3.21,3.21,0,0,1-1.83.53c-1.06,0-1.5-.63-1.5-1.62,0-1.17.6-1.59,1.73-1.59h1.51v-.88c0-.71-.31-1-1.23-1a8.75,8.75,0,0,0-1.69.19l-.11-.78a7.79,7.79,0,0,1,1.86-.25c1.61,0,2.15.62,2.15,1.83Zm-1-2.29h-1.41c-.6,0-.82.19-.82.75s.1.82.8.82a2.77,2.77,0,0,0,1.45-.47Z"/><path class="cls-1" d="M185.09,240a3.41,3.41,0,0,1-1.18.21c-1,0-1.4-.34-1.4-1.28V235.3h-1v-.81h1v-1.4l1-.13v1.53h1.62l-.07.81H183.5v3.5c0,.42,0,.63.58.63a3.39,3.39,0,0,0,.9-.15Z"/><path class="cls-1" d="M187.15,233.58h-1v-1.4h1Zm-1,6.56h1m0,0h-1v-5.65h1Z"/><path class="cls-1" d="M190.7,240.25a2,2,0,0,1-2.29-1.66v0a1.62,1.62,0,0,1,0-.44v-1.64a2.3,2.3,0,0,1,4.59,0v1.64a2,2,0,0,1-1.85,2.14h0a1.55,1.55,0,0,1-.43,0m0-5c-.88,0-1.33.43-1.33,1.25v1.7c0,.83.45,1.24,1.33,1.24a1.15,1.15,0,0,0,1.29-1.3v-1.7a1.14,1.14,0,0,0-1-1.26,1.41,1.41,0,0,0-.29,0Z"/><path class="cls-1" d="M197.68,240.14v-4.32c0-.37-.19-.52-.55-.52a5.2,5.2,0,0,0-1.92.57v4.27h-1v-5.65H195l.09.48a6.27,6.27,0,0,1,2.28-.6c.9,0,1.23.57,1.23,1.44v4.33Z"/><path class="cls-1" d="M70.17,224.85a36.9,36.9,0,0,1-12.74-2.26l.9-4.52a40.7,40.7,0,0,0,12,1.87c6.9,0,8.32-1.8,8.32-6.72,0-5.8-.06-6.31-8.9-8.32-10.4-2.31-11.65-4.31-11.65-13.22,0-7.47,3.1-11.08,13.74-11.08A48.85,48.85,0,0,1,83.45,182L83,186.7a52.81,52.81,0,0,0-11-1.22c-7,0-8.32,1.41-8.32,6.39,0,5.93,0,6.19,8.51,8.32,11.43,2.88,12,4.51,12,12.9,0,7.48-2.2,11.74-14,11.74"/><polygon class="cls-1" points="90.71 181.24 116 181.24 116 186.21 96.26 186.21 96.26 199.69 114.58 199.69 114.58 204.65 96.26 204.65 96.26 219.23 116.06 219.23 116.06 224.21 90.71 224.21 90.71 181.24"/><polygon class="cls-1" points="147.87 224.21 147.87 204.72 128.84 204.72 128.84 224.21 123.29 224.21 123.29 181.24 128.84 181.24 128.84 199.76 147.87 199.76 147.87 181.24 153.42 181.24 153.42 224.21 147.87 224.21"/><path class="cls-1" d="M194.21,224.25H188.6l-3.51-10.36H166.86l-3.55,10.36H157.7l14.52-43h7.48Zm-18.24-39-7.67,23.8h15.35Z"/><polygon class="cls-2" points="76.66 72.75 80.8 102.32 69.86 120.96 52.9 108.12 47.43 83.24 60.05 64.6 76.66 72.75"/><path class="cls-3" d="M54.46,117.39l17.74,9,19.42,25.22.21,3.19a77.78,77.78,0,0,1-37.37-37.44"/><path class="cls-4" d="M62.05,43.85l-2,14.61L49.49,66.14a76.89,76.89,0,0,1,10.9-24.59Z"/><path class="cls-4" d="M175.21,45.85l20.44,9.94c.54.6,1,1.23,1.52,1.84a76.41,76.41,0,0,1,4.66,21.26c-.11.45-.24.89-.37,1.34L185.14,93.16,170.52,69.71Z"/><path class="cls-5" d="M151.78,19.06l.8-6.53A77.62,77.62,0,0,1,192.77,48l-20.25-9.28Z"/><path class="cls-6" d="M117.07,20.41l-14.69-9.84a77.93,77.93,0,0,1,41.87-.74l.38,7.23Z"/><path class="cls-7" d="M99.77,157.67l24.1-1.67,10.69,5.47a78,78,0,0,1-34.65-3.4Z"/><polygon class="cls-3" points="129.34 76.88 118.19 104.33 87.83 101.65 82.47 71.4 107.93 54.44 129.34 76.88"/><polygon class="cls-8" points="134.48 68.95 113.38 48.97 122.86 23.76 149.77 23.76 170.19 43.17 161.93 66.28 134.48 68.95"/><polygon class="cls-9" points="106.58 46.52 80.02 64.93 62.72 56.78 66.51 37.37 91.3 18.73 110.7 25.21 106.58 46.52"/><polygon class="cls-5" points="133.15 134.57 121.53 150.53 97.43 150.2 78.01 129.22 87.49 109.46 117.41 111.13 133.15 134.57"/><path class="cls-9" d="M199.31,89.71l1,11.14a78,78,0,0,1-3.94,12.86l-13.38-7,2.77-5.7Z"/><polygon class="cls-10" points="137.15 80.22 165.72 75.76 182.02 99.31 179.18 104.66 149.82 89.23 137.68 109.21 160.48 126.02 140.61 129.88 124.88 107.12 137.15 80.22"/><polygon class="cls-3" points="144.91 157 131.01 152.98 142.29 136.24 156.55 134.77 144.91 157"/><path class="cls-10" d="M88.69,16.67,66.26,33.79a77.8,77.8,0,0,1,20.56-16.7Z"/></svg>