<svg id="Layer_1" data-name="Layer 1" xmlns="http://www.w3.org/2000/svg" viewBox="0 0 250 250"><defs><style>.cls-1{fill:#fff;}</style></defs><path class="cls-1" d="M173.68,120.15v-.09L156.24,74.58l-16,3.63,9.67,31.85L97.24,99l-5.46,12.26,69.9,21.69a9.73,9.73,0,0,0,12-12.79Z"/><path class="cls-1" d="M209.53,48.15a12.67,12.67,0,0,0-16-7.89L148.85,55.52,134.7,60.36l-23.87,8.16-11,3.78L49,89.45h0a4.57,4.57,0,0,0,.1,8.7l36.48,11.1,4.54-11.8L71.31,93.63,93.47,88.8l9.25-2.09,37.39-8.49,16-3.63,44.21-10c.44-.1.87-.22,1.3-.36a12.67,12.67,0,0,0,7.92-16.06Z"/><path class="cls-1" d="M90.12,97.46l-4.54,11.81L68.14,152.05a1.72,1.72,0,0,0,3.09,1.51c0-.07.06-.13.08-.19l20.47-42.22L97.24,98.9l5.48-12.26-9.25,2.12Z"/><path class="cls-1" d="M133.14,14.63,133,14.3a5.83,5.83,0,0,0-10.9,0l-22.3,58,11-3.78L126.53,33.4l8.18,27,14.15-4.84Z"/><path class="cls-1" d="M65.34,199.87a22.9,22.9,0,0,0-.63,2.6,14.28,14.28,0,0,0-4.71-.78c-4.29,0-5.32,1.89-5.32,5.22,0,4.25,1.5,5.61,5.2,5.61a17.63,17.63,0,0,0,5.28-1c.08.6.24,1.67.39,2.32a33.1,33.1,0,0,1-6.51.71c-5,0-7.67-1.71-7.67-7.36,0-6.14,3.12-7.71,8.84-7.71A49,49,0,0,1,65.34,199.87Z"/><path class="cls-1" d="M79.29,202.15a14.74,14.74,0,0,0-.14-2.4h3.38a16,16,0,0,0-.15,2.4v9.9a16.12,16.12,0,0,0,.15,2.4H79.15a14.87,14.87,0,0,0,.14-2.4V208H72.63v4.1a16.12,16.12,0,0,0,.15,2.4H69.36a16.12,16.12,0,0,0,.15-2.4v-9.9a16,16,0,0,0-.15-2.4h3.43a16,16,0,0,0-.15,2.4v3.78h6.65Z"/><path class="cls-1" d="M85.68,214.43c.42-.8.77-1.62,1.12-2.4l5.41-12.26h3l5.2,12.26c.32.78.74,1.6,1.15,2.4H97.7a9.35,9.35,0,0,0-.58-2.4l-.67-1.71H90.28L89.6,212a7.85,7.85,0,0,0-.56,2.4Zm5.35-6h4.72l-2.32-5.91Z"/><path class="cls-1" d="M121.6,199.73a17.38,17.38,0,0,0-.14,2.4V212a17.56,17.56,0,0,0,.14,2.4h-3.15a14.89,14.89,0,0,0,.16-2.4v-8.56l-4.18,8h-2.11L108,203.29V212a14.87,14.87,0,0,0,.14,2.4H105a17.56,17.56,0,0,0,.14-2.4v-9.84a17.38,17.38,0,0,0-.14-2.4h3.77l4.71,8.68,4.48-8.68Z"/><path class="cls-1" d="M126.14,214.43a17.72,17.72,0,0,0,.23-2.4v-9.88a17.41,17.41,0,0,0-.23-2.4h6c4,0,5.73,1.71,5.73,4.72,0,3.43-2.32,4.71-5.14,4.71a4.9,4.9,0,0,1-2-.4v-1.43a8.26,8.26,0,0,0,1,.07c1.69,0,3.11-.86,3.11-2.83,0-1.52-.94-2.74-3.06-2.74h-2.25v10.23a7.56,7.56,0,0,0,.37,2.4Z"/><path class="cls-1" d="M145.53,212a14.87,14.87,0,0,0,.14,2.4h-3.4a17.56,17.56,0,0,0,.14-2.4v-9.88a17.38,17.38,0,0,0-.14-2.4h3.4a14.74,14.74,0,0,0-.14,2.4Z"/><path class="cls-1" d="M149.86,207.29c0-6,3.12-7.72,8.38-7.72,5.08,0,7.87,1.71,7.87,7.34,0,6-3.14,7.73-8.34,7.73S149.86,212.93,149.86,207.29Zm13.06-.18c0-4.17-1.48-5.47-4.86-5.47-4,0-5,1.89-5,5.43,0,4.19,1.4,5.51,4.77,5.51,4,0,5.09-1.91,5.09-5.43Z"/><path class="cls-1" d="M172.74,204.07v8a14.87,14.87,0,0,0,.14,2.4h-2.83a13.82,13.82,0,0,0,.15-2.4v-9.92a12.9,12.9,0,0,0-.29-2.4h2.83l8.59,10.4v-8a16,16,0,0,0-.15-2.4H184a14.74,14.74,0,0,0-.14,2.4v12.26H181.4Z"/><path class="cls-1" d="M188.32,211.68a13.29,13.29,0,0,0,4.32.87c2.3,0,3.43-.94,3.43-2.19,0-3.21-8.33-.88-8.33-6.27,0-2.63,2-4.52,6.4-4.52a23,23,0,0,1,4.51.53c-.33.71-.61,1.42-.94,2.14a14.67,14.67,0,0,0-3.72-.6c-1.15,0-3.18.39-3.18,2,0,3.28,8.34,1,8.34,6.33,0,2.83-2.36,4.65-6.86,4.65a16.1,16.1,0,0,1-4.58-.66Z"/><path class="cls-1" d="M83.66,237.08h4a7.84,7.84,0,0,0,2.4-.35l-.22,2.42H80.41a16.08,16.08,0,0,0,.12-2.4v-9.89a14.74,14.74,0,0,0-.16-2.4h3.46a14.74,14.74,0,0,0-.14,2.4Z"/><path class="cls-1" d="M96.78,230.62h5.12l-.41,2H96.78v4.44h4.61a8.13,8.13,0,0,0,2.4-.33l-.41,2.42H93.53a15,15,0,0,0,.14-2.41v-9.89a14.74,14.74,0,0,0-.14-2.4h9.53l-.46,2.43a7.84,7.84,0,0,0-2.4-.35H96.78Z"/><path class="cls-1" d="M106.23,239.15c.44-.81.79-1.63,1.13-2.41l5.42-12.26h3l5.2,12.26c.33.78.75,1.6,1.15,2.41h-3.88a8.66,8.66,0,0,0-.58-2.41L117,235h-6.16l-.67,1.71a8,8,0,0,0-.56,2.41Zm5.37-6h4.71L114,227.26Z"/><path class="cls-1" d="M138.6,224.59a20.31,20.31,0,0,0-.62,2.56,17.34,17.34,0,0,0-5-.78c-4.39,0-5.33,2.06-5.33,5.28,0,4.09,1.29,5.66,4.84,5.66a14.33,14.33,0,0,0,3.26-.4v-1.66a18.41,18.41,0,0,0-.12-2.35l3.26-.36a17,17,0,0,0-.12,2.26v1.54a17.72,17.72,0,0,0,.12,2.3h-.4c-1.28,0-3.5.74-6.6.74-5,0-7.49-1.88-7.49-7.38,0-6.12,3.13-7.69,8.84-7.69A50.51,50.51,0,0,1,138.6,224.59Z"/><path class="cls-1" d="M143.1,226.86a14.78,14.78,0,0,0-.23-2.4h3.58a17.41,17.41,0,0,0-.23,2.4v6c0,3.54,1.07,4.39,4.24,4.39a13.48,13.48,0,0,0,3.22-.36v-10a17.41,17.41,0,0,0-.22-2.4H157a14.77,14.77,0,0,0-.22,2.4v9.43a13.82,13.82,0,0,0,.15,2.4h-.43c-1.11,0-3.88.73-6.46.73-5.23,0-6.94-1.18-6.94-6.74Z"/><path class="cls-1" d="M164.39,230.62h5.14l-.41,2h-4.71v4.44H169a8.13,8.13,0,0,0,2.4-.33l-.41,2.41h-9.84a16.25,16.25,0,0,0,.15-2.41v-9.89a16,16,0,0,0-.15-2.4h9.54l-.46,2.43a7.84,7.84,0,0,0-2.4-.35h-3.41Z"/><path class="cls-1" d="M102.81,188.62l43.38-6.07,1.52-5.86-44.9,11.2Zm.77-5.41,10.43-2.6.36-2.92a9.85,9.85,0,0,1-2.1.79l-4.35,1.15v-3.29l4.35-1.15.36-2.49-4.72,1.24v-3.1l3.25-.87a6.92,6.92,0,0,1,2.13-.21l.39-2.94-9.92,2.47a19.59,19.59,0,0,1,.12,2.17v9.43a9.35,9.35,0,0,1-.3,2.23S103.53,183.15,103.58,183.21Z"/><path class="cls-1" d="M126.82,177.44l4.43-1.1a15.79,15.79,0,0,1-.12-2.17v-9.43a17.26,17.26,0,0,1,.1-2.16h0l-4.44,1.1v0a14.85,14.85,0,0,1,.12,2.11v3.41l-5.38,1.34v-3.52a14.88,14.88,0,0,1,.11-2.22l-4.26,1.07a14,14,0,0,1,.11,2.15v9.43a18.5,18.5,0,0,1-.11,2.23l4.26-1.06h0a13.82,13.82,0,0,1-.11-2.13v-3.63l5.38-1.34v3.58A17.54,17.54,0,0,1,126.82,177.44Z"/><path class="cls-1" d="M135.8,175.15l4.37-1.1v-.17a13.43,13.43,0,0,1-.21-2v-3.54l4.89-1.16.35-2.49L140,165.94v-3.13l3.86-.94a6.36,6.36,0,0,1,2.13-.21l.35-3-10.48,2.61a17.17,17.17,0,0,1,.11,2.16v9.43A19.53,19.53,0,0,1,135.8,175.15Z"/></svg>