<svg id="Layer_1" data-name="Layer 1" xmlns="http://www.w3.org/2000/svg" viewBox="0 0 250 250"><defs><style>.cls-1{fill:#fff;fill-rule:evenodd;}</style></defs><path class="cls-1" d="M124.91,68.47C137,71.8,146,73.38,146,73.38A182.31,182.31,0,0,1,132.2,57.81c7-9.92,12.55-16.78,12.55-16.78A213.88,213.88,0,0,0,124,46.76a164.89,164.89,0,0,1-9.27-14.64,89.25,89.25,0,0,0-2.87,19c-10,3.88-16.25,7-16.25,7,5.4,2.43,11,4.56,16.45,6.39a106.91,106.91,0,0,0,3.25,19.81c3-5.42,6.37-10.8,9.67-15.84Z"/><path class="cls-1" d="M180.09,65.46a15.53,15.53,0,0,1-7.1,5.6,146.82,146.82,0,0,0-1.67-15.5,182.36,182.36,0,0,1-7.75,18A71.57,71.57,0,0,1,146,73.39,71.55,71.55,0,0,0,157.49,84.8a108.82,108.82,0,0,1-7.74,11.6A42.19,42.19,0,0,0,165,89.79a15.29,15.29,0,0,1,4.39,4.46s2.56-3.62,3.44-12A37.34,37.34,0,0,0,180.09,65.46Z"/><path class="cls-1" d="M177.2,42.53a39.75,39.75,0,0,0-11.32-14.75c-3.77-7.94-8.14-11.61-8.14-11.61a12.36,12.36,0,0,1-.59,6,54.53,54.53,0,0,0-18-5.29,77.24,77.24,0,0,1,14.44,12.63,77.16,77.16,0,0,1-8.87,11.55,88.07,88.07,0,0,1,16.41-2.26,112.94,112.94,0,0,1,10.19,16.77,67.3,67.3,0,0,0-1.51-16.13c5.65,1.06,7.39,3.15,7.39,3.15Z"/><path class="cls-1" d="M139.12,16.91a69.67,69.67,0,0,0-13-5,26.72,26.72,0,0,1,10-5.49A53.67,53.67,0,0,0,114.65,9.9a47.23,47.23,0,0,0-14.62.83,15.59,15.59,0,0,1,3.63,5A48.85,48.85,0,0,0,92.25,26.26,79.11,79.11,0,0,1,106.39,21c.52.94,1.06,1.88,1.66,2.82a53.74,53.74,0,0,0,6.6,8.35,38.86,38.86,0,0,1,5.82-14A122.43,122.43,0,0,1,139.12,16.91Z"/><path class="cls-1" d="M81.73,35.06a99.27,99.27,0,0,1,10.52-8.78,36.5,36.5,0,0,0-8,1,43.76,43.76,0,0,1,5.69-10.22S72.74,29.33,69.46,51.44c0,0,1.45-4,6.36-10A34.18,34.18,0,0,0,80,48.56,56.44,56.44,0,0,1,81.73,35.06Z"/><path class="cls-1" d="M95.59,58.15a98.19,98.19,0,0,0-14.33,1.37,98.88,98.88,0,0,1-1.19-11,48.4,48.4,0,0,0-6,12.92c-4.17,1.55-5.23,3-5.23,3a19,19,0,0,0,3.59,6.41,34.74,34.74,0,0,0,2.56,16,33.69,33.69,0,0,1,3.83-9.7A71.72,71.72,0,0,0,89,83.88a62.67,62.67,0,0,1-5.5-13.72,80.56,80.56,0,0,1,12-12Z"/><path class="cls-1" d="M125.17,107.17a107.75,107.75,0,0,1-12.26-6,127.11,127.11,0,0,1,2.33-16.8,75.89,75.89,0,0,1-13.13,10A122.11,122.11,0,0,1,88.92,83.88a84.31,84.31,0,0,0,6.25,13.87C91.26,99.2,87.24,99.88,83.56,99c0,0,4.35,5.43,17.75,7.73,3.72,4.41,8.25,8,13.53,9.32,0,0-1.59-1.74-2-8.31a104.59,104.59,0,0,0,12.26-.55Z"/><path class="cls-1" d="M149.46,106.63a29.54,29.54,0,0,0,.29-10.23,68,68,0,0,1-9.81,11.4,75.29,75.29,0,0,1-14.78-.63,34.74,34.74,0,0,0,8,5.84c-5.66,3.49-9.43,3.77-9.43,3.77a55.13,55.13,0,0,0,39.5-15.59,39.21,39.21,0,0,1-13.77,5.41Z"/><path class="cls-1" d="M97.87,172.29a34,34,0,0,1,48-3.23h0a34.14,34.14,0,0,1,3.8,3.9l1.65-1.56A36.3,36.3,0,0,0,100.28,167a40.62,40.62,0,0,0-3.93,3.83Z"/><polygon class="cls-1" points="120.64 154.25 110.66 156.32 108.15 144.25 117.98 142.21 118.45 144.43 111.99 145.76 112.51 148.29 118.67 147.01 119.13 149.22 112.97 150.5 113.57 153.41 120.17 152.04 120.64 154.25 120.64 154.25"/><polygon class="cls-1" points="139.66 146.46 133.71 145.21 133.14 147.9 139.09 149.16 138.62 151.37 132.68 150.12 131.63 155.06 128.26 154.34 130.81 142.28 140.12 144.25 139.66 146.46 139.66 146.46"/><path class="cls-1" d="M154,167.06l-3-2.83.47-2.65-5.08-3.52-2.24,1.41-3.3-1.87,12-7.14,3.27,2.26-2.07,14.34Zm-1-13.21-4.53,2.84,3.6,2.49.94-5.37Z"/><path class="cls-1" d="M99.21,162.11c-2.22,1.75-6,3.18-8.71,0l-4-5.08,2.64-2.09,3.89,5c1.4,1.65,3.16,1.34,4.56.23s2.12-2.75.85-4.49l-3.89-5,2.69-2.08,4,5.09c2.37,3.24.94,6.16-2,8.49Z"/><path class="cls-1" d="M166.14,155.06a58.31,58.31,0,0,0-82.42-2h0c-.83.79-1.64,1.61-2.42,2.45l-1.83-1.88a61.37,61.37,0,0,1,86.75-2h0c.6.57,1.18,1.15,1.75,1.74Z"/><path class="cls-1" d="M178.07,204.06c-7.38,0-11.86-6.18-11.86-13a11.8,11.8,0,0,1,11.43-12.15h.62c7.55,0,12.11,6,12.11,12.61,0,7.81-5.65,12.51-12.25,12.51Zm-.41-21.57c-4.6,0-6,4.38-6,7.34,0,4.34,1.88,10.68,7.22,10.68,3.77,0,6-3.37,6-7.42,0-4.29-1.67-10.6-7.23-10.6Z"/><path class="cls-1" d="M132.93,200.54c0,1.33.26,1.82,2.41,2.24v.92c-2.33-.12-3.78-.22-5.15-.22s-2.83.1-4.46.22v-.94c1.46-.27,1.72-.91,1.72-2.65V182.06c0-1-.45-1.52-1.72-1.55v-1h11c6.86,0,9.35,3.26,9.35,7.54,0,4.59-3.49,7.41-8.27,7.41-1.81,0-4.48-.94-4.48-1.71,0-.32.22-.32.56-.32s.81.11,1.29.11c3.89,0,5.41-2.2,5.41-5.27,0-3.34-2.08-4.52-5.34-4.52L133,183v17.57Z"/><path class="cls-1" d="M153.18,181.79c0-1-.44-1.52-1.7-1.55v-.94c1.63.11,3.08.22,4.44.22s2.83-.11,4.44-.22v.94c-1.25,0-1.69.51-1.69,1.55v19.42c0,1,.44,1.53,1.69,1.57v.92c-1.62-.11-3.06-.22-4.44-.22s-2.82.11-4.44.22v-.94c1.26,0,1.7-.52,1.7-1.57Z"/><path class="cls-1" d="M197.81,181.76c0-1-.45-1.51-1.71-1.54v-.94c1.64.11,3.08.22,4.45.22a17.92,17.92,0,0,0,3.27-.22l10.24,16.57h0V182.28c0-1.88-1.21-2.06-2.22-2.06v-.94c1.23.11,2.41.22,3.57.22s2.44-.11,3.62-.22v.94c-1.26,0-1.7.51-1.7,1.54V203.7H213.4l-12.26-19.14H201v16.13c0,1.89,1.23,2.08,2.23,2.08v.93c-1.22-.12-2.41-.22-3.56-.22s-2.45.1-3.63.22v-.94c1.26,0,1.71-.53,1.71-1.58V181.76Z"/><path class="cls-1" d="M226.65,195.26c.77,4.16,3.5,6.1,7.55,6.1,2.24,0,5.49-.64,5.49-3.5,0-2.3-2.36-2.91-4.12-3.43l-2.71-.8c-3.89-1.14-7.79-2.83-7.79-7.29,0-5.91,5.72-7.7,11.41-7.7a21.44,21.44,0,0,1,7.1,1.21c0,2.74.15,5.08.3,7h-.94c-.8-3.52-3.65-5.14-7.09-5.14-1.88,0-5.12.6-5.12,3.23,0,2.1,1.88,2.71,3.4,3.17l4,1.14c3.87,1.11,7.45,2.53,7.45,7.49s-5.08,7.7-11.31,7.7a24.92,24.92,0,0,1-8.3-1.37c0-3-.11-5.65-.29-7.87Z"/><path class="cls-1" d="M33.94,181.78c0-1-.43-1.51-1.7-1.55v-.94c1.64.1,3.08.22,4.44.22s2.84-.12,4.45-.22v.94c-1.25,0-1.7.52-1.7,1.55v7.35h9v-7.35c0-1-.45-1.51-1.7-1.55v-.94c1.62.1,3.07.22,4.44.22s2.83-.12,4.44-.22v.94c-1.25,0-1.7.51-1.7,1.54V201.2c0,1,.45,1.53,1.7,1.57v.93c-1.62-.12-3.06-.23-4.44-.23s-2.83.11-4.45.23v-.94c1.26,0,1.71-.53,1.71-1.57v-8.51h-9v8.48c0,1,.44,1.53,1.7,1.57v1c-1.62-.12-3.07-.23-4.45-.23s-2.82.11-4.45.23v-.94c1.28,0,1.71-.53,1.71-1.57Z"/><path class="cls-1" d="M69.31,193.06c.94-2.63,2.15-5.55,3-8.48h.08a70.62,70.62,0,0,0,2.14,8.48Zm-9,10.61c1.3-.12,2.56-.22,3.85-.22s2.56.1,3.77.22v-.94c-1.22-.08-1.75-.52-1.75-1.2a4.18,4.18,0,0,1,.3-1.29l1.64-4.38h7.22l1.19,3.6a6.1,6.1,0,0,1,.37,1.88c0,.86-.48,1.16-1.88,1.41v.92c1.59-.12,3.18-.22,4.78-.22s3.15.1,4.71.22v-.95c-1.1-.3-1.66-.79-2.22-2.41l-6.7-21.07c-1.15.11-2.35.22-3.48.22s-2.3-.12-3.49-.22v.94c1,0,1.42.59,1.42.94a5.88,5.88,0,0,1-.45,1.44L62.32,201a2.27,2.27,0,0,1-1.89,1.72v1Z"/><path class="cls-1" d="M92.1,185.28c0-1,.11-2.08.11-3.56,0-1.16-.26-1.3-1.67-1.48v-.94c1.12.1,2.44.22,3.77.22s2.66-.12,4-.22l6.56,17.15,5.82-17.18c1.29.11,2.55.22,3.84.22s2.61-.11,3.86-.22v.94c-1.29.11-1.48.51-1.48,1.52s.15,2.69.26,4l1.18,15.81c.09,1,1.15,1.12,1.89,1.24v.91c-1.6-.11-3.22-.22-4.82-.22s-3.22.11-4.72.22v-.94c1.81-.23,2.29-.56,2.29-2.27,0-.89-.12-2.56-.22-3.77l-.89-11h0l-6.19,18.23h-3.1l-7.1-18.43h-.12l-.3,10.87c0,1.88-.11,2.92-.11,3.91,0,1.89.19,2.27,2.42,2.54v.91c-1.5-.12-2.83-.22-4.27-.22a38.84,38.84,0,0,0-3.89.22v-.94c1.44-.12,2-.45,2.11-2l.82-15.48Z"/><path class="cls-1" d="M26.67,202.34a15.21,15.21,0,0,1-8.57,2.72c-8.83,0-13.82-6.86-13.82-13.88,0-7.2,5-14.15,14.55-14.15a20.44,20.44,0,0,1,6.76,1c0,2.83.15,5.51.35,8.2H24.83c-.65-3.43-3-5.24-6.48-5.24-4.66,0-8.26,3.67-8.26,9.88,0,4.66,3.84,10,9.23,10a13.64,13.64,0,0,0,7.82-3.11l-.47,4.6Z"/><path class="cls-1" d="M66.81,217.06c0-.79-.34-1.16-1.31-1.19v-.78c1.25.08,2.38.17,3.43.17,1.21,0,2.94-.09,3.77-.17v.78c-1.46,0-1.66.77-1.66,1.57v14h5.29c1.89,0,2.66-.86,3.14-3h1a30.63,30.63,0,0,0-.69,5.55H65.47v-.78c.94,0,1.31-.4,1.31-1.2Z"/><path class="cls-1" d="M85,217.2c0-.8-.34-1.18-1.31-1.21v-.78H98.13a40.41,40.41,0,0,0,.24,4.4h-.78c-.29-1.58-.7-2.12-2.24-2.12H89.23v5.57H93c1.29,0,1.49-.43,1.66-1.46h.77c-.08.71-.17,1.94-.17,2.73s.09,2,.17,2.72h-.78c-.17-1-.37-1.47-1.66-1.47H89.22v5.94h6.44c1.53,0,2-.51,2.51-2.92h.94c-.25,2.35-.32,3.88-.35,5.44H83.67v-.78c.94,0,1.31-.4,1.31-1.2Z"/><path class="cls-1" d="M102.59,233.23a1.77,1.77,0,0,0,1.5-1.31l5.6-14.2a3.54,3.54,0,0,0,.37-1.11c0-.28-.3-.73-1.09-.73v-.82c1,.08,1.82.17,2.7.17s1.8-.09,2.68-.17l5.24,16.3c.43,1.26.86,1.64,1.72,1.9v.8c-1.21-.08-2.43-.16-3.63-.16s-2.46.08-3.7.16v-.77c1.07-.2,1.45-.44,1.45-1.09a5.14,5.14,0,0,0-.3-1.44l-1-2.76h-5.54l-1.26,3.36a3.16,3.16,0,0,0-.23,1c0,.51.4.85,1.35.94v.76c-.94-.08-2-.16-3-.16s-2,.08-3,.16v-.84Zm11-7.5a53.06,53.06,0,0,1-1.65-6.6h-.06c-.66,2.29-1.57,4.54-2.31,6.6Z"/><path class="cls-1" d="M136.59,227.32c0-1.15-.51-1.21-1.79-1.24v-1c1.16.09,2.34.17,3.53.17s2.56-.08,3.84-.17v1c-1,0-1.52.29-1.52,1.57v6.41H139l-.66-1.89a7.81,7.81,0,0,1-5.64,2.29c-5.39,0-8.82-4.44-8.82-9.59,0-6.21,4.16-10,10.37-10a11,11,0,0,1,5.66,1.34c0,1.4,0,3,.17,5h-.82c-.38-2.56-2.84-3.77-5.17-3.77-4,0-5.92,3-5.92,6.73s2,7.55,5.32,7.55c2,0,3.15-.95,3.15-2.27v-2Z"/><path class="cls-1" d="M148,217.06c0-.79-.34-1.16-1.31-1.19v-.78c.94.08,2.08.17,3.28.17,1.49,0,2.67-.09,3.78-.17v.78c-1.23,0-1.54.28-1.54,1.4V228c0,3.23,1.33,3.87,3.65,3.87s3.67-.69,3.67-3.87V217.3c0-1.12-.31-1.35-1.54-1.4v-.78c1.14.08,2.3.17,3.76.17,1.21,0,2.38-.09,3.29-.17v.78c-1,0-1.31.4-1.31,1.19V227.4c0,5.29-2.76,7-7.91,7s-7.91-1.7-7.91-6.6V217.06Z"/><path class="cls-1" d="M171.12,217.2c0-.8-.34-1.18-1.3-1.21v-.78h14.45c0,1.57.09,2.82.23,4.4h-.78c-.29-1.58-.69-2.12-2.23-2.12h-6.12v5.44h3.76c1.29,0,1.5-.42,1.67-1.45h.79c-.08.71-.17,1.94-.17,2.71s.09,2,.17,2.73h-.78c-.17-1-.38-1.47-1.67-1.47h-3.76v6h6.44c1.53,0,2-.51,2.5-2.92h.94c-.25,2.35-.31,3.88-.34,5.44H169.83v-.78c.95,0,1.31-.4,1.31-1.2v-14.8Z"/><path class="cls-1" d="M189.71,241.76a3.43,3.43,0,1,0-.08,0Zm-2.82-3.43a2.76,2.76,0,1,1,0,.14Zm2.06.27h.76l1,1.71h.67l-1.12-1.73a1,1,0,0,0,1-1v-.07h0c0-.77-.46-1.12-1.38-1.12h-1.5v4h.6v-1.83Zm0-.5v-1.24h.82c.42,0,.86.1.86.58s-.45.66-.94.66Z"/></svg>