<svg id="Layer_1" data-name="Layer 1" xmlns="http://www.w3.org/2000/svg" viewBox="0 0 250 250"><defs><style>.cls-1{fill:#fff;}</style></defs><path class="cls-1" d="M122.59,58.57c.68-.91,5.07-9.06,4.18-12.71,0,0,2.83,2.26,5.24,11.28,0,0,1.19-18,2.62-20.81,0,0,2.54,13.15,3.7,20.74,0,0,3.34-11.28,6.69-13.83,0,0-5.88,18.46,5.36,24,21.88,10.35,35.51,37.92,24.08,60.45,13.25-22,4.11-52.59-18.84-63.9-12.07-6.25-4.93-28.86-4.93-28.86-9.11,3-12.17,18.4-12.17,18.4.74-12-3.9-25.37-3.9-25.37-4,7.62-3.33,25.49-3.33,25.49-.32-10.35-10-16.78-10-16.78C127.72,48.51,123.24,57.6,122.59,58.57Z"/><path class="cls-1" d="M156.1,77.7a41.72,41.72,0,0,0-19.93-8.77c22.63,4.76,34.5,30.23,29.34,51.82C162.44,147.29,186.21,99.93,156.1,77.7Z"/><path class="cls-1" d="M121.75,71.65c7.07-.7,6.23-5.32,3.87-7.3-25.74-9.19-50.46,41.58-27.86,67.91,11.5,16.19,42.6,27.24,55,8.49,2.57-3.88,14-2.46,14.09-3.59l.66.15c0-2-6.44-2.71-6.44-2.71a6.31,6.31,0,0,0-7.23-2.08c-.31.13-1.36-.91-3.69-.41,0,0,2.21.33,2.15,1.27,0,0-3.48-1.42-5.44-.19,0,0,2.72.07,3.33,1.44,0,0-1.89-.71-4,1.3,8.23-.83,3,7.66-9.27,5.77-13-.72-34.65-9.07-28.78-28,2.54-5,9.59-.4,7,4.25,5.8-10.43-12.51-14.2-12.75,1-5-11-6.68-25.55,8-30.69,2-.68,4.66-.63,5,1.91.58,3.67-4.37,6-7.28,3.79,14.31,8.85,12.9-21-8.22-4.06C109,60.33,135.88,63,121.75,71.65Z"/><path class="cls-1" d="M136.94,141.66c2.42-11.87,14.29-17.49,5.31-33.9-9-15.38-14.48-27.39-8.82-33.89,0,0-11.75,9.38-4.18,27.53,6.05,14.53,2.45,22.53,2.45,22.53.48-10.2-8-18.86-6.61-28,0,0-4.88,5.38-.33,17.84,2,5.48,1.44,14.17,1.44,14.17s-4.83-8.63-4.49-15.79c-4.07,7.29-.71,27.13,14,38.26A71.67,71.67,0,0,1,136.94,141.66Z"/><path class="cls-1" d="M32.83,204.43a.16.16,0,0,1-.13.09H29.44a4.3,4.3,0,0,1-2.65-.71,2.94,2.94,0,0,1-.89-2.38V195a2.84,2.84,0,0,1,.89-2.37,4.11,4.11,0,0,1,2.65-.73h3.2a.22.22,0,0,1,.13.08.38.38,0,0,1,0,.15V193c0,.14-.06.2-.18.2H29.44a4.27,4.27,0,0,0-1.07.1,1.33,1.33,0,0,0-.61.29,1.05,1.05,0,0,0-.29.55,3.55,3.55,0,0,0,0,.8v2.31h5.1a.25.25,0,0,1,.23.1.29.29,0,0,1,.1.23v.62a.26.26,0,0,1-.1.23.33.33,0,0,1-.23.1h-5.1v2.81a4.34,4.34,0,0,0,.08.8,1.14,1.14,0,0,0,.29.54,1.45,1.45,0,0,0,.61.3,4.79,4.79,0,0,0,1.07.09H32.7c.12,0,.18.07.18.2v.85A.23.23,0,0,1,32.83,204.43Z"/><path class="cls-1" d="M45.76,203.49c-8.65,4.86-7.5-5.85-7.41-11,0-.51,1.18-.36,1.46-.22.5,1.91-.59,8.55.68,10.2,1.23,1.47,4.37,1.08,4.71-1,.53-1.13-.44-8.42.45-9.31.27.07,1.26-.21,1.23.32C46.57,195,47.78,201.49,45.76,203.49Z"/><path class="cls-1" d="M61.18,204.27c0,.37-1.64.32-1.72,0l-3-5H54.24v4.88c0,.53-1.53.51-1.49,0V192.52c.17-.77,1.94-.29,2.56-.42,4.84-1.11,8,5.18,2.88,7.08l3,5A.06.06,0,0,1,61.18,204.27Zm-2-8.67c.12-2.65-3.26-2.2-5-2.22v4.55c1.84,0,5.15.4,5-2.32Z"/><path class="cls-1" d="M74.82,199.38c-.32,8.55-10.75,6-9-2.14C66.15,188.69,76.57,191.21,74.82,199.38Zm-1.58-2.14c.74-3.67-4.62-5.6-5.72-1.78a19,19,0,0,0-.2,3.92C67.44,205.58,74.5,204.27,73.24,197.24Z"/><path class="cls-1" d="M88.24,195.84c.23,3.42-3.71,4-6.34,3.67-.13.19.32,5.24-.3,5-.28-.08-1.25.21-1.2-.34v-11.6c.11-.71,1-.38,1.68-.52C84.69,191.81,88.57,192.41,88.24,195.84Zm-1.51-.22c.18-2.56-3-2.44-4.8-2.27v4.85C83.86,198.3,87,198.38,86.73,195.62Z"/><path class="cls-1" d="M100.51,204.43c-1.85.12-4.34.46-6-.62-1.66-1.27-.61-7-.89-8.78-.27-2,1.71-3.3,3.54-3.09h3.24c.28,0,.07.89.13,1.06-3.61,1-5.91-1.79-5.4,4.24h5.13c.46,0,.31.67.33.95.28.68-5.27.19-5.46.33.1,1.62-.71,5,2,4.54h3.21c.34,0,.12.88.18,1.05A.22.22,0,0,1,100.51,204.43Z"/><path class="cls-1" d="M114.83,204.22c0,.46-1.23.29-1.47.19s-1-3.83-1.12-4h-4.31c-.1.17-1,3.88-1.17,4s-1.48.27-1.47-.19c-.08-.1,3.08-10.84,3.07-10.94.34-1.62,3-1.76,3.38-.07C111.75,193.4,114.87,204,114.83,204.22Zm-4.46-10.59c-.75-1.82-1.91,5.44-2.13,5.47h3.67Z"/><path class="cls-1" d="M128.44,204.34c-.39.24-1.56.31-1.86-.12,0-.07-5.17-9.74-5.13-9.81-.09.33.17,9.68-.08,10-.19.15-1.45.23-1.47-.06V192.6c0-.73,1.85-.64,2.08-.13l5.1,9.71h0c.17-.24-.38-10.21.29-10.05.27.06,1.21-.2,1.17.32S128.79,203.93,128.44,204.34Z"/><path class="cls-1" d="M149.24,204.35c-5.47,1.41-8.35-1.68-7.62-7.15-.5-4.55,4.21-6,7.78-4.88.49,1.67-.43,1-1.57,1.12-2.81-.37-4.9.71-4.68,3.82-.33,3.7.39,6.93,4.88,6,.07-.22-.14-4.82.08-5s1.43-.29,1.43.23C149.44,198.6,149.85,204.66,149.24,204.35Z"/><path class="cls-1" d="M164.24,204.22c0,.46-1.23.29-1.46.19a37.65,37.65,0,0,1-1.18-4h-4.31c-.11.17-.95,3.89-1.17,4s-1.48.27-1.46-.19c-.08-.1,3.09-10.84,3.08-10.94.32-1.62,3-1.76,3.37-.07C161.1,193.34,164.31,204.09,164.24,204.22Zm-4.45-10.59c-.78-1.78-1.92,5.43-2.16,5.47h3.61Z"/><path class="cls-1" d="M179.24,204.39c-.28.15-1.32.27-1.33-.24v-9.9h0c-.45.47-2.2,5.67-3.13,5.4-1.89.79-3.13-4.47-3.9-5.4h0v9.9c0,.52-1.47.51-1.46,0V192.62c0-.73,1.84-.65,2.08-.2.21,0,2.76,6.75,3.14,5.7.26-.2,2.7-6.46,3.29-6,.4.06,1.57-.24,1.54.49C179.26,192.86,179.88,204.38,179.24,204.39Z"/><path class="cls-1" d="M192.24,204.43c-1.85.12-4.36.46-6.05-.62-1.67-1.26-.61-7-.89-8.78-.28-2,1.71-3.3,3.54-3.09h3.24c.27,0,.06.89.12,1.06-3.61,1-6-1.81-5.44,4.24h5.1c.47,0,.32.67.34.95.27.68-5.24.19-5.44.33.11,1.63-.71,5,2.05,4.54H192c.36,0,.13.88.19,1.05A.25.25,0,0,1,192.24,204.43Z"/><path class="cls-1" d="M204.8,201.28c.09,3.69-4.52,3.68-7.11,3-.22-1.61.57-1,1.7-1.13,5.93.36,4.38-3.39.24-5.19-4.32-2.18-2-6.87,2.43-6.05a11.2,11.2,0,0,1,1.53.07c.22.08.91,0,.87.35s.19,1-.29,1c-1.86-.23-7.18-.39-4.7,2.68C201.27,197.6,204.89,198.34,204.8,201.28Z"/><path class="cls-1" d="M49.35,176.84c2.58,0,2.58-4,2.58-5.28a7,7,0,0,0-7-7c-5.8.4-19.23-2.5-19,7h0c.23,5.7-2,17.74,7,17.57h12a7,7,0,0,0,7-7C51.93,180.93,51.93,176.84,49.35,176.84Zm-19-5.28A2.58,2.58,0,0,1,32.93,169h12c3.44-.05,3.43,5.7,0,5.66H30.32Zm17.21,10.57A2.59,2.59,0,0,1,45,184.71H32.9c-3,0-2.62-3.64-2.58-5.67H45a2.72,2.72,0,0,1,2.64,2.8A2.85,2.85,0,0,1,47.56,182.13Z"/><path class="cls-1" d="M131.44,182.17a2.59,2.59,0,0,1-2.58,2.58h-12a2.6,2.6,0,0,1-2.58-2.58h0V164.63h-4.4c1,19.6-5.82,26.15,19.08,24.54,10.79.25,6-18.4,7-24.54h-4.4Z"/><path class="cls-1" d="M73.16,164.63c-24.91-1.64-18.06,5.06-19,24.55h4.4V179.09H75.74v10.06h4.4C79.17,183,83.93,164.43,73.16,164.63ZM58.53,174.69c0-2-.44-5.71,2.58-5.66h12c3-.06,2.62,3.63,2.58,5.66Z"/><rect class="cls-1" x="82.34" y="164.63" width="4.4" height="24.52"/><path class="cls-1" d="M91.9,174.93l15.74-10.3h-7.53l-11.32,7.21c-7.46,8.32,6.27,13.49,11.32,17.3h7.53L91.9,178.61a2.59,2.59,0,0,1,0-3.65Z"/><path class="cls-1" d="M197.65,164.63c-6.11.85-23.17-3.51-23,7,.23,5.69-2,17.73,7,17.56,6.11-.85,23.17,3.51,23-7C204.44,176.5,206.68,164.45,197.65,164.63Zm2.59,17.54a2.59,2.59,0,0,1-2.59,2.58h-16c-4.49.28-2-10.83-2.58-13.14a2.59,2.59,0,0,1,2.58-2.58h16c4.51-.3,2,10.83,2.59,13.14Z"/><rect class="cls-1" x="206.84" y="164.63" width="4.39" height="39.97"/><path class="cls-1" d="M172.44,184.75h-23c-3.43,0-3.44-5.7,0-5.65h16c9.17.13,9.18-14.65,0-14.51-6.33.81-23.83-3.59-23,7.62h4.4a2.7,2.7,0,0,1,2.58-3.2h16a2.67,2.67,0,0,1,2.62,2.72c0,.13,0,.25,0,.37-.94,7.52-25.4-4.1-25.58,9.58a7,7,0,0,0,6.5,7.47l.5,0h23Z"/><path class="cls-1" d="M243.44,169v-4.39h-30v13.61a7,7,0,0,0,7,7h16a2.55,2.55,0,0,1,2.58,2.54v0h0v9.64a2.58,2.58,0,0,1-2.57,2.59h-16a2.6,2.6,0,0,1-2.59-2.58v-4.82h-4.41v4.82a7,7,0,0,0,7,7h16a7,7,0,0,0,7-7v-9.61a7,7,0,0,0-7-7h-16a2.58,2.58,0,0,1-2.58-2.57v-9.22Z"/><path class="cls-1" d="M29.73,161.12a1.27,1.27,0,0,1-.09.47.92.92,0,0,1-.28.42,1.48,1.48,0,0,1-.5.3,2.42,2.42,0,0,1-.76.12h-.66l-.5-.1h-.08a.11.11,0,0,1,0-.08v-.58a.14.14,0,0,1,0-.09.11.11,0,0,1,.08,0h1.13a.68.68,0,0,0,.42-.1.43.43,0,0,0,.11-.32.35.35,0,0,0-.08-.22,1.19,1.19,0,0,0-.31-.23l-.83-.49c-.12-.08-.23-.17-.34-.26a1.39,1.39,0,0,1-.21-.27,1.88,1.88,0,0,1-.12-.3,1.6,1.6,0,0,1,0-.31,1.39,1.39,0,0,1,.08-.46,1.05,1.05,0,0,1,.25-.37,1.4,1.4,0,0,1,.47-.24,2.29,2.29,0,0,1,.73-.09h1.29a.11.11,0,0,1,0,.08v.6a.08.08,0,0,1,0,.07.11.11,0,0,1-.08,0h0l-.27.12h-1a.66.66,0,0,0-.36.08.28.28,0,0,0-.1.24v.11a.61.61,0,0,0,.07.1l.12.09.2.12.76.41a1.55,1.55,0,0,1,.64.55A1.29,1.29,0,0,1,29.73,161.12Z"/><path class="cls-1" d="M33.29,158.75H32.2v3.47a.14.14,0,0,1,0,.09h-1a.14.14,0,0,1,0-.09v-3.47h-1a.06.06,0,0,1-.08,0,.07.07,0,0,1,0-.08l0,0v-.74h3.17a.11.11,0,0,1,0,.08v.62A.09.09,0,0,1,33.29,158.75Z"/><path class="cls-1" d="M19.73,157.93H7.07v4.49h4.48v38.2a4,4,0,0,0,4,4h4.2a4,4,0,0,0,4-4V161.93a4,4,0,0,0-4-4Z"/></svg>