<svg id="Layer_1" data-name="Layer 1" xmlns="http://www.w3.org/2000/svg" viewBox="0 0 250 250"><defs><style>.cls-1{fill:#fff;}</style></defs><path class="cls-1" d="M56.8,242.46a6.68,6.68,0,0,1-2.34-.42l.17-.81a7.7,7.7,0,0,0,2.19.34c1.25,0,1.52-.33,1.52-1.23s0-1.15-1.63-1.52c-1.89-.41-2.11-.78-2.11-2.4,0-1.36.56-2,2.5-2a9.52,9.52,0,0,1,2.12.25l-.09.87a9,9,0,0,0-2-.23c-1.27,0-1.51.25-1.51,1.16,0,1.09,0,1.13,1.55,1.52,2.08.51,2.19.82,2.19,2.35,0,1.36-.4,2.14-2.55,2.14"/><path class="cls-1" d="M62.79,242.46a2,2,0,0,1-2.3-1.65v0a1.77,1.77,0,0,1,0-.46v-1.66a2,2,0,0,1,1.82-2.16h0a1.7,1.7,0,0,1,.45,0,2,2,0,0,1,2.3,1.65.13.13,0,0,0,0,.06,3.23,3.23,0,0,1,0,.44v1.66a2,2,0,0,1-1.82,2.17h-.07a1.62,1.62,0,0,1-.44,0m0-5.11c-.89,0-1.34.43-1.34,1.27v1.72c0,.84.45,1.26,1.34,1.26s1.34-.42,1.34-1.26v-1.72C64.13,237.78,63.69,237.35,62.79,237.35Z"/><path class="cls-1" d="M67.34,236.61V241c0,.37.19.53.55.53a5,5,0,0,0,2-.58v-4.33h1v5.74h-.81l-.09-.5a6.14,6.14,0,0,1-2.3.61c-.92,0-1.25-.57-1.25-1.46v-4.39Z"/><path class="cls-1" d="M75.37,242.25a3.53,3.53,0,0,1-1.2.21c-1,0-1.42-.35-1.42-1.3v-3.72h-1v-.83h1V235.2l1-.13v1.54h1.62l-.08.83H73.74V241c0,.42.06.64.58.64a3.61,3.61,0,0,0,.92-.15Z"/><path class="cls-1" d="M79.88,242.35V238c0-.37-.19-.53-.55-.53a5.27,5.27,0,0,0-1.94.59v4.32h-1v-8.07l1-.15V237a5.64,5.64,0,0,1,2.21-.6c.91,0,1.24.57,1.24,1.46v4.39Z"/><polygon class="cls-1" points="84.69 234.51 89.3 234.51 89.3 235.42 85.7 235.42 85.7 237.88 89.04 237.88 89.04 238.78 85.7 238.78 85.7 241.44 89.31 241.44 89.31 242.35 84.69 242.35 84.69 234.51"/><path class="cls-1" d="M94.69,242.35h-.84l-.06-.43a3.33,3.33,0,0,1-1.86.54c-1.07,0-1.51-.64-1.51-1.64,0-1.19.6-1.62,1.75-1.62h1.52v-.89c0-.71-.32-1-1.24-1a8.88,8.88,0,0,0-1.71.2l-.11-.79a7.88,7.88,0,0,1,1.88-.25c1.63,0,2.18.63,2.18,1.86Zm-1-2.32H92.25c-.61,0-.83.18-.83.76s.1.83.81.83a2.92,2.92,0,0,0,1.48-.48Z"/><path class="cls-1" d="M97.71,242.46a5.61,5.61,0,0,1-1.82-.31l.13-.77a6.42,6.42,0,0,0,1.63.24c.91,0,1.06-.17,1.06-.78s0-.68-1.19-1C96.09,239.49,96,239.2,96,238s.48-1.54,2-1.54a6,6,0,0,1,1.62.2l-.07.81a9.31,9.31,0,0,0-1.58-.17c-.86,0-1,.21-1,.72s0,.75,1,1c1.64.42,1.77.61,1.77,1.75s-.34,1.66-2,1.66"/><path class="cls-1" d="M104,242.25a3.53,3.53,0,0,1-1.2.21c-1,0-1.42-.35-1.42-1.3v-3.72h-1v-.83h1V235.2l1-.13v1.54H104l-.09.83h-1.56V241c0,.42.06.64.6.64a3.53,3.53,0,0,0,.91-.15Z"/><polygon class="cls-1" points="111.81 242.35 111.81 238.79 108.34 238.79 108.34 242.35 107.33 242.35 107.33 234.51 108.34 234.51 108.34 237.89 111.81 237.89 111.81 234.51 112.82 234.51 112.82 242.35 111.81 242.35"/><path class="cls-1" d="M118.52,242.35h-.83l-.06-.43a3.33,3.33,0,0,1-1.86.54c-1.07,0-1.52-.64-1.52-1.64,0-1.19.61-1.62,1.75-1.62h1.52v-.89c0-.71-.31-1-1.24-1a10.92,10.92,0,0,0-1.72.2l-.1-.79a7.87,7.87,0,0,1,1.87-.25c1.64,0,2.18.63,2.18,1.86Zm-1-2.32h-1.46c-.61,0-.83.18-.83.76s.1.83.81.83a2.92,2.92,0,0,0,1.48-.48Z"/><path class="cls-1" d="M123.43,242.35V238c0-.37-.2-.53-.56-.53a5.08,5.08,0,0,0-1.94.58v4.33h-1V236.6h.8l.1.5a6.14,6.14,0,0,1,2.31-.61c.91,0,1.24.57,1.24,1.46v4.39Z"/><path class="cls-1" d="M125.72,238.37a1.66,1.66,0,0,1,1.41-1.87,1.69,1.69,0,0,1,.45,0,10,10,0,0,1,1.64.17v-2.39l1-.15v8.22h-.84l-.08-.53a3,3,0,0,1-1.89.64c-1.13,0-1.68-.6-1.68-1.75Zm3.5-.82a10.47,10.47,0,0,0-1.58-.18.85.85,0,0,0-1,.67.62.62,0,0,0,0,.33v2.34c0,.59.18.88.87.88a2.77,2.77,0,0,0,1.63-.68Z"/><path class="cls-1" d="M136.27,240.32c0,1.31-.47,2.14-2.43,2.14a10.21,10.21,0,0,1-2-.22v-8l1-.15V237a4,4,0,0,1,1.81-.4c1.19,0,1.68.69,1.68,1.79Zm-3.49,1.19a8.47,8.47,0,0,0,1.13.08c1.16,0,1.38-.47,1.38-1.24v-2.1c0-.58-.26-.88-1-.88a4.32,4.32,0,0,0-1.58.43Z"/><path class="cls-1" d="M141.65,242.35h-.83l0-.43a3.33,3.33,0,0,1-1.86.54c-1.07,0-1.52-.64-1.52-1.64,0-1.19.6-1.62,1.75-1.62h1.53v-.89c0-.71-.32-1-1.25-1a10.92,10.92,0,0,0-1.72.2l-.1-.79a7.88,7.88,0,0,1,1.88-.25c1.64,0,2.17.63,2.17,1.86Zm-1-2.32h-1.43c-.61,0-.84.18-.84.76s.11.83.82.83a2.92,2.92,0,0,0,1.48-.48Z"/><polygon class="cls-1" points="143.1 242.35 143.1 234.28 144.09 234.13 144.09 242.35 143.1 242.35"/><polygon class="cls-1" points="145.68 242.35 145.68 234.28 146.66 234.13 146.66 242.35 145.68 242.35"/><path class="cls-1" d="M156.52,242.35h-1l-.65-1.89h-3.35l-.63,1.89h-1l2.65-7.84h1.36Zm-3.33-7.11-1.4,4.34h2.8Z"/><path class="cls-1" d="M159.09,242.46a5.61,5.61,0,0,1-1.82-.31l.12-.77a6.44,6.44,0,0,0,1.64.24c.9,0,1.06-.17,1.06-.78s0-.68-1.2-1c-1.43-.35-1.55-.64-1.55-1.83s.46-1.54,1.94-1.54a6,6,0,0,1,1.63.2l-.07.81a9.66,9.66,0,0,0-1.6-.17c-.84,0-1,.21-1,.72s0,.75,1,1c1.65.42,1.77.61,1.77,1.75s-.34,1.66-1.94,1.66"/><path class="cls-1" d="M164,242.46a5.61,5.61,0,0,1-1.82-.31l.13-.77a6.42,6.42,0,0,0,1.63.24c.91,0,1.06-.17,1.06-.78s0-.68-1.19-1c-1.43-.35-1.56-.64-1.56-1.83s.48-1.54,2-1.54a6,6,0,0,1,1.62.2l-.07.81a9.31,9.31,0,0,0-1.58-.17c-.85,0-1,.21-1,.72s0,.75,1,1c1.64.42,1.77.61,1.77,1.75s-.34,1.66-2,1.66"/><path class="cls-1" d="M169.26,242.46a2,2,0,0,1-2.3-1.66v-.05a1.62,1.62,0,0,1,0-.44v-1.66a2.33,2.33,0,1,1,4.66,0v1.66a2,2,0,0,1-1.82,2.17h-.07a1.69,1.69,0,0,1-.45,0m0-5.11c-.88,0-1.33.43-1.33,1.27v1.72c0,.84.45,1.26,1.33,1.26s1.35-.42,1.35-1.26v-1.72a1.19,1.19,0,0,0-1.37-1.29Z"/><path class="cls-1" d="M172.52,240.38v-1.8c0-1.31.5-2.08,2.29-2.08a5.69,5.69,0,0,1,1.36.17l-.09.83a5.83,5.83,0,0,0-1.25-.13c-1,0-1.31.29-1.31,1.17v1.88c0,.88.33,1.17,1.31,1.17a5.83,5.83,0,0,0,1.25-.13l.1.83a5.78,5.78,0,0,1-1.37.17c-1.84,0-2.29-.77-2.29-2.08"/><path class="cls-1" d="M178.41,235.7h-1v-1.42h1Zm-1,6.65h1m0,0h-1v-5.74h1Z"/><path class="cls-1" d="M184,242.35h-.83l-.06-.43a3.33,3.33,0,0,1-1.86.54c-1.07,0-1.52-.64-1.52-1.64,0-1.19.61-1.62,1.75-1.62H183v-.89c0-.71-.31-1-1.24-1a10.92,10.92,0,0,0-1.72.2l-.1-.79a7.87,7.87,0,0,1,1.87-.25c1.64,0,2.18.63,2.18,1.86ZM183,240h-1.42c-.61,0-.84.18-.84.76s.11.83.81.83a2.92,2.92,0,0,0,1.48-.48Z"/><path class="cls-1" d="M188.45,242.25a3.53,3.53,0,0,1-1.2.21c-1,0-1.42-.35-1.42-1.3v-3.72h-1v-.83h1V235.2l1-.13v1.54h1.64l-.08.83h-1.53V241c0,.42,0,.64.58.64a3.53,3.53,0,0,0,.91-.15Z"/><path class="cls-1" d="M190.52,235.7h-1v-1.42h1Zm-1,6.65h1m0,0h-1v-5.74h1Z"/><path class="cls-1" d="M194.13,242.46a2,2,0,0,1-2.3-1.64v-.06a1.7,1.7,0,0,1,0-.45v-1.66a2.33,2.33,0,1,1,4.66,0v1.66a2,2,0,0,1-1.82,2.17h-.07a1.62,1.62,0,0,1-.44,0m0-5.11c-.89,0-1.34.43-1.34,1.27v1.72c0,.84.45,1.26,1.34,1.26s1.34-.42,1.34-1.26v-1.72c0-.86-.47-1.29-1.36-1.29Z"/><path class="cls-1" d="M201.21,242.35V238c0-.37-.19-.53-.56-.53a5.26,5.26,0,0,0-1.94.58v4.33h-1V236.6h.8l.1.5a6.14,6.14,0,0,1,2.3-.61c.92,0,1.25.57,1.25,1.46v4.39Z"/><path class="cls-1" d="M72,226.85a37.37,37.37,0,0,1-12.91-2.29L60,220a41.39,41.39,0,0,0,12.16,1.89c7,0,8.44-1.82,8.44-6.81,0-5.88-.07-6.4-9-8.43-10.54-2.35-11.8-4.37-11.8-13.4,0-7.58,3.14-11.24,13.92-11.24a49.76,49.76,0,0,1,11.77,1.44L85,188.2A53.64,53.64,0,0,0,73.79,187c-7.12,0-8.44,1.43-8.44,6.47,0,6,0,6.28,8.63,8.44,11.54,2.92,12.17,4.57,12.17,13.09,0,7.58-2.22,11.9-14.19,11.9"/><polygon class="cls-1" points="92.78 182.64 118.42 182.64 118.42 187.68 98.4 187.68 98.4 201.34 116.98 201.34 116.98 206.37 98.4 206.37 98.4 221.15 118.48 221.15 118.48 226.19 92.78 226.19 92.78 182.64"/><polygon class="cls-1" points="150.72 226.19 150.72 206.44 131.43 206.44 131.43 226.19 125.8 226.19 125.8 182.64 131.43 182.64 131.43 201.41 150.72 201.41 150.72 182.64 156.34 182.64 156.34 226.19 150.72 226.19"/><path class="cls-1" d="M197.69,226.24H192l-3.55-10.51H170l-3.59,10.51h-5.7l14.72-43.55H183Zm-18.48-39.49-7.79,24.12H187Z"/><polygon class="cls-1" points="78.54 72.67 82.74 102.65 71.65 121.54 54.45 108.52 48.91 83.3 61.7 64.41 78.54 72.67"/><path class="cls-1" d="M56,118l18,9.16,19.68,25.56.22,3.23A78.75,78.75,0,0,1,56,118"/><path class="cls-1" d="M63.73,43.37l-2,14.82L51,66A77.91,77.91,0,0,1,62,41Z"/><path class="cls-1" d="M178.43,45.41l20.72,10.07c.55.61,1.06,1.24,1.54,1.87a77.35,77.35,0,0,1,4.73,21.55c-.12.45-.24.9-.38,1.35L188.52,93.36,173.68,69.59Z"/><path class="cls-1" d="M154.68,18.25l.82-6.62a78.77,78.77,0,0,1,40.74,35.95l-20.53-9.41Z"/><path class="cls-1" d="M119.52,19.61l-14.89-10a79.13,79.13,0,0,1,42.44-.75l.39,7.33Z"/><path class="cls-1" d="M102,158.75l24.44-1.69,10.82,5.54a78.88,78.88,0,0,1-35.11-3.44Z"/><polygon class="cls-1" points="131.94 76.85 120.64 104.68 89.86 101.97 84.43 71.31 110.24 54.12 131.94 76.85"/><polygon class="cls-1" points="137.15 68.82 115.76 48.57 125.37 23.01 152.65 23.01 173.34 42.69 164.97 66.11 137.15 68.82"/><polygon class="cls-1" points="108.86 46.09 81.94 64.75 64.41 56.49 68.25 36.81 93.37 17.91 113.05 24.48 108.86 46.09"/><polygon class="cls-1" points="135.8 135.34 124.02 151.52 99.59 151.18 79.91 129.91 89.52 109.89 119.85 111.58 135.8 135.34"/><path class="cls-1" d="M202.86,89.86l1,11.3a79.72,79.72,0,0,1-4,13L186.3,107l2.81-5.78Z"/><polygon class="cls-1" points="139.85 80.25 168.82 75.73 185.34 99.59 182.46 105.02 152.7 89.38 140.39 109.63 163.51 126.67 143.36 130.58 127.42 107.51 139.85 80.25"/><polygon class="cls-1" points="147.72 158.07 133.63 154 145.07 137.03 159.52 135.54 147.72 158.07"/><path class="cls-1" d="M90.74,15.83,68,33.18A78.64,78.64,0,0,1,88.84,16.26Z"/></svg>