<svg id="Layer_1" data-name="Layer 1" xmlns="http://www.w3.org/2000/svg" viewBox="0 0 250 250"><defs><style>.cls-1{fill:#fdfdfd;}</style></defs><path class="cls-1" d="M94.36,173.82l1.34,11H90.43l1.34-11,1.34-14.3Zm33.77,3.12h-2.87v19.33l2.87,0c3.26,0,3.45-2.2,3.45-9.78S131.4,176.94,128.13,176.94Zm3.08-20.62c0-7.68-.1-9.31-3.27-9.31h-2.68v18.45l2.68,0C131,165.43,131.21,164,131.21,156.32Zm60.59-53.51V210.67c0,14.18-14.16,14.17-14.16,14.17H77.29c-14.17,0-14.17-14.17-14.17-14.17V51.87c0-14.17,14.17-14.17,14.17-14.17H97.4a57.33,57.33,0,0,0,47.9,89,56.67,56.67,0,0,0,25-5.75v0l1.28-.66A56.91,56.91,0,0,0,191.8,102.81ZM110.69,207l-10.46-71.49H86.39L76,207h11.8l1.25-10.55h8L98.38,207Zm32.37-19.28c0-11.13-.1-16.89-5-18.23,4.39-1.83,4.51-7.58,4.51-15.64,0-11.8-1.25-17.94-13.34-17.94H113.6V207h15.74C140.08,207,143.06,201.26,143.06,187.74ZM178.92,207l-10.47-71.49H154.62L144.26,207h11.8l1.25-10.55h8L166.61,207Zm-17.58-47.5L160,173.82l-1.34,11h5.27l-1.34-11Zm9.81-40h0A56.59,56.59,0,0,1,95,95.31s0,0,0,0a56.5,56.5,0,1,1,76.13,24.26Zm-17.92-102c4,11.94,5.1,24.9.44,37.6a97.44,97.44,0,0,1,11.75,9.6A118.09,118.09,0,0,0,177,27.73,52.93,52.93,0,0,0,153.23,17.59ZM102.66,38.53A95.39,95.39,0,0,1,149.5,52.46c4.88-11.58,4.23-23.76.86-35.24a52.47,52.47,0,0,0-47.7,21.31ZM93.29,78c22.56.47,44.42-4.1,53.91-20.83l.19-.36c-15.34-9.61-32.11-13.45-47.25-14.5A52.62,52.62,0,0,0,93.29,78ZM120,115.55a271.26,271.26,0,0,0,28-26,107.16,107.16,0,0,0,15-20.21,87.06,87.06,0,0,0-11.24-9.59c-9.15,18.18-33.33,22-58,20.41A52.5,52.5,0,0,0,120,115.55Zm47.72,1.28c-1.82-15.07-1.14-29,5.09-36.73-1.77-2-3.65-4.14-5.63-6.28A120.47,120.47,0,0,1,153.08,92.9a204.46,204.46,0,0,1-27.74,25.19A52.41,52.41,0,0,0,167.68,116.83Zm20.17-17a186.08,186.08,0,0,0-12.66-16.91c-4.71,6.18-5.43,18.4-4.23,32.18A52.23,52.23,0,0,0,187.85,99.85Zm8.25-18.22c-6.5-3.22-12.56-4.36-17.27-1.82a142,142,0,0,1,11.39,16.37A52.49,52.49,0,0,0,196.1,81.63Zm.84-4.25A52.37,52.37,0,0,0,181.9,32a113.39,113.39,0,0,1-12.13,37.2q3.57,3.81,6.65,7.49C182.38,72.61,189.55,73.61,196.94,77.38Z"/></svg>