<svg id="Layer_1" data-name="Layer 1" xmlns="http://www.w3.org/2000/svg" viewBox="0 0 250 250"><defs><style>.cls-1{fill:#fff;}</style></defs><path class="cls-1" d="M63.31,59c2.24-7.2,5.76-13,10.48-13.55,9.06-1,19.62,14.2,21.46,32.05C97,94.05,93.09,112.14,84,113.15c-5.52.61-10.63-1.64-14.59-10.22,6.11,1.68,13.86-.77,13.86-.77,2.76-8.92,2.75-25.33,2.75-25.33C80.39,61.83,74.21,55,74.21,55A46.58,46.58,0,0,0,63.31,59Z"/><path class="cls-1" d="M70.55,93.72c-3.55.43-7.12-4.89-8-11.89s1.38-13,4.94-13.38,7.13,4.87,8,11.84S74.12,93.32,70.55,93.72Z"/><path class="cls-1" d="M151.89,59.47a11.82,11.82,0,1,1,0-.25Z"/><path class="cls-1" d="M173.22,57.13c-2.28-19.82-19.28-34.16-38-32s-32,20-29.76,39.77c1.92,17,14.79,30,30.27,32,0,0-.3-3.43-.71-6.82s-.86-6.72-.86-6.72l-4,.43a74.42,74.42,0,0,1-8.31-9.6,63.83,63.83,0,0,1-5.76-10.43s1.72-6.12,4-11.76,5.16-11,5.16-11a104.31,104.31,0,0,1,11.08-1.92c6-.69,12.25-.73,12.25-.73a75.86,75.86,0,0,1,7.68,9.11,89.51,89.51,0,0,1,6.43,11,52.93,52.93,0,0,1-3.06,11.25,74.83,74.83,0,0,1-6.14,11.52l-3.66.6s.49,3.22.73,6.52c.27,3.48.43,6.91.43,6.91C165.55,89.73,175.17,74.16,173.22,57.13Z"/><path class="cls-1" d="M166.41,27.48c-8.64-7.74-15.73-13.82-15.63-14.19,0-.18,2.17.74,5.51,2.46a62.73,62.73,0,0,1,12.48,8.64c8.88,7.83,13.54,16.32,13.44,16.69S175,35.2,166.41,27.48Z"/><path class="cls-1" d="M104.66,11.94A67.8,67.8,0,0,0,92.48,17.7c4.8-1,14.24-3,23-8.52A61.33,61.33,0,0,0,104.66,11.94Z"/><path class="cls-1" d="M136.18,9.9c-.33-1-6.24-2-13.8-1.5a12.18,12.18,0,0,1,4.23,1.43l-16.76,7.51-20,5.25a4.34,4.34,0,0,1-2.51-1.38c-5.2,4-8.51,7.52-8.46,8.38.2,1.71,13.85-1.46,29.66-6.9S136.75,11.52,136.18,9.9Z"/><path class="cls-1" d="M181.2,80.28c2.07-14.68,5-26.69,6.49-26.19.9.31,4.7,13.12,2.59,27.84-1.76,12.32-7.6,25.43-10.06,25.28C178.72,107.16,179.15,95,181.2,80.28Z"/><path class="cls-1" d="M115.36,135.62c-7.37-1.5-11.06-4.38-12.08-8.38-2.27-8.83,12.08-17,29.84-19.69,16.22-2.47,30.17,2.73,31.68,8.77,1.14,4.68-1.05,8.46-7.25,12.55a30.89,30.89,0,0,0,.27-10.15c-9.12-2.43-23.43-3.78-23.43-3.78C119,120.77,112.25,126,112.25,126A26,26,0,0,0,115.36,135.62Z"/><path class="cls-1" d="M149,127.9c.51,3.13-4.7,6.58-11.64,7.68s-13-.54-13.44-3.68,4.7-6.61,11.64-7.68S148.48,124.76,149,127.9Z"/><path class="cls-1" d="M51.83,181.63v-23h6v17.8h7.28v5.23Z"/><path class="cls-1" d="M74.82,181.63v-23h6v23Z"/><path class="cls-1" d="M102.72,157.75a11.21,11.21,0,0,1,10.4,5.76l-4.8,2.64a6.31,6.31,0,0,0-5.66-3.17c-3.93,0-5.76,3.19-5.76,7.39,0,3.9,1.81,7,6.26,7,2.56,0,4.9-1.92,5.11-4.08H103v-4.81h11.57v1.27c0,6.83-3.16,12.68-11.79,12.68-7.33,0-12-5.61-12-12.31A12,12,0,0,1,102.72,157.75Z"/><path class="cls-1" d="M130.28,158.6v14.12c0,3.08,1.88,4.16,4.15,4.16s4.09-1.17,4.09-3.84v-14.4h6v14.73c0,5.26-3.58,9-10.28,9-5.08,0-10-2.65-10-8.3V158.66Z"/><path class="cls-1" d="M155.73,158.6h13.39v5.23h-7.34v3.74h6.92v5.09h-6.92v3.84h7.45v5.12H155.79Z"/><path class="cls-1" d="M192.16,158.6h9.33v23h-6V163.53h-3.31Z"/><path class="cls-1" d="M170.48,222.89s-20.58.38-30.72-11.17a.27.27,0,0,0-.07-.08v0h0a17.58,17.58,0,0,0-8.25-5,.79.79,0,0,0-.22-.06l-.38-.09a4,4,0,0,0-.57-.14h-.07a16.08,16.08,0,0,0-2.59-.32h-2.85l-.36.05-.54.07-.38.07-.51.1a2.83,2.83,0,0,0-.4.08l-.48.13-.41.1-.45.15a1.42,1.42,0,0,0-.4.12,2.23,2.23,0,0,1-.43.16l-.4.16-.44.19-.37.16-.44.2-.37.2-.39.22-.38.22-.38.23-.36.23-.37.25-.35.25-.35.27-.35.27a2.28,2.28,0,0,0-.33.29,1.69,1.69,0,0,0-.32.28,3.17,3.17,0,0,0-.34.3c-.09.1-.2.19-.29.29l-.34.34-.23.24h0c-.27.29-.51.58-.74.88-2.5,2.67-11.39,10.56-30,10.56h-31v1.17h31s20.54-.37,30.65,11.16l.1.1h0a17.72,17.72,0,0,0,8.27,5l.23.07a1,1,0,0,1,.37.1l.56.12h.06a16.31,16.31,0,0,0,2.61.31h3.2l.54-.08.39-.07a2.1,2.1,0,0,0,.5-.09,2.74,2.74,0,0,1,.39-.09l.51-.13.37-.1.49-.14a1,1,0,0,0,.38-.14l.47-.16.37-.15.45-.18.36-.18.44-.2.35-.19a3.62,3.62,0,0,0,.43-.24l.34-.19.42-.25.33-.21.39-.27.32-.23.4-.29a3.47,3.47,0,0,0,.29-.25l.39-.32c.1-.08.18-.16.28-.23a4.68,4.68,0,0,0,.39-.38l.24-.23c.14-.13.28-.28.39-.4l.19-.19h0c.26-.29.52-.58.75-.88,2.5-2.67,11.39-10.56,30-10.56h31v-1.22Zm-43.82,16.75a16.07,16.07,0,1,1,16.07-16.08h0a16.06,16.06,0,0,1-16,16.07h0Z"/><path class="cls-1" d="M116.13,213.44c.54-.43,4.59,2.22,8.64,6a10.12,10.12,0,0,0,2.52-2.14c2.34-2.48,2.28-4.36,3-4.19a.41.41,0,0,1,.38.26c.39,1.23-.15,3.29-.89,5.12a30.57,30.57,0,0,1-1.92,3.84,20,20,0,0,1,3.44,7.59,8.32,8.32,0,0,1-.48,5,.48.48,0,0,1-.39.28c-.52,0-.21-1.53-1.83-4.54a17.82,17.82,0,0,0-1.8-2.88c-1.81-2.3-1.79-2.11-1.79-2.11s-1.66,2.11-3.32,3.84c-.55.57-1.08,1-1.55,1.44s-1.12,1-1.6.81a.39.39,0,0,1-.24-.46c0-.25,2.82-3.84,2.88-8.27,0-2.88-2.68-6.34-4.12-8.11C116.32,214.14,115.68,213.83,116.13,213.44Z"/><circle class="cls-1" cx="134.91" cy="232.2" r="2.44"/><path class="cls-1" d="M123.22,216.06a2.25,2.25,0,1,1,2.27,2.23h0a2.24,2.24,0,0,1-2.24-2.22h0Z"/></svg>