<svg id="Layer_1" data-name="Layer 1" xmlns="http://www.w3.org/2000/svg" viewBox="0 0 250 250"><defs><style>.cls-1{fill:#fdfdfd;}</style></defs><path class="cls-1" d="M178.91,101c-5.55-8.89-12.77-8.33-15.55-6.66s-5,5.55-5,5.55-8.33,11.66-7.22,32.77,6.11,22.22,8.33,22.22h2.78s3.33.56,6.66-3.33,10.55-20.55,11.66-25S184.46,109.93,178.91,101Zm-1.32,13.8a1,1,0,0,1,.73,1.15l-.35,2a.92.92,0,1,1-1.81-.32l.35-2A1,1,0,0,1,177.59,114.84Zm-.1,5.77-.35,2a.92.92,0,1,1-1.81-.32l.35-2a.92.92,0,1,1,1.81.32Zm-3.27-6,.35-2a.92.92,0,1,1,1.81.32l-.35,2a.92.92,0,1,1-1.81-.32Zm.61,1.81a1,1,0,0,1,.73,1.15l-.35,2a.92.92,0,1,1-1.81-.32l.35-2A1,1,0,0,1,174.83,116.39Zm-.11,5.76-.35,2a.92.92,0,1,1-1.81-.32l.35-2a.92.92,0,1,1,1.81.32Zm-3.39-5.37.35-2a.92.92,0,1,1,1.81.32l-.35,2a.92.92,0,1,1-1.81-.32Zm.61,1.81a1,1,0,0,1,.73,1.15l-.35,2a.92.92,0,1,1-1.81-.32l.35-2A1,1,0,0,1,171.94,118.59Zm-.1,5.77-.35,2a.92.92,0,1,1-1.81-.32l.35-2a.92.92,0,1,1,1.81.32Zm-3.27-6,.35-2a.92.92,0,1,1,1.81.32l-.35,2a1,1,0,0,1-1.08.83A1,1,0,0,1,168.57,118.33Zm-.83,4.61.35-2a.92.92,0,1,1,1.81.32l-.35,2a.92.92,0,1,1-1.81-.32Zm-.1,5.77a1,1,0,0,1-.73-1.15l.35-2a.92.92,0,1,1,1.81.32l-.35,2A1,1,0,0,1,167.64,128.71Zm1.93,3.07a1,1,0,0,1-.73-1.15l.35-2A.92.92,0,1,1,171,129l-.35,2A1,1,0,0,1,169.57,131.78Zm3.5-.4-.35,2a.92.92,0,1,1-1.81-.32l.35-2a.92.92,0,1,1,1.81.32Zm-.61-1.81a1,1,0,0,1-.73-1.15l.35-2a.92.92,0,1,1,1.81.32l-.35,2A1,1,0,0,1,172.46,129.57Zm3.38.27-.35,2a.92.92,0,1,1-1.81-.32l.35-2a.92.92,0,1,1,1.81.32Zm-.61-1.81a1,1,0,0,1-.73-1.15l.35-2a.92.92,0,1,1,1.81.32l-.35,2A1,1,0,0,1,175.23,128Zm3.49-.4-.35,2a.92.92,0,1,1-1.81-.32l.35-2a.92.92,0,1,1,1.81.32Zm.83-4.61-.35,2a.92.92,0,1,1-1.81-.32l.35-2a.92.92,0,1,1,1.81.32Zm.83-4.62-.35,2a.92.92,0,1,1-1.81-.32l.35-2a.92.92,0,1,1,1.81.32Zm-41.6-44.56,5.66,6.06-4.56,4.21ZM153.36,45c-17.22-7.22-30-10-57.2,2.22C75.52,56.43,69.5,80.49,68.38,84.94s-.56,11.11-.56,11.11a86.71,86.71,0,0,1,20.55-1.67c10.55.56,18.88,1.11,37.21,14.44s25,35,25,35-3.89-20,2.22-36.1,11.11-16.66,13.88-16.66a18.68,18.68,0,0,1,3.94.51l9.39,5.6S183.9,60.5,153.36,45Zm-.78,49.22L147.76,89l2.74-2.53-1.83-1.93L137.5,94.92l-4.32-4.71-2.23-23,7-6.46,12.53,13.54,3.86-3.55,4.32,4.68-3.86,3.55,1.82,1.93,2.7-2.49,4.77,5.17ZM127.81,16.62A89.42,89.42,0,1,0,217.23,106,89.52,89.52,0,0,0,127.81,16.62Zm23.88,158.84L147.42,187a83.36,83.36,0,0,1-46.13-2,9.64,9.64,0,0,0,1.53-3.44c.56-2.78,2.22-6.66,4.44-11.11s7.22-11.66,13.88-21.1a33.39,33.39,0,0,1,16.11-12.22,20.54,20.54,0,0,1,3.33,5c1.67,3.33,9.44,21.1,11.11,26.1S151.69,175.46,151.69,175.46Zm-66.09-45c3.89,12.22,10,20,16.66,20.55s10.55-2.22,16.11-11.11c4.19-6.71,4.27-17.53,4.06-22.43A166.52,166.52,0,0,1,135,132.7s-8.33,3.89-13.88,8.89-15,21.66-15,21.66a189.32,189.32,0,0,1-17.77-21.1c-8.33-11.66-18.88-37.77-18.88-37.77s1.67-.56,12.22-1.11c1.54-.08,3.08-.1,4.61-.06a32.66,32.66,0,0,0-2.39,4.51C82.27,111.59,81.71,118.26,85.6,130.48Zm2.22-17.22a20.53,20.53,0,0,1,5-9.59,68.26,68.26,0,0,1,18.4,4.93,15.73,15.73,0,0,1,4.4,7.44c1.11,5,.56,15.55-3.89,23.33s-12.22,8.89-17.22,2.22S86.16,121,87.82,113.26Zm66.81,71.66c.13-.35.26-.73.4-1.13a39.56,39.56,0,0,0,2.19-9.36,183.1,183.1,0,0,0,11.69-16.74c7.22-11.66,7.78-18.33,7.78-18.33s-.56,1.11-3.33,7.22-6.66,7.78-6.66,7.78l-.56,2.22-1.67,2.22c-1.15,1.53-5.19,7.8-7.6,11.56a110.75,110.75,0,0,0-14.61-38.22c-12.22-20-28.88-30.55-40.54-34.43s-33.32,0-34.43,1.11-.56,7.78,0,11.11,3.89,8.89,13.88,27.77,20.55,29.44,20.55,29.44-1.11,1.11-2.78,7.22c-1,3.66-1.8,6.92-2.28,8.95a83.32,83.32,0,1,1,58,1.61Zm-9,10.54,6.66-1.67s-2.22,16.11-6.11,25-6.11,11.66-6.66,13.88-2.22,2.78-3.89,2.78-3.89-1.67-2.22-5,6.11-10,8.89-20.55S145.58,195.46,145.58,195.46Z"/></svg>