<svg id="Layer_1" data-name="Layer 1" xmlns="http://www.w3.org/2000/svg" viewBox="0 0 250 250"><defs><style>.cls-1{fill:#fff;}</style></defs><path class="cls-1" d="M74.32,45.36h0A45.15,45.15,0,0,1,63.18,58.14,44.88,44.88,0,0,0,74.32,45.36Z"/><path class="cls-1" d="M59.79,70.07a94,94,0,0,1,2.52,21h.07A92.85,92.85,0,0,0,59.79,70.07Z"/><path class="cls-1" d="M128.24,40.87a53.31,53.31,0,0,0,31.24,10.78h0a53.33,53.33,0,0,1-31.24-10.8A53.07,53.07,0,0,1,97,51.64a46.48,46.48,0,0,1-20.07-4.87A46.06,46.06,0,0,0,97,51.65,53,53,0,0,0,128.24,40.87Z"/><path class="cls-1" d="M87.68,205.46A65.47,65.47,0,0,1,56,186.35,65.29,65.29,0,0,0,87.7,205.5c17.52,4.46,29,5,36.67,8.71,0,0,.74.67,1.6,1.49l-1.62-1.53C116.65,210.42,105.24,209.92,87.68,205.46Z"/><path class="cls-1" d="M62.33,93.8c-.6,21.2-8,31.67-11.14,44.22l.13-.1C54.44,125.43,61.74,115,62.33,93.8Z"/><path class="cls-1" d="M78.12,147.19a5,5,0,0,0-4.76-5.2l-.14.1h.17a5,5,0,0,1,4.72,5.26v36.47h0V147.19Z"/><polygon class="cls-1" points="87.99 150.67 99.13 167.97 99.18 167.94 87.99 150.66 87.99 150.67"/><path class="cls-1" d="M71.29,33.47l-.11-.09c-7.62,20.85-24,24.17-24,24.17A83.85,83.85,0,0,1,54,84.6a84,84,0,0,0-6.65-27S63.67,54.32,71.29,33.47Z"/><path class="cls-1" d="M184.6,49.07h0c.44.62.89,1.23,1.36,1.82C185.49,50.3,185,49.69,184.6,49.07Z"/><polygon class="cls-1" points="139.77 108.58 139.77 91.73 149.31 84.51 149.31 84.42 139.67 91.73 139.67 108.55 128.7 116.87 128.7 116.96 139.77 108.58"/><path class="cls-1" d="M194.71,101.27A90.29,90.29,0,0,1,194.24,91a93.69,93.69,0,0,1,4.91-28.89L198.9,62a94.62,94.62,0,0,0-4.76,29A88.82,88.82,0,0,0,194.71,101.27Z"/><polygon class="cls-1" points="99.79 121.96 109.57 114.55 109.57 114.5 99.73 121.96 99.73 150.83 99.79 150.93 99.79 121.96"/><polygon class="cls-1" points="87.14 131.5 82.97 134.68 87.16 131.53 87.14 131.5"/><path class="cls-1" d="M118.61,116.67a.43.43,0,0,1,0-.16,5,5,0,0,0-4.81-5.14l-.19.14h.19a5,5,0,0,1,4.74,5.24v36.69l10.15-7.67h0l-10.08,7.62Z"/><path class="cls-1" d="M128.24,239.13s-10.12-11-11.56-12.55c-11-3.1-17.8-3.53-32.51-7.22-29.65-7.73-56.6-33.85-56.61-70.21h0c0,36.37,26.86,62.5,56.61,70.23,14.71,3.75,21.55,4.24,32.51,7.22l11.56,12.57,11.57-12.56c4.17-1.18,7.75-2,11.4-2.71-3.67.73-7.27,1.51-11.44,2.65Z"/><path class="cls-1" d="M185.3,33.39h0A41.54,41.54,0,0,1,159.5,43.6a46.44,46.44,0,0,1-31.26-13.32,46.48,46.48,0,0,0,31.28,13.31A41.56,41.56,0,0,0,185.3,33.39Z"/><path class="cls-1" d="M93.08,36c.4.07.81.13,1.21.18A6.32,6.32,0,0,0,93.08,36Z"/><path class="cls-1" d="M92.36,35.83l.57.12Z"/><path class="cls-1" d="M34.3,63.43,30,53.49l4.35,10A69.13,69.13,0,0,1,40.14,91h0A69.07,69.07,0,0,0,34.3,63.43Z"/><path class="cls-1" d="M97,29.13A31.66,31.66,0,0,0,118.39,20,31.68,31.68,0,0,1,97,29.13,26.71,26.71,0,0,1,80.1,22.18L75,18l5.08,4.23A26.5,26.5,0,0,0,97,29.13Z"/><path class="cls-1" d="M94.37,36.16a23.59,23.59,0,0,0,2.66.16A23.59,23.59,0,0,1,94.37,36.16Z"/><path class="cls-1" d="M34.78,149.25c0-16.06,5.51-24.76,9.23-36.5-3.77,11.74-9.35,20.44-9.35,36.49C34.66,176,52.84,204,86,212.46c5.74,1.46,10.82,2.5,15.37,3.4-4.51-.9-9.57-2-15.27-3.4C53,204,34.78,176,34.78,149.25Z"/><path class="cls-1" d="M120.72,220.4c-1.19-.43-2.45-.82-3.76-1.18,1.28.36,2.5.75,3.65,1.18,1,.95,7.63,8.25,7.63,8.25l.08-.08C127.58,227.75,121.68,221.26,120.72,220.4Z"/><path class="cls-1" d="M209.24,57.54a2.88,2.88,0,0,1-.4-.09l.4.1Z"/><path class="cls-1" d="M128.24,20.19s12.4,16.15,31.24,16.15c14.67,0,29-15,29-15h0v-.05c0-.05-14.41,15-29,15-18.86,0-31.24-16.12-31.24-16.12S115.84,36.32,97,36.32C115.86,36.32,128.24,20.19,128.24,20.19Z"/><path class="cls-1" d="M68,21.37h0C61.41,50.83,37.42,52.89,37.42,52.89a87.33,87.33,0,0,1,5.49,12.87,87,87,0,0,0-5.46-12.85S61.52,50.78,68,21.37Z"/><path class="cls-1" d="M219.07,52.86a32.69,32.69,0,0,1-12.8-4.7A33.11,33.11,0,0,0,219,53,.34.34,0,0,0,219.07,52.86Z"/><path class="cls-1" d="M195.11,104.4,78.05,193.07h0l117-88.63Z"/><path class="cls-1" d="M185.57,96.64a56.33,56.33,0,0,1,.3-5.8h0A56.18,56.18,0,0,0,185.57,96.64Z"/><path class="cls-1" d="M142.58,218.48c3.08-.73,6.51-1.4,10.35-2.15C149.09,217.08,145.66,217.74,142.58,218.48Z"/><path class="cls-1" d="M214.78,149.3c0-22.13-12.58-30.2-12.58-58.24h0c0,28,12.58,36.15,12.58,58.23,0,30.89-23.88,50.54-46,56.21-17.53,4.46-29,5-36.7,8.71,0,0-2.83,2.58-3.86,3.77-.25-.27-.59-.61-1-1,.38.38.73.74,1,1,1.05-1.19,3.87-3.77,3.87-3.77,7.7-3.75,19.16-4.25,36.7-8.71C190.78,199.86,214.78,180.18,214.78,149.3Z"/><path class="cls-1" d="M157.91,86.88h0a5,5,0,0,0-4.72-5.1A5,5,0,0,1,157.84,87v36.56h.07V87A.24.24,0,0,0,157.91,86.88Z"/><polygon class="cls-1" points="178.47 96.39 167.97 104.27 167.97 104.32 178.47 96.39"/><path class="cls-1" d="M216.31,91c0,25.78,12.58,30.92,12.58,58.08,0,36.36-26.87,62.49-56.59,70.22-6,1.53-10.68,2.52-14.91,3.36,4.22-.83,8.92-1.79,15-3.3,29.62-7.73,56.59-33.86,56.59-70.23,0-27.14-12.58-32.35-12.58-58.14Z"/><polygon class="cls-1" points="139.77 120.68 139.77 137.28 139.84 137.22 139.84 120.62 139.77 120.68"/><path class="cls-1" d="M167.89,70.42h0l-15,11.35H153Z"/><path class="cls-1" d="M166.71,197.58c-13.84,3.56-30.78,5.36-35.94,8.35a21.8,21.8,0,0,0-2.53,2.27l.09.1a22.23,22.23,0,0,1,2.58-2.37c5.11-3,22.1-4.79,36-8.35h0c19.23-5,39.93-22.15,39.93-48.33,0-13.11-5.72-21.65-9.41-34.78l-.22.17c3.72,13,9.36,21.61,9.36,34.61C206.64,175.42,186,192.66,166.71,197.58Z"/><path class="cls-1" d="M194.71,101.27A91,91,0,0,1,194.1,91a94.62,94.62,0,0,1,4.76-29A44.08,44.08,0,0,1,186,50.86c-.47-.59-.92-1.2-1.36-1.82L49.84,150.93c.6,20,13.51,34.53,28.21,42.14L195.11,104.4C195,103.36,194.83,102.31,194.71,101.27Zm-85.07,58.85L99.24,168V168h0L88.1,150.65v25.78l-9.87,7.46v-.1h0V147.37a5,5,0,0,0-4.7-5.28h-.29l.14-.1h-.14L83,134.71l4.17-3.18h0l12.53,19.33V122l9.84-7.46h.07ZM149.42,130l-9.58,7.34v-.09l-.07.05V120.68l-11,8.37v16.67h-.07l-10.15,7.67V116.8a5,5,0,0,0-4.69-5.29h-.24l.19-.14h-.11l15-11.35v16.87l11-8.32V91.73l9.64-7.31v.09l.11-.09Zm36.45-39.13c-.2,1.93-.29,3.87-.3,5.8a53.65,53.65,0,0,0,.3,5.8h0L157.94,123.6h-.07V87a5,5,0,0,0-4.63-5.25H153L168,70.4H168v33.9l10.5-7.87,7.4-5.59h0Z"/><path class="cls-1" d="M165.92,51.13a43.08,43.08,0,0,1-6.42.51h0a53.36,53.36,0,0,1-31.26-10.77A53,53,0,0,1,97,51.65a46.06,46.06,0,0,1-20.1-4.88q-1.32-.66-2.61-1.41A44.88,44.88,0,0,1,63.18,58.14,45.2,45.2,0,0,1,57.52,62c.88,2.67,1.63,5.38,2.27,8.11A92.47,92.47,0,0,1,62.38,91h0v2.78c-.59,21.15-7.89,31.63-11,44.12Z"/><path class="cls-1" d="M74.33,45.36h0q1.29.75,2.61,1.41Q75.6,46.11,74.33,45.36Z"/><path class="cls-1" d="M89.84,197.58c13.84,3.56,30.83,5.36,36,8.35a24.5,24.5,0,0,1,2.4,2.27,21.42,21.42,0,0,1,2.49-2.27c5.16-3,22.1-4.79,35.94-8.35,19.24-4.92,39.93-22.16,39.93-48.33,0-13-5.64-21.59-9.36-34.61l-109,82.52Z"/><path class="cls-1" d="M170.55,212.46h0c33.16-8.46,51.31-36.46,51.31-63.22,0-24.24-12.62-31.69-12.62-58.24A87.1,87.1,0,0,1,219,53a33.25,33.25,0,0,1-12.78-4.84C199.4,44,191.75,36.09,188.5,21.37h0s-14.37,15-29,15c-18.86,0-31.26-16.18-31.26-16.18S115.86,36.32,97,36.32a23.59,23.59,0,0,1-2.66-.16h-.08A7.22,7.22,0,0,1,93.08,36h-.15l-.57-.12C79.74,33.36,68.42,21.86,68,21.4,61.52,50.78,37.45,52.91,37.45,52.91a87,87,0,0,1,5.46,12.85A86.78,86.78,0,0,1,47.4,91,67.94,67.94,0,0,1,44,112.73c-3.72,11.74-9.23,20.44-9.23,36.5C34.78,176,53,204,86.09,212.44c5.7,1.45,10.76,2.5,15.27,3.4,6.12,1.2,11.24,2.13,15.6,3.36,1.31.36,2.57.75,3.76,1.18,1,.86,6.86,7.35,7.6,8.17.74-.82,6.65-7.31,7.62-8.17a59.21,59.21,0,0,1,6.64-1.92c3.08-.74,6.51-1.4,10.35-2.15C158,215.33,163.85,214.16,170.55,212.46Zm-38.45,1.75s-2.86,2.58-3.86,3.79a10.4,10.4,0,0,0-1-1L126,215.74c-.86-.82-1.6-1.49-1.6-1.49-7.7-3.75-19.15-4.25-36.67-8.71A65.29,65.29,0,0,1,56,186.39a54.34,54.34,0,0,1-14.34-37.1c0-22.16,12.59-30.23,12.59-58.29,0-2.15-.11-4.29-.27-6.42a84.08,84.08,0,0,0-6.8-27s16.38-3.32,24-24.17l.11.09v-.09A41.53,41.53,0,0,0,97,43.56a46.48,46.48,0,0,0,31.21-13.28,46.52,46.52,0,0,0,31.24,13.27,41.51,41.51,0,0,0,25.76-10.21h0c6.91,18.86,21,23.38,23.56,24.07a2.88,2.88,0,0,0,.4.09h0a84.1,84.1,0,0,0-7,33.5h0c0,28,12.58,36.11,12.58,58.24,0,30.88-24,50.56-46,56.2C151.24,210,139.8,210.46,132.1,214.21Z"/><path class="cls-1" d="M126,215.7l1.27,1.3Z"/><path class="cls-1" d="M225,64.81l8-18.51-19-5.65c-5.79-1.7-10-6.19-12.64-13.41L193,4.24,174.31,19.8a23.38,23.38,0,0,1-15,6.19,29,29,0,0,1-19.07-8.31l-12-12-12,12a28.86,28.86,0,0,1-19.18,8.26,23.53,23.53,0,0,1-15-6.19L63.41,4.15,55,27.15c-2.6,7.22-6.83,11.71-12.65,13.41l-19,5.7,8,18.46A65.48,65.48,0,0,1,37,91c0,24.87-12.62,30.55-12.62,58.14,0,39.82,30.56,65.91,59,73.26,14.35,3.5,18.68,3.75,31.63,7l13.24,14.48,13.21-14.34c13-3.21,17.29-3.45,31.64-6.94,28.4-7.39,59-33.45,59-73.26,0-27.62-12.61-33.31-12.61-58.15A65.5,65.5,0,0,1,225,64.81Zm3.89,84.35c0,36.37-27,62.5-56.59,70.23-6,1.51-10.73,2.47-15,3.3l-6.15,1.21c-3.65.74-7.23,1.53-11.4,2.71-1.44,1.54-11.57,12.56-11.57,12.56l-11.56-12.56c-11-3-17.8-3.47-32.51-7.22-29.75-7.73-56.61-33.86-56.61-70.23h0C27.56,122,40.14,116.79,40.14,91A69,69,0,0,0,34.3,63.45L30,53.45l-2.29-5.22L43.24,43.7C50,41.63,54.92,36.47,57.91,28.31L64.77,9.39,75,17.92l5.08,4.22a26.67,26.67,0,0,0,16.93,7A31.67,31.67,0,0,0,118.39,20l9.85-9.87,9.91,9.77a31.79,31.79,0,0,0,21.33,9.17,26.59,26.59,0,0,0,16.91-7L191.68,9.35l7,18.9c3,8.18,7.92,13.34,14.7,15.33L229,48.2l-6.64,15.15a68.86,68.86,0,0,0-6,27.63C216.35,116.81,228.93,122,228.93,149.16Z"/><path class="cls-1" d="M223.12,199.91a8.18,8.18,0,1,0,8.12,8.25v-.06a8.16,8.16,0,0,0-8.12-8.18h0m0,14.59a6.46,6.46,0,1,1,6.37-6.55h0v.16a6.38,6.38,0,0,1-6.29,6.46h-.06"/><path class="cls-1" d="M227.1,206.18a2.77,2.77,0,0,0-2.72-2.77h-4v9.28h1.75v-3.77h1.2l1.75,3.77h2l-1.81-3.9a2.76,2.76,0,0,0,1.85-2.6m-2.72,1h-2.16v-2.06h2.19a1,1,0,0,1,0,2"/></svg>