<svg id="Layer_1" data-name="Layer 1" xmlns="http://www.w3.org/2000/svg" viewBox="0 0 250 250"><defs><style>.cls-1{fill:#fdfdfd;}</style></defs><path class="cls-1" d="M120,200.52a2.86,2.86,0,0,1-3.14,2.9H113a.24.24,0,0,1-.24-.24V198.1c0-.23,0-.23.24-.23h3.87C118.77,197.85,120,199.06,120,200.52Zm53-.73-2.43,7.74h5.08l-2.43-7.74ZM202.52,45.07V203a34.08,34.08,0,0,1-34.08,34.08H85.26A34.08,34.08,0,0,1,51.18,203V45.07A34.08,34.08,0,0,1,85.26,11h83.18A34.08,34.08,0,0,1,202.52,45.07Zm-76.37,87.19v32.46l20.74-32.46Zm20.88-.73L142,117.4H126.15v14.13ZM127,164.83l53.14-32.57H147.76Zm18.18,16.33h37.5v-4.6h-37.5Zm-75-49.26H104l21.77-60.55L135.9,99.41H125.79L120,116.82h22.17l5.41,15.08h33.86L137.16,28.54h-23Zm55.27,32.83V132.27H104.68ZM103.8,132.26H71.43l53.19,32.57Zm21.62-.73V117.4h-6.26l6.26-18.32V73.44l-20.89,58.09Zm10-32.45-9.22-25.65V99.08ZM85.88,209.22c0-3.87-2.42-6-7.26-6.77l-1-.24c-2.42-.24-3.63-1-3.63-2.42,0-1.21,1.21-2.42,3.14-2.42a8.86,8.86,0,0,1,5.08,1.93c.24,0,.24,0,.49-.24l1.93-2.9c.24-.24.24-.49,0-.49a11.15,11.15,0,0,0-7.5-2.42,8.34,8.34,0,0,0-5.8,1.93A6.06,6.06,0,0,0,69.19,200c0,3.87,2.42,6,7,6.77H77.4c2.66.49,3.39,1.2,3.39,2.42,0,1.7-1.2,2.66-3.63,2.66a9.63,9.63,0,0,1-5.8-2.17.35.35,0,0,0-.49,0l-2.42,2.9v.49a11.49,11.49,0,0,0,3.63,2.18,16.83,16.83,0,0,0,4.83.72C82.49,216,85.88,213.33,85.88,209.22ZM104,194c0-.24,0-.24-.24-.24H89.5c-.49,0-.49,0-.49.24v21.53c0,.23,0,.23.49.23h14.27c.24,0,.24,0,.24-.23v-3.63c0-.24,0-.24-.24-.24H94.1c-.24,0-.24,0-.24-.24v-4.6h8.21c.24,0,.24-.24.24-.49v-3.39c0-.24,0-.24-.24-.24h-8a.24.24,0,0,1-.24-.24v-4.36c0-.24,0-.24.24-.24h9.67c.24,0,.24-.23.24-.48V194Zm2.41-17.43H68.93v4.6h37.5Zm.73,4.6H144.4v-4.6H107.16Zm18.14,34.36-4.6-8.71a6.71,6.71,0,0,0,1.94-11.13,8.67,8.67,0,0,0-5.57-1.93h-8.94c-.24,0-.24,0-.24.24v21.53c0,.23,0,.23.24.23h4.1c.49,0,.49,0,.49-.23v-8a.24.24,0,0,1,.24-.24h2.9l3.87,8.23c0,.24.24.24.49.24h4.6C125.3,215.75,125.3,215.52,125.3,215.52Zm8-21.53c0-.24,0-.24-.24-.24h-4.11c-.24,0-.24,0-.24.24v21.53c0,.23,0,.23.24.23h4.11c.24,0,.24,0,.24-.23Zm19.58,0a.24.24,0,0,0-.24-.24H138.12a.24.24,0,0,0-.24.24v21.53a.23.23,0,0,0,.24.23h14.51a.23.23,0,0,0,.24-.23v-3.63a.24.24,0,0,0-.24-.24H143a.24.24,0,0,1-.24-.24v-4.6h8.22a.53.53,0,0,0,.49-.49v-3.39c0-.24-.24-.24-.49-.24h-8l-.24-.24v-4.36a.24.24,0,0,1,.24-.24h9.67a.8.8,0,0,0,.24-.48Zm30.49,21.53L175.62,194c0-.24,0-.24-.49-.24h-3.87c-.49,0-.49,0-.49.24L163,215.52v.23h4.36c.49,0,.49,0,.49-.23l1.21-3.87h8l1.21,3.87c0,.23.24.23.49.23h4.11C183.36,215.75,183.36,215.75,183.36,215.52Z"/></svg>