<svg id="Layer_1" data-name="Layer 1" xmlns="http://www.w3.org/2000/svg" viewBox="0 0 250 250"><defs><style>.cls-1{fill:#fff;}.cls-2{fill:#343434;}</style></defs><g id="DRUGA_LIGA_LOGO" data-name="DRUGA LIGA LOGO"><path class="cls-1" d="M232.4,135.69,235.92,113H209.37l-1.55,10.22L203.15,113H178.23l-1.63,10.52h-3.21L175.08,113H159.44l-2.8,18.68L152.91,113h-14l-8,16.41a7.32,7.32,0,0,0,.2-3.45,14.33,14.33,0,0,0-5.47-10.23c-2.93-2.34-6.91-3.52-11.82-3.52h-.07a22.34,22.34,0,0,0-7.86,1.58,19.27,19.27,0,0,0-5,3l.57-3.82H86.15L83,133.65a10.65,10.65,0,0,1-.53,2.16,1.83,1.83,0,0,1-.4.72.33.33,0,0,1-.24.15,3.58,3.58,0,0,1-1.22.13,1.77,1.77,0,0,1-1.07-.27,2.1,2.1,0,0,1-.26-1.13,7.65,7.65,0,0,1,.09-.94L82.62,113H67.08l-.43,2.74-.42-.31C63.88,113.78,60.52,113,56,113H39.27l-1,6.86a12.57,12.57,0,0,0-2.19-2.74A13.87,13.87,0,0,0,30.89,114a19.3,19.3,0,0,0-6.13-1h-16L3.39,149.39H20.85c5.72,0,10.3-1.44,13.66-4.26l-.63,4.26h15.2l1.67-11h0a6,6,0,0,1,1.8.21,1.8,1.8,0,0,1,.34.17v.07a5,5,0,0,1,0,1.22l-.42,3a15.59,15.59,0,0,0-.14,2.26,11.13,11.13,0,0,0,.18,1.83l.5,2.24h15.5v-2.67c2.8,2.32,6.83,3.5,12,3.5a24,24,0,0,0,6.75-.85,14.07,14.07,0,0,0,5.45-2.92,13.63,13.63,0,0,0,3.51-4.66,15.27,15.27,0,0,0,2.49,3.66A14.31,14.31,0,0,0,103.9,149a16.72,16.72,0,0,0,6.48,1.21,15.6,15.6,0,0,0,5.74-1l.32-.12v.24h21.1l1.53-3.67h5.35l.46,3.67h24.63l1.71-12h3.21l-1.71,12h26.59l1.45-10.06,4.56,10.06h39l2-13.7Zm10.82,12.47H206.14l-6-13.16-1.9,13.16H174.16l1.72-12h-5.69l-1.72,12H146.08l-.47-3.66h-7.25l-1.53,3.66H117.6l-.09-.89a8.9,8.9,0,0,1-1.79.85,14.55,14.55,0,0,1-5.31.87,15.43,15.43,0,0,1-6-1.11,13.33,13.33,0,0,1-4.75-3.28,15.16,15.16,0,0,1-3-5c-.13-.36-.25-.74-.36-1.12a15.38,15.38,0,0,1-1,2.57A12.65,12.65,0,0,1,92,145.6a12.88,12.88,0,0,1-5,2.63,22.72,22.72,0,0,1-6.41.8c-5,0-8.78-1.13-11.37-3.36a10.85,10.85,0,0,1-2.57-3.29l-.1,1a3.7,3.7,0,0,0,0,.94l.83.36v3.5H54.08l-.29-1.28a8.4,8.4,0,0,1-.15-1.59,13.08,13.08,0,0,1,.13-2.07l.41-3a5.45,5.45,0,0,0,0-1.51,1.33,1.33,0,0,0-.28-.7,2,2,0,0,0-.82-.58,7.26,7.26,0,0,0-2.23-.28H49.73l-1.67,11H35.3l1-6.86a12.76,12.76,0,0,1-1.73,2.14c-3.18,3.15-7.8,4.74-13.72,4.74h-16l5-33.92h14.9a18.61,18.61,0,0,1,5.74.9,12.3,12.3,0,0,1,7.82,7.73,14,14,0,0,1,.49,1.64l1.53-10.3H56c4.31,0,7.44.73,9.58,2.22a7.38,7.38,0,0,1,1.94,2l.66-4.19h13l-3.08,20a7.36,7.36,0,0,0,0,1.15,2.86,2.86,0,0,0,.59,2,2.71,2.71,0,0,0,1.94.67,5.39,5.39,0,0,0,1.6-.18,1.49,1.49,0,0,0,.77-.48,2.8,2.8,0,0,0,.67-1.14,11.53,11.53,0,0,0,.59-2.4l3-19.63h12.85l-1,6.36q.66-.87,1.38-1.68a17,17,0,0,1,5.85-4,20.76,20.76,0,0,1,7.42-1.49h0a17.18,17.18,0,0,1,6.25.82,13.33,13.33,0,0,1,9.53,11.2,13.1,13.1,0,0,1,.08,3l-1.39,9.15,11.4-23.34h12.2l4.91,24.59,3.68-24.59h13.16l-1.72,10.53h5.72l1.62-10.53h23.08l6.14,13.14,2-13.25h24.09L231,136.84h13.89Z"/><path class="cls-2" d="M22.89,138.39a6.47,6.47,0,0,0,2.6-1.67,8,8,0,0,0,1.78-2.88,11.27,11.27,0,0,0,.67-4.19c0-2.26-.42-3.87-1.27-4.85s-2.4-1.46-4.66-1.46H19.78l-2.27,15.58h2.27A8.66,8.66,0,0,0,22.89,138.39ZM21.2,125h.88c1.7,0,2.92.32,3.43.9s.87,1.48.87,3.77a9.77,9.77,0,0,1-.56,3.6,6.4,6.4,0,0,1-1.43,2.32,4.88,4.88,0,0,1-2,1.28,7.18,7.18,0,0,1-2.56.43h-.37Z"/><path class="cls-2" d="M57.08,128.24a3,3,0,0,0,1.09-2.41,2.28,2.28,0,0,0-.91-2,5.21,5.21,0,0,0-3-.65H50.13L49.25,129h4.63A5.27,5.27,0,0,0,57.08,128.24Zm-5.57-3.42h2.76a3.72,3.72,0,0,1,2,.35c.07,0,.21.15.22.62a1.42,1.42,0,0,1-.43,1.14,3.81,3.81,0,0,1-2.25.42H51.15Z"/><path class="cls-2" d="M231,136.91l3.53-22.67H210.42l-2,13.25-6-13.25H179.28l-1.62,10.53h-5.72l1.72-10.53H160.5l-3.68,24.59-4.91-24.59h-12.2l-11.4,23.34,1.39-9.15a13.1,13.1,0,0,0-.08-3,13.34,13.34,0,0,0-9.54-11.19,17.18,17.18,0,0,0-6.25-.82h0a20.76,20.76,0,0,0-7.42,1.49,17,17,0,0,0-5.85,4q-.72.81-1.38,1.68l1-6.36h-13l-3,19.63a11.53,11.53,0,0,1-.59,2.4,2.8,2.8,0,0,1-.67,1.14,1.49,1.49,0,0,1-.77.48,5.39,5.39,0,0,1-1.6.18,2.71,2.71,0,0,1-1.94-.67,2.86,2.86,0,0,1-.59-2,11.45,11.45,0,0,1,.11-1.15l3.08-20h-13l-.74,4.22a7.38,7.38,0,0,0-1.94-2c-2.14-1.49-5.27-2.22-9.58-2.22H40.33L38.8,124.51a14,14,0,0,0-.49-1.64,12.3,12.3,0,0,0-7.82-7.73,18.61,18.61,0,0,0-5.74-.9H9.84l-5,33.92h16c5.92,0,10.54-1.59,13.72-4.74a12.2,12.2,0,0,0,1.74-2.12l-1,6.86H48.08l1.67-11h1.09a7,7,0,0,1,2.24.3A2,2,0,0,1,54,138a1.33,1.33,0,0,1,.28.7,5.45,5.45,0,0,1,0,1.51l-.41,3a13.08,13.08,0,0,0-.13,2.07,8.4,8.4,0,0,0,.15,1.59l.29,1.28H67.34v-3.5l-.83-.36a3.7,3.7,0,0,1,0-.94l.1-1a10.85,10.85,0,0,0,2.57,3.29c2.59,2.23,6.41,3.36,11.37,3.36a23.09,23.09,0,0,0,6.41-.8,12.88,12.88,0,0,0,5-2.63A12.65,12.65,0,0,0,95.3,141a15.38,15.38,0,0,0,1-2.57c.11.38.23.76.36,1.12a15.16,15.16,0,0,0,3,5,13.33,13.33,0,0,0,4.75,3.28,15.43,15.43,0,0,0,6,1.11,14.55,14.55,0,0,0,5.31-.87,8.9,8.9,0,0,0,1.79-.85l.09.89h19.17l1.53-3.66h7.25l.47,3.66h22.45l1.72-12h5.69l-1.72,12h24.11l1.9-13.16,6,13.16h37.06l1.63-11.25ZM33.41,142.24q-4.29,4.26-12.56,4.26H6.71l4.54-30.64h13.5a16.73,16.73,0,0,1,5.21.81,10.61,10.61,0,0,1,6.82,6.76,17.72,17.72,0,0,1,.95,6.16Q37.73,138.07,33.41,142.24Zm31.51,2.46a1.26,1.26,0,0,0,.79,1v.79H55.37a9,9,0,0,1-.12-1.27,10.84,10.84,0,0,1,.12-1.79l.41-3.06a7.55,7.55,0,0,0,0-1.9,3,3,0,0,0-.62-1.55,3.83,3.83,0,0,0-1.58-1.07,8.31,8.31,0,0,0-2.81-.39h-2.5l-1.67,11H37.19l4.55-30.64H56c3.92,0,6.81.64,8.65,1.92s2.75,3.38,2.75,6.28q0,6.18-5.84,8.72a5.09,5.09,0,0,1,3.13,2.92A9.39,9.39,0,0,1,65.2,140l-.33,3.11a5.29,5.29,0,0,0,0,1.59Zm30.5-10.2a20.93,20.93,0,0,1-1.62,5.81,11,11,0,0,1-7.31,6.29,20.92,20.92,0,0,1-6,.74q-6.87,0-10.3-3t-3.52-8.81v-1.48a13.76,13.76,0,0,1,.26-1.9l2.55-16.32h9.73L76.43,134a11.73,11.73,0,0,0-.14,1.43,4.36,4.36,0,0,0,1,3.06,4.26,4.26,0,0,0,3.11,1.21,6.79,6.79,0,0,0,2.11-.26,3,3,0,0,0,1.48-.9,4.38,4.38,0,0,0,1-1.72,13.08,13.08,0,0,0,.67-2.69l2.83-18.26h9.59Zm23.66,12-.23-2.31a10.18,10.18,0,0,1-3.71,2.38,13.12,13.12,0,0,1-4.73.77,13.88,13.88,0,0,1-5.4-1,11.44,11.44,0,0,1-4.17-2.91,13.34,13.34,0,0,1-2.71-4.5,18,18,0,0,1-1-5.91,22.06,22.06,0,0,1,1.2-7.42,16.59,16.59,0,0,1,3.41-5.61,15.62,15.62,0,0,1,5.3-3.56,19.29,19.29,0,0,1,6.83-1.37q6.41,0,10,2.9a11.72,11.72,0,0,1,4.17,8.47h-9a4.86,4.86,0,0,0-1.62-2.81,5.18,5.18,0,0,0-3.39-1,6,6,0,0,0-2.94.77,6.9,6.9,0,0,0-2.25,2.18,11.73,11.73,0,0,0-1.44,3.4,20.92,20.92,0,0,0-.55,4.45,7,7,0,0,0,1.39,4.78,5.31,5.31,0,0,0,4,1.67,5.6,5.6,0,0,0,3.11-.86,6.3,6.3,0,0,0,2.31-2.62h-4.21l1-6.3H127.8l-2.51,16.45Zm-1.48-18.07h-4.52l-1.56,9.69a3.67,3.67,0,0,1-2.08-1c-.86-.91-.91-2.06-1-3.68a13.92,13.92,0,0,1,.51-4.06,10.11,10.11,0,0,1,1.22-2.92,5.5,5.5,0,0,1,1.7-1.66,4.37,4.37,0,0,1,2.12-.54,3.81,3.81,0,0,1,2.34.66,3.5,3.5,0,0,1,1.26,2.65Zm29.86,18.09-.47-3.66h-9.78l-1.53,3.66h-9.92l15-30.64h9.82l6.12,30.64Zm28.59,0,1.71-12h-9l-1.72,12h-9.73l4.59-30.64h9.83l-1.65,10.57h9l1.62-10.52h9.78l-4.54,30.64Zm31.14,0L200,130.58l-.6-1.33-.23,1.51-2.27,15.76h-9.09l4.59-30.64h9l7.14,15.62.74,1.63.28-1.67,2.36-15.58H221l-4.69,30.66Zm34.61,0H218.08l4.68-30.64h9.83l-3.51,22.67H243Z"/><path class="cls-1" d="M36.78,123.45A10.64,10.64,0,0,0,30,116.7a16.73,16.73,0,0,0-5.21-.81H11.25L6.71,146.52H20.85q8.25,0,12.56-4.26c2.88-2.85,4.32-7.06,4.32-12.66A17.62,17.62,0,0,0,36.78,123.45Zm-17-.1h2.3c2.26,0,3.82.49,4.66,1.46S28,127.4,28,129.66a11.27,11.27,0,0,1-.67,4.19,8,8,0,0,1-1.78,2.88A6.47,6.47,0,0,1,23,138.4a8.66,8.66,0,0,1-3.11.53h-2.3Z"/><path class="cls-1" d="M65.2,140.08a9.39,9.39,0,0,0-.54-4.36,5.09,5.09,0,0,0-3.13-2.92q5.85-2.55,5.84-8.72c0-2.9-.91-5-2.75-6.28s-4.73-1.92-8.65-1.92H41.74l-4.55,30.64h9.46l1.67-11h2.5a8.31,8.31,0,0,1,2.81.39A3.83,3.83,0,0,1,55.21,137a3,3,0,0,1,.62,1.55,7.55,7.55,0,0,1,0,1.9l-.46,3a10.84,10.84,0,0,0-.12,1.79,9,9,0,0,0,.12,1.27H65.71v-.79a1.26,1.26,0,0,1-.79-1,4.91,4.91,0,0,1,0-1.53ZM50.13,123.16H54.3a5.21,5.21,0,0,1,3,.65,2.28,2.28,0,0,1,.91,2,3,3,0,0,1-1.13,2.43,5.3,5.3,0,0,1-3.23.74h-4.6Z"/><path class="cls-1" d="M98.2,115.88H88.6l-2.83,18.26a13.08,13.08,0,0,1-.67,2.69,4.38,4.38,0,0,1-1,1.72,3,3,0,0,1-1.48.9,6.79,6.79,0,0,1-2.11.26,4.26,4.26,0,0,1-3.11-1.21,4.36,4.36,0,0,1-1-3.06,11.54,11.54,0,0,1,.14-1.43l2.78-18.13H69.55l-2.47,16.36a13.76,13.76,0,0,0-.26,1.9v1.48q.09,5.85,3.52,8.81t10.3,3a20.92,20.92,0,0,0,6-.74A11,11,0,0,0,94,140.4a20.93,20.93,0,0,0,1.62-5.81Z"/><path class="cls-1" d="M127.8,130.07H114.45l-1,6.3h4.21a6.3,6.3,0,0,1-2.31,2.62,5.6,5.6,0,0,1-3.11.86,5.31,5.31,0,0,1-4-1.67,7,7,0,0,1-1.39-4.78,20.92,20.92,0,0,1,.55-4.45,11.73,11.73,0,0,1,1.44-3.4,6.9,6.9,0,0,1,2.25-2.18,6,6,0,0,1,2.94-.77,5.18,5.18,0,0,1,3.39,1,4.85,4.85,0,0,1,1.62,2.85h9a11.71,11.71,0,0,0-4.2-8.46q-3.65-2.89-10-2.9a19.34,19.34,0,0,0-6.8,1.36,15.66,15.66,0,0,0-5.29,3.59,16.59,16.59,0,0,0-3.41,5.61,22.06,22.06,0,0,0-1.2,7.42,18,18,0,0,0,1,5.91,13.34,13.34,0,0,0,2.71,4.5,11.42,11.42,0,0,0,4.17,2.87,13.88,13.88,0,0,0,5.4,1,13.12,13.12,0,0,0,4.73-.77,10.18,10.18,0,0,0,3.71-2.38l.23,2.31h6.21Z"/><path class="cls-1" d="M150.56,115.88h-9.82l-15,30.64h9.92l1.53-3.66h9.89l.47,3.66h9.22Zm-10.94,20.77,4.73-11.31L146,136.65Z"/><polygon class="cls-1" points="190.48 115.88 180.68 115.88 179.07 126.41 170.02 126.41 171.74 115.88 161.92 115.88 157.33 146.52 167.05 146.52 168.77 134.52 177.77 134.52 176.05 146.52 185.92 146.52 190.48 115.88"/><polygon class="cls-1" points="220.92 115.88 211.83 115.88 209.48 131.46 209.2 133.14 208.46 131.5 201.32 115.88 192.36 115.88 187.77 146.52 196.86 146.52 199.14 130.77 199.36 129.26 199.96 130.58 207.2 146.52 216.24 146.52 220.92 115.88"/><polygon class="cls-1" points="232.58 115.88 222.76 115.88 218.08 146.52 241.8 146.52 242.96 138.55 229.05 138.55 232.58 115.88"/></g><path class="cls-2" d="M145,137.16h-6.34a.49.49,0,0,1-.42-.23.55.55,0,0,1,0-.47l4.73-11.31a.52.52,0,0,1,.56-.44.5.5,0,0,1,.44.56h0l1.62,11.31a.44.44,0,0,1-.12.4A.45.45,0,0,1,145,137.16Zm-5.59-1h5l-1.3-8.92Z"/></svg>