<svg id="Layer_1" data-name="Layer 1" xmlns="http://www.w3.org/2000/svg" viewBox="0 0 250 250"><defs><style>.cls-1{fill:#fff;fill-rule:evenodd;}</style></defs><g id="Page-1"><g id="EHF_Primary_logo_1colour_neg" data-name="EHF Primary logo 1colour neg"><path id="Fill-1" class="cls-1" d="M210.58,128.8V100l23.88-6V78.37l-23.88,5.92V69.14l34.62-8.63V43.89l-60,14.9L188.53,63V129.2l-3.31,5.86ZM5.13,203.55l230-32.9,10.1-31.07L3.86,199.67ZM145,140.09V114.62L115.41,122v30.52l-25.55,6.37L93.17,153V86.77l-3.31-4.14,25.57-6.37v30L145,98.9v-25l-3.34-4.19,25.41-6.34v76.24L141.64,146ZM74.64,162.65V146.52L65,148.92l-24,6V140.53l24-6V118.77l-24,6,.4-13.39,28.48-7.19,4.83-1.2V86.37l-59.08,14.7,3.31,4.19v66.22l-3.35,5.89,59.11-14.74Z"/></g></g></svg>