<svg id="Layer_1" data-name="Layer 1" xmlns="http://www.w3.org/2000/svg" viewBox="0 0 250 250"><defs><style>.cls-1{fill:#fff;}</style></defs><g id="g3117"><g id="g3123"><path id="path3125" class="cls-1" d="M112.94,209.29a18.07,18.07,0,1,0-18,19.43,12.63,12.63,0,0,0,1.63-.05v-1.36a13.32,13.32,0,0,1,.08-1.68c-.54.06-1.08.09-1.62.1a15.05,15.05,0,1,1,15-15.9v.85a15.68,15.68,0,0,1-.21,2.36,15,15,0,0,1-10.08,11.9,15.57,15.57,0,0,0-.2,2.37v.84a18.08,18.08,0,0,0,13.38-15.8,15.68,15.68,0,0,0,.08-1.67v-1.37"/></g><g id="g3127"><path id="path3129" class="cls-1" d="M129.57,228.2a15,15,0,0,1-30-.07h0v-.84a15.57,15.57,0,0,1,.2-2.37,15,15,0,0,1,10-11.9,15.68,15.68,0,0,0,.21-2.36,4,4,0,0,0,0-.85,18.07,18.07,0,0,0-13.41,15.8c0,.55-.08,1.11-.08,1.68v1.38a18.06,18.06,0,0,0,36,.05,19.17,19.17,0,0,1-3-.5m-16.56-15.87a15.71,15.71,0,0,0,.09-1.67,10.39,10.39,0,0,0-.06-1.37c.52,0,1.06-.07,1.59-.07a9.49,9.49,0,0,1,1.51.07,16.07,16.07,0,0,1,3,.5,18,18,0,0,1,13.51,15.86,16,16,0,0,1-3.14-.67,15,15,0,0,0-10.2-12,12.83,12.83,0,0,0-3.13-.66c-.51-.05-1-.08-1.53-.08a14.66,14.66,0,0,0-1.62.09"/></g><g id="g3131"><path id="path3133" class="cls-1" d="M152.05,209.24a18.06,18.06,0,0,0-36,0,15.16,15.16,0,0,1,3,.5,15,15,0,1,1,30,0c0,.31,0,.62,0,.94a15.66,15.66,0,0,1-.19,2.26,15.09,15.09,0,0,1-10.08,12,14.16,14.16,0,0,0-.19,2.26v.94A18.1,18.1,0,0,0,152,212.3c0-.52.07-1,.07-1.57a11.88,11.88,0,0,0-.06-1.47m-16.37,16.41c0,.52-.07,1-.07,1.57a10.34,10.34,0,0,0,.07,1.47c-.54,0-1.08.07-1.63.07a12.71,12.71,0,0,1-1.51-.06,19.19,19.19,0,0,1-3-.51A18,18,0,0,1,116,212.33a13.84,13.84,0,0,1,3.13.66,15,15,0,0,0,10.2,12,16,16,0,0,0,3.14.67c.51,0,1,.07,1.52.07a14.7,14.7,0,0,0,1.63-.09"/></g><g id="g3135"><path id="path3137" class="cls-1" d="M168.68,228.16a15,15,0,1,1-30,0v-.94a13.41,13.41,0,0,1,.15-2.2,15,15,0,0,1,10.09-12,15.66,15.66,0,0,0,.19-2.26,4.92,4.92,0,0,0,0-.94,18.06,18.06,0,0,0-13.42,15.85c0,.52-.07,1-.07,1.57a10.34,10.34,0,0,0,.07,1.47,18.06,18.06,0,0,0,36,0,21.83,21.83,0,0,1-3-.5m-16.64-15.84c0-.52.07-1,.07-1.57a11.8,11.8,0,0,0-.06-1.46c.54,0,1.08-.08,1.63-.08a9.42,9.42,0,0,1,1.5.07,15.16,15.16,0,0,1,3,.5,18.07,18.07,0,0,1,13.48,15.89,16,16,0,0,1-3.14-.67,15,15,0,0,0-10.2-12,12.83,12.83,0,0,0-3.13-.66,9.62,9.62,0,0,0-1.52-.08,15,15,0,0,0-1.64.09"/></g><g id="g3139"><path id="path3141" class="cls-1" d="M173.19,192.59a18.06,18.06,0,0,0-18,16.65,16,16,0,0,1,3,.49,15,15,0,1,1,15,16,11.06,11.06,0,0,1-1.52-.08,16.86,16.86,0,0,1-3.14-.66,15.1,15.1,0,0,1-10.2-12,12.83,12.83,0,0,0-3.13-.66,18.1,18.1,0,0,0,13.48,15.89,20.41,20.41,0,0,0,3,.5c.5,0,1,.06,1.51.06a18.07,18.07,0,1,0,.85-36.13h-.85"/></g></g><path id="path3219" class="cls-1" d="M87.18,149.59a4.12,4.12,0,0,1,4-4,3.78,3.78,0,0,1,3.76,3.81h0v.18a4.13,4.13,0,0,1-4,4,3.82,3.82,0,0,1-3.76-3.83.48.48,0,0,0,0-.17M115.72,171c-4.38.07-8.57-6.82-8.2-11.31.16-2,1.26-3.56,3.59-3.55,4.43,0,8.29,6.17,8.13,10.36-.08,2.27-1,4.46-3.52,4.5m-1.91-21a11,11,0,0,0-9.36,5.1c-1.16,1.66-2.82,4.55-4.68,7.8-2.4,4.19-4.81,8.34-6.52,8.31-1.07,0-1.38-1-1.44-2.28-.14-3.2.06-6.37,0-9.57,0-.89,0-1.57-.6-2a3.5,3.5,0,0,0-4.43,1c-2.73,3.51-5.41,7.26-8.48,10.49a6.34,6.34,0,0,1-4.61,2.37c-1.24,0-2.06-.19-3.35-1.71a29.53,29.53,0,0,1-4-7.09c-.1-.26,0-.33.14-.36,7-2,15.52-6.59,15.4-15.39-.09-6-4.55-9.82-10.59-10a20.21,20.21,0,0,0-17.23,8.73c-6.49,9.31-5.23,21.31-3.33,29.6a2,2,0,0,0,2.1,1.52c2.31,0,5-2.8,4.4-5.14-3.3-12.24-2.45-19.15.77-23.61a12.7,12.7,0,0,1,9.92-5c4.07,0,8.39,1.77,8.27,6.49-.14,5.84-7.54,7.64-12.24,8.1a4.63,4.63,0,0,0-3.4,1.68c-1.08,1.44-1,3.2-.46,5a33.12,33.12,0,0,0,4.07,8.4c1.45,2.32,4,4.71,7,4.86,4.41.22,7-2.51,9.49-5.18,1.66-1.81,3-3.62,4.63-5.53.11-.13.16-.07.16,0-.07,4.81,0,10.81,5.59,10.67,3-.07,5.11-2.26,6.86-4.41a48.48,48.48,0,0,0,4-6.13c.1-.13.15-.19.2,0,1.19,5.16,5.51,10.4,11.13,10.53,7.61.17,12.34-8,11.86-14.6-.41-5.86-4.79-12.45-11.23-12.68M164.57,171c-5.13,0-8.45-4.45-8.46-9.06,0-3.38,1.9-5.85,5.47-5.86,5.13,0,8.53,4.53,8.54,9.15,0,3.37-2,5.76-5.55,5.77m-.14-21c-7,0-12.63,6-13.86,12.56a9.35,9.35,0,0,1-3.43,5.85,11.79,11.79,0,0,1-8.12,2.91c-1.45,0-3.8-.47-4.11-2.34-.18-1.08.69-2.14,1.47-2.93,1.43-1.46,2.5-2.37,4-3.78a68.29,68.29,0,0,0,6.72-6.89c2.37-3,4.06-6.29,3.87-9.69-.3-5.29-4.22-8.72-9.75-8.7a15.47,15.47,0,0,0-10.2,4,6.42,6.42,0,0,0-1.54,2,4,4,0,0,0-.47,1.82,1.89,1.89,0,0,0,1.8,1.8,3.67,3.67,0,0,0,2.21-1,9.73,9.73,0,0,1,5.71-2.54c4.08-.16,6,2.43,6.1,5.19a8.41,8.41,0,0,1-2.13,5.59,46.85,46.85,0,0,1-5.58,5.6c-1.84,1.67-3.49,3.09-5.16,4.82-2,2.07-3.53,4.11-3.41,6.93.17,4.07,4.28,6,7.78,6.06,5.68.05,11.23-3.2,14.93-7.31.06-.06.1-.1.14,0a11.53,11.53,0,0,0,10.48,7.29c7.92,0,14.07-7.82,14-15.2-.1-6.24-4.94-12.11-11.44-12.08m48.09,18.63a5,5,0,0,1-4.13,2.44c-5,.26-8.2-3.91-9.1-8.84a12.78,12.78,0,0,1,6.57-2,7.3,7.3,0,0,1,5.71,2.6,5.3,5.3,0,0,1,.95,5.78m-4-14.57a17.37,17.37,0,0,0-9.37,2.85c1.34-5.34,5.11-9.4,10-12.34,1.7-1,3.42-2,4.13-3.92.39-1.06.28-2.64-1.16-2.75a5.35,5.35,0,0,0-2.83,1c-8.39,4.72-14.77,12.36-16.05,22a66.65,66.65,0,0,0-6.21,7h0V150.38c0-1.2-.69-1.67-1.54-1.65a5.6,5.6,0,0,0-2.36.88l-4,2.52c-1.3.82-1.78,1.48-1.67,2.57.2,1.87,2.3,2.1,3.84,1.21v19.4a1.42,1.42,0,0,0,1.22,1.56h.12a3.48,3.48,0,0,0,2.35-1.26c2.62-2.61,5.34-6.13,8.56-9.24,1.16,5.86,5.72,10.83,12.09,10.83,7.08,0,12.93-6.73,12.89-13.35a10,10,0,0,0-10-9.84"/><g id="g3035"><g id="g3143"><g id="g3145"><g id="g3151"><g id="g3153"><path id="path3163" class="cls-1" d="M117.23,6a11.14,11.14,0,0,0-1.73.08c-6.67.57-12.88,3.57-18.67,7.57C78.42,26.24,63.73,50.44,60.57,72.91c-1.42,9.87-1,19.79,2.89,28.85,6.87,14.37,23.33,13.52,33.57,6.37,5.09-3.55,9.87-8,14.49-11.91,1.42-1.22,2.83-2.31,4.18-3.34,3.1,3.2,6.44,6.69,10.15,10.61,15,15.91,32,22.15,46.64,22.35,19,.25,39.28-12.38,39.3-33.92,0-19-17-37-33.12-42.6a38.13,38.13,0,0,0-4.15-1.39A80.36,80.36,0,0,0,156,45c-2.42-.11-2.83-.14-5.65-.11-1,0-3.2.13-3.61.11-.64,0-1-.33-.69-1.3,1.68-4.74.66-8.67-3.15-9.61s-6.31,3-7.34,5.11c-.66,1.44-2,2.17-1.69-.23,1-9.43-1.25-24.24-7.49-30A13.66,13.66,0,0,0,117.23,6Zm-1.81,4.84h1a10.61,10.61,0,0,1,2.38.35c10.43,2.44,8.35,31.92.77,51.51a95.62,95.62,0,0,1-5.15,10.76c-4.59-7.21-9.72-13.87-17.85-19.4a1.87,1.87,0,0,1-1-1.41c0-1.16.82-1.31,1.65-4.11,1-3.37.87-7.27-2.76-8.46-2.84-.93-5,.12-6.8,2.19-.42.51-.9,1.69-1.35,1.27-.41-.21.32-2.07.46-2.49a63.31,63.31,0,0,1,14-22.17l.12-.08c4.79-4.4,9.43-7.75,14.44-8Zm47.91,42.72a46.24,46.24,0,0,1,9.53,1c10.71,2.3,26.14,10.47,25.78,23.09v.11h0c-.51,3-1.14,3.64-2.89,2.19s-4.88-2.38-7.1,0c-3.88,4.06-.56,9.49-1.89,16.06-8.5.08-19.49-3.15-28.54-8.22-11-6.14-17.41-14.67-16.65-21.9.91-9.24,11.64-12.4,21.76-12.33Zm27.24,4.5c.57.59,1.12,1.15,1.65,1.76a31.62,31.62,0,0,1,2.8,3.81,31.62,31.62,0,0,0-2.8-3.81A19.18,19.18,0,0,0,190.57,58.08ZM90.49,74.21c5.34-.19,9.55,3.24,17.13,10.53-7.46,11.13-16.79,21.33-24.12,21.13-3.62-.1-5.29-2.09-6.57-4.69a.41.41,0,0,0-.08-.19C73.13,91.23,77.32,76.57,88,74.6A13.27,13.27,0,0,1,90.49,74.21ZM133,85.77c5.49.12,11.23,2.65,17.94,8.11a178.54,178.54,0,0,1,17.61,17.4,52,52,0,0,1-18.37-.5,34.16,34.16,0,0,1-10.41-4.45c-6.69-4.34-12-11-16.52-18.25A21.17,21.17,0,0,1,133,85.77Zm-20.45,3.5c2.29,2,4.48,3.91,6.61,5.65C117,93.18,114.83,91.3,112.57,89.27Zm32.08,20.21c.48.14,1,.25,1.46.38C145.62,109.73,145.11,109.62,144.65,109.48Zm27.62.92c-.56.17-1.14.32-1.73.46s-1.15.28-1.76.39c.59-.11,1.19-.25,1.76-.39s1.13-.29,1.7-.46Z"/></g></g></g></g><path id="path3185" class="cls-1" d="M115.57,6.11c-6.74.56-13,3.56-18.74,7.56h0C78.41,26.23,63.75,50.45,60.57,72.91h0c-1.42,9.88-1,19.77,2.85,28.83h0c6.87,14.37,23.35,13.54,33.59,6.4h0c-26.57,10.1-27.17-30.2-9-33.56h0C95,73,99.3,76.66,109,86.13h0c9.52,8.7,17.49,15,25.09,19.15h0a57.93,57.93,0,0,0,16.47,5.61h0a34.21,34.21,0,0,1-10.93-4.55h0C132.9,102,127.53,95.2,123.05,87.93h0c-7.79-12.63-13.21-24.75-26.48-33.84h0c-.63-.43-1.06-.88-1-1.38h0c0-1.16.82-1.33,1.65-4.13h0c1-3.36.89-7.26-2.74-8.44h0c-2.84-.94-5,.13-6.81,2.2h0c-.42.5-.89,1.66-1.33,1.25h0c-.41-.22.32-2.09.46-2.51h0c4.63-12.56,14-24.47,25.68-31.2h0c5-2.87,9.59-3.59,13.93-.81h0a13.68,13.68,0,0,0-9.15-3h0a12.37,12.37,0,0,0-1.72.07"/><path id="path3207" class="cls-1" d="M198.63,77.89c-.51,3-1.12,3.65-2.87,2.2h0c-1.82-1.51-4.87-2.38-7.09,0h0c-5.44,5.7,3.31,14.11-6.53,24.55h0c-10.87,11.55-35.38,7.56-48,.69h0c-7.57-4.13-15.57-10.45-25.09-19.15h0c4.54,4.56,10.2,10.43,16.74,17.35h0c15,15.92,32.05,22.16,46.66,22.37h0c19,.25,39.27-12.38,39.29-33.91h0c0-19-17-37.06-33.1-42.63h0c11.79,5.85,21.85,17.72,20,28.58"/></g><path id="path3219-5" class="cls-1" d="M232,177.21l-.55-3.84c-.1-.7-.16-1.2-.19-1.51h0c-.06.22-.15.55-.29.94l-1.49,4.41h-.66l-1.42-4.14c-.16-.45-.27-.86-.36-1.21h0a13.74,13.74,0,0,1-.16,1.56l-.45,3.79h-.61l.83-5.93h.74l1.44,4.22c.09.3.23.73.34,1.13h0a9.15,9.15,0,0,1,.33-1l1.47-4.3h.77l.87,5.93Zm-9.2-5.47v5.47h-.56v-5.47h-1.84v-.46h4.24v.46Z"/></svg>